<svg xmlns="http://www.w3.org/2000/svg" width="384" height="445" viewBox="0 0 384 445">
    <defs>
        <linearGradient id="linear-gradient" x1=".583" x2=".081" y1=".397" y2="1.017" gradientUnits="objectBoundingBox">
            <stop offset="0" stop-color="#8991d7"/>
            <stop offset="1" stop-color="#026291"/>
        </linearGradient>
        <linearGradient id="linear-gradient-2" x1=".5" x2=".5" y2="1" gradientUnits="objectBoundingBox">
            <stop offset="0" stop-color="#1b4d94"/>
            <stop offset="1" stop-color="#95c4de"/>
        </linearGradient>
        <linearGradient id="linear-gradient-3" x1=".606" x2=".715" y1=".5" y2=".5" gradientUnits="objectBoundingBox">
            <stop offset="0" stop-color="#c0b9c8"/>
            <stop offset="1" stop-color="#e0dbe1"/>
        </linearGradient>
        <clipPath id="clip-path">
            <path id="Path_9087" d="M164.851 307.434l-8.147 4.691c-.947.547-1.715.22-1.715-.727a3.564 3.564 0 0 1 1.72-2.711l8.144-4.687c.95-.547 1.717-.221 1.717.726a3.564 3.564 0 0 1-1.719 2.708z" class="cls-1" data-name="Path 9087" transform="translate(-154.989 -303.731)"/>
        </clipPath>
        <filter id="Rectangle_1625" width="384" height="445" x="0" y="0" filterUnits="userSpaceOnUse">
            <feOffset dx="5" dy="5"/>
            <feGaussianBlur result="blur" stdDeviation="7.5"/>
            <feFlood flood-opacity=".161"/>
            <feComposite in2="blur" operator="in"/>
            <feComposite in="SourceGraphic"/>
        </filter>
        <style>
            .cls-1{fill:#262424}.cls-2{fill:#fff}.cls-8{fill:#353131}.cls-9{fill:#191414}.cls-10{fill:#f9f7fb}.cls-11{fill:#c0b9c8}.cls-12{fill:#cfd5d5;opacity:.1}.cls-18{fill:#4172ab}.cls-19{fill:#83b3d3}.cls-23{fill:#6780ff}.cls-26{fill:#ffd91f}.cls-28{fill:#8452ff}.cls-30{fill:#1a67ae}.cls-32{fill:#95c4de}
        </style>
    </defs>
    <g id="Group_20006" data-name="Group 20006" transform="translate(-149.5 -2669.5)">
        <g filter="url(#Rectangle_1625)" transform="translate(149.5 2669.5)">
            <rect id="Rectangle_1625-2" width="339" height="400" class="cls-2" data-name="Rectangle 1625" rx="8" transform="translate(17.5 17.5)"/>
        </g>
        <rect id="Rectangle_1618" width="339" height="400" fill="url(#linear-gradient)" data-name="Rectangle 1618" opacity="0.9" rx="8" transform="translate(167 2687)"/>
        <text id="Customised_Risk_Cover" fill="#fff" data-name="Customised Risk Cover" font-family="NunitoSans-SemiBold, Nunito Sans" font-size="28px" font-weight="600" transform="translate(223 3003)">
            <tspan x="0" y="0">Customised Risk </tspan><tspan x="0" y="38">Cover</tspan>
        </text>
        <g id="Group_20005" data-name="Group 20005">
            <g id="Group_1727" data-name="Group 1727" transform="translate(220.896 2713.349)">
                <path id="Path_9070" fill="#0d3482" d="M176.457 265.33c-4.558-2.649-10.993-3.513-16.854-2.667-5.85-.846-12.3.018-16.89 2.67l-60.03 34.675c-6.958 4.019-6.992 10.541-.078 14.56l138.178 79.7a25.527 25.527 0 0 0 12.889 2.978h7.918l1.372-93.559z" data-name="Path 9070" transform="translate(-77.442 -186.793)" style="isolation:isolate;mix-blend-mode:multiply" opacity="0.4"/>
                <path id="Path_9071" fill="url(#linear-gradient-2)" d="M298.117 353.566L231.4 392.088a3.919 3.919 0 0 1-3.92 0L84.778 309.7c-2.613-1.507-5.871-5.137-1.878-9.636l61.286-35.871c4.673-2.812 11.488-4.558 16.9-3.868 2.4.3 5.394.893 6.753 1.679l133.744 77.03c5.623 3.246 2.162 11.281-3.466 14.532z" data-name="Path 9071" transform="translate(-71.721 -190.265)"/>
                <path id="Path_9072" fill="url(#linear-gradient-3)" d="M314.513 322.205c.008 2.654-1.743 5.308-5.246 7.332l-60.031 34.675c-6.958 4.019-18.211 4.027-25.135 0L85.923 284.51c-3.435-2-5.155-4.61-5.163-7.228l.026 6.276c.008 2.618 1.73 5.231 5.166 7.228l138.178 79.7c6.925 4.021 18.177 4.014 25.135-.005l60.035-34.668c3.5-2.024 5.254-4.68 5.246-7.332z" data-name="Path 9072" transform="translate(-72.152 -162.986)"/>
                <path id="Path_9073" d="M309.348 342.645l-138.181-79.7c-6.914-4.016-18.174-4.016-25.135 0L86 297.618c-6.958 4.019-6.992 10.541-.078 14.56l138.178 79.7c6.925 4.024 18.177 4.016 25.135-.005l60.031-34.672c6.959-4.014 7.006-10.532.082-14.556zM221.94 388.1L84.831 308.969a4.923 4.923 0 0 1 0-8.525l15.481-8.938a2.21 2.21 0 0 1 .861-.285l11.9-1.391a1.7 1.7 0 0 0 .641-.213l18.711-10.811a1.78 1.78 0 0 0 .659-.664l4.483-7.96a1.2 1.2 0 0 1 .451-.459l9.516-5.5a22.593 22.593 0 0 1 22.593 0L302.459 340.6a1.69 1.69 0 0 1 0 2.927L225.29 388.1a3.344 3.344 0 0 1-3.35 0z" class="cls-8" data-name="Path 9073" transform="translate(-72.152 -190.654)"/>
                <g id="Group_1678" data-name="Group 1678" transform="translate(189.332 172.514)">
                    <path id="Path_9074" d="M170.392 302.46l-3.539-2.042a7.386 7.386 0 0 0-6.738.252l-7.882 4.553a4.007 4.007 0 0 0-1.492 1.4 2.3 2.3 0 0 0 1.056 3.259l3.539 2.042a7.386 7.386 0 0 0 6.738-.252l7.882-4.556a3.967 3.967 0 0 0 1.492-1.4 2.3 2.3 0 0 0-1.056-3.256z" class="cls-1" data-name="Path 9074" transform="translate(-150.417 -299.721)"/>
                    <path id="Path_9075" d="M170.42 302.792l-3.554-2.052a7.416 7.416 0 0 0-6.772.254l-7.921 4.577a4.023 4.023 0 0 0-1.5 1.4 2.3 2.3 0 0 0-.246.724 2.56 2.56 0 0 0 1.308 1.72l3.56 2.052a7.4 7.4 0 0 0 6.769-.254l7.921-4.574a4.05 4.05 0 0 0 1.5-1.406 2.282 2.282 0 0 0 .246-.724 2.557 2.557 0 0 0-1.311-1.717z" class="cls-8" data-name="Path 9075" transform="translate(-150.401 -299.215)"/>
                </g>
                <path id="Path_9076" d="M106.553 266.554l-12.508 7.223c-.69.4-.763 1-.166 1.344a2.587 2.587 0 0 0 2.327-.1l12.508-7.223c.688-.4.763-1 .166-1.344a2.587 2.587 0 0 0-2.327.1z" class="cls-9" data-name="Path 9076" transform="translate(-51.878 -180.615)"/>
                <g id="Group_1681" data-name="Group 1681" transform="translate(22.961 129.906)">
                    <g id="Group_1679" data-name="Group 1679">
                        <path id="Path_9077" d="M101.6 291.963a3.824 3.824 0 0 0-.521-1 2.982 2.982 0 0 0-.885-.825l-11.488-6.628a1.1 1.1 0 0 0-1.1-.109l-1.136.654a1.1 1.1 0 0 1 1.1.109l11.483 6.629a2.937 2.937 0 0 1 .885.822 3.8 3.8 0 0 1 .521 1 2.75 2.75 0 0 1 .156.882v.5a1.1 1.1 0 0 1-.464 1.017l1.136-.654a1.1 1.1 0 0 0 .467-1.017v-.5a2.781 2.781 0 0 0-.154-.88z" class="cls-10" data-name="Path 9077" transform="translate(-86.008 -283.299)"/>
                        <path id="Path_9078" d="M99.337 290.391l-11.483-6.629c-.869-.5-1.562-.091-1.562.913v.5a3.447 3.447 0 0 0 1.562 2.706l11.483 6.629c.859.49 1.562.08 1.562-.913v-.5a3.44 3.44 0 0 0-1.562-2.706z" class="cls-11" data-name="Path 9078" transform="translate(-86.292 -282.897)"/>
                    </g>
                    <g id="Group_1680" data-name="Group 1680" transform="translate(17.518 10.116)">
                        <path id="Path_9079" d="M108.35 295.862a3.731 3.731 0 0 0-.524-1 2.933 2.933 0 0 0-.882-.822l-11.483-6.629a1.106 1.106 0 0 0-1.1-.109l-1.136.651a1.1 1.1 0 0 1 1.1.109l11.486 6.629a2.972 2.972 0 0 1 .882.825 3.672 3.672 0 0 1 .521 1 2.782 2.782 0 0 1 .158.882v.5a1.1 1.1 0 0 1-.464 1.017l1.136-.651a1.1 1.1 0 0 0 .464-1.017v-.5a2.824 2.824 0 0 0-.158-.885z" class="cls-10" data-name="Path 9079" transform="translate(-92.76 -287.198)"/>
                        <path id="Path_9080" d="M106.092 294.289l-11.486-6.629c-.867-.5-1.562-.091-1.562.916v.5a3.435 3.435 0 0 0 1.564 2.706l11.483 6.629c.859.493 1.562.08 1.562-.913v-.5a3.444 3.444 0 0 0-1.561-2.709z" class="cls-11" data-name="Path 9080" transform="translate(-93.044 -286.797)"/>
                    </g>
                </g>
                <g id="Group_1684" data-name="Group 1684" transform="translate(36.116 95.411)">
                    <g id="Group_1682" data-name="Group 1682">
                        <path id="Path_9081" d="M95.045 272.138a3.369 3.369 0 0 1-3.054 0 .935.935 0 0 1 .01-1.769 3.369 3.369 0 0 1 3.054 0 .935.935 0 0 1-.01 1.769z" class="cls-9" data-name="Path 9081" transform="translate(-91.363 -270.003)"/>
                    </g>
                    <g id="Group_1683" data-name="Group 1683" transform="translate(.583 .314)">
                        <path id="Path_9082" d="M92.074 271.732a2.487 2.487 0 0 0 2.26-.06.689.689 0 0 0-.042-1.305 2.482 2.482 0 0 0-2.257.057.691.691 0 0 0 .039 1.308z" class="cls-12" data-name="Path 9082" transform="translate(-91.587 -270.124)"/>
                        <path id="Path_9083" d="M92.121 271.147a1.355 1.355 0 0 0 1.227-.034c.332-.2.322-.521-.023-.711a1.347 1.347 0 0 0-1.227.034c-.332.205-.322.521.023.711z" class="cls-12" data-name="Path 9083" transform="translate(-91.16 -269.891)"/>
                        <path id="Path_9084" fill="#cfd5d5" d="M92.164 270.715a.5.5 0 0 0 .454-.01.138.138 0 0 0-.008-.262.5.5 0 0 0-.454.01.138.138 0 0 0 .008.262z" data-name="Path 9084" transform="translate(-90.824 -269.695)" style="mix-blend-mode:screen;isolation:isolate" opacity="0.2"/>
                    </g>
                </g>
                <g id="Group_1687" data-name="Group 1687" transform="translate(201.191 182.916)">
                    <g id="Group_1686" data-name="Group 1686">
                        <path id="Path_9085" d="M164.851 307.434l-8.147 4.691c-.947.547-1.715.22-1.715-.727a3.564 3.564 0 0 1 1.72-2.711l8.144-4.687c.95-.547 1.717-.221 1.717.726a3.564 3.564 0 0 1-1.719 2.708z" class="cls-1" data-name="Path 9085" transform="translate(-154.989 -303.731)"/>
                        <g id="Group_1685" clip-path="url(#clip-path)" data-name="Group 1685">
                            <path id="Path_9086" fill="#9e6512" d="M155.153 308.308l-1.134.654 4.021 2.325 1.134-.656zm2.491-1.437l-1.131.654 4.021 2.322 1.134-.654zm2.493-1.44l-1.131.654 4.021 2.322 1.134-.654zm2.493-1.44l-1.134.654 4.024 2.322 1.134-.654z" data-name="Path 9086" transform="translate(-156.536 -303.316)"/>
                        </g>
                    </g>
                </g>
                <g id="Group_1689" data-name="Group 1689" transform="translate(8.581 44.11)">
                    <path id="Path_9088" fill="#4a75ff" d="M299.066 329.612l-80.826 46.666L84.4 299.006l80.83-46.666z" data-name="Path 9088" transform="translate(-74.922 -246.865)" style="mix-blend-mode:screen;isolation:isolate"/>
                    <path id="Path_9089" fill="#5777ff" d="M171.571 256l-80.826 46.667-10-5.771 80.825-46.666z" data-name="Path 9089" transform="translate(-80.75 -250.23)"/>
                </g>
                <path id="Path_9090" d="M90.467 271.957l-1.573.908.817.472.818-.472 12.141 7.01-.818.472.817.472.818-.472 12.14 7.009-.818.472.818.472 1.573-.908z" class="cls-2" data-name="Path 9090" transform="translate(-59.183 -171.476)"/>
                <g id="Group_1690" data-name="Group 1690" transform="translate(31.096)">
                    <path id="Path_9091" d="M156.2 235.3l-5.034 4.473-5.7 6.732-5.419 1.238-6.623.684-9.81 6.8-7.016 8.924-8.682 6.321-7.429 8.07-6.355-.006-4.7 11.244v43.885l76.77-44.311v-56.042l-6.574.579z" class="cls-18" data-name="Path 9091" transform="translate(-89.428 -233.093)"/>
                    <path id="Path_9092" d="M159.709 233.682l-3.8 1.57-4.857 4.317-5.8 6.886-5.22 1.191-6.644.7-9.836 6.813-7.041 8.959-8.632 6.284-7.446 8.084-6.433.065-4.571 10.873v1.243l4.823-11.641 6.343-.047 7.425-8.066 8.8-6.476 6.839-8.751 9.784-6.868 6.6-.716 5.35-1.222c.036-.008 5.744-6.746 5.744-6.746l4.95-4.447 3.682-1.5 6.424-.522v-.438z" class="cls-18" data-name="Path 9092" transform="translate(-89.428 -233.228)"/>
                </g>
                <g id="Group_1691" data-name="Group 1691" transform="translate(37.327 18.127)">
                    <path id="Path_9093" d="M158.6 242.283l-5.035 1.6-5.7 3.607-5.419 1.238-6.623 6.684-7.7 3.378-9.129 12.348-8.682 6.321-7.429 8.07-6.355 5.268-4.7 11.244v24.079l76.772-44.31V240.3l-6.579 3.788z" class="cls-19" data-name="Path 9093" transform="translate(-91.828 -240.081)"/>
                    <path id="Path_9094" fill="#6292bf" d="M162.108 243.954l-3.407-1.8-5.119 1.627-5.692 3.6-5.454 1.245-6.642 6.7-7.724 3.388-9.152 12.386-8.632 6.286-7.446 8.082-6.44 5.344-4.571 10.871v.851l4.831-11.488 6.31-5.238 7.4-8.04 8.65-6.3 9.156-12.35 7.617-3.344c.052-.021 6.657-6.686 6.657-6.686l5.35-1.222c.034-.01 5.744-3.622 5.744-3.622l4.95-1.57 3.443 1.814 6.66-3.837v-.436z" data-name="Path 9094" transform="translate(-91.829 -240.215)"/>
                </g>
                <g id="Group_1692" data-name="Group 1692" transform="translate(44.315 29.59)">
                    <path id="Path_9095" fill="#6494c0" d="M161.962 250.1l-6 2.3-5.411 4.772-6.761 3.9-6.556 7.542-7.5 5.127-8.055 8.722-10.382 9-6.8 8.774-5.639 4.806-4.341 5.124v12.912l76.77-44.289v-34.08z" data-name="Path 9095" transform="translate(-94.522 -244.498)"/>
                    <path id="Path_9096" fill="#4c7cb1" d="M162 250l-6 2.3c-.044.018-5.474 4.8-5.474 4.8l-6.733 3.9-6.616 7.581-7.456 5.1-8.087 8.746-10.38 9-6.834 8.8L98.813 305l-4.291 5.189v.5l4.416-5.345 5.614-4.784 6.836-8.8 10.383-9.005 8.025-8.689 7.462-5.1 6.585-7.558 6.712-3.876 5.42-4.771 5.988-2.3 9.33-5.386v-.439z" data-name="Path 9096" transform="translate(-94.522 -244.633)"/>
                </g>
                <g id="Group_1693" data-name="Group 1693" transform="translate(50.705 47.706)">
                    <path id="Path_9097" d="M164.43 257.087l-6 1.72-5.411 6.84-8.1 6.876-5.213.053-6.959 6.125-5.818 9.807-12.172 7.028-10.024 10.525-4.386 6.131-3.356 1.938v1.551l76.77-44.319V251.7z" class="cls-23" data-name="Path 9097" transform="translate(-96.978 -251.481)"/>
                    <path id="Path_9098" fill="#7dddff" d="M164.465 256.987l-6.057 1.736-5.458 6.9-8 6.786-5.217.054-7.088 6.239-5.8 9.77-12.087 6.979-10.146 10.64-4.331 6.056-3.3 1.906v.436l3.437-1.985 4.4-6.157 9.986-10.485 12.215-7.053 5.839-9.843 6.934-6.142 5.211-.053 8.074-6.809 5.395-6.807 5.912-1.7 9.382-5.41v-.436z" data-name="Path 9098" transform="translate(-96.985 -251.615)"/>
                </g>
                <g id="Group_1694" data-name="Group 1694" transform="translate(57.798 58.054)">
                    <path id="Path_9099" fill="#ffc41d" d="M167.164 261.075l-6 1.305-5.411 5.538-8.1 6.249-5.214 1.1-6.959 6.125-9.88 5.108-7.546 7.479-8.406 6.011-6.569 8.631-3.356 1.938v2.854l76.77-44.319v-13.41z" data-name="Path 9099" transform="translate(-99.711 -255.47)"/>
                    <path id="Path_9100" d="M167.2 260.976l-6.057 1.322-5.458 5.6-8 6.158-5.217 1.1-7.088 6.239-9.857 5.081-7.461 7.43-8.527 6.126-6.514 8.556-3.3 1.906v.436l3.437-1.985 6.582-8.657 8.367-5.971 7.589-7.5 9.9-5.153 6.96-6.142 5.211-1.1 8.048-6.181 5.395-5.5 5.912-1.281 9.382-5.41v-.45z" class="cls-26" data-name="Path 9100" transform="translate(-99.719 -255.604)"/>
                </g>
                <path id="Path_9136" fill="#e4e2e8" d="M88.894 247.579v.817l.818-.472v12.141l-.818.472v.817l.818-.472v12.141l-.818.472v.818l.818-.472v12.142l-.818.472v.817l.818-.472v12.14l-.818.472v.817l.818-.472V311.9l-.818.472v.817l1.573-.908v-65.61z" data-name="Path 9136" transform="translate(-59.183 -211.795)"/>
                <g id="Group_1717" data-name="Group 1717" transform="translate(62.937 75.398)">
                    <g id="Group_1704" data-name="Group 1704" transform="translate(0 35.917)">
                        <g id="Group_1702" data-name="Group 1702">
                            <path id="Path_9137" d="M115.955 277.828l-11.318 6.535-2.937-1.7 11.318-6.534z" class="cls-26" data-name="Path 9137" transform="translate(-101.7 -276.133)"/>
                        </g>
                        <g id="Group_1703" data-name="Group 1703" transform="translate(4.897 2.775)">
                            <path id="Path_9138" d="M105.5 280.435l.283-.163c.252-.145.254-.291.005-.433l-.267-.156a.7.7 0 0 0-.747.005l-.3.176c-.127.073-.192.143-.192.21s.062.14.192.215l.148.086q.09.05 0 .1l-.327.19a.167.167 0 0 1-.176 0l-.158-.091c-.249-.145-.371-.3-.368-.457s.132-.314.387-.459l.446-.257a1.6 1.6 0 0 1 .791-.223 1.544 1.544 0 0 1 .791.213l.283.163c.3.174.353.363.163.568a1.135 1.135 0 0 1 .983.093l.3.174c.249.143.371.3.368.454s-.132.314-.384.459l-.446.257a1.587 1.587 0 0 1-.8.223 1.541 1.541 0 0 1-.789-.213l-.179-.1c-.062-.036-.062-.07-.005-.1l.33-.189a.166.166 0 0 1 .179 0l.169.1a.677.677 0 0 0 .737 0l.3-.176c.252-.145.257-.288.01-.431l-.283-.163a.709.709 0 0 0-.752 0l-.283.163a.162.162 0 0 1-.174 0l-.231-.132c-.061-.041-.061-.072-.004-.106z" class="cls-2" data-name="Path 9138" transform="translate(-103.588 -274.051)"/>
                            <path id="Path_9139" d="M105.966 279.44l.625.361c.057.034.06.065.005.1l-.348.2a.167.167 0 0 1-.176 0l-.625-.361c-.054-.031-.052-.065.005-.1l.35-.2a.16.16 0 0 1 .164 0z" class="cls-2" data-name="Path 9139" transform="translate(-100.686 -273.673)"/>
                            <path id="Path_9140" d="M107.479 279.644l-.316.184a.294.294 0 0 0-.127.114c.034.161.026.21-.029.241l-.322.187a.166.166 0 0 1-.176 0l-1.609-.929c-.057-.034-.057-.067 0-.1l1.736-1a.171.171 0 0 1 .179 0l.293.169c.057.034.057.07-.005.1l-1.323.765.934.537c-.112-.13-.052-.262.179-.394l.3-.174a1.444 1.444 0 0 1 1.518 0l.594.342c.249.145.376.3.376.459s-.127.314-.376.459l-.436.252a1.545 1.545 0 0 1-.8.215 1.571 1.571 0 0 1-.791-.215l-.132-.078c-.062-.036-.065-.07-.005-.1l.322-.187a.166.166 0 0 1 .179.005l.127.073a.7.7 0 0 0 .745 0l.293-.169c.252-.145.254-.291.005-.436l-.519-.3a.9.9 0 0 0-.418-.137.772.772 0 0 0-.396.117z" class="cls-2" data-name="Path 9140" transform="translate(-101.564 -275.437)"/>
                            <path id="Path_9141" d="M110.133 279.922l-1.04.6a.179.179 0 0 1-.187.005l-.265-.153c-.054-.031-.049-.067.016-.1l.968-.56c.246-.14.241-.285-.01-.431l-.415-.241-.791.457a1.555 1.555 0 0 1-1.588.005l-.48-.278c-.254-.145-.379-.3-.379-.459s.132-.314.384-.459l.493-.285a1.567 1.567 0 0 1 .794-.221 1.534 1.534 0 0 1 .8.218l1.707.986c.249.143.374.3.374.457s-.129.314-.381.459zm-2.089-.724l.719-.415-.809-.467a.7.7 0 0 0-.752 0l-.345.2c-.244.143-.241.285.01.431l.436.254a.7.7 0 0 0 .741-.001z" class="cls-2" data-name="Path 9141" transform="translate(-99.804 -276.25)"/>
                            <path id="Path_9142" d="M110.71 279.793l-.353.2c-.065.039-.114.029-.145-.029l-1.64-2.213-1.292.745a.166.166 0 0 1-.179 0l-.28-.163c-.06-.034-.06-.067 0-.1l1.736-1a.165.165 0 0 1 .179 0l.319.182a.569.569 0 0 1 .158.158l1.557 2.094c.036.038.015.082-.06.126z" class="cls-2" data-name="Path 9142" transform="translate(-98.505 -277.202)"/>
                        </g>
                    </g>
                    <g id="Group_1707" data-name="Group 1707" transform="translate(15.552 26.938)">
                        <g id="Group_1705" data-name="Group 1705">
                            <path id="Path_9143" d="M121.95 274.367l-11.318 6.533-2.937-1.7 11.318-6.534z" class="cls-23" data-name="Path 9143" transform="translate(-107.695 -272.672)"/>
                        </g>
                        <g id="Group_1706" data-name="Group 1706" transform="translate(4.675 2.794)">
                            <path id="Path_9144" d="M113.732 277.872l-.542.311a1.606 1.606 0 0 1-.786.228 1.439 1.439 0 0 1-.778-.207l-.275-.158c-.317-.182-.4-.368-.262-.561a1.3 1.3 0 0 1-.976-.153l-.259-.151c-.246-.143-.366-.291-.355-.446s.143-.309.4-.454l.542-.314a1.619 1.619 0 0 1 .781-.226 1.48 1.48 0 0 1 .771.205l.262.15a.732.732 0 0 1 .306.285.248.248 0 0 1-.034.275 1.264 1.264 0 0 1 .968.158l.27.156c.252.143.371.293.363.449s-.145.305-.396.453zm-2.338-.8l.4-.231q.37-.214-.016-.436l-.249-.145a.741.741 0 0 0-.368-.109.765.765 0 0 0-.366.112l-.4.233c-.127.073-.192.145-.192.213s.06.137.187.21l.252.145a.7.7 0 0 0 .752.007zm1.427.825l.4-.233c.127-.073.189-.145.192-.213s-.06-.138-.187-.213l-.275-.158a.709.709 0 0 0-.755-.008l-.4.233c-.249.14-.244.285.013.433l.278.161a.7.7 0 0 0 .366.106.747.747 0 0 0 .368-.105z" class="cls-2" data-name="Path 9144" transform="translate(-109.497 -270.571)"/>
                            <path id="Path_9145" d="M111.913 276l.625.361c.06.034.06.067.008.1l-.35.2a.162.162 0 0 1-.174 0l-.625-.361c-.055-.031-.055-.062.005-.1l.348-.2a.155.155 0 0 1 .163 0z" class="cls-2" data-name="Path 9145" transform="translate(-106.532 -270.19)"/>
                            <path id="Path_9146" d="M112.84 276.2l.28-.161c.254-.145.257-.291.005-.436l-.265-.153a.7.7 0 0 0-.75.005l-.3.174c-.127.075-.189.145-.192.213s.062.14.195.215l.148.086c.057.034.057.065 0 .1l-.33.189a.157.157 0 0 1-.174 0l-.158-.091c-.249-.143-.374-.3-.371-.457s.135-.311.387-.457l.446-.257a1.577 1.577 0 0 1 .794-.223 1.508 1.508 0 0 1 .789.213l.283.163q.451.261.163.568a1.125 1.125 0 0 1 .983.093l.3.171c.249.145.374.3.368.457s-.132.314-.384.459l-.446.257a1.6 1.6 0 0 1-.794.223 1.533 1.533 0 0 1-.789-.213l-.182-.1c-.062-.036-.062-.07 0-.1l.327-.189a.166.166 0 0 1 .179 0l.169.1a.754.754 0 0 0 .368.112.706.706 0 0 0 .368-.112l.3-.174c.252-.145.257-.291.01-.431l-.28-.163a.708.708 0 0 0-.755 0l-.28.163a.166.166 0 0 1-.176 0l-.228-.132c-.068-.046-.068-.079-.008-.112z" class="cls-2" data-name="Path 9146" transform="translate(-107.22 -271.845)"/>
                            <path id="Path_9147" d="M116.174 276.462l-.542.314a1.662 1.662 0 0 1-.786.228 1.465 1.465 0 0 1-.778-.21l-.275-.158c-.317-.182-.4-.368-.265-.558a1.28 1.28 0 0 1-.973-.156l-.262-.151c-.244-.143-.363-.291-.353-.446s.143-.306.4-.454l.542-.311a1.579 1.579 0 0 1 .781-.228 1.459 1.459 0 0 1 .771.208l.262.15a.693.693 0 0 1 .3.285.239.239 0 0 1-.031.272 1.264 1.264 0 0 1 .968.158l.27.156c.249.145.371.3.363.449s-.141.304-.392.452zm-2.338-.8l.4-.233q.37-.214-.016-.436l-.249-.145a.679.679 0 0 0-.734 0l-.4.234c-.127.073-.192.145-.192.213s.06.137.187.213l.252.145a.71.71 0 0 0 .752.01zm1.427.822l.4-.233c.127-.073.189-.143.192-.213s-.06-.137-.187-.21l-.278-.161a.7.7 0 0 0-.752-.008l-.4.234q-.37.214.016.436l.278.158a.724.724 0 0 0 .366.109.778.778 0 0 0 .365-.11z" class="cls-2" data-name="Path 9147" transform="translate(-105.603 -272.82)"/>
                            <path id="Path_9148" d="M117.146 275.874l-1.04.6a.165.165 0 0 1-.184.005l-.267-.153c-.052-.031-.047-.065.018-.1l.968-.558c.246-.143.241-.285-.013-.433l-.415-.239-.789.454a1.547 1.547 0 0 1-1.588.008l-.483-.278c-.252-.148-.379-.3-.376-.462s.13-.314.381-.459l.493-.285a1.561 1.561 0 0 1 1.6 0l1.7.986c.249.145.374.3.374.459s-.125.31-.379.455zm-2.086-.726l.716-.412-.809-.47a.709.709 0 0 0-.752 0l-.343.2c-.246.14-.241.285.01.431l.436.252a.691.691 0 0 0 .742-.002z" class="cls-2" data-name="Path 9148" transform="translate(-103.948 -273.749)"/>
                        </g>
                    </g>
                    <g id="Group_1710" data-name="Group 1710" transform="translate(31.104 17.958)">
                        <g id="Group_1708" data-name="Group 1708">
                            <path id="Path_9149" d="M127.944 270.907l-11.318 6.535-2.936-1.7 11.318-6.535z" class="cls-18" data-name="Path 9149" transform="translate(-113.689 -269.211)"/>
                        </g>
                        <g id="Group_1709" data-name="Group 1709" transform="translate(5.289 2.994)">
                            <path id="Path_9150" d="M116.089 273.4l-.3-.174c-.054-.031-.07-.068-.049-.112l.21-.5a.256.256 0 0 1 .106-.125l.309-.179a.162.162 0 0 1 .174 0l3.121 1.8c.057.034.06.065.005.1l-.332.192a.166.166 0 0 1-.176 0l-2.675-1.544-.236.509a.1.1 0 0 1-.157.033z" class="cls-2" data-name="Path 9150" transform="translate(-115.728 -267.296)"/>
                            <path id="Path_9151" d="M117.781 272.616l.625.361c.06.034.06.068.008.1l-.35.2a.152.152 0 0 1-.174 0l-.625-.361c-.054-.031-.054-.062.005-.1l.348-.2a.155.155 0 0 1 .163 0z" class="cls-2" data-name="Path 9151" transform="translate(-113.341 -266.813)"/>
                            <path id="Path_9152" d="M119.61 274.318l-.472-.272a.42.42 0 0 1-.262-.464l.179-1.014a.353.353 0 0 0-.2-.4l-.166-.1a.708.708 0 0 0-.758.01l-.249.145c-.13.073-.195.145-.195.213s.065.138.195.213l.189.109c.062.036.062.07.005.1l-.329.189a.166.166 0 0 1-.179 0l-.2-.114c-.249-.145-.371-.3-.368-.457s.132-.314.384-.459l.4-.231a1.612 1.612 0 0 1 .791-.221 1.543 1.543 0 0 1 .789.215l.21.122c.267.153.381.34.342.558l-.179 1.033a.185.185 0 0 0 .114.2l.163.1 1.334-.768a.167.167 0 0 1 .176-.005l.272.158c.06.034.057.067-.005.1l-1.8 1.038a.166.166 0 0 1-.181.002z" class="cls-2" data-name="Path 9152" transform="translate(-114.026 -268.452)"/>
                            <path id="Path_9153" d="M119.667 272.255l.283-.161c.252-.148.254-.293.005-.436l-.267-.153a.7.7 0 0 0-.747.005l-.3.174c-.127.073-.189.143-.192.213s.062.137.195.213l.145.086q.089.051 0 .1l-.327.189a.162.162 0 0 1-.174 0l-.158-.091c-.252-.145-.374-.3-.371-.457s.135-.311.387-.457l.446-.259a1.6 1.6 0 0 1 .794-.223 1.544 1.544 0 0 1 .789.215l.283.163c.3.171.353.361.163.566a1.126 1.126 0 0 1 .983.1l.3.171c.249.145.371.3.368.457s-.132.311-.384.457l-.446.259a1.583 1.583 0 0 1-.794.221 1.526 1.526 0 0 1-.791-.213l-.179-.1c-.062-.034-.062-.07-.005-.1L120 273a.166.166 0 0 1 .179 0l.169.1a.772.772 0 0 0 .368.112.737.737 0 0 0 .368-.112l.3-.174c.252-.145.257-.291.01-.433l-.283-.161a.7.7 0 0 0-.752 0l-.283.164a.162.162 0 0 1-.174 0l-.231-.135c-.061-.039-.061-.073-.004-.106z" class="cls-2" data-name="Path 9153" transform="translate(-112.495 -269.355)"/>
                            <path id="Path_9154" d="M122.935 272.6l-.493.283a1.575 1.575 0 0 1-.8.218 1.524 1.524 0 0 1-.794-.215l-1.707-.983c-.252-.148-.379-.3-.376-.462s.13-.314.381-.459l1.02-.589a.162.162 0 0 1 .174 0l.267.153c.054.031.052.065-.005.1l-.947.548c-.246.14-.244.285.008.431l.441.257.791-.457a1.551 1.551 0 0 1 .8-.22 1.529 1.529 0 0 1 .8.218l.451.26q.374.214.374.459c-.006.158-.133.309-.385.458zm-.856-.01l.35-.2c.244-.143.241-.288-.013-.433l-.41-.236a.706.706 0 0 0-.747-.008l-.719.415.789.457a.7.7 0 0 0 .75.003z" class="cls-2" data-name="Path 9154" transform="translate(-110.883 -270.365)"/>
                        </g>
                    </g>
                    <g id="Group_1713" data-name="Group 1713" transform="translate(46.657 8.979)">
                        <g id="Group_1711" data-name="Group 1711">
                            <path id="Path_9155" d="M133.938 267.446l-11.318 6.534-2.936-1.7L131 265.75z" class="cls-19" data-name="Path 9155" transform="translate(-119.684 -265.75)"/>
                        </g>
                        <g id="Group_1712" data-name="Group 1712" transform="translate(5.434 2.794)">
                            <path id="Path_9156" d="M125.646 270.724l-.3.176a.162.162 0 0 1-.174 0l-.537-.311-1.354.781a.277.277 0 0 1-.3 0l-.161-.091a.412.412 0 0 1-.153-.143l-.89-1.834c.055-.179.506-.441.506-.441a.277.277 0 0 1 .3 0l2.081 1.2.376-.215a.162.162 0 0 1 .174 0l.257.148c.065.039.067.073.01.106l-.376.215.54.311c.055.036.055.067.001.098zm-1.456-.389l-1.814-1.048.8 1.632z" class="cls-2" data-name="Path 9156" transform="translate(-121.778 -263.652)"/>
                            <path id="Path_9157" d="M123.884 269.094l.623.361c.06.034.06.067.008.1l-.35.2a.174.174 0 0 1-.174 0l-.625-.363c-.054-.031-.054-.062.005-.1l.35-.2a.155.155 0 0 1 .163.002z" class="cls-2" data-name="Path 9157" transform="translate(-119.312 -263.249)"/>
                            <path id="Path_9158" d="M127.076 270.206l-.49.283a1.583 1.583 0 0 1-.8.218 1.523 1.523 0 0 1-.794-.215l-1.707-.983c-.254-.148-.379-.3-.376-.462s.127-.314.381-.459l1.02-.589a.162.162 0 0 1 .174 0l.267.153c.054.031.052.065-.005.1l-.947.547c-.249.143-.244.285.008.431l.441.257.789-.457a1.586 1.586 0 0 1 .8-.221 1.529 1.529 0 0 1 .8.218l.449.259c.252.145.376.3.376.459s-.132.314-.386.461zm-.854-.01l.35-.2c.244-.143.241-.288-.013-.433l-.41-.236a.7.7 0 0 0-.747-.005l-.719.412.789.457a.7.7 0 0 0 .75.009z" class="cls-2" data-name="Path 9158" transform="translate(-119.975 -264.999)"/>
                            <path id="Path_9159" d="M128.161 269.538l-.542.314a1.589 1.589 0 0 1-.783.228 1.439 1.439 0 0 1-.778-.207l-.278-.158c-.314-.182-.4-.368-.262-.56a1.288 1.288 0 0 1-.973-.153l-.262-.151c-.244-.143-.363-.291-.353-.446s.143-.309.394-.454l.542-.314a1.621 1.621 0 0 1 .784-.226 1.457 1.457 0 0 1 .771.2l.259.15a.716.716 0 0 1 .306.285.243.243 0 0 1-.031.275 1.264 1.264 0 0 1 .968.158l.27.156c.249.143.371.293.363.446s-.141.311-.395.457zm-2.335-.8l.4-.231q.37-.214-.016-.436l-.252-.145a.738.738 0 0 0-.366-.109.774.774 0 0 0-.368.112l-.4.234c-.127.073-.192.143-.192.213s.06.137.187.21l.249.145a.709.709 0 0 0 .758.008zm1.424.822l.4-.231c.127-.075.189-.145.192-.213s-.06-.14-.187-.213l-.278-.158a.7.7 0 0 0-.752-.008l-.4.231q-.37.214.016.436l.275.161a.673.673 0 0 0 .734-.005z" class="cls-2" data-name="Path 9159" transform="translate(-118.349 -265.898)"/>
                            <path id="Path_9160" d="M129.136 268.949l-1.04.6a.175.175 0 0 1-.184.005l-.267-.153c-.055-.031-.049-.067.016-.1l.97-.558c.244-.143.241-.288-.013-.433l-.415-.241-.789.457a1.578 1.578 0 0 1-.8.221 1.539 1.539 0 0 1-.794-.215l-.48-.278c-.254-.145-.379-.3-.376-.459s.13-.314.381-.459l.493-.285a1.57 1.57 0 0 1 .8-.22 1.548 1.548 0 0 1 .8.218l1.707.986c.249.143.374.3.374.457s-.131.308-.383.457zm-2.086-.724l.716-.415-.809-.467a.7.7 0 0 0-.752 0l-.342.2c-.246.143-.244.285.01.433l.436.252a.7.7 0 0 0 .741-.003z" class="cls-2" data-name="Path 9160" transform="translate(-116.693 -266.827)"/>
                        </g>
                    </g>
                    <g id="Group_1716" data-name="Group 1716" transform="translate(62.209)">
                        <g id="Group_1714" data-name="Group 1714">
                            <path id="Path_9161" d="M139.932 263.985l-11.318 6.535-2.936-1.7L137 262.289z" class="cls-28" data-name="Path 9161" transform="translate(-125.678 -262.289)"/>
                        </g>
                        <g id="Group_1715" data-name="Group 1715" transform="translate(4.587 2.641)">
                            <path id="Path_9162" d="M130.066 266.6l-.317.182a.3.3 0 0 0-.125.117c.031.161.026.207-.029.241l-.324.187a.167.167 0 0 1-.174 0l-1.611-.931c-.057-.031-.054-.065 0-.1l1.738-1a.166.166 0 0 1 .179 0l.291.169c.057.031.057.068-.005.1l-1.321.763.931.537c-.112-.13-.049-.259.179-.392l.3-.176a1.5 1.5 0 0 1 .755-.213 1.467 1.467 0 0 1 .76.215l.594.343c.249.143.376.3.376.457s-.127.317-.376.459l-.433.252a1.559 1.559 0 0 1-1.59 0l-.132-.075c-.062-.036-.065-.07-.005-.1l.322-.187a.166.166 0 0 1 .179 0l.13.075a.7.7 0 0 0 .742 0l.293-.171c.252-.145.254-.291.005-.433l-.516-.3a.886.886 0 0 0-.42-.137.78.78 0 0 0-.396.118z" class="cls-2" data-name="Path 9162" transform="translate(-127.446 -260.18)"/>
                            <path id="Path_9163" d="M129.928 265.6l.625.361c.06.034.06.068.008.1l-.35.2a.162.162 0 0 1-.174 0l-.625-.36c-.054-.031-.054-.062.005-.1l.348-.2a.155.155 0 0 1 .163-.001z" class="cls-2" data-name="Path 9163" transform="translate(-124.376 -259.683)"/>
                            <path id="Path_9164" d="M133.19 266.636l-.542.314a1.646 1.646 0 0 1-.784.228 1.487 1.487 0 0 1-.778-.208l-.278-.161c-.314-.182-.4-.368-.262-.558a1.278 1.278 0 0 1-.973-.156l-.262-.15c-.244-.143-.363-.291-.353-.446s.143-.306.394-.454l.542-.311a1.6 1.6 0 0 1 .784-.228 1.46 1.46 0 0 1 .771.207l.259.151a.7.7 0 0 1 .306.285.239.239 0 0 1-.031.272 1.263 1.263 0 0 1 .968.158l.27.156c.249.145.371.3.363.449s-.14.307-.394.452zm-2.335-.8l.4-.233q.37-.214-.016-.436l-.252-.145a.7.7 0 0 0-.366-.106.719.719 0 0 0-.368.112l-.4.231c-.127.075-.192.145-.192.213s.06.14.187.213l.249.145a.708.708 0 0 0 .758.007zm1.424.822l.4-.234c.127-.073.189-.143.192-.213s-.06-.138-.187-.21l-.278-.161a.7.7 0 0 0-.752-.008l-.4.234c-.246.143-.241.288.016.433l.275.161a.739.739 0 0 0 .368.109.763.763 0 0 0 .366-.109z" class="cls-2" data-name="Path 9164" transform="translate(-125.036 -261.396)"/>
                            <path id="Path_9165" d="M132.5 265.2l-.317.184a.28.28 0 0 0-.127.114c.034.161.026.21-.029.241l-.322.187a.166.166 0 0 1-.176 0l-1.613-.926q-.086-.051 0-.1l1.738-1a.171.171 0 0 1 .179 0l.293.169c.057.034.057.07-.005.1l-1.323.763.932.54c-.109-.13-.049-.262.179-.394l.3-.174a1.445 1.445 0 0 1 1.518 0l.594.342q.374.218.374.459t-.374.459l-.436.252a1.545 1.545 0 0 1-.8.215 1.57 1.57 0 0 1-.791-.215l-.132-.078c-.062-.036-.065-.07-.005-.1l.322-.187a.166.166 0 0 1 .179.005l.127.073a.7.7 0 0 0 .745 0l.293-.169c.252-.145.254-.291.005-.436l-.519-.3a.9.9 0 0 0-.418-.138.773.773 0 0 0-.391.114z" class="cls-2" data-name="Path 9165" transform="translate(-123.575 -262.415)"/>
                            <path id="Path_9166" d="M135.159 265.54l-.493.283a1.553 1.553 0 0 1-.8.22 1.573 1.573 0 0 1-.794-.215l-1.707-.986c-.252-.145-.379-.3-.376-.462s.13-.311.381-.459l1.02-.589a.162.162 0 0 1 .174 0l.267.153c.054.034.052.065-.005.1l-.947.547c-.249.143-.244.288.008.433l.441.254.791-.457a1.556 1.556 0 0 1 1.593 0l.451.259q.374.218.374.459c.001.16-.126.32-.378.46zm-.856-.008l.35-.2c.244-.143.241-.285-.013-.433l-.41-.236a.7.7 0 0 0-.747-.005l-.719.415.789.454a.7.7 0 0 0 .747.006z" class="cls-2" data-name="Path 9166" transform="translate(-121.795 -263.307)"/>
                        </g>
                    </g>
                </g>
                <g id="Group_1718" data-name="Group 1718" transform="translate(102.821 98.032)">
                    <path id="Path_9167" d="M130.85 283.517l33.328-7.386c7.065 10.627-2.127 22.551-20.535 26.629-1.214.27-2.3.472-3.554.667z" class="cls-26" data-name="Path 9167" transform="translate(-95.106 -262.853)"/>
                    <path id="Path_9168" d="M147.9 291.678l-27.743-12.97c9.926-7.078 25.81-9.535 40.536-6.273z" class="cls-18" data-name="Path 9168" transform="translate(-112.156 -271.013)"/>
                    <path id="Path_9169" d="M152.817 286.949l-35.259 3.225c-1.645-5.993.9-11.48 7.516-16.195z" class="cls-19" data-name="Path 9169" transform="translate(-117.073 -266.284)"/>
                    <path id="Path_9170" d="M152.519 278.978l9.239 19.91c-19.043 2.947-38.619-3.58-43.722-14.576a12.691 12.691 0 0 1-.776-2.109z" class="cls-28" data-name="Path 9170" transform="translate(-116.775 -258.313)"/>
                    <path id="Path_9171" d="M130.85 290.8l12.793-19.243c9.812 2.177 16.768 6.193 20.535 11.857z" class="cls-23" data-name="Path 9171" transform="translate(-95.106 -270.139)"/>
                </g>
                <g id="Group_1719" data-name="Group 1719" transform="translate(133.771 116.738)">
                    <path id="Path_9172" d="M149.771 300.772l4-2.312.955.55-4 2.312zm2.439 7.345l-6.235 3.6.955.553 7.384-4.263 2.558-1.476-.955-.553-3.707 2.14zm2.69-4.826l-.957-.553-3.124 1.806-2.057 1.186.955.553 2.057-1.188zm-7.607 3.287l-5.124 2.96.955.55 5.127-2.96zm-.187-3.168l2.153-1.24-.957-.553-3.7 2.14-6.188 3.573.955.55 7.742-4.47zm-9.861 1.318l5.044-2.913-.955-.55-5.044 2.914-1.635.942.955.553 1.635-.945zm10.072-5.814l1.622-.937-.955-.553-2.14 1.238-3.041 1.754.955.553 3.562-2.055zm14.07 3.9l-4 2.312.955.55 4-2.312zm11.862-6.849l-3.733 2.156.957.55 3.731-2.153zm-11.423-6.535l-2.244 1.3.955.55 2.244-1.295zm-3.713 2.143l-1.93 1.116.955.553 1.933-1.116zm7.54.026l-3.687 2.127.957.55 3.684-2.127zm-1.736 5.378l-1.572.908.955.55 1.575-.908zm2.423-.3l4.091-2.361-.957-.553-4.089 2.361zm12.7-4.06l-1.6.924.955.55 1.6-.924zm-11.423-6.535l-2.244 1.295.955.553 2.244-1.295zm3.827 2.166l-1.551.9.957.553 1.549-.9zm1.868 3.3l.955.55 1.956-1.128-.957-.55zm-31.93 23.913l1.66-.957-.955-.553-1.66.96zm-11.426-6.533l1.017-.586-.955-.553-1.017.586zm3.829 2.166l1.707-.986-.955-.553-1.707.986zm2.867 1.619l.955.55 1.305-.752-.955-.55z" class="cls-2" data-name="Path 9172" transform="translate(-129.002 -265.679)"/>
                    <path id="Path_9173" d="M159.92 292.905l4.006-2.312.955.553-4 2.309zm2.441 7.345l-6.234 3.6.955.55 7.384-4.263 2.556-1.476-.955-.553-3.7 2.14zm2.688-4.826l-.955-.553-3.126 1.806-2.057 1.186.957.553 2.055-1.188zm-7.6 3.287l-5.127 2.96.957.55 5.124-2.958zm-.187-3.165l2.151-1.243-.955-.553-3.7 2.14-6.188 3.573.955.55 7.742-4.468zm-9.862 1.315l5.044-2.911-.955-.553-5.046 2.914-1.632.942.955.553 1.634-.944zm10.072-5.814l1.622-.937-.955-.553-2.143 1.238-3.041 1.757.957.55 3.56-2.055zm14.07 3.9l-4 2.312.955.55 4-2.309zM183.4 288.1l-3.733 2.156.955.553 3.733-2.156zm-11.426-6.533l-2.242 1.295.955.55 2.242-1.295zm-3.71 2.14l-1.933 1.116.957.553 1.93-1.116zm7.539.026l-3.687 2.127.955.55 3.687-2.127zm-1.736 5.378l-1.575.908.957.553 1.572-.911zm2.423-.3l4.089-2.361-.955-.553-4.091 2.361zm12.7-4.06l-1.6.924.955.55 1.6-.921zm-11.426-6.535l-2.242 1.3.955.55 2.242-1.295zm3.829 2.169l-1.551.9.955.55 1.551-.9zm1.865 3.3l.957.553 1.954-1.129-.955-.553z" class="cls-2" data-name="Path 9173" transform="translate(-103.802 -278.223)"/>
                </g>
                <g id="Group_1720" data-name="Group 1720" transform="translate(149.02 125.463)">
                    <path id="Path_9174" d="M153.127 302.316l-.955-.553-3.126 1.806-2.057 1.188.955.55 2.056-1.188zm-7.6 3.287l-5.127 2.96.955.55 5.127-2.958zm16.623-9.6l-1.575.908.955.553 1.575-.908zm2.421-.3l4.091-2.361-.955-.553-4.092 2.364zm6.974-5.129l.955.553 1.956-1.129-.955-.553zm-36.66 21.166l.957.553 1.3-.755-.955-.55z" class="cls-2" data-name="Path 9174" transform="translate(-134.88 -269.042)"/>
                    <path id="Path_9175" d="M163.363 294.449l-.957-.55-3.124 1.8-2.057 1.188.955.55 2.057-1.186zm-7.607 3.287l-5.124 2.96.955.553 5.127-2.96zm16.623-9.6l-1.572.908.955.553 1.575-.908zm2.423-.3l4.091-2.361-.957-.553-4.089 2.364zm6.974-5.129l.955.553 1.956-1.128-.957-.553z" class="cls-2" data-name="Path 9175" transform="translate(-109.764 -281.586)"/>
                </g>
                <g id="Group_1724" data-name="Group 1724" transform="translate(78.535 84.847)">
                    <g id="Group_1721" data-name="Group 1721" transform="translate(36.826 21.262)">
                        <path id="Path_9176" d="M134.284 298.032l1.66-.957-.955-.553-1.66.957zm-11.423-6.532l1.014-.586-.955-.55-1.014.586zm3.827 2.169l1.71-.989-.957-.55-1.707.986zm2.867 1.616l.955.553 1.305-.752-.955-.553z" class="cls-2" data-name="Path 9176" transform="translate(-121.906 -248.242)"/>
                        <path id="Path_9177" d="M163.218 280.661l-1.6.921.955.553 1.6-.924zm-11.423-6.535l-2.244 1.295.955.553 2.244-1.3zm3.827 2.166l-1.551.9.955.553 1.551-.9zm1.868 3.3l.955.55 1.954-1.129-.955-.55z" class="cls-2" data-name="Path 9177" transform="translate(-77.829 -274.126)"/>
                    </g>
                    <g id="Group_1722" data-name="Group 1722" transform="translate(18.413 10.632)">
                        <path id="Path_9178" d="M127.187 293.935l1.663-.96-.957-.55-1.66.957zm-11.423-6.535l1.014-.586-.955-.55-1.014.584zm3.827 2.166l1.71-.986-.955-.553-1.71.989zm2.867 1.619l.957.553 1.3-.752-.955-.553z" class="cls-2" data-name="Path 9178" transform="translate(-114.809 -244.145)"/>
                        <path id="Path_9179" d="M156.121 276.562l-1.6.924.957.553 1.6-.924zm-11.421-6.533l-2.244 1.295.955.55 2.244-1.295zm3.827 2.166l-1.551.9.957.55 1.549-.9zm1.868 3.3l.955.553 1.956-1.129-.957-.553z" class="cls-2" data-name="Path 9179" transform="translate(-70.732 -270.029)"/>
                    </g>
                    <g id="Group_1723" data-name="Group 1723">
                        <path id="Path_9180" d="M120.093 289.837l1.66-.957-.955-.552-1.663.96zm-11.426-6.537l1.014-.584-.955-.552-1.014.586zm3.827 2.169l1.71-.986-.955-.553-1.71.986zm2.869 1.619l.955.55 1.3-.752-.955-.55z" class="cls-2" data-name="Path 9180" transform="translate(-107.712 -240.047)"/>
                        <path id="Path_9181" d="M149.024 272.466l-1.6.924.957.55 1.6-.921zm-11.424-6.535l-2.244 1.3.955.55 2.244-1.295zm3.827 2.166l-1.549.9.955.55 1.549-.9zm1.868 3.3l.955.553 1.956-1.129-.955-.553z" class="cls-2" data-name="Path 9181" transform="translate(-63.635 -265.931)"/>
                    </g>
                </g>
            </g>
            <g id="Group_1729" data-name="Group 1729" transform="translate(201.581 2843.203)">
                <path id="Path_8848" fill="#d4ecff" d="M425.147 323.946l-150.232-86.737 5.581-3.774 150.232 86.736z" data-name="Path 8848" transform="translate(-274.915 -201.028)"/>
                <g id="Group_1482" data-name="Group 1482" transform="translate(6.826)">
                    <path id="Path_8849" d="M291.043 213.656l-1.685 2.042 1.831-1.182z" class="cls-30" data-name="Path 8849" transform="translate(-285.348 -196.088)"/>
                    <path id="Path_8850" fill="#721bd5" d="M345.568 269.123l-1.832 1.182.636-2.05 1.171.54z" data-name="Path 8850" transform="translate(-298.931 -209.726)"/>
                    <path id="Path_8851" d="M286.454 190.238l17.218 7.7-4.592 3.731 32.494 39.813 15.067-12.242 31.268 38.483 13.858-11.259 41.033 50.21-4.2 3.416-37.34-45.74-13.86 11.259-31.075-38.215-15.065 12.242-36.383-44.554-4.412 3.585z" class="cls-32" data-name="Path 8851" transform="translate(-284.623 -190.238)"/>
                    <path id="Path_8852" d="M407.073 303.152l-1.832 1.182 1.973-3.827z" class="cls-30" data-name="Path 8852" transform="translate(-314.294 -217.782)"/>
                    <path id="Path_8853" d="M366.071 242.223l-1.831 1.182.37 1.021z" class="cls-30" data-name="Path 8853" transform="translate(-304.052 -203.223)"/>
                    <path id="Path_8854" d="M426.221 278.511l-1.832 1.182.305.724z" class="cls-30" data-name="Path 8854" transform="translate(-319.077 -212.287)"/>
                    <path id="Path_8855" d="M284.013 191.814l17.218 7.7-4.592 3.731 32.494 39.813 15.067-12.244 31.268 38.486 13.858-11.259 41.033 50.212-4.2 3.416-37.336-45.74-13.858 11.259-31.079-38.218-15.068 12.242-36.383-44.554-4.412 3.585z" class="cls-30" data-name="Path 8855" transform="translate(-284.013 -190.632)"/>
                    <path id="Path_8856" d="M284.013 191.421l1.832-1.182 17.218 7.7-1.832 1.182z" class="cls-32" data-name="Path 8856" transform="translate(-284.013 -190.238)"/>
                    <path id="Path_8857" d="M479.516 345.441l-1.832 1.183-4.2 3.416 1.832-1.182z" class="cls-30" data-name="Path 8857" transform="translate(-331.339 -229.005)"/>
                </g>
            </g>
        </g>
    </g>
</svg>
