<svg xmlns="http://www.w3.org/2000/svg" width="384" height="445" viewBox="0 0 384 445">
    <defs>
        <linearGradient id="linear-gradient" x1=".583" x2=".081" y1=".397" y2="1.017" gradientUnits="objectBoundingBox">
            <stop offset="0" stop-color="#8991d7"/>
            <stop offset="1" stop-color="#026291"/>
        </linearGradient>
        <linearGradient id="linear-gradient-2" x1=".934" x2=".077" y1=".075" y2=".914" gradientUnits="objectBoundingBox">
            <stop offset="0" stop-color="#1a6bb2"/>
            <stop offset="1" stop-color="#1b4b92"/>
        </linearGradient>
        <linearGradient id="linear-gradient-3" x2="1" y1=".5" y2=".5" gradientUnits="objectBoundingBox">
            <stop offset="0" stop-color="#1b4b92"/>
            <stop offset="1" stop-color="#1a5cb2"/>
        </linearGradient>
        <linearGradient id="linear-gradient-4" x1=".061" x2=".741" y1=".887" y2="-.012" gradientUnits="objectBoundingBox">
            <stop offset="0" stop-color="#a0a0a0"/>
            <stop offset=".477" stop-color="#ebebeb"/>
            <stop offset=".591" stop-color="#e6e6e6"/>
            <stop offset=".717" stop-color="#d9d9d9"/>
            <stop offset=".848" stop-color="#c3c3c3"/>
            <stop offset=".983" stop-color="#a4a4a4"/>
            <stop offset="1" stop-color="#a0a0a0"/>
        </linearGradient>
        <linearGradient id="linear-gradient-5" x2="1" y1=".5" y2=".5" gradientUnits="objectBoundingBox">
            <stop offset="0" stop-color="#6f9cd1"/>
            <stop offset=".324" stop-color="#a1bee1"/>
            <stop offset=".784" stop-color="#e4ecf6"/>
            <stop offset="1" stop-color="#fff"/>
        </linearGradient>
        <clipPath id="clip-path"/>
        <clipPath id="clip-path-2">
            <path id="Path_9558" d="M93.9 84.165c0-.819.008-1.641.008-2.46-.008.819-.008 1.641-.008 2.46z" class="cls-1" data-name="Path 9558" transform="translate(-93.896 -81.705)"/>
        </clipPath>
        <clipPath id="clip-path-3">
            <path id="Path_9565" d="M51.992 92.1L52 88.457c0 1.188.781 2.378 2.352 3.288l-.013 3.641c-1.564-.908-2.349-2.096-2.347-3.286z" class="cls-2" data-name="Path 9565" transform="translate(-51.992 -88.457)"/>
        </clipPath>
        <filter id="Rectangle_1640" width="384" height="445" x="0" y="0" filterUnits="userSpaceOnUse">
            <feOffset dx="5" dy="5"/>
            <feGaussianBlur result="blur" stdDeviation="7.5"/>
            <feFlood flood-opacity=".161"/>
            <feComposite in2="blur" operator="in"/>
            <feComposite in="SourceGraphic"/>
        </filter>
        <filter id="Rectangle_1626" width="384" height="445" x="0" y="0" filterUnits="userSpaceOnUse">
            <feOffset dx="5" dy="5"/>
            <feGaussianBlur result="blur-2" stdDeviation="7.5"/>
            <feFlood flood-opacity=".161"/>
            <feComposite in2="blur-2" operator="in"/>
            <feComposite in="SourceGraphic"/>
        </filter>
        <style>
            .cls-1{fill:none}.cls-2{fill:#95c4de}.cls-3{fill:#fff}.cls-22,.cls-6{opacity:.1}.cls-7{fill:#a9d6ea}.cls-12{isolation:isolate}.cls-15{fill:#c5c5c5}.cls-17{fill:#898989}.cls-18{fill:#3fbad4}.cls-19{fill:#38a7be}.cls-20{fill:#277484}.cls-21{fill:#f8f9fd}.cls-36{fill:#2267b9}.cls-28{fill:#a0a0a0}.cls-29{fill:#676767}.cls-30{fill:#ccc}.cls-31{fill:#373c48}.cls-32{fill:#292c36}.cls-33{fill:#f74141}.cls-34{fill:#7dbeff}.cls-35{fill:#5ca6ff}.cls-37{fill:#ffe000}.cls-38{fill:#f77500}.cls-39{fill:#bfd3f7}.cls-40{fill:#ebebeb}
        </style>
    </defs>
    <g id="Group_20008" data-name="Group 20008" transform="translate(-529.5 -2669.5)">
        <g filter="url(#Rectangle_1626)" transform="translate(529.5 2669.5)">
            <rect id="Rectangle_1626-2" width="339" height="400" class="cls-3" data-name="Rectangle 1626" rx="8" transform="translate(17.5 17.5)"/>
        </g>
        <g id="Group_1800" data-name="Group 1800" transform="translate(546.841 2687)">
            <g id="Mask_Group_42" clip-path="url(#clip-path)" data-name="Mask Group 42">
                <rect id="Rectangle_1618" width="803" height="951" fill="url(#linear-gradient)" data-name="Rectangle 1618" opacity="0.9" rx="8" transform="translate(.159 -233)"/>
            </g>
            <g id="Group_1799" data-name="Group 1799" transform="translate(48.703 45.901)">
                <g id="Group_1798" data-name="Group 1798" transform="translate(0 65.403)">
                    <g id="Group_1748" class="cls-6" data-name="Group 1748" transform="translate(.083 23.928)">
                        <path id="Path_9548" d="M227.481 106.41c3.043 1.744 3.058 4.585.044 6.35l-6 3.513-111.285 65.12-9.281 5.431a12.062 12.062 0 0 1-10.954.032l-65.028-37.283c-3.041-1.746-3.066-4.581-.053-6.343l126.567-74.064a12.065 12.065 0 0 1 10.964-.04z" data-name="Path 9548" transform="translate(-22.68 -67.829)"/>
                    </g>
                    <path id="Path_9549" d="M125.4 76.4a2.7 2.7 0 0 1-.133.8l-.025.084a3.382 3.382 0 0 1-.371.727c-.029.04-.055.078-.082.12a4.726 4.726 0 0 1-.619.682 6.15 6.15 0 0 1-.548.4c-.16.114-.3.234-.48.341l-6.013 3.494-.029 10.118 6.011-3.494.095-.057c.145-.086.246-.185.375-.276a5.487 5.487 0 0 0 .558-.415.451.451 0 0 0 .051-.038 4.1 4.1 0 0 0 .484-.518 1.368 1.368 0 0 0 .082-.122c.032-.042.057-.082.084-.124.046-.074.105-.143.147-.219a3.337 3.337 0 0 0 .206-.44.68.68 0 0 0 .019-.069c.011-.025.015-.053.023-.078a2.471 2.471 0 0 0 .082-.289 2.657 2.657 0 0 0 .051-.444v-.067l.025-8.818V76.47z" class="cls-7" data-name="Path 9549" transform="translate(81.834 -34.419)"/>
                    <path id="Path_9550" d="M24.956 96.77a3.885 3.885 0 0 1-2.287-3.195l-.027 10.113a3.873 3.873 0 0 0 2.291 3.195l64.91 37.477.029-10.113z" class="cls-2" data-name="Path 9550" transform="translate(-22.641 -15.425)"/>
                    <path id="Path_9551" d="M65.533 115.724a8.485 8.485 0 0 1-1.527.672c-.194.067-.388.124-.588.181-.253.07-.505.135-.769.19-.312.065-.63.124-.95.164-.074.01-.147.023-.221.032-.434.046-.874.07-1.312.074h-.187c-.436 0-.87-.027-1.3-.072l-.181-.021a12.192 12.192 0 0 1-1.255-.215c-.067-.017-.137-.036-.211-.053a9.644 9.644 0 0 1-1.091-.333c-.057-.021-.12-.036-.177-.057a9 9 0 0 1-1.184-.562l-.029 10.113a8.587 8.587 0 0 0 1.12.537c.021.011.042.015.063.023.059.023.122.04.183.059.23.084.459.168.7.238.126.036.257.063.39.095.069.019.141.036.213.053s.135.036.206.051c.253.051.51.1.767.133l.267.029.2.023c.095.008.185.023.28.032.251.021.5.036.76.04H60.491c.284-.011.573-.032.857-.057.034 0 .067-.013.1-.015.076-.008.152-.023.225-.032.223-.027.446-.053.661-.093.1-.017.185-.051.282-.069.263-.057.518-.122.775-.194.133-.036.278-.059.411-.1.061-.023.114-.059.175-.08a8.7 8.7 0 0 0 1.527-.672l9.3-5.4.027-10.113z" class="cls-7" data-name="Path 9551" transform="translate(12.652 3.098)"/>
                    <g id="Group_1750" data-name="Group 1750" transform="translate(.027)">
                        <g id="Group_1749" data-name="Group 1749">
                            <path id="Path_9552" fill="#def6ff" d="M227.574 95.258c3.039 1.752 3.047 4.6.027 6.35l-6.013 3.494-111.478 64.785-9.3 5.4a12.056 12.056 0 0 1-10.954 0l-64.915-37.475c-3.037-1.756-3.052-4.589-.034-6.345L151.7 57.785a12.083 12.083 0 0 1 10.966 0z" data-name="Path 9552" transform="translate(-22.654 -56.467)"/>
                        </g>
                    </g>
                    <g id="Group_1752" data-name="Group 1752" transform="translate(11.58 4.812)">
                        <g id="Group_1751" data-name="Group 1751">
                            <path id="Path_9553" fill="url(#linear-gradient-2)" d="M215.522 102.575l-111.48 64.785-75.9-43.82 111.476-64.788z" data-name="Path 9553" transform="translate(-28.139 -58.752)"/>
                        </g>
                    </g>
                    <g id="Group_1753" data-name="Group 1753" transform="translate(152.782 16.285)">
                        <path id="Path_9554" fill="#75b2cc" d="M122.129 77.645c.813.47.834 1.428-.358 2.049a2.891 2.891 0 0 1-2.687.3l-23.6-13.4c-.813-.47.238-1.575 1.047-2.045a3.237 3.237 0 0 1 2.921 0z" data-name="Path 9554" transform="translate(-95.186 -64.2)"/>
                    </g>
                    <g id="Group_1754" data-name="Group 1754" transform="translate(152.801 16.893)">
                        <path id="Path_9555" d="M121.407 77.935a.9.9 0 0 1 .019 1.7 3.257 3.257 0 0 1-2.94 0L95.8 66.535a.9.9 0 0 1 0-1.7 3.226 3.226 0 0 1 2.919 0z" class="cls-7" data-name="Path 9555" transform="translate(-95.195 -64.488)"/>
                    </g>
                    <g id="Group_1755" data-name="Group 1755" transform="translate(87.455 48.635)">
                        <path id="Path_9556" fill="url(#linear-gradient-3)" d="M175.674 79.56l-.028 10.112-111.479 64.787.028-10.113z" data-name="Path 9556" transform="translate(-64.167 -79.56)"/>
                    </g>
                    <g id="Group_1758" class="cls-12" data-name="Group 1758" transform="translate(150.066 53.152)">
                        <g id="Group_1757" clip-path="url(#clip-path-2)" data-name="Group 1757">
                            <g id="Group_1756" class="cls-12" data-name="Group 1756" transform="translate(-.051 -.335)">
                                <path id="Path_9557" fill="#b8387b" d="M94.689 81.546l-.006 2.784a4.022 4.022 0 0 0-.762.337.3.3 0 0 0-.048.029l.008-2.788.051-.027a3.864 3.864 0 0 1 .758-.335z" data-name="Path 9557" transform="translate(-93.872 -81.546)"/>
                            </g>
                        </g>
                    </g>
                    <g id="Group_1792" data-name="Group 1792" transform="translate(42.522 47.883)">
                        <g id="Group_1787" data-name="Group 1787" transform="translate(19.292 6.85)">
                            <g id="Group_1760" class="cls-6" data-name="Group 1760" transform="translate(.428 12.735)">
                                <g id="Group_1759" data-name="Group 1759">
                                    <path id="Path_9559" d="M105.484 104.78c3.123 1.8 3.125 4.728.036 6.522l-5.84 3.398-8.011 4.656-14.231 8.273-4.694-12.7-18.194-10.5c-3.125-1.8-3.14-4.72-.036-6.522l13.851-8.051a12.428 12.428 0 0 1 11.265 0zm-12.442 7.847l2.112-1.23L67.5 95.43l-2.112 1.23 27.654 15.968zm5.613-3.266l2.112-1.228-27.655-15.966L71 93.4l27.657 15.964zm-11.227 6.524l2.114-1.228-27.657-15.965-2.113 1.228 27.654 15.966z" data-name="Path 9559" transform="translate(-52.195 -88.503)"/>
                                </g>
                            </g>
                            <g id="Group_1786" data-name="Group 1786">
                                <g id="Group_1761" data-name="Group 1761" transform="translate(18.807 3.664)">
                                    <path id="Path_9560" d="M63.041 84.2l-.006 3.645-2.113 1.228.007-3.644z" class="cls-15" data-name="Path 9560" transform="translate(-60.922 -84.196)"/>
                                </g>
                                <g id="Group_1762" data-name="Group 1762" transform="translate(13.194 6.927)">
                                    <path id="Path_9561" d="M60.377 85.745l-.008 3.644-2.113 1.228.009-3.642z" class="cls-15" data-name="Path 9561" transform="translate(-58.257 -85.745)"/>
                                </g>
                                <g id="Group_1763" data-name="Group 1763" transform="translate(7.578 10.189)">
                                    <path id="Path_9562" d="M57.713 87.294l-.013 3.644-2.11 1.228.009-3.643z" class="cls-15" data-name="Path 9562" transform="translate(-55.59 -87.294)"/>
                                </g>
                                <g id="Group_1767" data-name="Group 1767" transform="translate(0 12.638)">
                                    <g id="Group_1766" data-name="Group 1766">
                                        <path id="Path_9563" d="M51.992 92.1L52 88.457c0 1.188.781 2.378 2.352 3.288l-.013 3.641c-1.564-.908-2.349-2.096-2.347-3.286z" class="cls-2" data-name="Path 9563" transform="translate(-51.992 -88.457)"/>
                                        <g id="Group_1765" clip-path="url(#clip-path-3)" data-name="Group 1765">
                                            <g id="Group_1764" class="cls-12" data-name="Group 1764">
                                                <path id="Path_9564" d="M54.357 91.745l-.013 3.641c-1.569-.908-2.355-2.1-2.352-3.283L52 88.457c0 1.188.781 2.378 2.352 3.288z" class="cls-2" data-name="Path 9564" transform="translate(-51.992 -88.457)"/>
                                            </g>
                                        </g>
                                    </g>
                                </g>
                                <g id="Group_1768" data-name="Group 1768" transform="translate(20.92 3.664)">
                                    <path id="Path_9566" d="M89.588 100.162l-.012 3.644-27.651-15.965.006-3.645z" class="cls-17" data-name="Path 9566" transform="translate(-61.925 -84.196)"/>
                                </g>
                                <g id="Group_1769" data-name="Group 1769" transform="translate(18.814 3.664)">
                                    <path id="Path_9567" d="M90.694 100.162l-2.113 1.228-27.656-15.966 2.112-1.224z" class="cls-18" data-name="Path 9567" transform="translate(-60.925 -84.196)"/>
                                </g>
                                <g id="Group_1770" data-name="Group 1770" transform="translate(46.459 19.631)">
                                    <path id="Path_9568" d="M76.176 91.777l-.012 3.644-2.112 1.228.011-3.643z" class="cls-19" data-name="Path 9568" transform="translate(-74.052 -91.777)"/>
                                </g>
                                <g id="Group_1771" data-name="Group 1771" transform="translate(18.807 4.893)">
                                    <path id="Path_9569" d="M88.585 100.746l-.011 3.643-27.652-15.966.007-3.644z" class="cls-20" data-name="Path 9569" transform="translate(-60.922 -84.779)"/>
                                </g>
                                <g id="Group_1772" data-name="Group 1772" transform="translate(15.307 6.927)">
                                    <path id="Path_9570" d="M86.921 101.712l-.009 3.643L59.26 89.389l.008-3.644z" class="cls-17" data-name="Path 9570" transform="translate(-59.26 -85.745)"/>
                                </g>
                                <g id="Group_1773" data-name="Group 1773" transform="translate(13.194 8.157)">
                                    <path id="Path_9571" d="M85.919 102.294l-.012 3.644-27.65-15.967.009-3.642z" class="cls-20" data-name="Path 9571" transform="translate(-58.257 -86.329)"/>
                                </g>
                                <g id="Group_1774" data-name="Group 1774" transform="translate(40.844 22.894)">
                                    <path id="Path_9572" d="M73.509 93.327L73.5 96.97l-2.114 1.23.012-3.644z" class="cls-19" data-name="Path 9572" transform="translate(-71.386 -93.327)"/>
                                </g>
                                <g id="Group_1775" data-name="Group 1775" transform="translate(13.203 6.927)">
                                    <path id="Path_9573" d="M88.026 101.712l-2.111 1.228-27.654-15.965 2.112-1.23z" class="cls-18" data-name="Path 9573" transform="translate(-58.261 -85.745)"/>
                                </g>
                                <g id="Group_1776" data-name="Group 1776" transform="translate(9.69 10.189)">
                                    <path id="Path_9574" d="M84.26 103.261l-.013 3.643-27.654-15.966.011-3.644z" class="cls-17" data-name="Path 9574" transform="translate(-56.593 -87.294)"/>
                                </g>
                                <g id="Group_1778" data-name="Group 1778" transform="translate(2.354 15.925)">
                                    <g id="Group_1777" data-name="Group 1777">
                                        <path id="Path_9575" d="M71.315 100.522l-.011 3.643L53.11 93.66l.012-3.642z" class="cls-2" data-name="Path 9575" transform="translate(-53.11 -90.018)"/>
                                    </g>
                                </g>
                                <g id="Group_1779" data-name="Group 1779" transform="translate(35.233 26.155)">
                                    <path id="Path_9576" d="M70.845 94.875l-.013 3.643-2.111 1.228.01-3.644z" class="cls-19" data-name="Path 9576" transform="translate(-68.721 -94.875)"/>
                                </g>
                                <g id="Group_1780" data-name="Group 1780" transform="translate(7.578 11.419)">
                                    <path id="Path_9577" d="M83.255 103.841l-.01 3.644L55.59 91.519l.009-3.641z" class="cls-20" data-name="Path 9577" transform="translate(-55.59 -87.878)"/>
                                </g>
                                <g id="Group_1782" data-name="Group 1782" transform="translate(.011)">
                                    <g id="Group_1781" data-name="Group 1781">
                                        <path id="Path_9578" d="M105.286 98.734c3.125 1.8 3.127 4.728.038 6.522l-5.842 3.4-8.009 4.654-14.233 8.27-4.694-12.7-18.194-10.5c-3.125-1.8-3.14-4.722-.034-6.524l13.849-8.049a12.408 12.408 0 0 1 11.265 0zm-12.445 7.845l2.112-1.228L67.3 89.383l-2.112 1.23 27.652 15.966zm5.615-3.264l2.112-1.228L72.912 86.12 70.8 87.348l27.657 15.966zm-11.227 6.524l2.114-1.228-27.657-15.966-2.112 1.228 27.654 15.966z" class="cls-21" data-name="Path 9578" transform="translate(-51.997 -82.456)"/>
                                    </g>
                                </g>
                                <g id="Group_1783" data-name="Group 1783" transform="translate(7.587 10.189)">
                                    <path id="Path_9579" d="M85.364 103.261l-2.114 1.227-27.656-15.964 2.114-1.231z" class="cls-18" data-name="Path 9579" transform="translate(-55.594 -87.294)"/>
                                </g>
                                <path id="Path_9580" d="M94.383 91.743a2.683 2.683 0 0 1-.137.819c-.008.032-.015.059-.025.091a3.231 3.231 0 0 1-.381.743 1.318 1.318 0 0 1-.084.126 4.5 4.5 0 0 1-.64.705 6.109 6.109 0 0 1-.522.388 5.556 5.556 0 0 1-.52.369l-5.842 3.4-8.009 4.654-14.233 8.272-.011 3.641 14.233-8.268 8.009-4.656 5.838-3.393.1-.061c.171-.1.291-.217.442-.324.171-.126.36-.244.505-.373.019-.017.044-.032.061-.046a4.952 4.952 0 0 0 .491-.529c.034-.042.055-.088.086-.131s.061-.086.088-.131a2.323 2.323 0 0 0 .145-.219 3.532 3.532 0 0 0 .215-.453c.008-.023.011-.044.019-.07l.027-.088c.027-.1.063-.192.082-.291a3.008 3.008 0 0 0 .055-.457v-.495z" class="cls-7" data-name="Path 9580" transform="translate(-38.735 -72.184)"/>
                                <g id="Group_1785" data-name="Group 1785" transform="translate(20.548 26.429)">
                                    <g id="Group_1784" data-name="Group 1784">
                                        <path id="Path_9581" d="M66.455 107.7l-.011 3.642-4.7-12.693.011-3.643z" class="cls-2" data-name="Path 9581" transform="translate(-61.749 -95.005)"/>
                                    </g>
                                </g>
                            </g>
                        </g>
                        <path id="Path_9582" d="M61.288 83.767a16.883 16.883 0 0 0-15.311 0c-4.212 2.449-4.191 6.421.051 8.868a16.859 16.859 0 0 0 15.3 0c4.212-2.453 4.199-6.419-.04-8.868z" class="cls-22" data-name="Path 9582" transform="translate(-42.832 -76.186)"/>
                        <g id="Group_1791" data-name="Group 1791" transform="translate(2.985)">
                            <g id="Group_1788" data-name="Group 1788" transform="translate(3.408 3.229)">
                                <path id="Path_9583" d="M57.5 81.329c1.369.79 1.373 2.066.015 2.856a5.036 5.036 0 0 1-2.525.594c.484 1.007.158 2.207-.965 3.3l-8.161-4.709a12.043 12.043 0 0 1 5.686-.575 1.7 1.7 0 0 1 1.013-1.466 5.445 5.445 0 0 1 4.937 0z" class="cls-21" data-name="Path 9583" transform="translate(-45.867 -80.737)"/>
                            </g>
                            <path id="Path_9584" fill="#e1bb00" d="M65.874 82.561c-.013.105-.017.209-.038.316s-.046.194-.074.291-.053.206-.086.307-.076.181-.116.272c-.048.112-.1.225-.156.337-.044.076-.093.154-.139.23A4.112 4.112 0 0 1 65 84.7c-.051.072-.11.141-.166.211-.143.171-.3.339-.47.505-.059.055-.11.112-.171.164-.105.1-.227.192-.345.289-.1.074-.19.154-.293.227-.122.091-.257.177-.392.263s-.265.179-.411.263a11.231 11.231 0 0 1-1.512.718c-.137.057-.278.107-.415.158-.329.12-.672.213-1.013.31-.36.1-.724.2-1.1.272-.423.088-.855.168-1.291.221-.114.015-.227.038-.343.051a17.814 17.814 0 0 1-1.809.1h-.295c-.6-.006-1.2-.038-1.8-.1-.086-.008-.177-.017-.263-.03a16.82 16.82 0 0 1-1.744-.295c-.1-.023-.2-.053-.3-.076a15 15 0 0 1-1.493-.455c-.093-.034-.19-.059-.28-.095a11.952 11.952 0 0 1-1.647-.777c-2.133-1.23-3.2-2.847-3.195-4.463l-.006 2.784c-.006 1.615 1.059 3.233 3.193 4.465a11.978 11.978 0 0 0 1.561.754c.032.013.063.019.095.029.08.032.164.055.244.084.32.118.638.234.973.331.183.051.371.088.556.135.1.025.194.051.293.072s.183.048.28.07c.352.074.71.135 1.072.185.126.019.259.029.39.044.093.011.179.019.274.032.128.013.257.032.388.042.354.029.708.046 1.066.057h1.107q.6-.022 1.2-.082c.046 0 .091-.013.139-.017.112-.013.217-.034.329-.046.307-.04.613-.074.914-.128.133-.023.255-.07.39-.1.375-.076.733-.171 1.093-.274.185-.051.388-.08.569-.139.15-.051.291-.116.436-.166s.289-.107.432-.164a11.493 11.493 0 0 0 1.5-.714c.046-.025.088-.053.133-.078.1-.057.175-.118.265-.177.139-.088.278-.177.4-.27.107-.078.2-.158.3-.236.116-.093.234-.185.339-.28.021-.019.046-.036.063-.053.042-.038.069-.082.11-.118a6.4 6.4 0 0 0 .465-.5c.032-.036.072-.069.1-.1s.044-.074.07-.107a4.03 4.03 0 0 0 .261-.388c.032-.051.076-.1.1-.154a.685.685 0 0 0 .038-.08c.063-.112.112-.227.164-.343.025-.063.063-.126.086-.192a.631.631 0 0 0 .021-.067c.036-.1.063-.211.091-.316.021-.078.051-.15.065-.227a.53.53 0 0 0 .006-.063c.021-.1.027-.209.038-.312.008-.084.025-.164.027-.246v-.093l.018-2.795c0 .115-.018.227-.026.341z" data-name="Path 9584" transform="translate(-44.249 -75.926)"/>
                            <g id="Group_1790" data-name="Group 1790" transform="translate(.008)">
                                <g id="Group_1789" data-name="Group 1789">
                                    <path id="Path_9585" fill="#ffdf02" d="M62.707 81.039c4.242 2.449 4.256 6.417.042 8.864a16.853 16.853 0 0 1-15.3 0c-4.237-2.447-4.263-6.419-.048-8.869a16.879 16.879 0 0 1 15.306.005zm-15.054 4.025l8.159 4.709c1.125-1.091 1.451-2.291.967-3.3a5.036 5.036 0 0 0 2.525-.594c1.358-.79 1.354-2.066-.015-2.856a5.445 5.445 0 0 0-4.937 0 1.7 1.7 0 0 0-1.013 1.466 12.043 12.043 0 0 0-5.686.575z" data-name="Path 9585" transform="translate(-44.253 -79.203)"/>
                                </g>
                            </g>
                        </g>
                    </g>
                    <g id="Group_1797" data-name="Group 1797" transform="translate(84.096 26.907)">
                        <path id="Path_9586" d="M81.025 74.206a16.866 16.866 0 0 0-15.309 0c-4.212 2.447-4.191 6.419.051 8.869a16.859 16.859 0 0 0 15.3 0c4.217-2.452 4.2-6.422-.042-8.869z" class="cls-22" data-name="Path 9586" transform="translate(-62.572 -65.787)"/>
                        <g id="Group_1796" data-name="Group 1796" transform="translate(1.182)">
                            <g id="Group_1793" data-name="Group 1793" transform="translate(3.405 3.227)">
                                <path id="Path_9587" d="M76.388 71.37c1.369.79 1.373 2.066.017 2.856a4.993 4.993 0 0 1-2.527.59c.486 1.011.158 2.209-.967 3.3l-8.161-4.709a12.1 12.1 0 0 1 5.686-.575 1.713 1.713 0 0 1 1.015-1.466 5.439 5.439 0 0 1 4.937.004z" class="cls-21" data-name="Path 9587" transform="translate(-64.75 -70.776)"/>
                            </g>
                            <path id="Path_9588" fill="#e53399" d="M84.756 72.6c-.011.107-.017.213-.036.316s-.048.194-.074.293-.053.2-.088.307-.074.181-.114.27a3.516 3.516 0 0 1-.16.339 2.606 2.606 0 0 1-.137.227c-.082.133-.168.263-.263.392l-.166.208a6.156 6.156 0 0 1-.47.505c-.057.057-.11.112-.171.166-.107.1-.23.192-.345.286-.1.078-.187.156-.293.23-.122.091-.259.177-.39.261s-.265.179-.413.265a11.65 11.65 0 0 1-1.514.718c-.135.057-.276.107-.415.158-.326.118-.67.213-1.013.31-.36.1-.72.2-1.1.272-.423.086-.853.169-1.293.221-.112.017-.225.036-.341.048a17.821 17.821 0 0 1-1.809.1h-.3c-.6-.006-1.2-.038-1.794-.1-.088-.008-.175-.021-.263-.029a16.878 16.878 0 0 1-1.746-.3c-.1-.021-.2-.048-.3-.074a14.628 14.628 0 0 1-1.493-.453c-.091-.034-.19-.059-.278-.095a12.08 12.08 0 0 1-1.647-.777c-2.133-1.23-3.2-2.849-3.193-4.465l-.008 2.786c-.006 1.615 1.059 3.233 3.195 4.463a11.083 11.083 0 0 0 1.558.748c.029.013.063.021.095.034.078.029.162.053.242.082.322.116.642.232.977.331.181.051.366.088.552.135.1.023.194.048.293.072s.185.048.28.067c.354.076.712.135 1.072.187.131.017.261.027.392.044l.274.027c.128.015.257.036.388.044.354.029.71.051 1.066.059h1.107c.4-.013.8-.04 1.2-.08.046 0 .091-.017.137-.019.114-.013.219-.032.331-.046.305-.038.613-.072.914-.126.135-.025.257-.07.39-.1.375-.076.733-.171 1.093-.272.185-.051.385-.08.569-.139.15-.051.289-.116.438-.166s.286-.107.43-.164a11.533 11.533 0 0 0 1.506-.716c.042-.023.088-.051.131-.078.093-.057.175-.116.263-.175.139-.088.278-.177.4-.27.11-.078.2-.158.3-.236.116-.093.232-.185.339-.28.019-.019.044-.036.065-.055.04-.038.069-.078.107-.116.168-.166.324-.333.465-.5.032-.038.07-.07.1-.105s.044-.072.072-.105c.095-.131.179-.259.259-.388.034-.053.076-.1.105-.156.015-.025.021-.053.038-.078.059-.114.109-.227.16-.345.027-.061.067-.126.091-.192l.017-.065a2.844 2.844 0 0 0 .093-.316c.021-.078.048-.152.065-.227a.585.585 0 0 0 .006-.063c.021-.1.027-.209.038-.312.006-.082.023-.164.027-.246v-.095l.008-2.786c.008.113-.011.227-.021.339z" data-name="Path 9588" transform="translate(-63.133 -65.967)"/>
                            <g id="Group_1795" data-name="Group 1795" transform="translate(.007)">
                                <g id="Group_1794" data-name="Group 1794">
                                    <path id="Path_9589" fill="#ff4caa" d="M81.591 71.079c4.239 2.449 4.254 6.417.042 8.864a16.865 16.865 0 0 1-15.3 0c-4.239-2.447-4.263-6.419-.048-8.869a16.879 16.879 0 0 1 15.306.005zM66.535 75.1l8.165 4.713c1.125-1.093 1.453-2.291.967-3.3a4.994 4.994 0 0 0 2.527-.59c1.356-.79 1.35-2.066-.017-2.856a5.439 5.439 0 0 0-4.937 0 1.713 1.713 0 0 0-1.015 1.466 12.1 12.1 0 0 0-5.686.575z" data-name="Path 9589" transform="translate(-63.136 -69.244)"/>
                                </g>
                            </g>
                        </g>
                    </g>
                </g>
                <g id="Group_1747" data-name="Group 1747" transform="translate(122.15)">
                    <path id="Path_9378" fill="#2267b9" d="M391.705 237.456c6.091-3.538 6.059-9.279-.07-12.817l-22.143-12.756c-6.129-3.54-16.04-3.54-22.134 0l-47.333 26.884c-6.072 3.526-6.04 9.269.093 12.8l22.141 12.754c6.131 3.538 16.04 3.538 22.109.013z" data-name="Path 9378" transform="translate(-281.05 -48.972)" style="mix-blend-mode:multiply;isolation:isolate" opacity="0.5"/>
                    <g id="Group_1746" data-name="Group 1746">
                        <g id="Group_1742" data-name="Group 1742" transform="translate(27.027 128.23)">
                            <path id="Path_9379" d="M315.754 259.087c-.221-.213-.455-.409-.663-.642-.249-.278-.463-.6-.693-.9-.19-.255-.4-.489-.575-.76-.213-.328-.392-.7-.585-1.053-.16-.291-.337-.562-.48-.87-.181-.383-.322-.807-.478-1.215-.124-.322-.267-.623-.375-.96-.147-.453-.253-.946-.373-1.428-.082-.333-.187-.644-.257-.992-.107-.539-.173-1.125-.249-1.7-.044-.324-.107-.626-.141-.96q-.133-1.387-.137-2.885c-.046-16.052 11.246-35.594 25.216-43.658l-9.277-5.394c-13.969 8.066-25.264 27.608-25.218 43.66.023 7.973 2.839 13.586 7.382 16.225l9.279 5.391c-.293-.168-.554-.383-.832-.577-.251-.175-.514-.331-.752-.524-.28-.229-.528-.501-.792-.758z" class="cls-28" data-name="Path 9379" transform="translate(-301.469 -192.199)"/>
                            <path id="Path_9380" d="M349.036 198.257c-.305-.177-.636-.307-.958-.455-.28-.131-.55-.284-.842-.394-.339-.126-.7-.206-1.055-.3-.3-.084-.588-.192-.9-.253-.371-.074-.762-.1-1.148-.145-.316-.036-.621-.1-.946-.114-.4-.019-.811.015-1.217.025-.335.008-.661-.006-1 .025-.421.038-.859.128-1.291.2-.347.057-.686.086-1.042.164-.459.1-.937.257-1.407.392-.343.1-.676.171-1.024.291-.541.183-1.1.428-1.649.659-.293.124-.577.215-.872.352q-1.279.588-2.595 1.346c-13.969 8.064-25.262 27.606-25.216 43.658q0 1.5.137 2.885c.034.335.1.636.141.96.076.573.141 1.158.249 1.7.07.348.175.659.257.992.12.482.225.975.373 1.428.107.337.251.638.375.96.156.409.3.832.478 1.215.143.308.32.579.48.87.194.354.373.724.585 1.053.177.272.385.505.575.76.23.305.444.625.693.9.208.234.442.43.663.642.263.257.512.529.792.756.238.194.5.35.752.524 4.65 3.25 11.358 3.132 18.832-1.184 13.969-8.066 25.245-27.616 25.2-43.669-.021-8-2.856-13.617-7.42-16.243z" class="cls-29" data-name="Path 9380" transform="translate(-296.596 -191.182)"/>
                            <path id="Path_9381" d="M325.315 201.538c.295-.137.579-.227.872-.352.552-.232 1.108-.476 1.649-.659.348-.12.68-.19 1.024-.291.47-.135.948-.293 1.407-.392.356-.078.7-.107 1.043-.164.432-.069.87-.16 1.291-.2.341-.032.668-.017 1-.025.406-.011.821-.044 1.217-.025.324.017.63.078.946.114.385.046.777.072 1.148.145.31.061.6.168.9.253.354.1.716.177 1.055.3.293.109.562.263.842.394.322.147.653.278.958.455l.046.021-9.277-5.391c-4.6-2.67-10.964-2.291-17.992 1.765l9.277 5.394q1.313-.755 2.594-1.342z" class="cls-30" data-name="Path 9381" transform="translate(-288.225 -194.021)"/>
                        </g>
                        <g id="Group_1743" data-name="Group 1743" transform="translate(0 15.824)">
                            <path id="Path_9382" d="M377.9 147.626L292.55 196.9l85.35-49.274z" class="cls-31" data-name="Path 9382" transform="translate(-284.307 -132.929)"/>
                            <path id="Path_9383" d="M333.074 149.309l5.549-3.2.272 95.868-.272-95.868z" class="cls-28" data-name="Path 9383" transform="translate(-239.485 -134.611)"/>
                            <path id="Path_9384" d="M339.053 145.924c.727.411 1.43.811 2.157 1.224l2.308 1.314 1.293.737-5.558-3.231c-3.656-2.083-5.714-3.256-9.368-5.318l5.558 3.229c1.373.775 2.519 1.421 3.61 2.045z" class="cls-28" data-name="Path 9384" transform="translate(-243.013 -140.645)"/>
                            <path id="Path_9385" d="M376.173 143.882l-5.557-3.229-.01-.006-77.547 44.771 5.567 3.235z" class="cls-28" data-name="Path 9385" transform="translate(-283.743 -140.647)"/>
                            <path id="Path_9386" d="M294.2 181.258c3.637-6.3 5.68-9.839 9.317-16.117l-5.568-3.235c-3.635 6.278-5.68 9.818-9.315 16.115z" class="cls-28" data-name="Path 9386" transform="translate(-288.636 -117.135)"/>
                            <path id="Path_9387" d="M294.2 172.794l-5.567-3.236.28 98.669 5.568 3.236z" class="cls-28" data-name="Path 9387" transform="translate(-288.636 -108.671)"/>
                            <path id="Path_9388" d="M387.519 147.507h-.009l-1.293-.737-2.308-1.314c-.727-.413-1.43-.813-2.156-1.224-1.091-.621-2.237-1.27-3.61-2.045L300.6 186.955c-3.637 6.278-5.68 9.818-9.317 16.117l.28 98.668c3.66 2.085 5.718 3.239 9.378 5.324l77.544-44.77c3.637-6.3 5.68-9.82 9.317-16.117zm-2.4 98.8l-90.895 52.478-.272-95.869 85.348-49.27 5.549-3.2.272 95.867z" class="cls-29" data-name="Path 9388" transform="translate(-285.712 -138.949)"/>
                        </g>
                        <g id="Group_1744" data-name="Group 1744" transform="translate(4.162)">
                            <path id="Path_9389" d="M340.35 195.911c.067-.067.118-.15.181-.223-.063.076-.116.156-.181.223z" class="cls-32" data-name="Path 9389" transform="translate(-235.6 -63.947)"/>
                            <path id="Path_9390" d="M340.87 194.358c-.03-.065-.086-.091-.124-.143l.008.011c.034.048.089.074.116.132z" class="cls-32" data-name="Path 9390" transform="translate(-235.162 -65.576)"/>
                            <path id="Path_9391" d="M340.6 195.524c.021-.034.053-.063.074-.1-.021.036-.053.065-.074.1z" class="cls-32" data-name="Path 9391" transform="translate(-235.328 -64.238)"/>
                            <path id="Path_9392" d="M340.435 195.884a4.3 4.3 0 0 0 .274-.369 4.033 4.033 0 0 1-.274.369z" class="cls-31" data-name="Path 9392" transform="translate(-235.506 -64.14)"/>
                            <path id="Path_9393" d="M340.043 196.316a3.117 3.117 0 0 0 .647-.522 3.117 3.117 0 0 1-.647.522z" class="cls-31" data-name="Path 9393" transform="translate(-235.939 -63.829)"/>
                            <path id="Path_9394" d="M340.566 195.558c.019-.03.044-.055.063-.086-.019.028-.044.057-.063.086z" class="cls-31" data-name="Path 9394" transform="translate(-235.361 -64.186)"/>
                            <path id="Path_9395" d="M340.566 194.071h-.017c-.065-.006-.116-.044-.185-.036.076-.013.136.027.202.036z" class="cls-31" data-name="Path 9395" transform="translate(-235.584 -65.781)"/>
                            <path id="Path_9396" d="M340.885 194.373l-.008-.011a.919.919 0 0 0-.249-.28.908.908 0 0 1 .257.291z" class="cls-31" data-name="Path 9396" transform="translate(-235.292 -65.723)"/>
                            <path id="Path_9397" d="M340.8 194.283a1.7 1.7 0 0 1 .137.706 1.7 1.7 0 0 0-.137-.706z" class="cls-31" data-name="Path 9397" transform="translate(-235.096 -65.501)"/>
                            <path id="Path_9398" d="M340.726 194.03a1.7 1.7 0 0 0-.687.238 1.686 1.686 0 0 1 .687-.238z" class="cls-33" data-name="Path 9398" transform="translate(-235.946 -65.781)"/>
                            <path id="Path_9399" d="M340.821 194.119a.913.913 0 0 0-.369-.072h.017a.9.9 0 0 1 .352.072z" class="cls-33" data-name="Path 9399" transform="translate(-235.487 -65.762)"/>
                            <path id="Path_9401" d="M346.483 194.143l-12.272 7.085z" class="cls-33" data-name="Path 9401" transform="translate(-242.39 -65.656)"/>
                            <path id="Path_9402" d="M334.565 197.507a3.074 3.074 0 0 0-.676.548 3.074 3.074 0 0 1 .676-.548z" class="cls-33" data-name="Path 9402" transform="translate(-242.746 -61.935)"/>
                            <path id="Path_9403" d="M333.52 198.529a3.012 3.012 0 0 0-.137.866 3.012 3.012 0 0 1 .137-.866z" class="cls-33" data-name="Path 9403" transform="translate(-243.305 -60.804)"/>
                            <path id="Path_9404" d="M348.9 194.431a.906.906 0 0 0-.257-.291.9.9 0 0 0-.352-.067c-.07-.008-.126-.048-.2-.04a1.687 1.687 0 0 0-.687.238l-12.274 7.085a3.078 3.078 0 0 0-.676.548 4.154 4.154 0 0 0-.929 1.6 3.012 3.012 0 0 0-.137.866 1.614 1.614 0 0 0 .141.7c.27.56.9.7 1.613.286l12.272-7.085a3.115 3.115 0 0 0 .647-.522c.065-.067.118-.147.179-.221a4.041 4.041 0 0 0 .276-.371c.019-.03.044-.055.063-.086s.052-.063.074-.1a3.484 3.484 0 0 0 .5-1.7 1.7 1.7 0 0 0-.137-.705c-.029-.066-.084-.087-.116-.135z" class="cls-33" data-name="Path 9404" transform="translate(-243.305 -65.781)"/>
                            <path id="Path_9405" d="M385.419 184.013l-86.15 49.739z" class="cls-34" data-name="Path 9405" transform="translate(-281.037 -76.86)"/>
                            <path id="Path_9406" d="M340.175 184.437l1.4-.807-1.4.807z" class="cls-31" data-name="Path 9406" transform="translate(-235.793 -77.283)"/>
                            <path id="Path_9407" d="M335.9 178.975l.044-.053a17.363 17.363 0 0 0 1.367-1.756c.133-.194.261-.39.385-.59a17.28 17.28 0 0 1-1.796 2.399z" class="cls-35" data-name="Path 9407" transform="translate(-240.523 -85.085)"/>
                            <path id="Path_9408" d="M338.126 173.136c0-.1.023-.2.025-.3a12.473 12.473 0 0 1-.339 2.565 12.628 12.628 0 0 0 .314-2.265z" class="cls-35" data-name="Path 9408" transform="translate(-238.407 -89.218)"/>
                            <path id="Path_9409" d="M337.791 171.479l-.006-.008a4.25 4.25 0 0 0-.421-.644 4.265 4.265 0 0 1 .427.652z" class="cls-35" data-name="Path 9409" transform="translate(-238.903 -91.445)"/>
                            <path id="Path_9410" d="M336.867 170.444h-.006a4.268 4.268 0 0 0-.468-.173 3.975 3.975 0 0 1 .474.173z" class="cls-35" data-name="Path 9410" transform="translate(-239.976 -92.061)"/>
                            <path id="Path_9411" d="M337.45 170.894a3.784 3.784 0 0 0-.522-.421 3.6 3.6 0 0 1 .522.421z" class="cls-35" data-name="Path 9411" transform="translate(-239.387 -91.84)"/>
                            <path id="Path_9412" d="M337.991 172.255a6.176 6.176 0 0 0-.295-.918 5.991 5.991 0 0 1 .295.918z" class="cls-35" data-name="Path 9412" transform="translate(-238.537 -90.884)"/>
                            <path id="Path_9413" d="M336.29 170.265a5.052 5.052 0 0 0-.51-.023 5.024 5.024 0 0 1 .51.023z" class="cls-35" data-name="Path 9413" transform="translate(-240.654 -92.095)"/>
                            <path id="Path_9414" d="M337.9 171.984a8.556 8.556 0 0 1 .158 1.653 8.556 8.556 0 0 0-.158-1.653z" class="cls-35" data-name="Path 9414" transform="translate(-238.306 -90.164)"/>
                            <path id="Path_9415" d="M337.27 170.6l-.015-.013a3.923 3.923 0 0 0-.64-.236h.006a3.584 3.584 0 0 1 .649.249z" class="cls-3" data-name="Path 9415" transform="translate(-239.731 -91.97)"/>
                            <path id="Path_9417" d="M336.8 170.289a4.547 4.547 0 0 0-.781-.038 4.536 4.536 0 0 1 .781.038z" class="cls-3" data-name="Path 9417" transform="translate(-240.387 -92.081)"/>
                            <path id="Path_9418" d="M331.408 176.1a18.245 18.245 0 0 1 2.032-3.519 18.245 18.245 0 0 0-2.032 3.519z" class="cls-3" data-name="Path 9418" transform="translate(-245.49 -89.499)"/>
                            <path id="Path_9419" d="M332.077 174.256a14.124 14.124 0 0 0-1.274 5.594 14.124 14.124 0 0 1 1.274-5.594z" class="cls-3" data-name="Path 9419" transform="translate(-246.159 -87.651)"/>
                            <path id="Path_9420" d="M345.756 173.915v-.006c-.034-.162-.1-.289-.143-.442a5.983 5.983 0 0 0-.3-.922 4.832 4.832 0 0 0-.27-.415 4.255 4.255 0 0 0-.428-.653l-.008-.013a3.238 3.238 0 0 0-.388-.314 2.158 2.158 0 0 0-1.173-.672 3.975 3.975 0 0 0-.474-.175 4.528 4.528 0 0 0-.781-.038 5.023 5.023 0 0 0-.51-.023h-.011a6.167 6.167 0 0 0-1.422.314 8.887 8.887 0 0 0-1.527.705 14.264 14.264 0 0 0-4.216 3.919 18.245 18.245 0 0 0-2.032 3.519 14.124 14.124 0 0 0-1.274 5.594 7.186 7.186 0 0 0 .6 3.045c1.154 2.46 3.841 3.094 6.969 1.289a11.729 11.729 0 0 0 1.527-1.057 14.688 14.688 0 0 0 1.419-1.327c.076-.08.141-.175.215-.259a17.292 17.292 0 0 0 1.8-2.4c.305-.484.583-.979.842-1.489a17.034 17.034 0 0 0 1.257-3.235c.053-.194.091-.385.133-.581a12.475 12.475 0 0 0 .339-2.565c0-.048.011-.1.011-.147a8.563 8.563 0 0 0-.155-1.652z" class="cls-3" data-name="Path 9420" transform="translate(-246.159 -92.095)"/>
                            <path id="Path_9421" d="M306.351 215.416c.025-.032.048-.067.074-.1-.025.033-.049.068-.074.1z" class="cls-31" data-name="Path 9421" transform="translate(-273.204 -42.236)"/>
                            <path id="Path_9422" d="M306.623 215.076c.044-.1.095-.2.131-.3-.036.102-.087.199-.131.3z" class="cls-31" data-name="Path 9422" transform="translate(-272.903 -42.834)"/>
                            <rect id="Rectangle_1647" height=".001" class="cls-31" data-name="Rectangle 1647" transform="translate(34.048 170.939)"/>
                            <path id="Path_9423" d="M306.386 215.406c.042-.055.084-.109.122-.166-.038.06-.08.111-.122.166z" class="cls-31" data-name="Path 9423" transform="translate(-273.165 -42.325)"/>
                            <path id="Path_9424" d="M306.471 213.75c-.027 0-.048-.015-.076-.015s-.074-.029-.12-.025a.847.847 0 0 1 .196.04z" class="cls-31" data-name="Path 9424" transform="translate(-273.288 -44.014)"/>
                            <path id="Path_9426" d="M306.851 214.672a1.714 1.714 0 0 0-.137-.708 1.714 1.714 0 0 1 .137.708z" class="cls-31" data-name="Path 9426" transform="translate(-272.802 -43.733)"/>
                            <path id="Path_9427" d="M306.807 214.068c-.013-.017-.029-.029-.04-.046a.943.943 0 0 0-.23-.259.931.931 0 0 1 .27.305z" class="cls-31" data-name="Path 9427" transform="translate(-272.998 -43.955)"/>
                            <path id="Rectangle_1648" d="M0 0H0.001V0.001H0z" class="cls-34" data-name="Rectangle 1648" transform="translate(33.539 169.807)"/>
                            <path id="Path_9429" d="M306.629 213.71a1.656 1.656 0 0 0-.674.234 1.656 1.656 0 0 1 .674-.234z" class="cls-34" data-name="Path 9429" transform="translate(-273.642 -44.014)"/>
                            <path id="Path_9430" d="M306.764 213.808a.919.919 0 0 0-.43-.084c.027 0 .049.013.076.015a.894.894 0 0 1 .354.069z" class="cls-34" data-name="Path 9430" transform="translate(-273.225 -44)"/>
                            <path id="Path_9431" d="M337.424 157.743l-.008-.011a3.877 3.877 0 0 0-.526-.425 3.611 3.611 0 0 1 .534.436z" class="cls-35" data-name="Path 9431" transform="translate(-239.428 -106.397)"/>
                            <path id="Path_9432" d="M337.753 158.315v-.006a4.218 4.218 0 0 0-.423-.644 4.36 4.36 0 0 1 .423.65z" class="cls-35" data-name="Path 9432" transform="translate(-238.946 -106.003)"/>
                            <path id="Path_9433" d="M336.848 157.289l-.015-.006a3.784 3.784 0 0 0-.476-.175 3.615 3.615 0 0 1 .491.181z" class="cls-35" data-name="Path 9433" transform="translate(-240.018 -106.618)"/>
                            <path id="Path_9434" d="M336.263 157.105h-.013a5.02 5.02 0 0 0-.508-.023 4.678 4.678 0 0 1 .521.023z" class="cls-35" data-name="Path 9434" transform="translate(-240.695 -106.653)"/>
                            <path id="Path_9435" d="M322.383 185.107l-.013-4.366z" class="cls-36" data-name="Path 9435" transform="translate(-255.486 -80.478)"/>
                            <path id="Path_9436" d="M319.176 185.815l.009 3.38 3.8-2.193-.01-3.381z" class="cls-3" data-name="Path 9436" transform="translate(-259.019 -77.293)"/>
                            <path id="Path_9437" d="M299.321 218.555c0 .044-.021.091-.021.133 0-.042.019-.088.021-.133z" class="cls-34" data-name="Path 9437" transform="translate(-281.003 -38.655)"/>
                            <path id="Path_9438" d="M314.811 214.127a.93.93 0 0 0-.27-.305.9.9 0 0 0-.356-.072.848.848 0 0 0-.2-.04 1.656 1.656 0 0 0-.674.234l-12.289 7.1a2.912 2.912 0 0 0-.676.545 3.873 3.873 0 0 0-1.03 2.329c0 .044-.021.091-.021.133a1.056 1.056 0 0 0 1.738.99l12.289-7.1a2.949 2.949 0 0 0 .678-.541c.057-.059.1-.137.15-.2.025-.032.048-.067.074-.1.042-.055.084-.11.122-.169a3.945 3.945 0 0 0 .377-.67c.044-.1.095-.2.131-.3a3.114 3.114 0 0 0 .2-1 1.715 1.715 0 0 0-.137-.708c-.028-.06-.077-.081-.106-.126z" class="cls-34" data-name="Path 9438" transform="translate(-281.003 -44.014)"/>
                            <path id="Path_9440" d="M337.229 157.435a3.857 3.857 0 0 0-.647-.244l.015.006a3.61 3.61 0 0 1 .632.238z" class="cls-37" data-name="Path 9440" transform="translate(-239.767 -106.526)"/>
                            <path id="Path_9441" d="M336.765 157.129a4.36 4.36 0 0 0-.783-.04h.013a4.381 4.381 0 0 1 .77.04z" class="cls-37" data-name="Path 9441" transform="translate(-240.429 -106.639)"/>
                            <path id="Path_9442" d="M331.806 161.8a17.749 17.749 0 0 1 2.178-2.984 17.867 17.867 0 0 0-2.178 2.984z" class="cls-37" data-name="Path 9442" transform="translate(-245.05 -104.73)"/>
                            <path id="Path_9443" d="M331.249 162.74a18.2 18.2 0 0 1 1.173-2.508 18.2 18.2 0 0 0-1.173 2.508z" class="cls-37" data-name="Path 9443" transform="translate(-245.666 -103.162)"/>
                            <path id="Path_9444" d="M334.358 158.064a14.355 14.355 0 0 0-1.415 1.323 14.355 14.355 0 0 1 1.415-1.323z" class="cls-37" data-name="Path 9444" transform="translate(-243.792 -105.56)"/>
                            <path id="Path_9445" d="M327.464 180.742l-2.941 1.7-3.8 2.194-2.958 1.708.012 4.365 2.96-1.708 3.8-2.193 2.943-1.7z" class="cls-3" data-name="Path 9445" transform="translate(-260.58 -80.478)"/>
                            <path id="Path_9446" d="M322.974 183.323l-.01-3.379-3.8 2.193.009 3.38z" class="cls-3" data-name="Path 9446" transform="translate(-259.031 -81.361)"/>
                            <path id="Path_9447" d="M343.148 174.241l-.1-33.534z" class="cls-30" data-name="Path 9447" transform="translate(-232.611 -124.757)"/>
                            <path id="Path_9448" d="M335.048 153.273a14.4 14.4 0 0 0 1.419-1.325c.042-.044.078-.1.118-.143.2-.221.39-.463.581-.7a15.2 15.2 0 0 1-2.118 2.168z" class="cls-35" data-name="Path 9448" transform="translate(-241.464 -113.256)"/>
                            <path id="Path_9449" d="M337.711 145.146a4.306 4.306 0 0 0-.419-.64 4.671 4.671 0 0 1 .419.64z" class="cls-35" data-name="Path 9449" transform="translate(-238.986 -120.56)"/>
                            <path id="Path_9450" d="M337.985 147.313a8.427 8.427 0 0 0-.156-1.653 8.427 8.427 0 0 1 .156 1.653z" class="cls-35" data-name="Path 9450" transform="translate(-238.388 -119.279)"/>
                            <path id="Path_9451" d="M336.227 143.943h-.015a4.015 4.015 0 0 0-.508-.023 4.254 4.254 0 0 1 .523.023z" class="cls-35" data-name="Path 9451" transform="translate(-240.737 -121.21)"/>
                            <path id="Path_9452" d="M336.809 144.127l-.015-.006a3.673 3.673 0 0 0-.476-.175 3.5 3.5 0 0 1 .491.181z" class="cls-35" data-name="Path 9452" transform="translate(-240.059 -121.175)"/>
                            <path id="Path_9453" d="M337.916 145.926v-.013a6.133 6.133 0 0 0-.293-.9 6.235 6.235 0 0 1 .293.913z" class="cls-35" data-name="Path 9453" transform="translate(-238.62 -119.998)"/>
                            <path id="Path_9454" d="M337.378 144.573l-.011-.011a3.619 3.619 0 0 0-.516-.417 3.75 3.75 0 0 1 .527.428z" class="cls-35" data-name="Path 9454" transform="translate(-239.47 -120.955)"/>
                            <path id="Path_9455" d="M321.953 165.369h-.021a5 5 0 0 0-.505-.023 4.833 4.833 0 0 1 .526.023z" class="cls-35" data-name="Path 9455" transform="translate(-256.53 -97.51)"/>
                            <path id="Path_9456" d="M321.234 165.441c-.023.006-.044.008-.067.015-.141.038-.272.042-.417.093.169-.06.322-.066.484-.108z" class="cls-35" data-name="Path 9456" transform="translate(-257.278 -97.401)"/>
                            <path id="Path_9457" d="M322.527 165.555h-.008a3.768 3.768 0 0 0-.482-.177 3.509 3.509 0 0 1 .49.177z" class="cls-35" data-name="Path 9457" transform="translate(-255.856 -97.475)"/>
                            <path id="Path_9458" d="M323.625 167.326a5.777 5.777 0 0 0-.286-.882 5.917 5.917 0 0 1 .286.882z" class="cls-35" data-name="Path 9458" transform="translate(-254.418 -96.297)"/>
                            <path id="Path_9459" d="M323.421 166.566l-.006-.01a4.578 4.578 0 0 0-.409-.626 4.6 4.6 0 0 1 .415.636z" class="cls-35" data-name="Path 9459" transform="translate(-254.783 -96.86)"/>
                            <path id="Path_9460" d="M323.1 166v-.006a3.827 3.827 0 0 0-.522-.423 3.5 3.5 0 0 1 .522.429z" class="cls-35" data-name="Path 9460" transform="translate(-255.266 -97.255)"/>
                            <path id="Path_9462" d="M336.729 143.966a4.544 4.544 0 0 0-.783-.038h.015a4.383 4.383 0 0 1 .768.038z" class="cls-3" data-name="Path 9462" transform="translate(-240.471 -121.195)"/>
                            <path id="Path_9463" d="M337.191 144.273a3.718 3.718 0 0 0-.647-.244l.015.006a3.716 3.716 0 0 1 .632.238z" class="cls-3" data-name="Path 9463" transform="translate(-239.809 -121.083)"/>
                            <path id="Path_9464" d="M331.769 148.637a17.93 17.93 0 0 1 2.178-2.984 17.844 17.844 0 0 0-2.178 2.984z" class="cls-3" data-name="Path 9464" transform="translate(-245.091 -119.287)"/>
                            <path id="Path_9465" d="M331.245 149.391a18.1 18.1 0 0 1 1.1-2.321 18.1 18.1 0 0 0-1.1 2.321z" class="cls-3" data-name="Path 9465" transform="translate(-245.67 -117.72)"/>
                            <path id="Path_9466" d="M334.321 144.9a14.327 14.327 0 0 0-1.415 1.323 14.327 14.327 0 0 1 1.415-1.323z" class="cls-3" data-name="Path 9466" transform="translate(-243.833 -120.118)"/>
                            <path id="Path_9467" d="M322.905 165.7a3.647 3.647 0 0 0-.64-.242h.008a3.614 3.614 0 0 1 .632.242z" class="cls-38" data-name="Path 9467" transform="translate(-255.602 -97.382)"/>
                            <path id="Path_9468" d="M321.955 165.344a5.966 5.966 0 0 0-1.007.219c.023-.006.044-.008.067-.015a5.935 5.935 0 0 1 .94-.204z" class="cls-38" data-name="Path 9468" transform="translate(-257.059 -97.508)"/>
                            <path id="Path_9469" d="M321.551 165.492a8.684 8.684 0 0 0-1.525.7 8.684 8.684 0 0 1 1.525-.7z" class="cls-38" data-name="Path 9469" transform="translate(-258.079 -97.345)"/>
                            <path id="Path_9470" d="M322.437 165.391a4.422 4.422 0 0 0-.771-.036h.021a4.615 4.615 0 0 1 .75.036z" class="cls-38" data-name="Path 9470" transform="translate(-256.265 -97.496)"/>
                            <path id="Path_9471" d="M322.042 165.376h-.01.01z" class="cls-38" data-name="Path 9471" transform="translate(-255.861 -97.477)"/>
                            <path id="Path_9472" d="M321.573 165.825a13.175 13.175 0 0 0-2.946 2.384 13.175 13.175 0 0 1 2.946-2.384z" class="cls-38" data-name="Path 9472" transform="translate(-259.626 -96.976)"/>
                            <path id="Path_9473" d="M302.777 192.634a18.339 18.339 0 0 1 2.03-3.519 18.339 18.339 0 0 0-2.03 3.519z" class="cls-3" data-name="Path 9473" transform="translate(-277.157 -71.217)"/>
                            <path id="Path_9474" d="M303.447 190.786a14.129 14.129 0 0 0-1.276 5.594 14.129 14.129 0 0 1 1.276-5.594z" class="cls-3" data-name="Path 9474" transform="translate(-277.827 -69.369)"/>
                            <path id="Path_9475" d="M299.269 234.176v1.622l87.549-50.545v-1.623l-1.4.807z" class="cls-34" data-name="Path 9475" transform="translate(-281.037 -77.283)"/>
                            <path id="Path_9476" d="M309.114 174.854v-.006a4.545 4.545 0 0 0-.423-.651 4.515 4.515 0 0 1 .423.657z" class="cls-35" data-name="Path 9476" transform="translate(-270.621 -87.716)"/>
                            <path id="Path_9477" d="M307.632 173.639h-.013a4.571 4.571 0 0 0-.514-.025 4.322 4.322 0 0 1 .527.025z" class="cls-35" data-name="Path 9477" transform="translate(-272.369 -88.367)"/>
                            <path id="Path_9478" d="M308.794 174.283l-.013-.013a3.81 3.81 0 0 0-.533-.43 3.744 3.744 0 0 1 .546.443z" class="cls-35" data-name="Path 9478" transform="translate(-271.105 -88.11)"/>
                            <path id="Path_9479" d="M308.2 173.822l-.019-.008a3.518 3.518 0 0 0-.465-.173 3.805 3.805 0 0 1 .484.181z" class="cls-35" data-name="Path 9479" transform="translate(-271.693 -88.331)"/>
                            <path id="Path_9480" d="M316.637 158.51a16.56 16.56 0 0 1 .794-2.31 16.56 16.56 0 0 0-.794 2.31z" class="cls-39" data-name="Path 9480" transform="translate(-261.827 -107.622)"/>
                            <path id="Path_9481" d="M316.421 158.785c0 .048-.013.1-.013.15 0-.049.013-.102.013-.15z" class="cls-39" data-name="Path 9481" transform="translate(-262.081 -104.763)"/>
                            <path id="Path_9482" d="M323.948 153.208A13.155 13.155 0 0 0 321 155.59a17.763 17.763 0 0 0-2.4 3.248 18.376 18.376 0 0 0-.918 1.818 16.561 16.561 0 0 0-.794 2.31 12.629 12.629 0 0 0-.47 3.134c0 .048-.013.1-.013.15.008 2.995 1.335 4.871 3.353 5.267a6.194 6.194 0 0 0 4.235-.962 16.218 16.218 0 0 0 6.249-7.436 14.138 14.138 0 0 0 1.276-5.594c-.01-4.793-3.4-6.725-7.57-4.317z" class="cls-39" data-name="Path 9482" transform="translate(-262.081 -112.077)"/>
                            <path id="Path_9483" d="M308.593 173.972a3.652 3.652 0 0 0-.655-.249l.019.008a3.439 3.439 0 0 1 .636.241z" class="cls-37" data-name="Path 9483" transform="translate(-271.449 -88.241)"/>
                            <path id="Path_9484" d="M308.123 173.661a4.431 4.431 0 0 0-.773-.038h.013a4.733 4.733 0 0 1 .76.038z" class="cls-37" data-name="Path 9484" transform="translate(-272.099 -88.351)"/>
                            <path id="Path_9486" d="M302.739 179.472a18.232 18.232 0 0 1 2.032-3.519 18.232 18.232 0 0 0-2.032 3.519z" class="cls-37" data-name="Path 9486" transform="translate(-277.199 -85.774)"/>
                            <path id="Path_9487" d="M303.408 177.624a14.142 14.142 0 0 0-1.274 5.594 14.142 14.142 0 0 1 1.274-5.594z" class="cls-37" data-name="Path 9487" transform="translate(-277.868 -83.926)"/>
                            <path id="Path_9488" d="M308.164 160.66h-.008a4.15 4.15 0 0 0-.476-.177 3.806 3.806 0 0 1 .484.177z" class="cls-35" data-name="Path 9488" transform="translate(-271.734 -102.889)"/>
                            <path id="Path_9489" d="M309.073 161.685a4.589 4.589 0 0 0-.421-.644 4.43 4.43 0 0 1 .421.644z" class="cls-35" data-name="Path 9489" transform="translate(-270.663 -102.273)"/>
                            <path id="Path_9490" d="M308.743 161.111l-.013-.011a3.626 3.626 0 0 0-.518-.421 3.554 3.554 0 0 1 .531.432z" class="cls-35" data-name="Path 9490" transform="translate(-271.146 -102.668)"/>
                            <path id="Path_9491" d="M307.685 160.481h-.011.011z" class="cls-3" data-name="Path 9491" transform="translate(-271.74 -102.891)"/>
                            <path id="Path_9492" d="M308.55 160.807a3.759 3.759 0 0 0-.644-.244h.008a3.664 3.664 0 0 1 .636.244z" class="cls-3" data-name="Path 9492" transform="translate(-271.484 -102.796)"/>
                            <path id="Path_9493" d="M302.246 166.247a11.45 11.45 0 0 0-.149 1.836 11.45 11.45 0 0 1 .149-1.836z" class="cls-3" data-name="Path 9493" transform="translate(-277.91 -96.509)"/>
                            <path id="Path_9494" d="M297.6 283.256l95.3-55.02-.246-86.731-9.092-5.2-77.182 44.557-9.031 15.663zm85.32-70.156c0 .048-.01.1-.01.147 0 .1-.021.2-.025.3a12.911 12.911 0 0 1-.446 2.849 17.034 17.034 0 0 1-1.257 3.235 18.573 18.573 0 0 1-1.228 2.079 17.367 17.367 0 0 1-1.367 1.756c-.088.1-.168.215-.259.312a14.688 14.688 0 0 1-1.428 1.322 11.738 11.738 0 0 1-1.527 1.057c-3.128 1.8-5.815 1.171-6.969-1.289a7.187 7.187 0 0 1-.6-3.045 14.126 14.126 0 0 1 1.274-5.594 18.242 18.242 0 0 1 2.032-3.519 14.263 14.263 0 0 1 4.216-3.919 8.893 8.893 0 0 1 1.527-.705 6.168 6.168 0 0 1 1.422-.314h.011a5.062 5.062 0 0 1 .51.023 4.537 4.537 0 0 1 .781.038 4.258 4.258 0 0 1 .468.173 3.924 3.924 0 0 1 .64.236l.015.013a3.776 3.776 0 0 1 .522.421 3.7 3.7 0 0 1 .39.318l.008.013a454.754 454.754 0 0 1 .7 1.068 6.214 6.214 0 0 1 .295.916c.044.156.112.284.145.449a8.594 8.594 0 0 1 .158 1.655zm-.661-24a16.749 16.749 0 0 1-6.956 9.338c-2.605 1.506-4.907 1.308-6.272-.223a4.521 4.521 0 0 1-.7-1.074 7.185 7.185 0 0 1-.6-3.037 13.772 13.772 0 0 1 1.019-4.9 18.2 18.2 0 0 1 1.173-2.508 17.873 17.873 0 0 1 2.178-2.984c.076-.082.141-.179.217-.259a14.347 14.347 0 0 1 1.415-1.323 11.44 11.44 0 0 1 1.521-1.055 8.6 8.6 0 0 1 1.529-.706 6.072 6.072 0 0 1 1.422-.316h.011a5.025 5.025 0 0 1 .508.023 4.358 4.358 0 0 1 .783.04 3.779 3.779 0 0 1 .476.175 5.3 5.3 0 0 1 1.565 1 4.213 4.213 0 0 1 .423.644 4.866 4.866 0 0 1 .272.415 7.151 7.151 0 0 1 .6 3.033 12.943 12.943 0 0 1-.589 3.717zm-.792-35.533a4.3 4.3 0 0 1 .419.64 4.234 4.234 0 0 1 .274.419v.01a6.145 6.145 0 0 1 .293.9c.044.16.114.295.15.465a8.432 8.432 0 0 1 .156 1.653 12.849 12.849 0 0 1-.583 3.719 17.955 17.955 0 0 1-3.311 6.1c-.192.236-.377.478-.581.7-.04.046-.076.1-.118.143a14.4 14.4 0 0 1-1.419 1.325 11.812 11.812 0 0 1-1.527 1.059 7.286 7.286 0 0 1-2.94 1.013c-2.713.249-4.623-1.735-4.631-5.33a13.8 13.8 0 0 1 1.089-5.088 18.088 18.088 0 0 1 1.1-2.321 17.834 17.834 0 0 1 2.178-2.984c.076-.082.141-.179.217-.259a14.327 14.327 0 0 1 1.415-1.323 11.647 11.647 0 0 1 1.521-1.055 8.809 8.809 0 0 1 1.527-.706 6.172 6.172 0 0 1 1.424-.316h.008a4.026 4.026 0 0 1 .508.023 4.546 4.546 0 0 1 .783.038 3.665 3.665 0 0 1 .476.175 3.716 3.716 0 0 1 .647.244 49.351 49.351 0 0 1 .92.752zm-36.228 89.993c-4.185 2.416-7.575.484-7.588-4.326a16.585 16.585 0 0 1 7.54-13.041c4.17-2.405 7.559-.474 7.573 4.315a16.588 16.588 0 0 1-7.53 13.053zm2.858-30.1a13.036 13.036 0 0 1-2.936 2.38 7.287 7.287 0 0 1-2.951 1.017c-2.719.246-4.629-1.748-4.64-5.341a12.92 12.92 0 0 1 .583-3.719 18.023 18.023 0 0 1 4.012-6.939 13.178 13.178 0 0 1 2.946-2.384 8.691 8.691 0 0 1 1.525-.7c.145-.051.276-.055.417-.093a5.97 5.97 0 0 1 1.007-.219 5.011 5.011 0 0 1 .505.023 4.423 4.423 0 0 1 .771.036h.008a3.772 3.772 0 0 1 .482.177 3.649 3.649 0 0 1 .64.242 3.823 3.823 0 0 1 .522.423 3.519 3.519 0 0 1 .39.318l.008.01a4.576 4.576 0 0 1 .409.626 4.161 4.161 0 0 1 .286.446 5.822 5.822 0 0 1 .286.88c.046.166.12.305.156.484a8.46 8.46 0 0 1 .158 1.66 16.712 16.712 0 0 1-4.589 10.675zm4.509-38.389a14.138 14.138 0 0 1-1.276 5.594 16.217 16.217 0 0 1-6.249 7.436 6.194 6.194 0 0 1-4.235.962c-2.018-.4-3.344-2.272-3.353-5.267 0-.048.013-.1.013-.15a12.632 12.632 0 0 1 .47-3.134 16.561 16.561 0 0 1 .794-2.31 18.352 18.352 0 0 1 .918-1.817 17.762 17.762 0 0 1 2.4-3.248 13.154 13.154 0 0 1 2.946-2.382c4.166-2.405 7.554-.473 7.566 4.318zm-31.277 78.458a17.282 17.282 0 0 1-4.726 6.385 11.461 11.461 0 0 1-1.523 1.055c-4.168 2.407-7.559.476-7.571-4.334a14.129 14.129 0 0 1 1.276-5.594 18.336 18.336 0 0 1 2.03-3.519 14.307 14.307 0 0 1 4.216-3.917c4.17-2.407 7.558-.476 7.573 4.315a14.262 14.262 0 0 1-1.28 5.611zm1.049-31.489a17.292 17.292 0 0 1-3.159 7.287 16.329 16.329 0 0 1-1.28 1.544 12.988 12.988 0 0 1-2.939 2.383 6.143 6.143 0 0 1-4.225.948 3.82 3.82 0 0 1-2.744-2.247 7.153 7.153 0 0 1-.6-3.037 14.143 14.143 0 0 1 1.274-5.594 18.237 18.237 0 0 1 2.032-3.519 14.309 14.309 0 0 1 4.216-3.917 7.282 7.282 0 0 1 2.94-1.015h.008a4.573 4.573 0 0 1 .514.025 4.429 4.429 0 0 1 .773.038 3.506 3.506 0 0 1 .465.173 3.649 3.649 0 0 1 .655.249 3.809 3.809 0 0 1 .533.43 4.286 4.286 0 0 1 .387.32 4.538 4.538 0 0 1 .423.651 4.1 4.1 0 0 1 .27.413 7.126 7.126 0 0 1 .6 3.033 11.5 11.5 0 0 1-.148 1.837zm-1.226-33.652a4.488 4.488 0 0 1 .419.642 4.215 4.215 0 0 1 .274.419 7.161 7.161 0 0 1 .6 3.035 16.673 16.673 0 0 1-4.587 10.652 14.359 14.359 0 0 1-1.415 1.323 11.663 11.663 0 0 1-1.521 1.055 6.176 6.176 0 0 1-4.225.954 3.649 3.649 0 0 1-2.045-1.165 6.069 6.069 0 0 1-1.3-4.1 11.457 11.457 0 0 1 .149-1.836c.693-4.359 3.726-9.088 7.373-11.2a6.177 6.177 0 0 1 4.225-.954h.013a4.158 4.158 0 0 1 .476.177 3.763 3.763 0 0 1 .644.244 3.628 3.628 0 0 1 .518.421 3.535 3.535 0 0 1 .397.334z" class="cls-35" data-name="Path 9494" transform="translate(-283.161 -129.626)"/>
                            <path id="Path_9495" d="M345.276 159.373a4.716 4.716 0 0 0-.267-.409 4.356 4.356 0 0 0-.427-.651 3.222 3.222 0 0 0-.382-.313 5.468 5.468 0 0 0-1.66-.855 4.381 4.381 0 0 0-.769-.038 4.675 4.675 0 0 0-.52-.025h-.01a6.072 6.072 0 0 0-1.422.316 8.6 8.6 0 0 0-1.529.706 11.449 11.449 0 0 0-1.521 1.055 14.35 14.35 0 0 0-1.415 1.323c-.076.08-.141.177-.217.259a17.746 17.746 0 0 0-2.178 2.984 18.19 18.19 0 0 0-1.173 2.508 13.77 13.77 0 0 0-1.019 4.9 7.186 7.186 0 0 0 .6 3.037 4.521 4.521 0 0 0 .7 1.074c1.365 1.531 3.667 1.729 6.272.223a16.749 16.749 0 0 0 6.956-9.338 12.943 12.943 0 0 0 .583-3.721 7.151 7.151 0 0 0-.602-3.035z" class="cls-37" data-name="Path 9495" transform="translate(-246.201 -106.653)"/>
                            <path id="Path_9496" d="M347.918 142.339l3.967-2.29-9.279-5.393-3.967 2.291 9.278 5.392z" class="cls-30" data-name="Path 9496" transform="translate(-237.491 -131.45)"/>
                            <path id="Path_9497" d="M343.059 144.567l.1 33.534 3.967-2.29-.11-38.594-3.967 2.29z" class="cls-40" data-name="Path 9497" transform="translate(-232.619 -128.617)"/>
                            <path id="Path_9498" d="M324.023 179.53a16.585 16.585 0 0 0-7.54 13.041c.013 4.81 3.4 6.741 7.588 4.326a16.588 16.588 0 0 0 7.525-13.051c-.015-4.79-3.403-6.721-7.573-4.316zm4.871 8.062l-2.942 1.7.011 3.38-3.8 2.195-.008-3.38-2.961 1.708-.01-4.366 2.957-1.708-.008-3.38 3.8-2.195.011 3.38 2.94-1.7.013 4.366z" class="cls-36" data-name="Path 9498" transform="translate(-261.998 -82.962)"/>
                            <path id="Path_9499" d="M352.984 144.023l-9.278-5.392-9.646-5.5 9.278 5.392z" class="cls-32" data-name="Path 9499" transform="translate(-242.558 -133.134)"/>
                            <path id="Path_9500" d="M331.4 169.017c-.036-.177-.107-.314-.154-.478a5.91 5.91 0 0 0-.289-.887 4.3 4.3 0 0 0-.28-.436 4.6 4.6 0 0 0-.415-.636l-.008-.011a3.622 3.622 0 0 0-.385-.312 3.5 3.5 0 0 0-.526-.43 3.614 3.614 0 0 0-.632-.238 3.5 3.5 0 0 0-.491-.181h-.008a4.611 4.611 0 0 0-.75-.036 4.835 4.835 0 0 0-.527-.023 5.94 5.94 0 0 0-.939.2c-.162.042-.316.048-.484.107a8.691 8.691 0 0 0-1.525.7 13.177 13.177 0 0 0-2.946 2.384 18.024 18.024 0 0 0-4.012 6.939 12.918 12.918 0 0 0-.583 3.719c.011 3.593 1.921 5.587 4.64 5.341a7.287 7.287 0 0 0 2.951-1.017 13.03 13.03 0 0 0 2.936-2.38 16.712 16.712 0 0 0 4.587-10.669 8.453 8.453 0 0 0-.16-1.656z" class="cls-38" data-name="Path 9500" transform="translate(-262.04 -97.51)"/>
                            <path id="Path_9501" d="M309.694 187.8a14.307 14.307 0 0 0-4.216 3.917 18.34 18.34 0 0 0-2.03 3.519 14.129 14.129 0 0 0-1.276 5.594c.013 4.81 3.4 6.741 7.571 4.334a11.473 11.473 0 0 0 1.523-1.055 17.283 17.283 0 0 0 4.726-6.386 14.261 14.261 0 0 0 1.276-5.608c-.016-4.792-3.404-6.723-7.574-4.315z" class="cls-3" data-name="Path 9501" transform="translate(-277.827 -73.818)"/>
                            <path id="Path_9502" d="M316.626 175.911a4 4 0 0 0-.265-.406 4.519 4.519 0 0 0-.428-.657 3.679 3.679 0 0 0-.375-.307 3.738 3.738 0 0 0-.545-.442 3.437 3.437 0 0 0-.636-.24 3.808 3.808 0 0 0-.484-.181 4.732 4.732 0 0 0-.76-.038 4.323 4.323 0 0 0-.527-.025h-.006a7.282 7.282 0 0 0-2.94 1.015 14.308 14.308 0 0 0-4.216 3.917 18.231 18.231 0 0 0-2.032 3.519 14.142 14.142 0 0 0-1.274 5.594 7.155 7.155 0 0 0 .6 3.037 3.82 3.82 0 0 0 2.744 2.247 6.143 6.143 0 0 0 4.225-.948 12.99 12.99 0 0 0 2.936-2.382 16.337 16.337 0 0 0 1.28-1.544 17.291 17.291 0 0 0 3.159-7.287 11.488 11.488 0 0 0 .148-1.839 7.127 7.127 0 0 0-.604-3.033z" class="cls-37" data-name="Path 9502" transform="translate(-277.868 -88.367)"/>
                            <path id="Path_9503" d="M315.895 161.7a3.512 3.512 0 0 0-.388-.32 3.548 3.548 0 0 0-.531-.432 3.671 3.671 0 0 0-.636-.24 3.8 3.8 0 0 0-.484-.181h-.013a6.177 6.177 0 0 0-4.225.954c-3.648 2.108-6.68 6.836-7.373 11.2a11.45 11.45 0 0 0-.149 1.836 6.069 6.069 0 0 0 1.3 4.1 3.649 3.649 0 0 0 2.045 1.165 6.176 6.176 0 0 0 4.225-.954 11.655 11.655 0 0 0 1.521-1.055 14.339 14.339 0 0 0 1.415-1.323 16.672 16.672 0 0 0 4.587-10.652 7.161 7.161 0 0 0-.6-3.035 4.11 4.11 0 0 0-.27-.413 4.43 4.43 0 0 0-.424-.65z" class="cls-3" data-name="Path 9503" transform="translate(-277.91 -102.932)"/>
                            <path id="Path_9504" d="M393.945 146.252l-.014-5.06-9.647-5.5-77.951 45-9.3 16.12.655.381 9.031-15.662L383.9 136.98l9.091 5.2.246 86.731.088 30.886-9.031 15.662-77.177 44.558-9.09-5.2-.928-.54.005 1.517 9.629 5.508 77.95-45.005 9.585-16.6-.226-79.912z" class="cls-31" data-name="Path 9504" transform="translate(-283.504 -130.302)"/>
                            <path id="Path_9505" d="M297.595 251.629l-.246-86.73z" class="cls-31" data-name="Path 9505" transform="translate(-283.161 -98.001)"/>
                            <path id="Path_9506" d="M297.953 206.364l-.928-.539.088 30.886.928.54z" class="cls-31" data-name="Path 9506" transform="translate(-283.519 -52.735)"/>
                            <path id="Path_9507" d="M344.544 145.151a3.393 3.393 0 0 0-.394-.324 2.112 2.112 0 0 0-1.158-.666 3.492 3.492 0 0 0-.491-.181 4.388 4.388 0 0 0-.769-.038 4.254 4.254 0 0 0-.522-.023h-.009a6.176 6.176 0 0 0-1.424.316 8.811 8.811 0 0 0-1.527.706 11.646 11.646 0 0 0-1.521 1.055 14.341 14.341 0 0 0-1.415 1.323c-.076.08-.141.177-.217.259a16.822 16.822 0 0 0-3.281 5.305 13.8 13.8 0 0 0-1.089 5.088c.008 3.595 1.919 5.579 4.631 5.33a7.286 7.286 0 0 0 2.94-1.013 11.819 11.819 0 0 0 1.527-1.059 15.2 15.2 0 0 0 2.119-2.167 17.954 17.954 0 0 0 3.311-6.1 12.848 12.848 0 0 0 .583-3.719 8.425 8.425 0 0 0-.156-1.653c-.034-.166-.1-.3-.145-.453a6.232 6.232 0 0 0-.3-.916v-.011a4.395 4.395 0 0 0-.27-.415 4.663 4.663 0 0 0-.423-.644z" class="cls-3" data-name="Path 9507" transform="translate(-246.242 -121.21)"/>
                            <path id="Path_9508" d="M293.43 171l8.624 5.011 9.3-16.12-9.284-5.391-9.567 16.59.928.54z" class="cls-32" data-name="Path 9508" transform="translate(-288.52 -109.498)"/>
                            <path id="Path_9509" d="M292.945 162.967l8.35 4.852.11 38.594.134 47.508.928.539-.246-86.73-.655-.381-8.624-5.011z" class="cls-31" data-name="Path 9509" transform="translate(-288.033 -100.832)"/>
                            <path id="Path_9510" d="M301.961 231.178l-.134-47.508-3.985 2.3-5.28-3.069.214 75.289 9.279 5.392-.005-1.517z" class="cls-32" data-name="Path 9510" transform="translate(-288.455 -78.089)"/>
                            <path id="Path_9511" fill="#4e5463" d="M306.325 183.531l77.951-45-9.276-5.397-77.951 45.005z" data-name="Path 9511" transform="translate(-283.495 -133.134)"/>
                            <path id="Path_9512" d="M297.466 234.976l.086 30.887 9.09 5.2L383.82 226.5l9.031-15.663-.086-30.885zm19.1 16.179a.943.943 0 0 1 .23.259c.044.059.107.091.143.164a1.715 1.715 0 0 1 .137.708 3.115 3.115 0 0 1-.2 1c-.036.1-.086.2-.131.3a3.988 3.988 0 0 1-.377.674c-.038.057-.08.112-.122.166-.025.032-.048.067-.074.1-.053.065-.093.143-.15.2a2.95 2.95 0 0 1-.674.545l-12.289 7.1a1.222 1.222 0 0 1-1.226.126 1.21 1.21 0 0 1-.512-1.116c0-.042.019-.088.021-.133a3.873 3.873 0 0 1 1.03-2.329 2.914 2.914 0 0 1 .676-.545l12.289-7.1a1.656 1.656 0 0 1 .674-.234c.046 0 .078.023.12.025a.919.919 0 0 1 .43.084zm72.307-40.32a3.484 3.484 0 0 1-.5 1.7c-.021.036-.053.065-.074.1s-.044.057-.063.086a4.3 4.3 0 0 1-.274.369c-.063.074-.114.156-.181.223a3.116 3.116 0 0 1-.647.522l-12.272 7.085c-.718.415-1.344.274-1.613-.286a1.613 1.613 0 0 1-.141-.7 3.016 3.016 0 0 1 .137-.866 4.152 4.152 0 0 1 .929-1.6 3.075 3.075 0 0 1 .676-.548l12.272-7.085a1.7 1.7 0 0 1 .687-.238c.07-.008.12.03.185.036a.913.913 0 0 1 .369.072.917.917 0 0 1 .249.28c.038.053.095.078.124.143a1.7 1.7 0 0 1 .137.706zm-.061-21.519l-87.548 50.547v-1.624l86.15-49.738 1.4-.807z" class="cls-31" data-name="Path 9512" transform="translate(-283.031 -81.347)"/>
                            <path id="Path_9513" d="M300 207.46l-.109-38.594-9.278-5.392.109 38.594 4 2.323z" class="cls-28" data-name="Path 9513" transform="translate(-290.612 -99.577)"/>
                            <path id="Path_9514" d="M299.89 170.074l3.984-2.3-8.35-4.852-.928-.54-3.984 2.3z" class="cls-30" data-name="Path 9514" transform="translate(-290.612 -100.786)"/>
                            <path id="Path_9515" d="M295.018 167.242l.109 38.594 3.985-2.3-.112-38.595z" class="cls-40" data-name="Path 9515" transform="translate(-285.739 -97.954)"/>
                        </g>
                        <g id="Group_1745" data-name="Group 1745" transform="translate(43.749 137.113)">
                            <path id="Path_9516" d="M335.375 211.806l.906-1.307z" class="cls-30" data-name="Path 9516" transform="translate(-280.689 -184.678)"/>
                            <path id="Path_9517" d="M322.782 224.513c.215.008.442-.011.665-.017-.223.004-.447.025-.665.017z" class="cls-29" data-name="Path 9517" transform="translate(-294.618 -169.197)"/>
                            <path id="Path_9518" d="M324.786 228.065l4.437-2.562z" class="cls-29" data-name="Path 9518" transform="translate(-292.401 -168.084)"/>
                            <path id="Path_9520" d="M327.014 230.163l2.209-4.661-4.437 2.562z" class="cls-29" data-name="Path 9520" transform="translate(-292.401 -168.084)"/>
                            <path id="Path_9521" d="M337.362 210.941l-2.962-.841 2.966.841z" class="cls-29" data-name="Path 9521" transform="translate(-281.771 -185.12)"/>
                            <path id="Path_9522" d="M330.353 208.409h-.006c-.147-.067-.289-.147-.44-.2.153.048.293.13.446.2z" class="cls-30" data-name="Path 9522" transform="translate(-286.741 -187.221)"/>
                            <path id="Path_9523" d="M329.883 208.193h-.01c-.156-.042-.3-.1-.463-.131.161.03.313.087.473.131z" class="cls-30" data-name="Path 9523" transform="translate(-287.288 -187.378)"/>
                            <path id="Path_9524" d="M329.382 208.054h-.017c-.162-.019-.32-.053-.487-.059.172.005.336.038.504.059z" class="cls-30" data-name="Path 9524" transform="translate(-287.876 -187.45)"/>
                            <path id="Path_9525" d="M328.3 208.053l-.055.011c-.175.027-.345.042-.522.08.195-.044.382-.059.577-.091z" class="cls-30" data-name="Path 9525" transform="translate(-289.154 -187.384)"/>
                            <path id="Path_9526" d="M328.863 208h-.04c-.168 0-.333 0-.508.011.185-.016.364-.011.548-.011z" class="cls-30" data-name="Path 9526" transform="translate(-288.5 -187.444)"/>
                            <path id="Path_9527" d="M323.1 224.5c.169 0 .331 0 .5-.013-.171.013-.333.013-.5.013z" class="cls-30" data-name="Path 9527" transform="translate(-294.268 -169.204)"/>
                            <path id="Path_9528" d="M327.109 208.269h-.008.008z" class="cls-29" data-name="Path 9528" transform="translate(-289.841 -187.145)"/>
                            <path id="Path_9529" d="M328.137 208.1c-.257.057-.524.143-.79.221l.036-.01c.253-.076.507-.16.754-.211z" class="cls-29" data-name="Path 9529" transform="translate(-289.569 -187.336)"/>
                            <path id="Path_9530" d="M329.42 208.061l-.021-.005.021.005z" class="cls-29" data-name="Path 9530" transform="translate(-287.299 -187.381)"/>
                            <path id="Path_9531" d="M329.233 208c-.219-.013-.451 0-.678.013h.04c.215-.013.432-.028.638-.013z" class="cls-29" data-name="Path 9531" transform="translate(-288.233 -187.453)"/>
                            <path id="Path_9532" d="M328.692 208c-.236.023-.482.074-.725.114l.055-.011c.228-.029.453-.078.67-.103z" class="cls-29" data-name="Path 9532" transform="translate(-288.88 -187.438)"/>
                            <path id="Path_9533" d="M329.72 208.095c-.2-.04-.406-.053-.611-.074h.017c.198.023.402.034.594.074z" class="cls-29" data-name="Path 9533" transform="translate(-287.62 -187.419)"/>
                            <path id="Path_9534" d="M330.208 208.288c-.187-.069-.388-.114-.581-.168h.011c.191.057.387.099.57.168z" class="cls-29" data-name="Path 9534" transform="translate(-287.045 -187.31)"/>
                            <path id="Path_9535" d="M330.613 208.531c-.16-.091-.333-.158-.5-.234h.006c.168.08.338.143.494.234z" class="cls-29" data-name="Path 9535" transform="translate(-286.508 -187.114)"/>
                            <path id="Path_9536" d="M320.487 219.954a32.323 32.323 0 0 1 5.937-9.062 32.323 32.323 0 0 0-5.937 9.062z" class="cls-29" data-name="Path 9536" transform="translate(-297.156 -184.244)"/>
                            <path id="Path_9537" d="M317.259 225.076l-.015-5.1z" class="cls-30" data-name="Path 9537" transform="translate(-300.744 -174.197)"/>
                            <path id="Path_9539" d="M318.785 219.976l-2.934 4.249z" class="cls-29" data-name="Path 9539" transform="translate(-302.285 -174.197)"/>
                            <path id="Path_9540" d="M342.46 208.869c-.156-.091-.326-.154-.493-.23-.15-.069-.293-.152-.449-.208-.183-.069-.379-.112-.569-.164-.16-.044-.312-.1-.474-.135h-.021c-.192-.04-.4-.051-.594-.072-.169-.021-.333-.055-.505-.061-.206-.011-.423.006-.638.013-.183 0-.36 0-.55.011-.217.021-.442.069-.668.1-.194.032-.381.048-.577.091-.246.055-.5.139-.754.211-.183.053-.36.091-.545.154h-.008a15.337 15.337 0 0 0-2.725 1.257 23.36 23.36 0 0 0-5.267 4.263 32.322 32.322 0 0 0-5.937 9.062 25.34 25.34 0 0 0-2.283 10.018c.015 5.37 2.392 8.738 6 9.452a7.412 7.412 0 0 0 1.118.135c.215.008.442-.008.665-.017.169 0 .331 0 .5-.013h.017a13.044 13.044 0 0 0 5.274-1.822 20.917 20.917 0 0 0 2.723-1.889 25.654 25.654 0 0 0 2.534-2.369 32.222 32.222 0 0 0 7.169-12.426 23.14 23.14 0 0 0 1.047-6.668c-.012-4.287-1.536-7.297-3.99-8.693z" class="cls-29" data-name="Path 9540" transform="translate(-298.355 -187.452)"/>
                            <path id="Path_9541" d="M328.032 206.891l-2.229-2.118 2.228 2.117z" class="cls-30" data-name="Path 9541" transform="translate(-291.276 -191.012)"/>
                            <path id="Path_9542" d="M324.754 209.453l4.438-2.562-2.228-2.117z" class="cls-29" data-name="Path 9542" transform="translate(-292.436 -191.012)"/>
                            <path id="Path_9543" d="M356.978 202.474c-.305-.175-.638-.305-.96-.455-.28-.131-.55-.282-.84-.394-.339-.126-.7-.2-1.055-.3-.3-.082-.59-.19-.9-.253-.369-.074-.76-.1-1.144-.143-.318-.038-.623-.1-.95-.114-.4-.021-.823.01-1.24.025-.326.008-.642-.008-.977.023-.44.04-.9.133-1.352.208-.326.053-.647.08-.979.154-.472.1-.96.261-1.443.4-.333.1-.655.164-.992.28-.541.183-1.1.428-1.649.659-.291.124-.575.215-.87.352q-1.279.588-2.595 1.346c-13.969 8.066-25.262 27.606-25.218 43.66 0 1 .051 1.961.139 2.885.032.333.1.634.139.958.076.573.141 1.156.251 1.7.069.345.173.659.255.99.12.482.227.977.373 1.428.109.339.251.638.375.96.158.409.3.834.478 1.215.147.312.324.585.484.878.192.352.371.718.583 1.045.179.278.39.516.585.775.225.3.438.615.68.891.213.236.451.434.678.655.257.249.5.516.777.741.242.2.512.356.767.535 4.65 3.239 11.352 3.117 18.817-1.194 13.969-8.064 25.247-27.616 25.2-43.667-.02-8-2.853-13.617-7.417-16.243zm-17.916 6.685l2.23 2.119-4.44 2.563zm-18.011 37.119l-2.951-.851 2.936-4.248.015 5.1zm20.306 6.539l-2.209 4.661-2.226-2.1 4.437-2.563zm10.227-20.637a32.223 32.223 0 0 1-7.169 12.426 25.642 25.642 0 0 1-2.534 2.369 20.908 20.908 0 0 1-2.723 1.889 13.043 13.043 0 0 1-5.274 1.822h-.017c-.173.015-.335.008-.5.013-.223.006-.451.025-.665.017a7.412 7.412 0 0 1-1.118-.135c-3.606-.714-5.983-4.082-6-9.452a25.34 25.34 0 0 1 2.283-10.018 32.323 32.323 0 0 1 5.937-9.062 23.36 23.36 0 0 1 5.267-4.263 15.337 15.337 0 0 1 2.725-1.257h.008c.173-.059.339-.093.51-.143.265-.078.533-.164.79-.221.177-.038.348-.053.522-.08.242-.04.489-.091.724-.114.175-.015.339-.006.508-.011.227-.008.459-.025.68-.013.166.006.324.04.487.059.2.021.413.034.611.074h.021c.16.034.307.089.463.131.194.055.394.1.581.168.152.057.293.137.44.2.166.076.339.143.5.234 2.453 1.4 3.978 4.406 3.991 8.7a23.136 23.136 0 0 1-1.047 6.667zm5.577-11.8l2.965.84-.908 1.308-2.045 2.951z" class="cls-30" data-name="Path 9543" transform="translate(-304.536 -195.4)"/>
                            <path id="Path_9544" d="M337.363 210.941l-2.963-.841.015 5.1 2.046-2.952z" class="cls-29" data-name="Path 9544" transform="translate(-281.771 -185.12)"/>
                            <path id="Path_9545" d="M318.785 219.976l-2.934 4.249 2.949.851z" class="cls-29" data-name="Path 9545" transform="translate(-302.285 -174.197)"/>
                            <path id="Path_9546" fill="url(#linear-gradient-4)" d="M352.619 199.943c-4.6-2.67-10.962-2.291-17.992 1.767-13.969 8.064-25.262 27.606-25.218 43.658.023 7.976 2.841 13.586 7.382 16.227l9.279 5.389c-.286-.166-.543-.377-.817-.567-.255-.179-.524-.335-.767-.535-.276-.225-.52-.493-.777-.741-.228-.221-.466-.419-.678-.655-.242-.276-.455-.592-.68-.891-.2-.259-.406-.5-.585-.775-.213-.326-.392-.693-.583-1.045-.16-.293-.337-.567-.484-.878-.179-.381-.32-.807-.478-1.215-.124-.322-.265-.621-.375-.96-.145-.451-.253-.946-.373-1.428-.082-.331-.185-.644-.255-.99-.11-.543-.175-1.127-.251-1.7-.042-.324-.107-.626-.139-.958-.089-.925-.137-1.887-.139-2.885-.044-16.054 11.248-35.594 25.218-43.66q1.314-.758 2.595-1.346c.295-.137.579-.227.87-.352.554-.232 1.108-.476 1.649-.659.337-.116.659-.183.992-.28.482-.141.971-.3 1.443-.4.333-.074.653-.1.979-.154.453-.076.912-.168 1.352-.208.335-.032.651-.015.977-.023.417-.015.838-.046 1.24-.025.326.015.632.076.95.114.383.044.775.07 1.144.143.31.063.6.171.9.253.354.1.716.177 1.055.3.291.112.56.263.84.394.322.15.655.28.96.455l.046.023z" data-name="Path 9546" transform="translate(-309.409 -198.239)"/>
                        </g>
                        <path id="Path_9547" fill="url(#linear-gradient-5)" d="M392.893 228.235l-95.3 55.02-.246-86.73 9.031-15.662 77.178-44.563 9.091 5.2z" data-name="Path 9547" transform="translate(-278.999 -129.627)" style="mix-blend-mode:soft-light;isolation:isolate"/>
                    </g>
                </g>
            </g>
            <text id="Realtime_Tracking" fill="#fff" data-name="Realtime Tracking" font-family="NunitoSans-SemiBold, Nunito Sans" font-size="28px" font-weight="600" transform="translate(57.159 336)">
                <tspan x="0" y="0">Realtime Tracking</tspan>
            </text>
        </g>
    </g>
</svg>
