<svg xmlns="http://www.w3.org/2000/svg" xmlns:xlink="http://www.w3.org/1999/xlink" width="340" height="402" viewBox="0 0 340 402">
  <defs>
    <style>
      .cls-1 {
        fill: url(#linear-gradient);
      }

      .cls-12, .cls-2, .cls-3 {
        fill: #fff;
      }

      .cls-2 {
        font-size: 28px;
        font-family: NunitoSans-SemiBold, Nunito Sans;
        font-weight: 600;
        letter-spacing: 0.01em;
      }

      .cls-4 {
        opacity: 0.1;
      }

      .cls-5 {
        fill: #5793ce;
      }

      .cls-6 {
        fill: #173d7a;
      }

      .cls-7 {
        fill: #d4ecff;
      }

      .cls-8 {
        fill: #5e85aa;
      }

      .cls-9 {
        fill: #efefef;
      }

      .cls-10 {
        fill: #e9f6ff;
      }

      .cls-11 {
        fill: #aedeed;
      }

      .cls-12 {
        opacity: 0.4;
      }

      .cls-13 {
        fill: #b2d3ea;
      }

      .cls-14 {
        fill: #396caa;
      }

      .cls-15 {
        fill: #ffc2b0;
      }

      .cls-16 {
        fill: #ce7788;
      }

      .cls-17 {
        fill: #fc8b9a;
      }

      .cls-18 {
        fill: #d3008d;
      }

      .cls-19 {
        fill: #e8a200;
      }

      .cls-20 {
        filter: url(#Ellipse_1104);
      }

      .cls-21 {
        filter: url(#Path_14357);
      }
    </style>
    <linearGradient id="linear-gradient" x1="1" x2="0" y2="1" gradientUnits="objectBoundingBox">
      <stop offset="0" stop-color="#9299d8"/>
      <stop offset="1" stop-color="#4a80b3"/>
    </linearGradient>
    <filter id="Path_14357" x="145.819" y="222.184" width="98.552" height="64.507" filterUnits="userSpaceOnUse">
      <feOffset dx="3" dy="3" input="SourceAlpha"/>
      <feGaussianBlur stdDeviation="3" result="blur"/>
      <feFlood flood-opacity="0.161"/>
      <feComposite operator="in" in2="blur"/>
      <feComposite in="SourceGraphic"/>
    </filter>
    <filter id="Ellipse_1104" x="105.797" y="241.446" width="61.494" height="43.111" filterUnits="userSpaceOnUse">
      <feOffset dx="3" dy="3" input="SourceAlpha"/>
      <feGaussianBlur stdDeviation="3" result="blur-2"/>
      <feFlood flood-opacity="0.161"/>
      <feComposite operator="in" in2="blur-2"/>
      <feComposite in="SourceGraphic"/>
    </filter>
  </defs>
  <g id="Group_20080" data-name="Group 20080" transform="translate(-1751 -576)">
    <rect id="Rectangle_2658" data-name="Rectangle 2658" class="cls-1" width="340" height="402" rx="8" transform="translate(1751 576)"/>
    <text id="Distributor_Scoring_Mechanism" data-name="Distributor Scoring
Mechanism" class="cls-2" transform="translate(1800 893)"><tspan x="0" y="0">Distributor Scoring</tspan><tspan x="0" y="38">Mechanism</tspan></text>
    <g id="Group_4608" data-name="Group 4608" transform="translate(-8174 1803)">
      <g id="Group_4576" data-name="Group 4576" transform="translate(10153.993 -1080.362)">
        <path id="Path_14354" data-name="Path 14354" class="cls-3" d="M248.662,196.744a.915.915,0,0,0-.011-1.733,3.318,3.318,0,0,0-3,.019.915.915,0,0,0,.011,1.733A3.315,3.315,0,0,0,248.662,196.744Z" transform="translate(-245.034 -194.661)"/>
        <path id="Path_14355" data-name="Path 14355" class="cls-3" d="M254.272,199.937a.915.915,0,0,0-.011-1.733,3.318,3.318,0,0,0-3,.019.915.915,0,0,0,.011,1.733A3.315,3.315,0,0,0,254.272,199.937Z" transform="translate(-246.082 -195.258)"/>
        <path id="Path_14356" data-name="Path 14356" class="cls-3" d="M259.882,203.13a.915.915,0,0,0-.011-1.733,3.315,3.315,0,0,0-3,.019.915.915,0,0,0,.011,1.733A3.315,3.315,0,0,0,259.882,203.13Z" transform="translate(-247.13 -195.854)"/>
      </g>
      <g class="cls-21" transform="matrix(1, 0, 0, 1, 9925, -1227)">
        <path id="Path_14357-2" data-name="Path 14357" class="cls-4" d="M219.28,340.528l-67.56-39.005c-2.349-1.356-2.054-3.725.658-5.29h0c2.712-1.566,6.815-1.736,9.163-.381L229.1,334.858c2.349,1.356,2.054,3.725-.658,5.29h0C225.73,341.714,221.629,341.884,219.28,340.528Z" transform="translate(1.68 -66.75)"/>
      </g>
      <path id="Path_14358" data-name="Path 14358" class="cls-5" d="M229.959,86.994,157.166,44.959c-2.393-1.381-4.565-1.415-6.207-.378l0-.017-9.133,5.29L147.946,51c-.02.314-.037.629-.037.96V223.649c0,6.816,4.144,14.735,9.257,17.686l71.771,41.445c-.654,2.051-2.044,6.363-2.044,6.363l8.932-5.18h0c2.071-1.068,3.394-3.741,3.394-7.589V104.681C239.216,97.865,235.072,89.946,229.959,86.994Z" transform="translate(9928.237 -1246.856)"/>
      <path id="Path_14359" data-name="Path 14359" class="cls-6" d="M149.307,235.161c0,6.816,4.144,14.735,9.257,17.686l71.771,41.445c-.654,2.051-2.044,6.363-2.044,6.363l8.932-5.18h0c2.071-1.068,3.394-3.741,3.394-7.589V116.193a23.018,23.018,0,0,0-2.939-10.7l-88.368,51.019Z" transform="translate(9926.839 -1258.369)"/>
      <path id="Path_14360" data-name="Path 14360" class="cls-7" d="M220.066,289.91l-72.794-42.035c-5.113-2.952-9.257-10.87-9.257-17.687V58.5c0-6.816,4.144-9.95,9.257-7l72.794,42.035c5.112,2.951,9.256,10.87,9.256,17.687V282.913C229.322,289.729,225.178,292.862,220.066,289.91Z" transform="translate(9928.948 -1248.076)"/>
      <path id="Path_14361" data-name="Path 14361" class="cls-3" d="M221.82,92.785,149.027,50.75c-2.636-1.522-5.01-1.416-6.7-.031,1.579-.76,3.574-.614,5.747.641L220.872,93.4c5.112,2.951,9.256,10.87,9.256,17.687V282.774c0,3.3-.977,5.728-2.561,7.029,2.136-1.028,3.51-3.72,3.51-7.639V110.472C231.077,103.656,226.933,95.737,221.82,92.785Z" transform="translate(9928.143 -1247.938)"/>
      <path id="Path_14362" data-name="Path 14362" class="cls-5" d="M150.049,115.332l-5.635-3.878-2.2-7.22-2.2,4.678-2.007-.936v3.976l.646,1.009-.646,2.868v2.734l4.208-.558,4.843,6.234-1.281-7.166Z" transform="translate(9928.95 -1258.134)"/>
      <path id="Path_14363" data-name="Path 14363" class="cls-8" d="M219.6,285.379l-69.946-40.391c-3.8-2.194-6.881-8.08-6.881-13.147V62.589c0-5.066,3.081-7.4,6.881-5.2L219.6,97.779c3.8,2.193,6.881,8.079,6.881,13.146V280.178C226.478,285.245,223.4,287.573,219.6,285.379Z" transform="translate(9928.06 -1249.229)"/>
      <path id="Path_14364" data-name="Path 14364" class="cls-5" d="M220.174,285.18l-69.947-40.392c-3.8-2.194-6.88-8.079-6.88-13.146V62.389c0-2.843.97-4.823,2.493-5.627-1.85.577-3.07,2.677-3.07,5.864V231.879c0,5.067,3.081,10.952,6.881,13.147L219.6,285.417a4.457,4.457,0,0,0,4.387.425A4.765,4.765,0,0,1,220.174,285.18Z" transform="translate(9928.06 -1249.267)"/>
      <path id="Path_14365" data-name="Path 14365" class="cls-9" d="M194.173,250.289,159.84,230.467V147l16.177,9.339a36.315,36.315,0,0,1,18.157,31.45Z" transform="translate(9924.872 -1266.122)"/>
      <g id="Group_4579" data-name="Group 4579" transform="translate(10039.75 -1128.522)">
        <path id="Path_14366" data-name="Path 14366" class="cls-7" d="M137.236,136.77l0,.007c-3.465-2.064-8.28-1.809-13.6,1.26-10.527,6.078-19.092,20.912-19.092,33.068v8.772h0l.362.212,34.4,20.235.521-10.5.429-4.077,1.823-6.329.21-.969,3.911-7.883,3.08-3.848,2.5-2.977,6.085-4.792.535-.4,2.992-1.287,4.023-1.046h3.137l3.509.614Z" transform="translate(-104.551 -135.44)"/>
        <path id="Path_14367" data-name="Path 14367" class="cls-7" d="M150.134,227.511l1.115-.643V186.9a8.2,8.2,0,0,0-1.115,2.829Z" transform="translate(-113.065 -145.052)"/>
        <path id="Path_14368" data-name="Path 14368" class="cls-7" d="M184.893,242.754l-34.758-20.026.359-37.834,1.328-3.822,4.023-6.919,4.761-5.646,4.291-3.433,4.64-2.816,8.418-.965,4.452,2.521,2.487,3.808.785,5.847-.268,63.241Z" transform="translate(-113.065 -140.269)"/>
        <path id="Path_14369" data-name="Path 14369" class="cls-5" d="M142.214,136.778c-2.9-1.726-6.745-1.823-11.038-.013l35.415,20.447,3.8-.987h3.137l3.509.614-34.827-20.068Z" transform="translate(-109.524 -135.441)"/>
        <g id="Group_4578" data-name="Group 4578" transform="translate(12.446 0.995)">
          <path id="Path_14370" data-name="Path 14370" class="cls-10" d="M130.9,136.663a22.012,22.012,0,0,0-3.394,1.6c-.775.448-1.538.948-2.289,1.486l35.3,20.383,1.208-.951.535-.4,2.992-1.287,1.193-.311Z" transform="translate(-120.856 -136.663)"/>
          <path id="Path_14371" data-name="Path 14371" class="cls-3" d="M154.939,164.409l4.8-3.782-35.292-20.376a34.116,34.116,0,0,0-4.594,3.9Z" transform="translate(-119.855 -137.333)"/>
          <path id="Path_14372" data-name="Path 14372" class="cls-5" d="M185.477,241.88l-1.115.644v-68.2c0-11.446-8.065-16.1-17.977-10.379s-17.978,19.692-17.978,31.137v9.194l-1.115.643V195.73c0-12.155,8.565-26.989,19.093-33.067s19.092-1.134,19.092,11.022Z" transform="translate(-124.98 -141.034)"/>
        </g>
      </g>
      <path id="Path_14373" data-name="Path 14373" class="cls-11" d="M115.992,171.278l-1.957,8,.978,12.922-2.48-1.459-3.174-7.024,2.778-8.878Z" transform="translate(9934.301 -1270.656)"/>
      <g id="Group_4581" data-name="Group 4581" transform="translate(10079.908 -1086.759)">
        <path id="Path_14374" data-name="Path 14374" class="cls-12" d="M181.187,225.361a1.313,1.313,0,0,1-.65-.189h0L155.26,210.577a3.1,3.1,0,0,1-1.327-2.5V188.189a1.388,1.388,0,0,1,.592-1.262,1.11,1.11,0,0,1,1.142.059l25.277,14.594a3.1,3.1,0,0,1,1.327,2.5v19.887a1.388,1.388,0,0,1-.592,1.262A.977.977,0,0,1,181.187,225.361Zm-.243-.9c.065.038.227.12.329.06.085-.05.185-.225.185-.558V204.081a2.29,2.29,0,0,0-.921-1.8L155.26,187.69c-.065-.037-.226-.119-.329-.059-.085.05-.185.225-.185.558v19.887a2.287,2.287,0,0,0,.921,1.8l25.277,14.593Z" transform="translate(-153.933 -186.796)"/>
        <g id="Group_4580" data-name="Group 4580" transform="translate(7.804 11.687)">
          <path id="Path_14375" data-name="Path 14375" class="cls-13" d="M164.9,214.072l-.178-.1a2.855,2.855,0,0,1-1.193-2.279v-9.477c0-.878.533-1.282,1.193-.9l.178.1a2.858,2.858,0,0,1,1.193,2.279v9.478C166.093,214.048,165.559,214.452,164.9,214.072Z" transform="translate(-163.529 -201.167)"/>
          <path id="Path_14376" data-name="Path 14376" class="cls-13" d="M171.151,218.584l-.178-.1a2.859,2.859,0,0,1-1.193-2.28v-5.547c0-.878.534-1.282,1.193-.9l.178.1a2.856,2.856,0,0,1,1.193,2.279v5.547C172.344,218.56,171.81,218.964,171.151,218.584Z" transform="translate(-164.697 -202.744)"/>
          <path id="Path_14377" data-name="Path 14377" class="cls-14" d="M177.4,220.434l-.178-.1a2.858,2.858,0,0,1-1.193-2.279v-13.2c0-.879.534-1.282,1.193-.9l.178.1a2.858,2.858,0,0,1,1.193,2.279v13.2C178.6,220.411,178.061,220.815,177.4,220.434Z" transform="translate(-165.864 -201.659)"/>
        </g>
      </g>
      <g id="Group_4583" data-name="Group 4583" transform="translate(10036.797 -1101.201)">
        <g class="cls-20" transform="matrix(1, 0, 0, 1, -111.8, -125.8)">
          <ellipse id="Ellipse_1104-2" data-name="Ellipse 1104" class="cls-4" cx="21.747" cy="12.556" rx="21.747" ry="12.556" transform="translate(111.8 247.45)"/>
        </g>
        <g id="Group_4582" data-name="Group 4582" transform="translate(6.068 13.958)">
          <path id="Path_14378" data-name="Path 14378" class="cls-6" d="M110.735,324.776a4.152,4.152,0,0,0-2.343,4.151,7.012,7.012,0,0,0,.342,2.03,3.415,3.415,0,0,0,4.584,1.4c2.522-1,8.122-6.259,8.332-9.7C122.04,316.258,114.724,323.072,110.735,324.776Z" transform="translate(-108.381 -211.185)"/>
          <path id="Path_14379" data-name="Path 14379" class="cls-6" d="M129.405,337.774s-.6,3.689-.311,4.365a4.75,4.75,0,0,0,4.642,1.807c2.593-.312,10.053-2.884,11.714-7.8,2.575-7.622-14.4.572-14.4.572Z" transform="translate(-112.235 -213.6)"/>
          <path id="Path_14380" data-name="Path 14380" class="cls-7" d="M132.841,265.592l.577,57.589a4.034,4.034,0,0,1-3.137,3.992c-.219.037-.452.067-.7.089a3.585,3.585,0,0,1-3.421-1.416,4.231,4.231,0,0,1-.77-2.325l-.735-24.584-3.67-21.981-5.078,38.9a3.364,3.364,0,0,1-1.4,2.562,3.891,3.891,0,0,1-2.315.628,4.258,4.258,0,0,1-3.078-1.516,3.085,3.085,0,0,1-.735-2.083l2.013-23.407.749-29.856Z" transform="translate(-108.381 -200.392)"/>
          <path id="Path_14381" data-name="Path 14381" class="cls-15" d="M129.08,202.985l-.911,5.248a2.4,2.4,0,0,0,1.965,2.287c2,.5,2.618-.795,2.618-.795l.9-5.91Z" transform="translate(-112.077 -189.335)"/>
          <path id="Path_14382" data-name="Path 14382" class="cls-15" d="M139.408,196.976c-1.419,4.5-5.81,7.1-9.809,5.828s-6.089-5.957-4.67-10.452,5.811-7.1,9.81-5.828S140.828,192.48,139.408,196.976Z" transform="translate(-111.389 -186.199)"/>
          <path id="Path_14383" data-name="Path 14383" class="cls-5" d="M126.2,209.012c-.138-.056-8.482-5.428-11.566.194-5.029,9.167-1.351,19.677-3.145,42.5-.3,3.818,5.139,6.145,7.71,7.614a15.4,15.4,0,0,0,7.483,2.129c2.607.02,7.607-2.3,7.426-5.706-.835-15.676.551-28.89,1.831-41.711C135.94,214.029,134.339,212.307,126.2,209.012Z" transform="translate(-108.96 -190.018)"/>
          <path id="Path_14384" data-name="Path 14384" class="cls-14" d="M122.292,280.349l-5.078,38.9a3.364,3.364,0,0,1-1.4,2.562,3.787,3.787,0,0,1-.433.245c1.054-.79,4.132-33.444,4.7-37.076S122.292,280.349,122.292,280.349Z" transform="translate(-109.689 -203.784)"/>
        </g>
        <path id="Path_14385" data-name="Path 14385" class="cls-15" d="M162.285,211.894l6.985-13.865-2.191-1.384-7.24,10.561Z" transform="translate(-111.924 -174.193)"/>
        <path id="Path_14386" data-name="Path 14386" class="cls-15" d="M106.192,193.742l3.4-15.459,2.706.03-1.016,12.82Z" transform="translate(-101.904 -170.763)"/>
        <path id="Path_14387" data-name="Path 14387" class="cls-5" d="M140.416,214.37s7.813,3.082,14.525-5.386a1.287,1.287,0,0,1,2.156.141c.6,1.387,1.361,3.485.443,5.453-4.057,8.707-17.9,8.4-21.235,13.286S140.416,214.37,140.416,214.37Z" transform="translate(-107.368 -176.401)"/>
        <path id="Path_14388" data-name="Path 14388" class="cls-5" d="M119.882,204.483s-6.451.5-7.38-5.088a42.783,42.783,0,0,1-.648-5.581,1.127,1.127,0,0,0-1.265-1.1c-1.545.192-3.937.653-4.261,1.688-.485,1.546-1.4,9.128,4.976,20.762C115.478,222.79,119.882,204.483,119.882,204.483Z" transform="translate(-101.865 -173.458)"/>
        <path id="Path_14389" data-name="Path 14389" class="cls-15" d="M110.353,176.595l.062-1.763a3.628,3.628,0,0,1,.527-1.76l1.787-2.936.466-.587a1.358,1.358,0,0,1,1.786-.3l.411.259a1.687,1.687,0,0,1,.786,1.537l-.924,2.508,1.169-.226a.414.414,0,0,1,.487.333h0a.415.415,0,0,1-.253.459l-1.909.77-1.733,2.453Z" transform="translate(-102.682 -169.036)"/>
        <path id="Path_14390" data-name="Path 14390" class="cls-15" d="M170.5,196.462l.817-1.562a3.63,3.63,0,0,0,.411-1.792l-.1-3.434-.115-.741a1.356,1.356,0,0,0-1.4-1.147l-.485.021a1.688,1.688,0,0,0-1.443.948l-.436,2.637-.9-.774a.415.415,0,0,0-.589.05h0a.415.415,0,0,0-.006.523l1.278,1.613.331,3.36Z" transform="translate(-113.105 -172.538)"/>
        <path id="Path_14391" data-name="Path 14391" class="cls-14" d="M135.032,228.578c-.679,3.1,3.411,26.452-1.137,34.994,2.275-.921,4.523-2.725,4.4-5.031a213.274,213.274,0,0,1,.767-30.607c3.89-1.97,9.968-3.146,14.266-6.294C148.719,223.339,135.639,225.813,135.032,228.578Z" transform="translate(-107.079 -178.861)"/>
        <path id="Path_14392" data-name="Path 14392" class="cls-3" d="M125.892,207.46l1.158-1.19s1.906,1.947,3.437,2.284a17.82,17.82,0,0,0,2.743.568l.746,2.056S127.907,210.744,125.892,207.46Z" transform="translate(-105.584 -175.99)"/>
        <path id="Path_14393" data-name="Path 14393" class="cls-6" d="M133.631,196.716a.979.979,0,0,0,.8-.415c.317-.458.117-2.567,1.093-2.915,1.526-.544,5.144,1.365,5.532-4.139.2-2.86-1.191-3.62-1.185-5.188,0,0,.12.786-7.24.3s-9.754,6.047-9.928,9.16,1.332,8.232,6.363,8.935c.834.116,4.338-2.7,4.247-3.07s-1.413-.349-1.222-1.424A1.383,1.383,0,0,1,133.631,196.716Z" transform="translate(-104.985 -171.842)"/>
      </g>
      <g id="Group_4586" data-name="Group 4586" transform="translate(10074.774 -1182.089)">
        <g id="Group_4584" data-name="Group 4584" transform="translate(0 0)">
          <path id="Path_14394" data-name="Path 14394" class="cls-9" d="M177.058,109.984,154.817,97.144a4.287,4.287,0,0,1-1.79-3.419V77.187c0-1.317.8-1.923,1.79-1.352l22.241,12.84a4.288,4.288,0,0,1,1.789,3.42v16.537C178.847,109.949,178.046,110.555,177.058,109.984Z" transform="translate(-148.63 -70.7)"/>
          <path id="Path_14395" data-name="Path 14395" class="cls-6" d="M174,82.619l-22.241-12.84a1.138,1.138,0,0,0-1.15-.093l0-.015-2.157,1.247s.956.348,1.516.554v16.2a4.285,4.285,0,0,0,1.79,3.419l21.258,12.273v1.9l2.179-1.255-.011,0a1.587,1.587,0,0,0,.6-1.426V86.039A4.286,4.286,0,0,0,174,82.619Z" transform="translate(-147.776 -69.571)"/>
          <path id="Path_14396" data-name="Path 14396" class="cls-5" d="M171.65,105.484,149.409,92.644a4.286,4.286,0,0,1-1.789-3.419V72.687c0-1.317.8-1.923,1.789-1.352l22.241,12.84a4.288,4.288,0,0,1,1.79,3.42v16.537C173.44,105.449,172.638,106.055,171.65,105.484Z" transform="translate(-147.62 -69.86)"/>
          <path id="Path_14397" data-name="Path 14397" class="cls-3" d="M171.743,84.176,149.5,71.336a1.053,1.053,0,0,0-1.385.093,1.338,1.338,0,0,1,.79.2L171.147,84.47a4.285,4.285,0,0,1,1.789,3.419v16.537a1.81,1.81,0,0,1-.4,1.26c.59-.049,1-.616,1-1.554V87.6A4.287,4.287,0,0,0,171.743,84.176Z" transform="translate(-147.713 -69.861)"/>
        </g>
        <g id="Group_4585" data-name="Group 4585" transform="translate(6.268 14.281)">
          <path id="Path_14398" data-name="Path 14398" class="cls-3" d="M158.328,89.935c0,.957-.672,1.345-1.5.867a3.318,3.318,0,0,1-1.5-2.6c0-.957.672-1.345,1.5-.867A3.318,3.318,0,0,1,158.328,89.935Z" transform="translate(-155.327 -87.131)"/>
          <path id="Path_14399" data-name="Path 14399" class="cls-3" d="M163.918,93.163c0,.957-.672,1.345-1.5.866a3.316,3.316,0,0,1-1.5-2.6c0-.957.672-1.345,1.5-.866A3.316,3.316,0,0,1,163.918,93.163Z" transform="translate(-156.371 -87.734)"/>
          <path id="Path_14400" data-name="Path 14400" class="cls-3" d="M169.509,96.39c0,.957-.673,1.345-1.5.867a3.318,3.318,0,0,1-1.5-2.6c0-.957.672-1.345,1.5-.867A3.319,3.319,0,0,1,169.509,96.39Z" transform="translate(-157.415 -88.337)"/>
        </g>
      </g>
      <g id="Group_4588" data-name="Group 4588" transform="translate(10119.032 -1115.474)">
        <g id="Group_4587" data-name="Group 4587" transform="translate(0 0)">
          <path id="Path_14401" data-name="Path 14401" class="cls-9" d="M231.481,212.579,209.24,199.739a4.285,4.285,0,0,1-1.789-3.419V159.1c0-1.317.8-1.923,1.789-1.353l22.241,12.841a4.286,4.286,0,0,1,1.789,3.42v37.218C233.27,212.545,232.469,213.15,231.481,212.579Z" transform="translate(-203.053 -152.615)"/>
          <path id="Path_14402" data-name="Path 14402" class="cls-5" d="M228.427,164.534l-22.241-12.841a1.139,1.139,0,0,0-1.15-.092l0-.015-2.157,1.247s.956.348,1.516.554v36.877a4.283,4.283,0,0,0,1.79,3.419l21.258,12.273v1.9l2.179-1.255-.011,0a1.588,1.588,0,0,0,.6-1.426V167.954A4.286,4.286,0,0,0,228.427,164.534Z" transform="translate(-202.199 -151.486)"/>
          <path id="Path_14403" data-name="Path 14403" class="cls-7" d="M226.073,208.079l-22.241-12.841a4.285,4.285,0,0,1-1.789-3.419V154.6c0-1.317.8-1.923,1.789-1.353l22.241,12.841a4.285,4.285,0,0,1,1.79,3.42v37.218C227.863,208.045,227.062,208.65,226.073,208.079Z" transform="translate(-202.043 -151.775)"/>
          <path id="Path_14404" data-name="Path 14404" class="cls-3" d="M226.166,166.091,203.925,153.25a1.055,1.055,0,0,0-1.385.093,1.349,1.349,0,0,1,.79.2l22.241,12.842a4.285,4.285,0,0,1,1.789,3.419v37.218a1.813,1.813,0,0,1-.4,1.26c.59-.05,1-.616,1-1.554V169.51A4.285,4.285,0,0,0,226.166,166.091Z" transform="translate(-202.136 -151.776)"/>
        </g>
      </g>
      <path id="Path_14405" data-name="Path 14405" class="cls-9" d="M231.481,274.413,209.24,261.573a4.286,4.286,0,0,1-1.789-3.42V220.935c0-1.317.8-1.923,1.789-1.352l22.241,12.841a4.285,4.285,0,0,1,1.789,3.419V273.06C233.27,274.378,232.469,274.983,231.481,274.413Z" transform="translate(9915.979 -1279.638)"/>
      <path id="Path_14406" data-name="Path 14406" class="cls-16" d="M228.427,226.367l-22.241-12.84a1.14,1.14,0,0,0-1.15-.093l0-.014-2.157,1.246s.956.348,1.516.555V252.1a4.285,4.285,0,0,0,1.79,3.42l21.258,12.273v1.9l2.179-1.256-.011,0a1.587,1.587,0,0,0,.6-1.426V229.787A4.286,4.286,0,0,0,228.427,226.367Z" transform="translate(9916.833 -1278.508)"/>
      <path id="Path_14407" data-name="Path 14407" class="cls-17" d="M226.073,269.913l-22.241-12.841a4.286,4.286,0,0,1-1.789-3.42V216.435c0-1.317.8-1.923,1.789-1.352l22.241,12.841a4.283,4.283,0,0,1,1.79,3.419V268.56C227.863,269.878,227.062,270.483,226.073,269.913Z" transform="translate(9916.989 -1278.797)"/>
      <path id="Path_14408" data-name="Path 14408" class="cls-3" d="M226.166,227.924l-22.241-12.84a1.054,1.054,0,0,0-1.385.093,1.349,1.349,0,0,1,.79.2l22.241,12.841a4.286,4.286,0,0,1,1.789,3.419v37.218a1.813,1.813,0,0,1-.4,1.26c.59-.049,1-.616,1-1.554V231.343A4.285,4.285,0,0,0,226.166,227.924Z" transform="translate(9916.896 -1278.799)"/>
      <g id="Group_4591" data-name="Group 4591" transform="translate(10125.806 -1051.893)">
        <path id="Path_14409" data-name="Path 14409" class="cls-18" d="M220.417,235.732c0,2.069-1.452,2.907-3.244,1.873a7.17,7.17,0,0,1-3.245-5.619c0-2.069,1.452-2.907,3.245-1.873A7.172,7.172,0,0,1,220.417,235.732Z" transform="translate(-211.036 -229.669)"/>
        <path id="Path_14410" data-name="Path 14410" class="cls-18" d="M221.106,242.977c0-.033-.009-.064-.014-.1-.138-.872-.964-1.637-1.508-1.443a3.707,3.707,0,0,1-3.076-.52,9.618,9.618,0,0,1-3.076-3.032c-.544-.822-1.369-1.009-1.508-.3-.006.026-.01.053-.014.08l-1.539,9.772,12.272,7.085Z" transform="translate(-210.372 -231.066)"/>
      </g>
      <g id="Group_4592" data-name="Group 4592" transform="translate(10125.806 -1051.893)">
        <path id="Path_14411" data-name="Path 14411" class="cls-3" d="M220.417,235.732c0,2.069-1.452,2.907-3.244,1.873a7.17,7.17,0,0,1-3.245-5.619c0-2.069,1.452-2.907,3.245-1.873A7.172,7.172,0,0,1,220.417,235.732Z" transform="translate(-211.036 -229.669)"/>
        <path id="Path_14412" data-name="Path 14412" class="cls-3" d="M221.106,242.977c0-.033-.009-.064-.014-.1-.138-.872-.964-1.637-1.508-1.443a3.707,3.707,0,0,1-3.076-.52,9.618,9.618,0,0,1-3.076-3.032c-.544-.822-1.369-1.009-1.508-.3-.006.026-.01.053-.014.08l-1.539,9.772,12.272,7.085Z" transform="translate(-210.372 -231.066)"/>
      </g>
      <g id="Group_4593" data-name="Group 4593" transform="translate(10124.048 -1030.672)">
        <path id="Path_14413" data-name="Path 14413" class="cls-3" d="M223.11,265.441l-14.9-8.6v-1.074l14.9,8.6Z" transform="translate(-208.21 -255.764)"/>
        <path id="Path_14414" data-name="Path 14414" class="cls-3" d="M218.611,268.613l-10.4-6v-1.074l10.4,6Z" transform="translate(-208.21 -256.842)"/>
        <path id="Path_14415" data-name="Path 14415" class="cls-3" d="M217.208,264.918l-9-5.195v-1.074l9,5.195Z" transform="translate(-208.21 -256.303)"/>
        <path id="Path_14416" data-name="Path 14416" class="cls-3" d="M225.5,269.7l-4.5-2.6v-1.074l4.5,2.6Z" transform="translate(-210.599 -257.682)"/>
      </g>
      <g id="Group_4594" data-name="Group 4594" transform="translate(10124.082 -1102.43)">
        <path id="Path_14417" data-name="Path 14417" class="cls-5" d="M223.152,177.2l-14.9-8.6v-1.074l14.9,8.6Z" transform="translate(-208.252 -167.525)"/>
        <path id="Path_14418" data-name="Path 14418" class="cls-5" d="M218.653,180.373l-10.4-6v-1.074l10.4,6Z" transform="translate(-208.252 -168.603)"/>
        <path id="Path_14419" data-name="Path 14419" class="cls-5" d="M217.25,176.679l-9-5.195V170.41l9,5.195Z" transform="translate(-208.252 -168.064)"/>
        <path id="Path_14420" data-name="Path 14420" class="cls-5" d="M225.541,181.465l-4.5-2.6v-1.074l4.5,2.6Z" transform="translate(-210.641 -169.443)"/>
      </g>
      <g id="Group_4595" data-name="Group 4595" transform="translate(10124.082 -1093.368)">
        <path id="Path_14421" data-name="Path 14421" class="cls-5" d="M223.152,188.344l-14.9-8.6v-1.074l14.9,8.6Z" transform="translate(-208.252 -178.668)"/>
        <path id="Path_14422" data-name="Path 14422" class="cls-5" d="M218.653,191.517l-10.4-6v-1.074l10.4,6Z" transform="translate(-208.252 -179.746)"/>
        <path id="Path_14423" data-name="Path 14423" class="cls-5" d="M217.25,187.822l-9-5.195v-1.074l9,5.195Z" transform="translate(-208.252 -179.207)"/>
        <path id="Path_14424" data-name="Path 14424" class="cls-5" d="M225.541,192.608l-4.5-2.6v-1.074l4.5,2.6Z" transform="translate(-210.641 -180.586)"/>
      </g>
      <g id="Group_4596" data-name="Group 4596" transform="translate(10124.082 -1084.306)">
        <path id="Path_14425" data-name="Path 14425" class="cls-5" d="M223.152,199.487l-14.9-8.6v-1.074l14.9,8.6Z" transform="translate(-208.252 -189.811)"/>
        <path id="Path_14426" data-name="Path 14426" class="cls-5" d="M218.653,202.66l-10.4-6v-1.074l10.4,6Z" transform="translate(-208.252 -190.889)"/>
        <path id="Path_14427" data-name="Path 14427" class="cls-5" d="M217.25,198.965l-9-5.195V192.7l9,5.195Z" transform="translate(-208.252 -190.35)"/>
        <path id="Path_14428" data-name="Path 14428" class="cls-5" d="M225.541,203.751l-4.5-2.6V200.08l4.5,2.6Z" transform="translate(-210.641 -191.729)"/>
      </g>
      <g id="Group_4597" data-name="Group 4597" transform="translate(10081.378 -1056.341)">
        <path id="Path_14429" data-name="Path 14429" class="cls-3" d="M166.4,231.328l-10.628-6.136V224.2l10.628,6.136Z" transform="translate(-155.746 -224.2)"/>
        <path id="Path_14430" data-name="Path 14430" class="cls-3" d="M175.9,236.812l-4.539-2.621V233.2l4.539,2.621Z" transform="translate(-158.658 -225.881)"/>
        <path id="Path_14431" data-name="Path 14431" class="cls-3" d="M168.245,235.052l-4.539-2.621v-.992l4.539,2.621Z" transform="translate(-157.229 -225.552)"/>
        <path id="Path_14432" data-name="Path 14432" class="cls-3" d="M179.5,241.553l-8.148-4.7v-.992l8.148,4.7Z" transform="translate(-158.658 -226.377)"/>
        <path id="Path_14433" data-name="Path 14433" class="cls-3" d="M185.466,247.651l-12.051-6.958V239.7l12.051,6.958Z" transform="translate(-159.042 -227.095)"/>
        <path id="Path_14434" data-name="Path 14434" class="cls-3" d="M183.879,241.422,179.34,238.8v-.992l4.539,2.621Z" transform="translate(-160.149 -226.742)"/>
        <path id="Path_14435" data-name="Path 14435" class="cls-3" d="M160.307,230.469l-4.539-2.621v-.992l4.539,2.621Z" transform="translate(-155.746 -224.696)"/>
        <path id="Path_14436" data-name="Path 14436" class="cls-3" d="M168.168,237.664l-12.427-7.175V229.5l12.427,7.175Z" transform="translate(-155.741 -225.189)"/>
        <path id="Path_14437" data-name="Path 14437" class="cls-3" d="M163.416,237.577l-7.5-4.328v-.992l7.5,4.328Z" transform="translate(-155.774 -225.705)"/>
      </g>
      <path id="Path_14438" data-name="Path 14438" class="cls-9" d="M163.464,116.876l2.2,7.22,5.635,3.878-4.274,1.742,1.281,7.166-4.843-6.234-4.843.642L159.9,125.6l-4.274-6.678,5.634,2.629Z" transform="translate(9925.658 -1260.495)"/>
      <path id="Path_14439" data-name="Path 14439" class="cls-9" d="M185.548,129.517l2.2,7.22,5.635,3.878-4.274,1.742,1.281,7.166-4.843-6.234-4.843.642,1.281-5.687-4.274-6.678,5.635,2.629Z" transform="translate(9921.533 -1262.856)"/>
      <path id="Path_14440" data-name="Path 14440" class="cls-9" d="M150.939,115.332l-5.635-3.878-2.2-7.22-.332.706v13.11l.332-.044,4.843,6.234-1.281-7.166Z" transform="translate(9928.06 -1258.134)"/>
      <g id="Group_4599" data-name="Group 4599" transform="translate(10021 -1179.204)">
        <g id="Group_4598" data-name="Group 4598" transform="translate(0 0)">
          <path id="Path_14441" data-name="Path 14441" class="cls-19" d="M92.564,73.118l2.2,7.22,5.635,3.878-4.274,1.742,1.281,7.166-4.843-6.234-4.843.642L89,81.845l-4.274-6.678L90.363,77.8Z" transform="translate(-82.099 -73.118)"/>
          <path id="Path_14442" data-name="Path 14442" class="cls-16" d="M81.5,77.147l2.629-1.509,4.061,1.895s-.015,2.73,0,2.8a14.236,14.236,0,0,1-1.787.146C86.284,80.474,81.5,77.147,81.5,77.147Z" transform="translate(-81.495 -73.589)"/>
          <path id="Path_14443" data-name="Path 14443" class="cls-16" d="M99.421,96.11l-2.629,1.51L95.51,90.454s1.274-1.345,1.269-1.345l1.434.243Z" transform="translate(-84.113 -76.105)"/>
          <path id="Path_14444" data-name="Path 14444" class="cls-17" d="M89.331,74.974l2.2,7.22,5.635,3.878-4.274,1.742,1.281,7.166-4.843-6.234-4.843.642L85.769,83.7l-4.274-6.678,5.635,2.629Z" transform="translate(-81.495 -73.464)"/>
          <path id="Path_14445" data-name="Path 14445" class="cls-3" d="M94.174,94.98l-1.282-7.166,4.274-1.743-5.635-3.877-2.2-7.22-2.2,4.678L81.5,77.023l.393.613,5.429,2.533,1.936-4.116L91.2,82.437l5.153,3.546-3.9,1.588,1.207,6.746Z" transform="translate(-81.495 -73.464)"/>
          <path id="Path_14446" data-name="Path 14446" class="cls-16" d="M91.13,74.627l2.629-1.509,2.2,7.22-2.629,1.509Z" transform="translate(-83.295 -73.118)"/>
          <path id="Path_14447" data-name="Path 14447" class="cls-16" d="M102.1,85.874l-2.629,1.509-5.635-3.878L96.467,82Z" transform="translate(-83.8 -74.776)"/>
        </g>
        <path id="Path_14448" data-name="Path 14448" class="cls-3" d="M93.907,83.643l-.4-.231,2.84-1.652.059.193.187.129Z" transform="translate(-83.738 -74.732)"/>
      </g>
      <g id="Group_4601" data-name="Group 4601" transform="translate(10038.959 -1168.924)">
        <g id="Group_4600" data-name="Group 4600" transform="translate(0 0)">
          <path id="Path_14449" data-name="Path 14449" class="cls-19" d="M114.648,85.759l2.2,7.22,5.635,3.878L118.21,98.6l1.281,7.166-4.843-6.234-4.843.642,1.281-5.687-4.274-6.678,5.635,2.629Z" transform="translate(-104.183 -85.759)"/>
          <path id="Path_14450" data-name="Path 14450" class="cls-16" d="M103.579,89.788l2.629-1.509,4.061,1.895s-.014,2.731,0,2.8a14.223,14.223,0,0,1-1.787.146C108.368,93.115,103.579,89.788,103.579,89.788Z" transform="translate(-103.579 -86.23)"/>
          <path id="Path_14451" data-name="Path 14451" class="cls-16" d="M121.5,108.752l-2.629,1.509-1.282-7.166s1.274-1.345,1.269-1.345l1.433.244Z" transform="translate(-106.197 -88.746)"/>
          <path id="Path_14452" data-name="Path 14452" class="cls-17" d="M111.415,87.615l2.2,7.22,5.635,3.878-4.274,1.742,1.281,7.166-4.843-6.234-4.843.642,1.281-5.687-4.274-6.678,5.635,2.629Z" transform="translate(-103.579 -86.106)"/>
          <path id="Path_14453" data-name="Path 14453" class="cls-3" d="M116.258,107.621l-1.282-7.166,4.274-1.743-5.635-3.877-2.2-7.22-2.2,4.678-5.635-2.629.393.614,5.429,2.532,1.936-4.116,1.945,6.384,5.153,3.546-3.9,1.588,1.207,6.746Z" transform="translate(-103.579 -86.106)"/>
          <path id="Path_14454" data-name="Path 14454" class="cls-16" d="M113.215,87.268l2.629-1.509,2.2,7.22-2.629,1.509Z" transform="translate(-105.379 -85.759)"/>
          <path id="Path_14455" data-name="Path 14455" class="cls-16" d="M124.185,98.515l-2.629,1.509-5.635-3.878,2.629-1.509Z" transform="translate(-105.884 -87.417)"/>
        </g>
        <path id="Path_14456" data-name="Path 14456" class="cls-3" d="M115.991,96.284l-.4-.231,2.84-1.652.059.193.187.129Z" transform="translate(-105.822 -87.373)"/>
      </g>
      <g id="Group_4603" data-name="Group 4603" transform="translate(10056.918 -1158.644)">
        <g id="Group_4602" data-name="Group 4602" transform="translate(0 0)">
          <path id="Path_14457" data-name="Path 14457" class="cls-19" d="M136.732,98.4l2.2,7.22,5.635,3.878-4.274,1.742,1.281,7.166-4.843-6.234-4.843.642,1.281-5.686L128.9,100.45l5.635,2.629Z" transform="translate(-126.267 -98.4)"/>
          <path id="Path_14458" data-name="Path 14458" class="cls-16" d="M125.663,102.429l2.629-1.509,4.061,1.895s-.014,2.731,0,2.8a14.388,14.388,0,0,1-1.787.146C130.452,105.756,125.663,102.429,125.663,102.429Z" transform="translate(-125.663 -98.871)"/>
          <path id="Path_14459" data-name="Path 14459" class="cls-16" d="M143.589,121.393,140.96,122.9l-1.282-7.166s1.275-1.345,1.269-1.345l1.433.244Z" transform="translate(-128.281 -101.387)"/>
          <path id="Path_14460" data-name="Path 14460" class="cls-17" d="M133.5,100.256l2.2,7.22,5.635,3.878-4.274,1.742,1.281,7.166-4.843-6.234-4.843.642,1.281-5.686-4.274-6.678,5.635,2.629Z" transform="translate(-125.663 -98.747)"/>
          <path id="Path_14461" data-name="Path 14461" class="cls-3" d="M138.342,120.262,137.06,113.1l4.274-1.742-5.634-3.877-2.2-7.221-2.2,4.678-5.635-2.629.393.614,5.429,2.532,1.936-4.115,1.946,6.383,5.153,3.546-3.9,1.589,1.207,6.746Z" transform="translate(-125.663 -98.747)"/>
          <path id="Path_14462" data-name="Path 14462" class="cls-16" d="M135.3,99.909l2.629-1.509,2.2,7.22-2.629,1.509Z" transform="translate(-127.463 -98.4)"/>
          <path id="Path_14463" data-name="Path 14463" class="cls-16" d="M146.269,111.156l-2.629,1.509-5.635-3.878,2.629-1.509Z" transform="translate(-127.968 -100.058)"/>
        </g>
        <path id="Path_14464" data-name="Path 14464" class="cls-3" d="M138.075,108.925l-.4-.231,2.84-1.652.059.193.187.129Z" transform="translate(-127.906 -100.014)"/>
      </g>
      <g id="Group_4605" data-name="Group 4605" transform="translate(10074.878 -1148.364)">
        <g id="Group_4604" data-name="Group 4604" transform="translate(0 0)">
          <path id="Path_14465" data-name="Path 14465" class="cls-19" d="M158.816,111.041l2.2,7.22,5.635,3.878-4.274,1.742,1.281,7.166-4.843-6.234-4.843.642,1.281-5.686-4.274-6.678,5.635,2.629Z" transform="translate(-148.351 -111.041)"/>
          <path id="Path_14466" data-name="Path 14466" class="cls-16" d="M147.747,115.071l2.63-1.51,4.06,1.895s-.014,2.731,0,2.8a14.219,14.219,0,0,1-1.787.146C152.536,118.4,147.747,115.071,147.747,115.071Z" transform="translate(-147.747 -111.512)"/>
          <path id="Path_14467" data-name="Path 14467" class="cls-16" d="M165.673,134.034l-2.629,1.509-1.281-7.166s1.274-1.345,1.269-1.345l1.433.244Z" transform="translate(-150.365 -114.028)"/>
          <path id="Path_14468" data-name="Path 14468" class="cls-17" d="M155.583,112.9l2.2,7.22,5.634,3.878-4.274,1.742,1.281,7.166-4.843-6.234-4.843.642,1.281-5.686-4.274-6.678,5.635,2.629Z" transform="translate(-147.747 -111.388)"/>
          <path id="Path_14469" data-name="Path 14469" class="cls-3" d="M160.426,132.9l-1.281-7.166L163.419,124l-5.634-3.877-2.2-7.221-2.2,4.678-5.635-2.628.393.613,5.43,2.532,1.936-4.115,1.945,6.383,5.153,3.546-3.9,1.589,1.207,6.746Z" transform="translate(-147.747 -111.388)"/>
          <path id="Path_14470" data-name="Path 14470" class="cls-16" d="M157.383,112.551l2.629-1.509,2.2,7.22-2.629,1.509Z" transform="translate(-149.547 -111.041)"/>
          <path id="Path_14471" data-name="Path 14471" class="cls-16" d="M168.354,123.8l-2.629,1.509-5.634-3.878,2.629-1.509Z" transform="translate(-150.052 -112.699)"/>
        </g>
        <path id="Path_14472" data-name="Path 14472" class="cls-3" d="M160.159,121.566l-.4-.231,2.84-1.652.059.193.187.129Z" transform="translate(-149.99 -112.655)"/>
      </g>
      <g id="Group_4607" data-name="Group 4607" transform="translate(10092.837 -1138.084)">
        <g id="Group_4606" data-name="Group 4606" transform="translate(0 0)">
          <path id="Path_14473" data-name="Path 14473" class="cls-19" d="M180.9,123.682l2.2,7.22,5.635,3.878-4.274,1.742,1.281,7.166-4.843-6.234-4.843.642,1.281-5.687-4.274-6.678,5.635,2.629Z" transform="translate(-170.435 -123.682)"/>
          <path id="Path_14474" data-name="Path 14474" class="cls-16" d="M169.832,127.712l2.629-1.509,4.06,1.894s-.014,2.731,0,2.8a14.218,14.218,0,0,1-1.787.146C174.621,131.038,169.832,127.712,169.832,127.712Z" transform="translate(-169.832 -124.153)"/>
          <path id="Path_14475" data-name="Path 14475" class="cls-16" d="M187.757,146.675l-2.629,1.509-1.281-7.165s1.274-1.346,1.269-1.346l1.434.244Z" transform="translate(-172.449 -126.669)"/>
          <path id="Path_14476" data-name="Path 14476" class="cls-17" d="M177.667,125.538l2.2,7.22,5.635,3.878-4.274,1.742,1.281,7.166-4.843-6.234-4.843.642,1.281-5.687-4.274-6.678,5.635,2.629Z" transform="translate(-169.831 -124.029)"/>
          <path id="Path_14477" data-name="Path 14477" class="cls-3" d="M182.51,145.544l-1.281-7.166,4.274-1.742-5.635-3.877-2.2-7.221-2.2,4.678-5.634-2.628.392.613,5.43,2.532,1.936-4.115L179.535,133l5.153,3.546-3.9,1.589L182,144.883Z" transform="translate(-169.832 -124.029)"/>
          <path id="Path_14478" data-name="Path 14478" class="cls-16" d="M179.467,125.192l2.629-1.509,2.2,7.22-2.629,1.509Z" transform="translate(-171.631 -123.682)"/>
          <path id="Path_14479" data-name="Path 14479" class="cls-16" d="M190.438,136.438l-2.629,1.509-5.635-3.878,2.629-1.509Z" transform="translate(-172.137 -125.341)"/>
        </g>
        <path id="Path_14480" data-name="Path 14480" class="cls-3" d="M182.243,134.207l-.4-.231,2.84-1.652.059.193.187.129Z" transform="translate(-172.075 -125.296)"/>
      </g>
    </g>
  </g>
</svg>
