<svg xmlns="http://www.w3.org/2000/svg" xmlns:xlink="http://www.w3.org/1999/xlink" width="340" height="402" viewBox="0 0 340 402">
  <defs>
    <style>
      .cls-1, .cls-44 {
        fill: #fff;
      }

      .cls-2 {
        fill: #95c4de;
      }

      .cls-3 {
        fill: url(#linear-gradient);
      }

      .cls-20, .cls-4 {
        opacity: 0.1;
      }

      .cls-5 {
        fill: #a9d6ea;
      }

      .cls-6 {
        fill: #def6ff;
      }

      .cls-7 {
        fill: url(#linear-gradient-2);
      }

      .cls-8 {
        fill: #75b2cc;
      }

      .cls-9 {
        fill: url(#linear-gradient-3);
      }

      .cls-10, .cls-26, .cls-27 {
        isolation: isolate;
      }

      .cls-11 {
        clip-path: url(#clip-path);
      }

      .cls-12 {
        fill: #b8387b;
      }

      .cls-13 {
        fill: #c5c5c5;
      }

      .cls-14 {
        clip-path: url(#clip-path-2);
      }

      .cls-15 {
        fill: #898989;
      }

      .cls-16 {
        fill: #3fbad4;
      }

      .cls-17 {
        fill: #38a7be;
      }

      .cls-18 {
        fill: #277484;
      }

      .cls-19 {
        fill: #f8f9fd;
      }

      .cls-21 {
        fill: #e1bb00;
      }

      .cls-22 {
        fill: #ffdf02;
      }

      .cls-23 {
        fill: #ce7788;
      }

      .cls-24 {
        fill: #fc8b9a;
      }

      .cls-25 {
        fill: #171716;
      }

      .cls-26 {
        fill: #123f5d;
        opacity: 0.3;
      }

      .cls-26, .cls-27 {
        mix-blend-mode: multiply;
      }

      .cls-27 {
        fill: #1a4b6c;
        opacity: 0.2;
      }

      .cls-28 {
        fill: #b4b9bc;
      }

      .cls-29 {
        fill: #7d8183;
      }

      .cls-30 {
        fill: #e3e5e5;
      }

      .cls-31 {
        fill: #bdbbbb;
      }

      .cls-32 {
        fill: #d2d0d0;
      }

      .cls-33 {
        fill: #d5dfe6;
      }

      .cls-34 {
        fill: #e9f0f4;
      }

      .cls-35 {
        fill: #efb185;
      }

      .cls-36 {
        fill: #5fb9e6;
      }

      .cls-37 {
        fill: #77d2ff;
      }

      .cls-38 {
        fill: #301806;
      }

      .cls-39 {
        fill: #e8a476;
      }

      .cls-40 {
        fill: #db9669;
      }

      .cls-41 {
        fill: #f1b287;
      }

      .cls-42 {
        fill: #231202;
      }

      .cls-43 {
        fill: #8ddfff;
      }

      .cls-44 {
        font-size: 28px;
        font-family: NunitoSans-SemiBold, Nunito Sans;
        font-weight: 600;
      }
    </style>
    <linearGradient id="linear-gradient" x1="0.5" x2="0.5" y2="1" gradientUnits="objectBoundingBox">
      <stop offset="0" stop-color="#9299d8"/>
      <stop offset="1" stop-color="#7f93cf"/>
    </linearGradient>
    <linearGradient id="linear-gradient-2" x1="0.934" y1="0.075" x2="0.077" y2="0.914" gradientUnits="objectBoundingBox">
      <stop offset="0" stop-color="#1a6bb2"/>
      <stop offset="1" stop-color="#1b4b92"/>
    </linearGradient>
    <linearGradient id="linear-gradient-3" y1="0.5" x2="1" y2="0.5" gradientUnits="objectBoundingBox">
      <stop offset="0" stop-color="#1b4b92"/>
      <stop offset="1" stop-color="#1a5cb2"/>
    </linearGradient>
    <clipPath id="clip-path">
      <path id="Path_8236" data-name="Path 8236" class="cls-1" d="M93.9,84.886c0-1.059.011-2.122.011-3.181h0C93.9,82.764,93.9,83.827,93.9,84.886Z" transform="translate(-93.896 -81.705)"/>
    </clipPath>
    <clipPath id="clip-path-2">
      <path id="Path_8243" data-name="Path 8243" class="cls-2" d="M51.992,93.171l.016-4.714c-.005,1.536,1.01,3.075,3.042,4.251l-.016,4.709C53.005,96.243,51.989,94.707,51.992,93.171Z" transform="translate(-51.992 -88.457)"/>
    </clipPath>
  </defs>
  <g id="Group_20084" data-name="Group 20084" transform="translate(-606 -75)">
    <rect id="Rectangle_2648" data-name="Rectangle 2648" class="cls-3" width="340" height="402" rx="8" transform="translate(606 75)"/>
    <g id="Group_20070" data-name="Group 20070" transform="translate(9210.949 -15640)">
      <g id="Group_1134" data-name="Group 1134" transform="translate(-8568.949 15779.369)">
        <g id="Group_1050" data-name="Group 1050" class="cls-4" transform="translate(0.107 39.263)">
          <path id="Path_8226" data-name="Path 8226" d="M287.515,117.719c3.935,2.255,3.954,5.929.057,8.211l-7.759,4.543-143.907,84.21-12,7.024a15.6,15.6,0,0,1-14.164.041l-84.09-48.212c-3.933-2.258-3.965-5.923-.068-8.2L189.25,69.558a15.6,15.6,0,0,1,14.178-.052Z" transform="translate(-22.68 -67.829)"/>
        </g>
        <path id="Path_8227" data-name="Path 8227" class="cls-5" d="M127.83,76.4a3.488,3.488,0,0,1-.172,1.032l-.033.109a4.376,4.376,0,0,1-.479.94c-.038.052-.071.1-.106.155a6.111,6.111,0,0,1-.8.882,7.953,7.953,0,0,1-.708.523c-.207.147-.384.3-.621.441L117.135,85,117.1,98.08l7.773-4.518.123-.074c.188-.112.319-.24.485-.357a7.1,7.1,0,0,0,.722-.537.586.586,0,0,0,.065-.049,5.306,5.306,0,0,0,.626-.67,1.786,1.786,0,0,0,.106-.158c.041-.054.074-.106.109-.161.06-.1.136-.185.191-.283a4.309,4.309,0,0,0,.267-.569.867.867,0,0,0,.025-.09c.014-.033.019-.068.03-.1a3.193,3.193,0,0,0,.106-.373,3.439,3.439,0,0,0,.065-.575v-.079l0-.008q.016-5.7.033-11.4l0-1.588Z" transform="translate(140.149 -13.792)"/>
        <path id="Path_8228" data-name="Path 8228" class="cls-2" d="M25.634,97.706c-1.972-1.141-2.96-2.636-2.958-4.131l-.035,13.078c-.005,1.5.983,2.99,2.963,4.131l83.938,48.463.038-13.078Z" transform="translate(-22.641 15.804)"/>
        <path id="Path_8229" data-name="Path 8229" class="cls-5" d="M68.752,117.307a10.974,10.974,0,0,1-1.974.869c-.251.087-.5.161-.76.234-.327.09-.654.174-.994.245-.4.084-.814.161-1.228.212-.1.014-.191.03-.286.041-.561.06-1.13.09-1.7.1h-.242c-.564,0-1.125-.035-1.683-.093l-.234-.027a15.78,15.78,0,0,1-1.623-.278c-.087-.022-.177-.046-.272-.068a12.461,12.461,0,0,1-1.411-.43c-.074-.027-.155-.046-.229-.074a11.649,11.649,0,0,1-1.531-.727l-.038,13.078A11.1,11.1,0,0,0,56,131.08c.027.014.054.019.082.03.076.03.158.052.237.076.3.109.594.218.9.308.163.046.332.082.5.123.09.025.182.046.275.068s.174.046.267.065c.327.065.659.125.991.172.117.014.231.025.346.038l.264.03c.123.011.24.03.362.041.324.027.651.046.983.052.1,0,.207,0,.308,0l.27,0c.15,0,.3,0,.447,0,.368-.014.741-.041,1.108-.074.044-.005.087-.016.128-.019.1-.011.2-.03.291-.041.289-.035.577-.068.855-.12.125-.022.24-.065.365-.09.34-.074.67-.158,1-.251.172-.046.359-.076.531-.128.079-.03.147-.076.226-.1a11.258,11.258,0,0,0,1.974-.869L80.741,123.4l.035-13.078Z" transform="translate(32.351 44.666)"/>
        <g id="Group_1052" data-name="Group 1052" transform="translate(0.035 8.32)">
          <g id="Group_1051" data-name="Group 1051">
            <path id="Path_8230" data-name="Path 8230" class="cls-6" d="M287.643,106.629c3.93,2.266,3.941,5.942.035,8.211l-7.775,4.518L135.746,203.135l-12.024,6.985a15.59,15.59,0,0,1-14.164,0L25.612,161.657c-3.927-2.271-3.946-5.934-.044-8.206L189.522,58.171a15.624,15.624,0,0,1,14.181-.005Z" transform="translate(-22.654 -56.467)"/>
          </g>
        </g>
        <g id="Group_1054" data-name="Group 1054" transform="translate(14.974 14.542)">
          <g id="Group_1053" data-name="Group 1053">
            <path id="Path_8231" data-name="Path 8231" class="cls-7" d="M270.45,115.422,126.291,199.2,28.139,142.532,172.3,58.752Z" transform="translate(-28.139 -58.752)"/>
          </g>
        </g>
        <g id="Group_1055" data-name="Group 1055" transform="translate(197.568 29.379)">
          <path id="Path_8232" data-name="Path 8232" class="cls-8" d="M130.027,81.587c1.051.607,1.078,1.846-.463,2.65-1.073.558-2.424.994-3.475.387L95.565,67.294c-1.051-.607.308-2.037,1.354-2.644a4.185,4.185,0,0,1,3.777,0Z" transform="translate(-95.186 -64.2)"/>
        </g>
        <g id="Group_1056" data-name="Group 1056" transform="translate(197.592 30.165)">
          <path id="Path_8233" data-name="Path 8233" class="cls-5" d="M129.09,81.876a1.163,1.163,0,0,1,.025,2.2,4.211,4.211,0,0,1-3.8,0L95.982,67.135a1.159,1.159,0,0,1,0-2.2,4.171,4.171,0,0,1,3.775,0Z" transform="translate(-95.195 -64.488)"/>
        </g>
        <g id="Group_1057" data-name="Group 1057" transform="translate(113.09 71.212)">
          <path id="Path_8234" data-name="Path 8234" class="cls-9" d="M208.361,79.56l-.036,13.077L64.167,176.414l.036-13.078Z" transform="translate(-64.167 -79.56)"/>
        </g>
        <g id="Group_1060" data-name="Group 1060" class="cls-10" transform="translate(194.055 77.052)">
          <g id="Group_1059" data-name="Group 1059" class="cls-11">
            <g id="Group_1058" data-name="Group 1058" class="cls-10" transform="translate(-0.065 -0.433)">
              <path id="Path_8235" data-name="Path 8235" class="cls-12" d="M94.929,81.546l-.008,3.6a5.2,5.2,0,0,0-.986.436.385.385,0,0,0-.063.038l.011-3.606.065-.035a5,5,0,0,1,.98-.433Z" transform="translate(-93.872 -81.546)"/>
            </g>
          </g>
        </g>
        <g id="Group_1094" data-name="Group 1094" transform="translate(54.987 70.24)">
          <g id="Group_1089" data-name="Group 1089" transform="translate(24.947 8.858)">
            <g id="Group_1062" data-name="Group 1062" class="cls-4" transform="translate(0.553 16.469)">
              <g id="Group_1061" data-name="Group 1061">
                <path id="Path_8237" data-name="Path 8237" d="M121.1,109.552c4.039,2.334,4.042,6.114.046,8.434l-7.552,4.39-10.36,6.021-18.4,10.7-6.07-16.417L55.239,109.094c-4.042-2.331-4.061-6.1-.046-8.434L73.1,90.248a16.071,16.071,0,0,1,14.567,0ZM105.015,119.7l2.732-1.59L71.985,97.46l-2.732,1.59L105.015,119.7Zm7.258-4.224L115,113.887,79.243,93.241l-2.734,1.59,35.764,20.643Zm-14.518,8.437,2.734-1.588L64.725,101.679l-2.732,1.588,35.761,20.646Z" transform="translate(-52.195 -88.503)"/>
              </g>
            </g>
            <g id="Group_1088" data-name="Group 1088">
              <g id="Group_1063" data-name="Group 1063" transform="translate(24.32 4.738)">
                <path id="Path_8238" data-name="Path 8238" class="cls-13" d="M63.662,84.2l-.008,4.713L60.922,90.5l.009-4.713Z" transform="translate(-60.922 -84.196)"/>
              </g>
              <g id="Group_1064" data-name="Group 1064" transform="translate(17.061 8.958)">
                <path id="Path_8239" data-name="Path 8239" class="cls-13" d="M61,85.745l-.01,4.712-2.732,1.587.011-4.71Z" transform="translate(-58.257 -85.745)"/>
              </g>
              <g id="Group_1065" data-name="Group 1065" transform="translate(9.8 13.175)">
                <path id="Path_8240" data-name="Path 8240" class="cls-13" d="M58.335,87.294l-.014,4.712L55.59,93.594l.011-4.711Z" transform="translate(-55.59 -87.294)"/>
              </g>
              <g id="Group_1069" data-name="Group 1069" transform="translate(0 16.343)">
                <g id="Group_1068" data-name="Group 1068">
                  <path id="Path_8241" data-name="Path 8241" class="cls-2" d="M51.992,93.171l.016-4.714c-.005,1.536,1.01,3.075,3.042,4.251l-.016,4.709C53.005,96.243,51.989,94.707,51.992,93.171Z" transform="translate(-51.992 -88.457)"/>
                  <g id="Group_1067" data-name="Group 1067" class="cls-14">
                    <g id="Group_1066" data-name="Group 1066" class="cls-10">
                      <path id="Path_8242" data-name="Path 8242" class="cls-2" d="M55.05,92.708l-.016,4.709c-2.029-1.174-3.045-2.71-3.042-4.246l.016-4.714c-.005,1.536,1.01,3.075,3.042,4.251Z" transform="translate(-51.992 -88.457)"/>
                    </g>
                  </g>
                </g>
              </g>
              <g id="Group_1070" data-name="Group 1070" transform="translate(27.053 4.738)">
                <path id="Path_8244" data-name="Path 8244" class="cls-15" d="M97.7,104.843l-.015,4.712L61.925,88.909l.008-4.713Z" transform="translate(-61.925 -84.196)"/>
              </g>
              <g id="Group_1071" data-name="Group 1071" transform="translate(24.329 4.738)">
                <path id="Path_8245" data-name="Path 8245" class="cls-16" d="M99.42,104.843l-2.732,1.589L60.925,85.784,63.657,84.2Z" transform="translate(-60.925 -84.196)"/>
              </g>
              <g id="Group_1072" data-name="Group 1072" transform="translate(60.077 25.385)">
                <path id="Path_8246" data-name="Path 8246" class="cls-17" d="M76.8,91.777l-.015,4.712-2.731,1.587.014-4.711Z" transform="translate(-74.052 -91.777)"/>
              </g>
              <g id="Group_1073" data-name="Group 1073" transform="translate(24.32 6.327)">
                <path id="Path_8247" data-name="Path 8247" class="cls-18" d="M96.693,105.426l-.014,4.711L60.922,89.492l.009-4.713Z" transform="translate(-60.922 -84.779)"/>
              </g>
              <g id="Group_1074" data-name="Group 1074" transform="translate(19.794 8.958)">
                <path id="Path_8248" data-name="Path 8248" class="cls-15" d="M95.029,106.392l-.012,4.711L59.26,90.458l.01-4.712Z" transform="translate(-59.26 -85.745)"/>
              </g>
              <g id="Group_1075" data-name="Group 1075" transform="translate(17.061 10.548)">
                <path id="Path_8249" data-name="Path 8249" class="cls-18" d="M94.028,106.974l-.015,4.712L58.257,91.039l.011-4.71Z" transform="translate(-58.257 -86.329)"/>
              </g>
              <g id="Group_1076" data-name="Group 1076" transform="translate(52.817 29.605)">
                <path id="Path_8250" data-name="Path 8250" class="cls-17" d="M74.131,93.327l-.012,4.711-2.734,1.589.015-4.712Z" transform="translate(-71.386 -93.327)"/>
              </g>
              <g id="Group_1077" data-name="Group 1077" transform="translate(17.073 8.958)">
                <path id="Path_8251" data-name="Path 8251" class="cls-16" d="M96.751,106.392l-2.73,1.587L58.261,87.335l2.731-1.59Z" transform="translate(-58.261 -85.745)"/>
              </g>
              <g id="Group_1078" data-name="Group 1078" transform="translate(12.531 13.175)">
                <path id="Path_8252" data-name="Path 8252" class="cls-15" d="M92.37,107.941l-.017,4.711L56.593,92.006l.014-4.712Z" transform="translate(-56.593 -87.294)"/>
              </g>
              <g id="Group_1080" data-name="Group 1080" transform="translate(3.043 20.593)">
                <g id="Group_1079" data-name="Group 1079">
                  <path id="Path_8253" data-name="Path 8253" class="cls-2" d="M76.652,103.6l-.014,4.711L53.11,94.727l.015-4.71Z" transform="translate(-53.11 -90.018)"/>
                </g>
              </g>
              <g id="Group_1081" data-name="Group 1081" transform="translate(45.561 33.823)">
                <path id="Path_8254" data-name="Path 8254" class="cls-17" d="M71.468,94.875l-.017,4.711-2.73,1.587.013-4.712Z" transform="translate(-68.721 -94.875)"/>
              </g>
              <g id="Group_1082" data-name="Group 1082" transform="translate(9.8 14.767)">
                <path id="Path_8255" data-name="Path 8255" class="cls-18" d="M91.364,108.52l-.013,4.712L55.59,92.587l.011-4.708Z" transform="translate(-55.59 -87.878)"/>
              </g>
              <g id="Group_1084" data-name="Group 1084" transform="translate(0.015)">
                <g id="Group_1083" data-name="Group 1083">
                  <path id="Path_8256" data-name="Path 8256" class="cls-19" d="M120.906,103.505c4.041,2.331,4.044,6.114.049,8.434l-7.555,4.393-10.357,6.019-18.4,10.7-6.07-16.417L55.041,103.05C51,100.716,50.981,96.944,55,94.613L72.907,84.2a16.046,16.046,0,0,1,14.567,0ZM104.814,113.65l2.732-1.588L71.787,91.413,69.056,93l35.758,20.646Zm7.261-4.221,2.732-1.588L79.042,87.195l-2.732,1.588,35.764,20.646Zm-14.518,8.437,2.734-1.588L64.527,95.632,61.8,97.219l35.761,20.646Z" transform="translate(-51.997 -82.456)"/>
                </g>
              </g>
              <g id="Group_1085" data-name="Group 1085" transform="translate(9.811 13.175)">
                <path id="Path_8257" data-name="Path 8257" class="cls-16" d="M94.091,107.941l-2.734,1.586L55.594,88.885l2.734-1.591Z" transform="translate(-55.594 -87.294)"/>
              </g>
              <path id="Path_8258" data-name="Path 8258" class="cls-5" d="M103.3,91.743a3.47,3.47,0,0,1-.177,1.059c-.011.041-.019.076-.033.117a4.177,4.177,0,0,1-.493.961,1.7,1.7,0,0,1-.109.163,5.822,5.822,0,0,1-.828.912,7.911,7.911,0,0,1-.675.5,7.173,7.173,0,0,1-.673.477l-7.555,4.393L82.4,106.346l-18.4,10.7-.014,4.709,18.4-10.692,10.357-6.021,7.549-4.387c.046-.027.087-.052.128-.079.221-.128.376-.281.572-.419.221-.163.466-.316.654-.482.025-.022.057-.041.079-.06a6.4,6.4,0,0,0,.635-.684c.044-.054.071-.114.112-.169s.079-.112.114-.169a3,3,0,0,0,.188-.283,4.563,4.563,0,0,0,.278-.586c.011-.03.014-.057.025-.09s.022-.074.035-.114c.035-.125.082-.248.106-.376a3.893,3.893,0,0,0,.071-.591l0-.64Z" transform="translate(-31.335 -66.451)"/>
              <g id="Group_1087" data-name="Group 1087" transform="translate(26.572 34.176)">
                <g id="Group_1086" data-name="Group 1086">
                  <path id="Path_8259" data-name="Path 8259" class="cls-2" d="M67.834,111.421l-.014,4.71L61.749,99.716l.014-4.711Z" transform="translate(-61.749 -95.005)"/>
                </g>
              </g>
            </g>
          </g>
          <path id="Path_8260" data-name="Path 8260" class="cls-20" d="M66.7,84.3c-5.485-3.165-14.352-3.165-19.8,0s-5.42,8.3.065,11.468,14.341,3.159,19.788-.005S72.18,87.472,66.7,84.3Z" transform="translate(-42.832 -74.502)"/>
          <g id="Group_1093" data-name="Group 1093" transform="translate(3.86)">
            <g id="Group_1090" data-name="Group 1090" transform="translate(4.406 4.175)">
              <path id="Path_8261" data-name="Path 8261" class="cls-19" d="M60.914,81.5c1.77,1.021,1.776,2.672.019,3.693a6.512,6.512,0,0,1-3.265.768c.626,1.3.2,2.854-1.247,4.265L45.867,84.139A15.574,15.574,0,0,1,53.22,83.4a2.2,2.2,0,0,1,1.31-1.9A7.042,7.042,0,0,1,60.914,81.5Z" transform="translate(-45.867 -80.737)"/>
            </g>
            <path id="Path_8262" data-name="Path 8262" class="cls-21" d="M72.213,82.676c-.016.136-.022.27-.049.409-.022.123-.06.251-.1.376s-.068.267-.112.4-.1.234-.15.351c-.063.144-.125.291-.2.436-.057.1-.12.2-.18.3a5.314,5.314,0,0,1-.343.5c-.065.093-.142.182-.215.272-.185.221-.387.438-.607.654-.076.071-.142.144-.221.212-.136.128-.294.248-.447.373-.125.1-.245.2-.379.294-.158.117-.332.229-.507.34s-.343.232-.531.34a14.521,14.521,0,0,1-1.955.929c-.177.074-.359.139-.537.2-.425.155-.869.275-1.31.4-.466.131-.937.256-1.419.351-.547.114-1.106.218-1.669.286-.147.019-.294.049-.444.065A23.05,23.05,0,0,1,58.5,90.3l-.381,0c-.779-.008-1.555-.049-2.323-.131-.112-.011-.229-.022-.34-.038a21.756,21.756,0,0,1-2.255-.381c-.133-.03-.261-.068-.392-.1a19.4,19.4,0,0,1-1.931-.588c-.12-.044-.245-.076-.362-.123a15.453,15.453,0,0,1-2.13-1c-2.759-1.59-4.137-3.682-4.131-5.771l-.008,3.6c-.008,2.089,1.37,4.18,4.129,5.774a15.484,15.484,0,0,0,2.018.967c.041.016.082.025.123.038.1.041.212.071.316.109.414.153.825.3,1.258.428.237.065.479.114.719.174.125.033.251.065.379.093s.237.063.362.09c.455.1.918.174,1.386.24.163.024.335.038.5.057.12.014.231.025.354.041.166.016.332.041.5.054.458.038.915.06,1.378.074.147,0,.3,0,.447,0h.359c.21,0,.419,0,.626,0q.78-.029,1.552-.106c.06-.005.117-.016.18-.022.144-.016.281-.044.425-.06.4-.052.793-.1,1.182-.166.172-.03.33-.09.5-.125.485-.1.948-.221,1.413-.354.24-.065.5-.1.735-.18.193-.065.376-.15.564-.215s.373-.139.558-.212a14.861,14.861,0,0,0,1.944-.923c.06-.033.114-.068.172-.1.125-.074.226-.153.343-.229.18-.114.359-.229.523-.349.139-.1.259-.2.387-.305.15-.12.3-.24.438-.362.027-.025.06-.046.082-.068.054-.049.09-.106.142-.153a8.283,8.283,0,0,0,.6-.648c.041-.046.093-.09.128-.133s.057-.1.09-.139a5.206,5.206,0,0,0,.338-.5c.041-.065.1-.131.133-.2a.887.887,0,0,0,.049-.1c.082-.144.144-.294.212-.444.033-.082.082-.163.112-.248a.812.812,0,0,0,.027-.087c.046-.133.082-.272.117-.409.027-.1.065-.193.084-.294a.69.69,0,0,0,.008-.082c.027-.133.035-.27.049-.4.011-.109.033-.212.035-.319v-.12l.011-3.606C72.248,82.385,72.224,82.529,72.213,82.676Z" transform="translate(-44.249 -74.096)"/>
            <g id="Group_1092" data-name="Group 1092" transform="translate(0.01)">
              <g id="Group_1091" data-name="Group 1091">
                <path id="Path_8263" data-name="Path 8263" class="cls-22" d="M68.116,81.577c5.485,3.167,5.5,8.3.054,11.463s-14.3,3.173-19.788.005-5.512-8.3-.063-11.468S62.634,78.412,68.116,81.577Zm-19.467,5.2L59.2,92.871c1.454-1.411,1.876-2.963,1.25-4.265a6.512,6.512,0,0,0,3.265-.768c1.757-1.021,1.751-2.672-.019-3.693a7.042,7.042,0,0,0-6.384,0,2.2,2.2,0,0,0-1.31,1.9,15.574,15.574,0,0,0-7.353.743Z" transform="translate(-44.253 -79.203)"/>
              </g>
            </g>
          </g>
        </g>
        <g id="Group_1099" data-name="Group 1099" transform="translate(108.747 43.115)">
          <path id="Path_8264" data-name="Path 8264" class="cls-20" d="M86.435,74.744c-5.479-3.167-14.347-3.167-19.8,0s-5.42,8.3.065,11.468,14.341,3.159,19.788-.005S91.92,77.909,86.435,74.744Z" transform="translate(-62.572 -63.857)"/>
          <g id="Group_1098" data-name="Group 1098" transform="translate(1.529)">
            <g id="Group_1095" data-name="Group 1095" transform="translate(4.404 4.173)">
              <path id="Path_8265" data-name="Path 8265" class="cls-19" d="M79.8,71.544c1.77,1.021,1.776,2.672.022,3.693A6.457,6.457,0,0,1,76.553,76c.629,1.307.2,2.857-1.25,4.27L64.75,74.178a15.649,15.649,0,0,1,7.353-.743,2.215,2.215,0,0,1,1.313-1.9A7.033,7.033,0,0,1,79.8,71.544Z" transform="translate(-64.75 -70.776)"/>
            </g>
            <path id="Path_8266" data-name="Path 8266" class="cls-23" d="M91.094,72.715c-.014.139-.022.275-.046.409s-.063.251-.1.379-.068.264-.114.4c-.041.117-.1.234-.147.349a4.543,4.543,0,0,1-.207.438,3.367,3.367,0,0,1-.177.294c-.106.172-.218.34-.34.507-.071.09-.142.18-.215.27a7.957,7.957,0,0,1-.607.654c-.074.074-.142.144-.221.215-.139.125-.3.248-.447.37-.128.1-.242.2-.379.3-.158.117-.335.229-.5.338s-.343.231-.534.343A15.061,15.061,0,0,1,85.1,78.9c-.174.074-.357.139-.537.2-.422.153-.866.275-1.31.4-.466.131-.931.253-1.416.351-.547.112-1.1.218-1.672.286-.144.022-.291.046-.441.063a23.04,23.04,0,0,1-2.339.133l-.384,0c-.773-.008-1.555-.049-2.32-.131-.114-.011-.226-.027-.34-.038a21.818,21.818,0,0,1-2.258-.387c-.131-.027-.259-.063-.392-.1a18.915,18.915,0,0,1-1.931-.586c-.117-.044-.245-.076-.359-.123a15.625,15.625,0,0,1-2.13-1c-2.759-1.59-4.137-3.685-4.129-5.774l-.011,3.6c-.008,2.089,1.37,4.18,4.131,5.771a14.333,14.333,0,0,0,2.015.967c.038.016.082.027.123.044.1.038.21.068.313.106.417.15.831.3,1.264.428.234.065.474.114.714.174.128.03.251.063.379.093s.24.063.362.087c.458.1.921.174,1.386.242.169.022.338.035.507.057.117.011.234.024.354.035.166.019.332.046.5.057.457.038.918.065,1.378.076.15,0,.3,0,.441,0,.125,0,.242,0,.368,0,.207,0,.417.005.624,0,.517-.016,1.038-.052,1.552-.1.06-.005.117-.022.177-.025.147-.016.283-.041.428-.06.395-.049.793-.093,1.182-.163.174-.033.332-.09.5-.128.485-.1.948-.221,1.413-.351.24-.065.5-.1.735-.18.193-.065.373-.15.566-.215s.37-.139.556-.212a14.907,14.907,0,0,0,1.947-.926c.054-.03.114-.065.169-.1.12-.074.226-.15.34-.226.18-.114.36-.229.523-.349.142-.1.261-.2.389-.305.15-.12.3-.24.438-.362.024-.025.057-.046.084-.071.052-.049.09-.1.139-.15.218-.215.419-.43.6-.648.041-.049.09-.09.128-.136s.057-.093.093-.136c.123-.169.231-.335.335-.5.044-.068.1-.131.136-.2.019-.033.027-.068.049-.1.076-.147.142-.294.207-.447.035-.079.087-.163.117-.248l.022-.084a3.681,3.681,0,0,0,.12-.409c.027-.1.063-.2.084-.294a.759.759,0,0,0,.008-.082c.027-.133.035-.27.049-.4.008-.106.03-.212.035-.319V75.88l.011-3.6C91.132,72.424,91.108,72.571,91.094,72.715Z" transform="translate(-63.133 -64.138)"/>
            <g id="Group_1097" data-name="Group 1097" transform="translate(0.009)">
              <g id="Group_1096" data-name="Group 1096">
                <path id="Path_8267" data-name="Path 8267" class="cls-24" d="M87,71.617c5.482,3.167,5.5,8.3.054,11.463s-14.3,3.17-19.788.005-5.512-8.3-.063-11.468S81.521,68.452,87,71.617Zm-19.47,5.2,10.553,6.092c1.454-1.413,1.879-2.963,1.25-4.27a6.457,6.457,0,0,0,3.268-.763c1.754-1.021,1.746-2.672-.022-3.693A7.033,7.033,0,0,0,76.2,74.18a2.215,2.215,0,0,0-1.313,1.9,15.65,15.65,0,0,0-7.353.743Z" transform="translate(-63.136 -69.244)"/>
              </g>
            </g>
          </g>
        </g>
        <g id="Group_1133" data-name="Group 1133" transform="translate(150.359)">
          <g id="Group_1101" data-name="Group 1101" transform="translate(2.925 70.146)">
            <path id="Path_8268" data-name="Path 8268" class="cls-25" d="M102.16,110.247c.131-3.083.419-6.272.782-9.5l-9.363-.283c.561,2.04,1.13,4.055,1.6,5.942.332,4.766-3.222,6.065-.934,11.019a5.043,5.043,0,0,0,2.225,1.985,5.592,5.592,0,0,1,3.372,3.47,7.365,7.365,0,0,0,1.582,2.432c2.759,2.476,9.17,2.247,10.537.109,1.977-3.012-6.9-9.336-9.605-14.8A4.106,4.106,0,0,1,102.16,110.247Z" transform="translate(-53.862 -42.478)"/>
            <path id="Path_8269" data-name="Path 8269" class="cls-25" d="M108.366,97.37c.616-.365.632-1.01,1.52-1.765.6,1.144,2.4,2.3,3,3.4a4.361,4.361,0,0,0,.381.231c5.466,3.437,16.978,4.229,16.863,8.037-.063,2.7-5.719,6.441-9.578,5.735a7.641,7.641,0,0,1-2.772-1.315c-1.307-.85-2.685-1.759-4.957-1.272a5.361,5.361,0,0,1-3.118-.553c-4.7-3.154-2.416-6.228-5.085-10.218C105.92,98.873,107.176,98.059,108.366,97.37Z" transform="translate(-34.65 -50.843)"/>
            <g id="Group_1100" data-name="Group 1100">
              <path id="Path_8270" data-name="Path 8270" class="cls-24" d="M118.646,109.813a31.09,31.09,0,0,0-3.287-17.332C111.739,85.6,96.652,79.352,96.5,79.349s-13.07,5.85-12.084,8.037c.553,1.236,20.265,20.864,20.654,21.782a6.094,6.094,0,0,1,.479,4.327c-1.438,7.01.163,27.55,2.789,33.517,1.934,4.379,9.093,3.579,10.4,1.182.218-.411.065-33.639-.087-38.381C118.641,109.8,118.8,114.554,118.646,109.813Z" transform="translate(-69.561 -78.859)"/>
              <path id="Path_8271" data-name="Path 8271" class="cls-26" d="M97.4,90.877c0-.125,0-.229-.011-.327C97.516,94.5,97.435,91.854,97.4,90.877Z" transform="translate(-47.102 -59.555)"/>
              <path id="Path_8272" data-name="Path 8272" class="cls-26" d="M97.4,90.877c0-.2-.011-.327-.011-.327C97.4,90.648,97.4,90.752,97.4,90.877Z" transform="translate(-47.102 -59.555)"/>
              <path id="Path_8273" data-name="Path 8273" class="cls-26" d="M94.962,79.169c.136.008,16.782,6.746,20.4,13.622,4.581,8.7,2.484,15.15,2.484,15.15h0c.923,1.16.9,7.209.98,11.043-4.736-3.753-4.869-15.409-11.588-11.335-1.215.37-.34,25.208,1.781,34.87a35.7,35.7,0,0,0,2.549,7.263c-1.081-.1-2.143-.46-3.23-2.462-1.422-5.008-4.78-21.831-2.789-33.517a6.474,6.474,0,0,0-.479-4.327c-.389-.918-20.1-20.545-20.654-21.782C83.431,85.509,94.793,79.166,94.962,79.169Z" transform="translate(-69.565 -79.169)"/>
              <path id="Path_8274" data-name="Path 8274" class="cls-24" d="M97.942,102.885c12.873-.953,24.211-2.952,24.211-2.952,4.327,14.529,25.1,27.318,27.591,29.192,1.482-.2,5.264-4.178,6.43-5.956-3.965-6.487-22.381-31.9-28.37-35.922-3.753-2.514-36.376-3.382-36.382-4.989,0-.645-7.8-1.52-8.355-1.525C76.593,80.695,75.174,104.541,97.942,102.885Z" transform="translate(-78.925 -76.474)"/>
              <path id="Path_8275" data-name="Path 8275" class="cls-27" d="M83.067,80.733c.558.005,8.353.88,8.355,1.525s5.515.888,12.323,1.119a9.538,9.538,0,0,1-1.386,1.953c-4.548,5.063-15.491.493-19.3,6.117-2.454,3.622,2.516,6.6,4.9,7.47,11.106,3.524,26.311,3.573,34.93-3.783,3.772,14.657,16.474,24.813,28.922,33a6.835,6.835,0,0,1-2.067.986c-2.495-1.874-23.263-14.663-27.593-29.192,0,0-11.335,2-24.208,2.952C75.174,104.541,76.593,80.695,83.067,80.733Z" transform="translate(-78.925 -76.474)"/>
            </g>
          </g>
          <g id="Group_1113" data-name="Group 1113" transform="translate(27.604 60.064)">
            <g id="Group_1106" data-name="Group 1106" transform="translate(0 8.493)">
              <g id="Group_1105" data-name="Group 1105" class="cls-10">
                <g id="Group_1102" data-name="Group 1102" transform="translate(0 12.592)">
                  <path id="Path_8276" data-name="Path 8276" class="cls-28" d="M88.073,83.209l-.086,1.007L102.655,94.67l.086-1.012Z" transform="translate(-87.987 -83.209)"/>
                </g>
                <g id="Group_1103" data-name="Group 1103" transform="translate(14.668 10.454)">
                  <path id="Path_8277" data-name="Path 8277" class="cls-29" d="M93.459,95.011l-.086,1.012L120.76,83.434l.091-1.01Z" transform="translate(-93.373 -82.424)"/>
                </g>
                <g id="Group_1104" data-name="Group 1104" transform="translate(0.086)">
                  <path id="Path_8278" data-name="Path 8278" class="cls-30" d="M88.019,91.177l14.668,10.449L130.078,89.04,115.414,78.585Z" transform="translate(-88.019 -78.585)"/>
                </g>
              </g>
            </g>
            <g id="Group_1112" data-name="Group 1112" transform="translate(13.494)">
              <g id="Group_1111" data-name="Group 1111" class="cls-10">
                <g id="Group_1107" data-name="Group 1107" transform="translate(0 13.153)">
                  <path id="Path_8279" data-name="Path 8279" class="cls-31" d="M98.6,81.309,97.512,80.3l-4.57,18.325,1.088,1.012Z" transform="translate(-92.942 -80.297)"/>
                </g>
                <g id="Group_1108" data-name="Group 1108" transform="translate(4.57)">
                  <path id="Path_8280" data-name="Path 8280" class="cls-32" d="M124.339,76.48l-1.089-1.013L94.62,88.62l1.091,1.012Z" transform="translate(-94.62 -75.467)"/>
                </g>
                <g id="Group_1109" data-name="Group 1109" transform="translate(1.088 1.013)">
                  <path id="Path_8281" data-name="Path 8281" class="cls-33" d="M97.914,88.991l-4.573,18.325,28.632-13.16,4.569-18.317Z" transform="translate(-93.342 -75.839)"/>
                </g>
                <g id="Group_1110" data-name="Group 1110" transform="translate(5.661 1.013)">
                  <path id="Path_8282" data-name="Path 8282" class="cls-34" d="M95.021,88.991h0l24.059,5.165,4.568-18.317Z" transform="translate(-95.021 -75.839)"/>
                </g>
              </g>
            </g>
          </g>
          <g id="Group_1132" data-name="Group 1132" transform="translate(0)">
            <g id="Group_1114" data-name="Group 1114" transform="translate(51.495 55.451)">
              <path id="Path_8283" data-name="Path 8283" class="cls-35" d="M97.779,74.579s4.51-1.6,6.811-.289,3.971,1.574,5.147,3.154.31,2.68-1.242,2.876a15.815,15.815,0,0,1-6.847-1.217c-2.6-1.024-2.9-.616-3.693-.61C97.166,78.479,95.807,76.423,97.779,74.579Z" transform="translate(-96.76 -73.773)"/>
            </g>
            <g id="Group_1115" data-name="Group 1115" transform="translate(22.185 23.771)">
              <path id="Path_8284" data-name="Path 8284" class="cls-36" d="M89.646,62.352c2.211-.667,6.073-.03,7.015,6.013S100.03,91.32,100.03,91.32s16.381,1.863,18.244,2.369c0,0-2.936,1.972-1.552,5.1,0,0-17.931,3.554-21.931-.193C90.781,94.869,80.577,65.042,89.646,62.352Z" transform="translate(-85.997 -62.14)"/>
            </g>
            <g id="Group_1117" data-name="Group 1117" transform="translate(1.495 23.844)">
              <g id="Group_1116" data-name="Group 1116">
                <path id="Path_8285" data-name="Path 8285" class="cls-37" d="M78.77,74s5.752-9.317,27.6-11.787c0,0,3.519-1.348,2.868,9.9-.1,1.623,1.5,4.458,2.6,5.951,1.095,1.509,3.96,7.233-2.865,13.786,0,0-2.86,9.965.016,16.542,2.563,5.88-11.92,11.117-24.058,9.578-1.5-.185-4.8-1.266-3.333-6.452s4.831-14.249,2.663-23.949S76.992,78.85,78.77,74Z" transform="translate(-78.4 -62.168)"/>
              </g>
            </g>
            <g id="Group_1118" data-name="Group 1118" transform="translate(1.495 30.18)">
              <path id="Path_8286" data-name="Path 8286" class="cls-36" d="M78.77,70c-1.778,4.845,3.317,3.862,5.49,13.571s-1.212,18.756-2.663,23.949,1.83,6.267,3.333,6.452a36,36,0,0,0,6.109.234c-3.99-9.472,1.972-26.294,2.522-35.646.572-9.919-8.306-14.061-8.306-14.061C80.407,67.34,78.77,70,78.77,70Z" transform="translate(-78.4 -64.494)"/>
            </g>
            <g id="Group_1127" data-name="Group 1127" transform="translate(5.511)">
              <g id="Group_1119" data-name="Group 1119" transform="translate(6.624)">
                <path id="Path_8287" data-name="Path 8287" class="cls-38" d="M96.253,59.722s-1.748,11.22-2.737,21.921a3.582,3.582,0,0,0,4.308,3.649s8.5-12.476,2.364-25.287c-1.95-4.058-9.221-9.9-17.882-4.257Z" transform="translate(-82.307 -53.412)"/>
              </g>
              <g id="Group_1122" data-name="Group 1122" transform="translate(6.904 14.444)">
                <g id="Group_1120" data-name="Group 1120">
                  <path id="Path_8288" data-name="Path 8288" class="cls-39" d="M97.955,65.4s-4.022,4.428-2.375,9.388c.447,1.359,1.5,6.923-6.787,4.387,0,0-8.56-4.679-5.855-7.225,1.787-1.694,3.56-4.167,1.3-13.236Z" transform="translate(-82.41 -58.716)"/>
                </g>
                <g id="Group_1121" data-name="Group 1121" transform="translate(0.057 0.994)">
                  <path id="Path_8289" data-name="Path 8289" class="cls-40" d="M82.9,71.323a1.387,1.387,0,0,0-.471.863C90.372,74.043,96.048,68.6,96.048,68.6L85.977,59.081h0s-.531.33-1.345.9C86.192,67.515,84.558,69.757,82.9,71.323Z" transform="translate(-82.431 -59.081)"/>
                </g>
              </g>
              <g id="Group_1123" data-name="Group 1123" transform="translate(7.546 3.621)">
                <path id="Path_8290" data-name="Path 8290" class="cls-41" d="M96.68,56.265s2.23.855,2.092,7.53c-.022.738,1.125,1.754,1.386,3.595.245,1.874.419,9.311-3.922,9.959-3.129.466-10.785-1.748-13.121-9.319S87.475,51.006,96.68,56.265Z" transform="translate(-82.646 -54.742)"/>
              </g>
              <g id="Group_1124" data-name="Group 1124" transform="translate(0 0.542)">
                <path id="Path_8291" data-name="Path 8291" class="cls-42" d="M100.952,60.888s-19.363,6.419-5.741,31.518c0,0-10.017.664-14.2-8.069-2.007-4.2-.912-12.511-.033-20.444,0,0,2.587-12.171,12.775-10.028C93.751,53.864,100.45,56.664,100.952,60.888Z" transform="translate(-79.875 -53.611)"/>
              </g>
              <g id="Group_1125" data-name="Group 1125" transform="translate(9.233 0.009)">
                <path id="Path_8292" data-name="Path 8292" class="cls-38" d="M95.109,61.225s3.366-.534,4.81,5.678c0,0-.005-17.424-16.654-12.664C83.265,54.239,93.069,55.021,95.109,61.225Z" transform="translate(-83.265 -53.415)"/>
              </g>
              <g id="Group_1126" data-name="Group 1126" transform="translate(7.628 15.439)">
                <path id="Path_8293" data-name="Path 8293" class="cls-41" d="M86.83,61.943s-1.057-3.734-3.225-2.672c-.675.338-1.435,1.087-.477,3.009.964,1.939,3.012,3.739,4.692,3.579Z" transform="translate(-82.676 -59.081)"/>
              </g>
            </g>
            <g id="Group_1128" data-name="Group 1128" transform="translate(27.712 67.657)">
              <path id="Path_8294" data-name="Path 8294" class="cls-35" d="M89.947,78.255s4.785.3,6.395,2.394,3.821,4.295,4.306,6.217c.463,1.906.068,2.576-1.438,2.149s-5.455-3.121-7.446-5.079-2.435-1.7-3.17-2.015C87.875,81.618,87.414,79.181,89.947,78.255Z" transform="translate(-88.027 -78.255)"/>
            </g>
            <g id="Group_1129" data-name="Group 1129" transform="translate(27.72 69.582)">
              <path id="Path_8295" data-name="Path 8295" class="cls-40" d="M88.589,80.7c.735.31,1.168.057,3.17,2.015S97.7,87.375,99.2,87.8a2.75,2.75,0,0,0,.58.114c-1.157-1.291-3.135-3.494-4.9-5.368a14.4,14.4,0,0,0-6.8-3.581A1.6,1.6,0,0,0,88.589,80.7Z" transform="translate(-88.03 -78.962)"/>
            </g>
            <g id="Group_1131" data-name="Group 1131" transform="translate(0 33.587)">
              <g id="Group_1130" data-name="Group 1130">
                <path id="Path_8296" data-name="Path 8296" class="cls-43" d="M82.246,65.846c2.255-.463,6.06.485,6.5,6.582s1.452,23.157,1.452,23.157,16.177,3.205,17.983,3.864a3.322,3.322,0,0,0-1.947,4.36s-18.173,2.666-21.861-1.4S72.975,67.791,82.246,65.846Z" transform="translate(-77.851 -65.745)"/>
              </g>
            </g>
          </g>
        </g>
      </g>
      <text id="End-to-End_Digital_Journey" data-name="End-to-End Digital
Journey" class="cls-44" transform="translate(-8561 16029)"><tspan x="0" y="0">End-to-End Digital</tspan><tspan x="0" y="38">Journey</tspan></text>
    </g>
  </g>
</svg>
