<svg xmlns="http://www.w3.org/2000/svg" xmlns:xlink="http://www.w3.org/1999/xlink" width="340" height="402" viewBox="0 0 340 402">
  <defs>
    <style>
      .cls-1 {
        fill: url(#linear-gradient);
      }

      .cls-2 {
        fill: #fff;
        font-size: 28px;
        font-family: NunitoSans-SemiBold, Nunito Sans;
        font-weight: 600;
        letter-spacing: 0.01em;
      }

      .cls-12, .cls-28, .cls-3 {
        fill: #fafafa;
      }

      .cls-26, .cls-27, .cls-4, .cls-42 {
        fill: #e0e0e0;
      }

      .cls-5 {
        fill: #263238;
      }

      .cls-6 {
        fill: #37474f;
      }

      .cls-7 {
        fill: #455a64;
      }

      .cls-8 {
        fill: #27debf;
      }

      .cls-9 {
        opacity: 0.2;
      }

      .cls-10 {
        fill: #ebe3d8;
      }

      .cls-11 {
        fill: #ebc78b;
      }

      .cls-12, .cls-28 {
        stroke-miterlimit: 10;
      }

      .cls-13 {
        fill: #f0f0f0;
      }

      .cls-14, .cls-15, .cls-16 {
        fill: #cda569;
      }

      .cls-15, .cls-23, .cls-25 {
        opacity: 0.4;
      }

      .cls-16, .cls-39 {
        opacity: 0.15;
      }

      .cls-17 {
        fill: #ebebeb;
      }

      .cls-18 {
        fill: #f5f5f5;
      }

      .cls-19, .cls-20 {
        fill: #cebfab;
      }

      .cls-20, .cls-27 {
        opacity: 0.8;
      }

      .cls-21, .cls-22, .cls-23, .cls-24 {
        fill: #cc9752;
      }

      .cls-22 {
        opacity: 0.3;
      }

      .cls-24 {
        opacity: 0.5;
      }

      .cls-26, .cls-36 {
        opacity: 0.6;
      }

      .cls-28 {
        stroke: #e0e0e0;
      }

      .cls-29 {
        fill: none;
        stroke: #455a64;
        stroke-linecap: round;
        stroke-linejoin: round;
        stroke-width: 0.75px;
      }

      .cls-30 {
        fill: #a05700;
      }

      .cls-31, .cls-36, .cls-37 {
        fill: #a0774a;
      }

      .cls-32 {
        fill: #a56d30;
      }

      .cls-33 {
        fill: #ffdab8;
      }

      .cls-34 {
        fill: #ffb476;
      }

      .cls-35 {
        fill: #e88636;
      }

      .cls-37 {
        opacity: 0.1;
      }

      .cls-38 {
        fill: #ffa8a7;
      }

      .cls-40 {
        fill: #f28f8f;
      }

      .cls-41, .cls-42 {
        stroke: none;
      }
    </style>
    <linearGradient id="linear-gradient" x1="1" x2="0" y2="1" gradientUnits="objectBoundingBox">
      <stop offset="0" stop-color="#8394d1"/>
      <stop offset="1" stop-color="#2c76a4"/>
    </linearGradient>
  </defs>
  <g id="Group_20082" data-name="Group 20082" transform="translate(-990 -576)">
    <rect id="Rectangle_2656" data-name="Rectangle 2656" class="cls-1" width="340" height="402" rx="8" transform="translate(990 576)"/>
    <text id="Market_Inventory_Visibility" data-name="Market Inventory
 Visibility" class="cls-2" transform="translate(1051 893)"><tspan x="0" y="0">Market Inventory</tspan><tspan x="0" y="38" xml:space="preserve"> Visibility</tspan></text>
    <g id="Group_4425" data-name="Group 4425" transform="translate(1017.595 566.912)">
      <ellipse id="Floor" class="cls-3" cx="133.876" cy="77.293" rx="133.876" ry="77.293" transform="translate(8.405 126.042)"/>
      <ellipse id="Shadow" class="cls-4" cx="26.821" cy="15.485" rx="26.821" ry="15.485" transform="translate(188.796 222.104)"/>
      <path id="Shadow-2" data-name="Shadow" class="cls-4" d="M49.184,318.8,27.191,306.1a1.368,1.368,0,0,1,0-2.592l127.921-73.855a4.961,4.961,0,0,1,4.49,0l21.993,12.7a1.368,1.368,0,0,1,0,2.592L53.674,318.8A4.965,4.965,0,0,1,49.184,318.8Z" transform="translate(-7.922 -88.146)"/>
      <g id="Group_4388" data-name="Group 4388" transform="translate(87.626 152.759)">
        <g id="Group_4387" data-name="Group 4387" transform="translate(0.003)">
          <path id="Path_14059" data-name="Path 14059" class="cls-5" d="M183.495,305.571,202.4,294.64c1.948-1.125,2.923-2.6,2.923-4.075s.008-2.63.008-2.63l-19.616-11.061a4.159,4.159,0,0,1-1.882-3.26V250.3l-33.022,19.082V292.7a4.16,4.16,0,0,0,1.882,3.26l16.686,9.615A15.6,15.6,0,0,0,183.495,305.571Z" transform="translate(-150.811 -250.305)"/>
        </g>
        <path id="Path_14060" data-name="Path 14060" d="M158.737,309.148v2.619l-6.052-3.488a4.165,4.165,0,0,1-1.88-3.26V281.712l6.291-3.629c.13,1.6.271,3.249.4,4.857l-4.412,2.554V303.7a4.136,4.136,0,0,0,1.88,3.26Z" transform="translate(-150.805 -262.629)"/>
        <path id="Path_14061" data-name="Path 14061" class="cls-6" d="M154.9,294.4a4.161,4.161,0,0,0,1.882,3.26l14.407,8.3a15.6,15.6,0,0,0,14.116,0l18.916-10.931c3.9-2.249,3.9-5.9,0-8.148l-14.415-8.3a4.161,4.161,0,0,1-1.882-3.26V257.105L154.9,276.187Z" transform="translate(-152.624 -253.322)"/>
        <path id="Path_14062" data-name="Path 14062" class="cls-5" d="M193.644,280.794v0l-3.834-2.213a4.161,4.161,0,0,1-1.882-3.26V257.105L154.9,276.187V294.4a4.161,4.161,0,0,0,1.882,3.26l3.767,2.175Z" transform="translate(-152.624 -253.322)"/>
        <path id="Path_14063" data-name="Path 14063" class="cls-7" d="M226.023,317.949v2.63c0,1.478-.978,2.945-2.923,4.075l-18.909,10.926a14.155,14.155,0,0,1-6.737,1.673v-2.619a14.161,14.161,0,0,0,6.737-1.673L223.1,322.024C225.045,320.9,226.023,319.427,226.023,317.949Z" transform="translate(-171.502 -280.317)"/>
      </g>
      <path id="Path_14064" data-name="Path 14064" class="cls-7" d="M57.837,216.477a5.045,5.045,0,0,0,4.56-.084l127.709-73.731a5.2,5.2,0,0,0,2.352-4.074V34.94a5.045,5.045,0,0,0-2.207-3.991,5.046,5.046,0,0,0-4.559.085L57.985,104.765a5.2,5.2,0,0,0-2.353,4.075V212.486A5.045,5.045,0,0,0,57.837,216.477Z" transform="translate(-20.953)"/>
      <path id="Path_14065" data-name="Path 14065" class="cls-8" d="M65.918,218.632,193.626,144.9a5.2,5.2,0,0,0,2.353-4.075V37.18c0-1.5-1.053-2.108-2.353-1.358L65.92,109.552a5.2,5.2,0,0,0-2.353,4.075V217.274C63.566,218.774,64.619,219.383,65.918,218.632Z" transform="translate(-24.474 -2.242)"/>
      <path id="Path_14066" data-name="Path 14066" class="cls-6" d="M65.918,218.632,193.626,144.9a5.2,5.2,0,0,0,2.353-4.075V37.18c0-1.5-1.053-2.108-2.353-1.358L65.92,109.552a5.2,5.2,0,0,0-2.353,4.075V217.274C63.566,218.774,64.619,219.383,65.918,218.632Z" transform="translate(-24.474 -2.242)"/>
      <path id="Path_14067" data-name="Path 14067" class="cls-5" d="M62.051,358.75a5.079,5.079,0,0,1-4.216-.087,5.051,5.051,0,0,1-2.206-4v-9.407l4.412,2.553v9.407C60.041,358.587,60.91,359.206,62.051,358.75Z" transform="translate(-20.952 -139.674)"/>
      <path id="Path_14068" data-name="Path 14068" class="cls-6" d="M63.559,288.862l0,9.4c0,1.5,1.053,2.108,2.352,1.358l127.708-73.731a5.2,5.2,0,0,0,2.353-4.075v-9.424Z" transform="translate(-24.47 -80.726)"/>
      <path id="Path_14069" data-name="Path 14069" class="cls-9" d="M63.566,288.843v9.423c0,1.5,1.053,2.108,2.352,1.358l127.708-73.731a5.2,5.2,0,0,0,2.353-4.075v-9.424Z" transform="translate(-24.474 -80.726)"/>
      <path id="Path_14070" data-name="Path 14070" class="cls-8" d="M71.5,204.346V120.861a3.121,3.121,0,0,1,1.411-2.445L193.67,48.7c.779-.45,1.411-.085,1.411.815l0,83.487a3.118,3.118,0,0,1-1.411,2.445L72.908,205.161C72.129,205.611,71.5,205.246,71.5,204.346Z" transform="translate(-27.992 -8.011)"/>
      <path id="Path_14071" data-name="Path 14071" class="cls-10" d="M71.5,204.346V120.861a3.121,3.121,0,0,1,1.411-2.445L193.67,48.7c.779-.45,1.411-.085,1.411.815l0,83.487a3.118,3.118,0,0,1-1.411,2.445L72.908,205.161C72.129,205.611,71.5,205.246,71.5,204.346Z" transform="translate(-27.992 -8.011)"/>
      <path id="Path_14072" data-name="Path 14072" class="cls-7" d="M180.81,286.26a4.878,4.878,0,0,0-2.208,3.824c0,1.408.989,1.978,2.208,1.274a4.878,4.878,0,0,0,2.207-3.824C183.017,286.126,182.028,285.556,180.81,286.26Z" transform="translate(-75.512 -113.365)"/>
      <path id="Path_14073" data-name="Path 14073" class="cls-5" d="M60.736,169.723a4.989,4.989,0,0,0-.7,2.325V268.8l-4.412-2.553V169.506a4.869,4.869,0,0,1,.7-2.325Z" transform="translate(-20.952 -60.666)"/>
      <path id="Path_14074" data-name="Path 14074" class="cls-11" d="M229.767,37.536a1.16,1.16,0,0,0-1.2.095L101.287,111.14a3.642,3.642,0,0,0-1.648,2.855v85.81a1.605,1.605,0,0,0,.695,1.433c.269.145,1.686.969,2.106,1.195a.947.947,0,0,0,.955-.055l127.276-73.537a3.636,3.636,0,0,0,1.65-2.852V39.778a1.14,1.14,0,0,0-.511-1.083C231.515,38.54,230.07,37.719,229.767,37.536Z" transform="translate(-40.478 -3.09)"/>
      <g id="Group_4389" data-name="Group 4389" transform="translate(59.158 35.511)">
        <g id="Path_14075" data-name="Path 14075" class="cls-12" transform="translate(-101.316 -39.55)">
          <path class="cls-41" d="M 104.5302124023438 202.9862365722656 C 104.2021484375 202.9862365722656 103.9250030517578 202.5112609863281 103.9250030517578 201.9490509033203 L 103.9250030517578 116.1393127441406 C 103.9250030517578 115.2641677856445 104.5654602050781 114.1547088623047 105.3235626220703 113.7166061401367 L 232.6027526855469 40.20837783813477 C 232.8291625976562 40.07767105102539 232.9921722412109 40.05021286010742 233.0890197753906 40.05021286010742 C 233.4475402832031 40.05021286010742 233.5010681152344 40.47442245483398 233.5010681152344 40.72727584838867 L 233.5010681152344 126.9381103515625 C 233.5010681152344 127.8130493164062 232.8602447509766 128.9207611083984 232.1017303466797 129.3569641113281 L 104.8243560791016 202.8941345214844 C 104.7183990478516 202.9550628662109 104.6191253662109 202.9862365722656 104.5302124023438 202.9862365722656 Z"/>
          <path class="cls-42" d="M 232.9898376464844 40.57518005371094 C 232.953857421875 40.58865356445312 232.9081420898438 40.60940551757812 232.852783203125 40.641357421875 L 105.57373046875 114.1495208740234 C 104.9725189208984 114.4969482421875 104.4250030517578 115.4453506469727 104.4250030517578 116.1393051147461 L 104.4250030517578 201.9490356445312 C 104.4250030517578 202.216796875 104.5072021484375 202.3928070068359 104.56298828125 202.4674377441406 C 104.5665283203125 202.4655456542969 104.5702819824219 202.4634704589844 104.57421875 202.4611968994141 L 231.8524780273438 128.9235382080078 C 232.45361328125 128.5778198242188 233.0010681152344 127.6314926147461 233.0010681152344 126.938102722168 L 233.0010681152344 40.72727966308594 C 233.0010681152344 40.66465759277344 232.9962463378906 40.61416625976562 232.9898376464844 40.57518005371094 M 233.0890197753906 39.55021667480469 C 233.6299285888672 39.55021667480469 234.0010681152344 39.98136901855469 234.0010681152344 40.72727966308594 L 234.0010681152344 126.938102722168 C 234.0010681152344 127.989013671875 233.2622680664062 129.2663269042969 232.3509979248047 129.7904052734375 L 105.0744934082031 203.3270568847656 C 104.8837890625 203.4367370605469 104.7005767822266 203.4862213134766 104.5301971435547 203.4862213134766 C 103.8865051269531 203.4862213134766 103.4250030517578 202.7804260253906 103.4250030517578 201.9490356445312 L 103.4250030517578 116.1393051147461 C 103.4250030517578 115.0878601074219 104.1626739501953 113.8099670410156 105.0733795166016 113.28369140625 L 232.3526763916016 39.77540588378906 C 232.6173095703125 39.62263488769531 232.8674621582031 39.55021667480469 233.0890197753906 39.55021667480469 Z"/>
        </g>
        <path id="Path_14076" data-name="Path 14076" class="cls-13" d="M100.329,266.583c.179.095,1.46.826,2.022,1.145a1.681,1.681,0,0,1-.607-1.384V185.928l-2.11-1.234v80.458A1.6,1.6,0,0,0,100.329,266.583Z" transform="translate(-99.634 -103.947)"/>
      </g>
      <g id="Group_4390" data-name="Group 4390" transform="translate(59.158 34.32)">
        <path id="Path_14077" data-name="Path 14077" class="cls-14" d="M234,40.715c-.006-1.041-.74-1.463-1.647-.939L105.073,113.284a3.644,3.644,0,0,0-1.648,2.856v5.392L234,46.125Z" transform="translate(-101.316 -38.36)"/>
        <path id="Path_14078" data-name="Path 14078" class="cls-15" d="M231.071,38.825,103.794,112.334a3.388,3.388,0,0,0-1.162,1.223l-2.095-1.213a3.291,3.291,0,0,1,1.146-1.2L228.966,37.633a1.159,1.159,0,0,1,1.2-.1c.3.181,1.665.959,2.012,1.146A1.191,1.191,0,0,0,231.071,38.825Z" transform="translate(-100.035 -37.41)"/>
        <path id="Path_14079" data-name="Path 14079" class="cls-16" d="M99.634,179.114v-5.36a3.4,3.4,0,0,1,.5-1.649l2.1,1.208a3.332,3.332,0,0,0-.493,1.638v5.391Z" transform="translate(-99.634 -97.171)"/>
      </g>
      <g id="Group_4396" data-name="Group 4396" transform="translate(59.158 42.086)">
        <path id="Path_14080" data-name="Path 14080" class="cls-17" d="M103.426,126.775l0,9.71L234,61.095V51.369Z" transform="translate(-101.316 -51.369)"/>
        <g id="Group_4395" data-name="Group 4395" transform="translate(7.544 5.374)">
          <path id="Path_14081" data-name="Path 14081" class="cls-4" d="M113.2,181.747l8.445-4.852v4.84l-8.448,4.877Z" transform="translate(-113.195 -112.435)"/>
          <g id="Group_4391" data-name="Group 4391" transform="translate(10.533 53.502)">
            <path id="Path_14082" data-name="Path 14082" class="cls-4" d="M132.128,172.748v1.913l4.212-2.432v-1.913Z" transform="translate(-132.128 -163.019)"/>
            <path id="Path_14083" data-name="Path 14083" class="cls-4" d="M132.128,178.059v1.913l4.212-2.432v-1.913Z" transform="translate(-132.128 -165.375)"/>
            <path id="Path_14084" data-name="Path 14084" class="cls-4" d="M143.485,166.19V168.1l4.212-2.432v-1.913Z" transform="translate(-137.167 -160.109)"/>
            <path id="Path_14085" data-name="Path 14085" class="cls-4" d="M143.485,171.5v1.913l4.212-2.432v-1.913Z" transform="translate(-137.167 -162.465)"/>
            <path id="Path_14086" data-name="Path 14086" class="cls-4" d="M154.842,159.631v1.913l4.212-2.432V157.2Z" transform="translate(-142.205 -157.199)"/>
            <path id="Path_14087" data-name="Path 14087" class="cls-4" d="M154.842,164.942v1.913l4.212-2.432V162.51Z" transform="translate(-142.205 -159.555)"/>
          </g>
          <g id="Group_4392" data-name="Group 4392" transform="translate(42.122 35.264)">
            <path id="Path_14088" data-name="Path 14088" class="cls-4" d="M188.91,139.965v1.913l4.212-2.432v-1.913Z" transform="translate(-188.91 -130.236)"/>
            <path id="Path_14089" data-name="Path 14089" class="cls-4" d="M188.91,145.275v1.913l4.212-2.432v-1.913Z" transform="translate(-188.91 -132.592)"/>
            <path id="Path_14090" data-name="Path 14090" class="cls-4" d="M200.267,133.406v1.913l4.212-2.432v-1.913Z" transform="translate(-193.949 -127.326)"/>
            <path id="Path_14091" data-name="Path 14091" class="cls-4" d="M200.267,138.717v1.913l4.212-2.432v-1.913Z" transform="translate(-193.949 -129.682)"/>
            <path id="Path_14092" data-name="Path 14092" class="cls-4" d="M211.624,126.848v1.913l4.212-2.432v-1.913Z" transform="translate(-198.988 -124.416)"/>
            <path id="Path_14093" data-name="Path 14093" class="cls-4" d="M211.624,132.158v1.913l4.212-2.432v-1.913Z" transform="translate(-198.988 -126.772)"/>
          </g>
          <path id="Path_14094" data-name="Path 14094" class="cls-4" d="M166.2,150.168l10.531-6.08v4.864L166.2,155.031Z" transform="translate(-136.71 -97.88)"/>
          <path id="Path_14095" data-name="Path 14095" class="cls-4" d="M222.985,118.363l8.445-4.852v4.84l-8.448,4.877Z" transform="translate(-161.904 -84.314)"/>
          <g id="Group_4393" data-name="Group 4393" transform="translate(71.61 18.24)">
            <path id="Path_14096" data-name="Path 14096" class="cls-4" d="M241.914,109.364v1.913l4.212-2.432v-1.913Z" transform="translate(-241.914 -99.635)"/>
            <path id="Path_14097" data-name="Path 14097" class="cls-4" d="M241.914,114.675v1.913l4.212-2.432v-1.913Z" transform="translate(-241.914 -101.991)"/>
            <path id="Path_14098" data-name="Path 14098" class="cls-4" d="M253.271,102.806v1.913l4.212-2.432v-1.913Z" transform="translate(-246.953 -96.725)"/>
            <path id="Path_14099" data-name="Path 14099" class="cls-4" d="M253.271,108.116v1.913l4.212-2.432v-1.913Z" transform="translate(-246.953 -99.081)"/>
            <path id="Path_14100" data-name="Path 14100" class="cls-4" d="M264.628,96.247v1.913l4.212-2.432V93.815Z" transform="translate(-251.992 -93.815)"/>
            <path id="Path_14101" data-name="Path 14101" class="cls-4" d="M264.628,101.558v1.913l4.212-2.432V99.126Z" transform="translate(-251.992 -96.171)"/>
          </g>
          <g id="Group_4394" data-name="Group 4394" transform="translate(103.2)">
            <path id="Path_14102" data-name="Path 14102" class="cls-4" d="M298.7,76.577V78.49l4.212-2.432V74.145Z" transform="translate(-298.698 -66.848)"/>
            <path id="Path_14103" data-name="Path 14103" class="cls-4" d="M298.7,81.888V83.8l4.212-2.432V79.456Z" transform="translate(-298.698 -69.204)"/>
            <path id="Path_14104" data-name="Path 14104" class="cls-4" d="M310.055,70.019v1.913l4.212-2.432V67.587Z" transform="translate(-303.737 -63.938)"/>
            <path id="Path_14105" data-name="Path 14105" class="cls-4" d="M310.055,75.329v1.913l4.212-2.432V72.9Z" transform="translate(-303.737 -66.294)"/>
            <path id="Path_14106" data-name="Path 14106" class="cls-4" d="M321.412,63.46v1.913l4.212-2.432V61.028Z" transform="translate(-308.776 -61.028)"/>
            <path id="Path_14107" data-name="Path 14107" class="cls-4" d="M321.412,68.771v1.913l4.212-2.432V66.339Z" transform="translate(-308.776 -63.384)"/>
          </g>
          <path id="Path_14108" data-name="Path 14108" class="cls-4" d="M275.986,86.784l10.531-6.08v4.864l-10.529,6.079Z" transform="translate(-185.421 -69.758)"/>
        </g>
        <path id="Path_14109" data-name="Path 14109" class="cls-4" d="M101.744,185.928l-2.11-1.235v9.73l2.109,1.215Z" transform="translate(-99.634 -110.522)"/>
      </g>
      <g id="Group_4397" data-name="Group 4397" transform="translate(158.146 41.266)">
        <path id="Path_14110" data-name="Path 14110" class="cls-18" d="M277.566,66.345V66.7c0,.573.4.805.9.518l25.583-14.77a1.984,1.984,0,0,0,.9-1.555v-.358c0-.572-.4-.8-.9-.518L278.465,64.789A1.985,1.985,0,0,0,277.566,66.345Z" transform="translate(-277.566 -49.896)"/>
        <path id="Path_14111" data-name="Path 14111" class="cls-7" d="M323.421,50.9v-.358c0-.572-.4-.8-.9-.518l-3.314,1.914h0v2.432h0l3.314-1.914A1.984,1.984,0,0,0,323.421,50.9Z" transform="translate(-296.042 -49.896)"/>
      </g>
      <path id="Path_14112" data-name="Path 14112" class="cls-13" d="M107.211,148.37,233.576,75.424v4.852L117.738,147.159l0,63.229-10.525,6.076Z" transform="translate(-43.838 -19.956)"/>
      <path id="Path_14113" data-name="Path 14113" class="cls-14" d="M126.133,199.523l10.522-6.075V198.3l-10.522,6.085Z" transform="translate(-52.233 -72.32)"/>
      <path id="Path_14114" data-name="Path 14114" class="cls-14" d="M126.133,269.455l10.522-6.075v4.852l-10.522,6.085Z" transform="translate(-52.233 -103.347)"/>
      <g id="Group_4398" data-name="Group 4398" transform="translate(73.9 164.897)">
        <path id="Path_14115" data-name="Path 14115" class="cls-19" d="M126.133,278.2l10.522-6.075v4.852l-10.522,6.085Z" transform="translate(-126.133 -272.123)"/>
        <path id="Path_14116" data-name="Path 14116" class="cls-20" d="M126.133,278.2l10.522-6.075v4.852l-10.522,6.085Z" transform="translate(-126.133 -272.123)"/>
      </g>
      <g id="Group_4399" data-name="Group 4399" transform="translate(137.076 123.555)">
        <path id="Path_14117" data-name="Path 14117" class="cls-21" d="M239.692,203.885l10.522-6.075v4.852l-10.522,6.085Z" transform="translate(-239.692 -197.81)"/>
        <path id="Path_14118" data-name="Path 14118" class="cls-22" d="M239.692,203.885l10.522-6.075v4.852l-10.522,6.085Z" transform="translate(-239.692 -197.81)"/>
      </g>
      <g id="Group_4400" data-name="Group 4400" transform="translate(137.076 128.419)">
        <path id="Path_14119" data-name="Path 14119" class="cls-21" d="M239.692,212.628l10.522-6.075v4.852l-10.522,6.085Z" transform="translate(-239.692 -206.553)"/>
        <path id="Path_14120" data-name="Path 14120" class="cls-23" d="M239.692,212.628l10.522-6.075v4.852l-10.522,6.085Z" transform="translate(-239.692 -206.553)"/>
      </g>
      <g id="Group_4401" data-name="Group 4401" transform="translate(137.076 133.283)">
        <path id="Path_14121" data-name="Path 14121" class="cls-21" d="M239.692,221.371l10.522-6.075v4.852l-10.522,6.085Z" transform="translate(-239.692 -215.297)"/>
        <path id="Path_14122" data-name="Path 14122" class="cls-24" d="M239.692,221.371l10.522-6.075v4.852l-10.522,6.085Z" transform="translate(-239.692 -215.297)"/>
      </g>
      <g id="Group_4402" data-name="Group 4402" transform="translate(137.076 138.147)">
        <path id="Path_14123" data-name="Path 14123" class="cls-21" d="M239.692,230.115l10.522-6.075v4.852l-10.522,6.085Z" transform="translate(-239.692 -224.04)"/>
        <path id="Path_14124" data-name="Path 14124" class="cls-22" d="M239.692,230.115l10.522-6.075v4.852l-10.522,6.085Z" transform="translate(-239.692 -224.04)"/>
      </g>
      <path id="Path_14125" data-name="Path 14125" class="cls-14" d="M220.78,144.872,231.3,138.8v24.319L220.78,169.2Z" transform="translate(-94.225 -48.073)"/>
      <path id="Path_14126" data-name="Path 14126" class="cls-14" d="M220.78,197.331l10.521-6.075V225.3l-10.521,6.085Z" transform="translate(-94.225 -71.348)"/>
      <g id="Group_4403" data-name="Group 4403" class="cls-25" transform="translate(84.422 144.226)">
        <path id="Path_14127" data-name="Path 14127" class="cls-21" d="M145.046,241.042l10.521-6.075v4.852L145.046,245.9Z" transform="translate(-145.046 -234.968)"/>
        <path id="Path_14128" data-name="Path 14128" class="cls-22" d="M145.046,241.042l10.521-6.075v4.852L145.046,245.9Z" transform="translate(-145.046 -234.968)"/>
      </g>
      <g id="Group_4404" data-name="Group 4404" transform="translate(105.494 107.747)">
        <path id="Path_14129" data-name="Path 14129" class="cls-4" d="M182.924,175.471l10.522-6.075v4.852l-10.522,6.085Z" transform="translate(-182.924 -169.396)"/>
        <path id="Path_14130" data-name="Path 14130" class="cls-26" d="M182.924,175.471l10.522-6.075v4.852l-10.522,6.085Z" transform="translate(-182.924 -169.396)"/>
      </g>
      <g id="Group_4405" data-name="Group 4405" transform="translate(158.149 106.532)">
        <path id="Path_14131" data-name="Path 14131" class="cls-4" d="M277.571,173.286l10.522-6.075v4.852l-10.522,6.085Z" transform="translate(-277.571 -167.211)"/>
        <path id="Path_14132" data-name="Path 14132" class="cls-27" d="M277.571,173.286l10.522-6.075v4.852l-10.522,6.085Z" transform="translate(-277.571 -167.211)"/>
      </g>
      <path id="Path_14133" data-name="Path 14133" class="cls-14" d="M277.571,190.778l10.522-6.075v4.852l-10.522,6.085Z" transform="translate(-119.422 -68.44)"/>
      <path id="Path_14134" data-name="Path 14134" class="cls-4" d="M106.874,147.785l-.13.075v68.692L233.5,143.37l.13-.075V74.6Zm126.234-9.638L223.1,143.925v-4.266l10.008-5.779ZM107.263,153.021l10.011-5.78v4.266l-10.011,5.78Zm62.665-6.989V150.3l-10.013,5.781v-4.266Zm-10.013,5.183v-4.267l10.013-5.781v4.266Zm10.531-5.482,10.012-5.78v4.266L170.447,150Zm0-.6v-4.266l10.012-5.78v4.266Zm0-4.865V136l10.012-5.781v4.267Zm0-4.865v-4.266l10.012-5.781v4.266Zm-.519.3-10.013,5.781v-4.266l10.013-5.781Zm0,.6v4.266l-10.013,5.781v-4.266ZM159.4,146.649l-10.012,5.781v-4.267l10.012-5.78Zm0,.6v4.266l-10.012,5.781v-4.266Zm0,4.865v4.266l-10.012,5.781v-4.266Zm0,4.865v4.266l-10.012,5.781v-4.267Zm.518-.3,10.013-5.781v4.266l-10.013,5.781Zm10.013-.916v4.266l-10.013,5.781v-4.266Zm.519-.3,10.012-5.78v4.266l-10.012,5.78Zm0-.6V150.6l10.012-5.78v4.266Zm10.531-10.347,10.012-5.78V143l-10.012,5.781Zm0-.6v-4.266l10.012-5.781v4.266Zm0-4.865v-4.266l10.012-5.781v4.266Zm0-4.865v-4.267l10.012-5.78v4.266Zm0-4.866v-4.266l10.012-5.78v4.266Zm0-4.864v-4.267l10.012-5.78v4.266Zm-.519.3-10.012,5.781v-4.266l10.012-5.78Zm-10.531,6.08-10.013,5.781v-4.266l10.013-5.781Zm-10.531,6.08L149.385,142.7v-4.266l10.012-5.781Zm0,.6v4.266l-10.012,5.78V143.3Zm-10.531,10.346-10.012,5.781v-4.266l10.012-5.781Zm0,.6v4.267l-10.012,5.781v-4.267Zm0,4.866v4.266l-10.012,5.781v-4.266Zm0,4.865v4.266l-10.012,5.781v-4.266Zm0,4.865v4.266L138.854,173.1v-4.267Zm0,4.865v4.266l-10.012,5.781V173.7Zm.518-.3,10.012-5.781v4.266l-10.012,5.781Zm10.012-.916v4.267l-10.012,5.78v-4.267Zm.518-.3,10.013-5.781v4.266l-10.013,5.781Zm10.531-6.08,10.012-5.78v4.266l-10.012,5.78Zm10.531-6.08,10.012-5.78v4.266l-10.012,5.781Zm0-.6v-4.267l10.012-5.78v4.266Zm10.53-10.347,10.013-5.781v4.266l-10.013,5.781Zm0-.6v-4.266l10.013-5.781v4.266Zm0-4.865v-4.266l10.013-5.781v4.266Zm0-4.865v-4.266l10.013-5.781v4.266Zm0-4.865v-4.266l10.013-5.781v4.266Zm0-4.865v-4.266L201.52,113.2v4.266Zm0-4.865v-4.266l10.013-5.781V112.6Zm0-4.865v-4.266l10.013-5.781v4.266Zm-.518.3-10.012,5.78v-4.266l10.012-5.781Zm-10.53,6.08-10.012,5.781v-4.266l10.012-5.78Zm-10.531,6.08-10.013,5.781v-4.266l10.013-5.781Zm-10.531,6.08-10.012,5.78v-4.266l10.012-5.781Zm-10.531,6.08-10.012,5.781v-4.266l10.012-5.781Zm0,.6V143l-10.012,5.781v-4.266Zm-10.531,10.347-10.012,5.78v-4.266l10.012-5.78Zm0,.6v4.266l-10.012,5.78v-4.266Zm0,4.865v4.267l-10.012,5.78v-4.266Zm0,4.866v4.266l-10.012,5.781v-4.267Zm0,4.865v4.266l-10.012,5.78v-4.266Zm0,4.865V173.4l-10.012,5.781v-4.267Zm0,4.866v4.266l-10.012,5.78v-4.266Zm0,4.865v4.267l-10.012,5.78v-4.266Zm.518-.3,10.012-5.781v4.267l-10.012,5.781Zm10.012-.915v4.266L138.854,187.7v-4.266Zm.518-.3,10.012-5.781v4.267l-10.012,5.78Zm10.531-6.08,10.013-5.781v4.267l-10.013,5.781Zm10.531-6.08,10.012-5.78v4.266l-10.012,5.78Zm10.531-6.08,10.012-5.781V157.6l-10.012,5.781Zm10.53-6.08,10.013-5.781v4.266L191.507,157.3Zm0-.6v-4.266l10.013-5.781v4.266Zm10.531-10.347,10.012-5.78v4.266l-10.012,5.78Zm0-.6v-4.266l10.012-5.78v4.266Zm0-4.865v-4.266l10.012-5.78v4.266Zm0-4.865v-4.266l10.012-5.78v4.266Zm0-4.865v-4.266l10.012-5.78v4.266Zm0-4.865v-4.266l10.012-5.781v4.266Zm0-4.865V112.9l10.012-5.781v4.266Zm0-4.865v-4.266l10.012-5.781v4.266Zm0-4.865v-4.266l10.012-5.78v4.266Zm0-4.865V98.3l10.012-5.78v4.266Zm-.518.3-10.013,5.781v-4.266L201.52,98.6Zm-10.531,6.08-10.012,5.78v-4.266l10.012-5.781Zm-10.53,6.08-10.012,5.781v-4.266l10.012-5.78Zm-10.531,6.08-10.013,5.781v-4.266l10.013-5.781Zm-10.531,6.08-10.012,5.78V128.7l10.012-5.781Zm-10.531,6.08-10.012,5.781v-4.266L148.866,129Zm-10.531,6.08-10.012,5.781v-4.266l10.012-5.78Zm0,.6v4.266l-10.012,5.781v-4.266ZM127.8,150.293l-10.013,5.781v-4.266l10.013-5.781Zm0,.6v4.267l-10.013,5.781v-4.267Zm0,4.865v4.266L117.792,165.8v-4.266Zm0,4.865v4.266l-10.013,5.781V166.4Zm0,4.865v4.267l-10.013,5.781v-4.267Zm0,4.865v4.266L117.792,180.4v-4.266Zm0,4.865v4.267l-10.013,5.781V181Zm0,4.865v4.266l-10.013,5.781v-4.266Zm0,4.865v4.267l-10.013,5.781v-4.267Zm0,4.865v4.267l-10.013,5.781v-4.267Zm.518-.3,10.012-5.78V188l-10.012,5.781Zm10.012-.915v4.266l-10.012,5.78v-4.266Zm.518-.3,10.012-5.781v4.266l-10.012,5.781Zm10.531-6.08,10.012-5.781V180.7l-10.012,5.781Zm10.531-6.08,10.013-5.781v4.266L159.915,180.4Zm10.531-6.08,10.012-5.78v4.266l-10.012,5.78Zm10.531-6.08,10.012-5.781v4.266l-10.012,5.781Zm10.53-6.08,10.013-5.781v4.266l-10.013,5.781Zm10.531-6.08,10.012-5.78V150.3l-10.012,5.781Zm0-.6v-4.266l10.012-5.78v4.266Zm10.531-10.346,10.013-5.781v4.266l-10.013,5.781Zm0-.6v-4.266l10.013-5.781v4.266Zm0-4.865v-4.267l10.013-5.78v4.266Zm0-4.866v-4.266l10.013-5.78v4.266Zm0-4.865v-4.266l10.013-5.781V119.9Zm0-4.865v-4.266l10.013-5.781v4.266Zm0-4.865v-4.266l10.013-5.781v4.266Zm0-4.865v-4.266l10.013-5.781V105.3Zm0-4.865v-4.266l10.013-5.781v4.266Zm0-4.865V97.089l10.013-5.781v4.266Zm0-4.865V92.223l10.013-5.781v4.266Zm0-4.865V87.36l10.013-5.781v4.264Zm-.518.3L202.039,97.7V93.44l10.012-5.78ZM201.52,98l-10.013,5.781V99.52l10.013-5.781Zm-10.531,6.08-10.012,5.78V105.6l10.012-5.781Zm-10.53,6.08-10.012,5.781V111.68l10.012-5.78Zm-10.531,6.08-10.013,5.781V117.76l10.013-5.781Zm-10.531,6.08-10.012,5.78V123.84l10.012-5.78Zm-10.531,6.08-10.012,5.78V129.92l10.012-5.781Zm-10.531,6.08-10.012,5.78V136l10.012-5.781Zm-10.531,6.08-10.013,5.781V142.08L127.8,136.3Zm0,.6v4.266l-10.013,5.781v-4.266Zm-20.542,16.725,10.011-5.78v4.266l-10.011,5.78Zm0,4.865,10.011-5.78v4.267l-10.011,5.78Zm0,4.865,10.011-5.78V166.1l-10.011,5.78Zm0,4.865,10.011-5.78v4.267l-10.011,5.78Zm0,4.865,10.011-5.78v4.267l-10.011,5.78Zm0,4.866,10.011-5.78V180.7l-10.011,5.78Zm0,4.865,10.011-5.78v4.267l-10.011,5.78Zm0,4.866,10.011-5.78v4.266l-10.011,5.78Zm0,4.864,10.011-5.78v4.267l-10.011,5.78Zm0,4.866,10.011-5.78v4.267l-10.011,5.78Zm0,4.865,10.011-5.78v4.266l-10.011,5.78Zm10.53-6.079,10.013-5.78v4.266l-10.013,5.78Zm10.013-.916v4.251l-10.013,5.781v-4.251Zm.518-.3,10.012-5.78v4.251l-10.012,5.781Zm10.531-6.079,10.012-5.781v4.251l-10.012,5.781Zm10.531-6.08L159.4,181.3v4.251l-10.012,5.781ZM159.915,181l10.013-5.781v4.251l-10.013,5.781Zm10.531-6.08,10.012-5.78v4.25l-10.012,5.78Zm10.531-6.079,10.012-5.781v4.25l-10.012,5.781Zm10.53-6.08,10.013-5.781v4.25l-10.013,5.781Zm10.531-6.08,10.012-5.78v4.25l-10.012,5.781Zm10.531-6.08,10.013-5.781v4.25l-10.013,5.781Zm0-.6v-4.266l10.013-5.781v4.266Zm20.539-16.723L223.1,139.06v-4.266l10.008-5.779Zm0-4.865L223.1,134.2v-4.266l10.008-5.779Zm0-4.865L223.1,129.33v-4.267l10.008-5.778Zm0-4.866L223.1,124.465V120.2l10.008-5.778Zm0-4.865L223.1,119.6v-4.266l10.008-5.779Zm0-4.865L223.1,114.735v-4.266l10.008-5.779Zm0-4.865L223.1,109.87V105.6l10.008-5.779Zm0-4.866L223.1,105v-4.266l10.008-5.779Zm0-4.865L223.1,100.139V95.873l10.008-5.779Zm0-4.865L223.1,95.274V91.008l10.009-5.779Zm0-4.865L223.1,90.409V86.143l10.009-5.779Zm0-4.865L223.1,85.544V81.28L233.109,75.5ZM117.274,142.379v4.264l-10.011,5.78v-4.264ZM107.263,211.4l10.011-5.78v4.251l-10.011,5.78ZM223.1,148.774v-4.25l10.008-5.779V143Z" transform="translate(-43.631 -19.591)"/>
      <path id="Path_14135" data-name="Path 14135" class="cls-28" d="M258.6,108.462l42.141-24.311v24.325l-42.141,24.3Z" transform="translate(-111.007 -23.828)"/>
      <path id="Path_14136" data-name="Path 14136" class="cls-29" d="M262.435,137.03l5.7-15.552,6.3,3.765,6.331-6.45,6.314,4.163,6.314-15.548,6.314,3.239" transform="translate(-112.707 -34.147)"/>
      <path id="Path_14137" data-name="Path 14137" class="cls-14" d="M272.166,131.307a1.406,1.406,0,0,0-.635,1.1c0,.407.284.571.635.368a1.41,1.41,0,0,0,.635-1.1C272.8,131.269,272.516,131.1,272.166,131.307Z" transform="translate(-116.742 -44.711)"/>
      <path id="Path_14138" data-name="Path 14138" class="cls-14" d="M283.516,138.075a1.406,1.406,0,0,0-.635,1.1c0,.407.284.571.635.368a1.41,1.41,0,0,0,.635-1.1C284.151,138.037,283.866,137.872,283.516,138.075Z" transform="translate(-121.778 -47.714)"/>
      <path id="Path_14139" data-name="Path 14139" class="cls-14" d="M294.866,126.486a1.406,1.406,0,0,0-.635,1.1c0,.407.284.572.635.368a1.411,1.411,0,0,0,.635-1.1C295.5,126.448,295.216,126.283,294.866,126.486Z" transform="translate(-126.814 -42.572)"/>
      <path id="Path_14140" data-name="Path 14140" class="cls-14" d="M306.216,133.96a1.407,1.407,0,0,0-.635,1.1c0,.407.284.571.635.368a1.41,1.41,0,0,0,.635-1.1C306.851,133.923,306.566,133.758,306.216,133.96Z" transform="translate(-131.85 -45.888)"/>
      <path id="Path_14141" data-name="Path 14141" class="cls-14" d="M317.566,106.017a1.406,1.406,0,0,0-.635,1.1c0,.407.284.571.635.368a1.41,1.41,0,0,0,.635-1.1C318.2,105.979,317.916,105.814,317.566,106.017Z" transform="translate(-136.885 -33.491)"/>
      <path id="Path_14142" data-name="Path 14142" class="cls-14" d="M328.916,111.839a1.406,1.406,0,0,0-.635,1.1c0,.407.284.572.635.368a1.411,1.411,0,0,0,.635-1.1C329.551,111.8,329.266,111.636,328.916,111.839Z" transform="translate(-141.921 -36.074)"/>
      <g id="Group_4406" data-name="Group 4406" transform="translate(196.065 149.916)">
        <path id="Path_14143" data-name="Path 14143" class="cls-7" d="M356.931,245.195l-11.205,6.469,11.206,6.47,11.206-6.47Z" transform="translate(-345.726 -245.195)"/>
        <path id="Path_14144" data-name="Path 14144" class="cls-6" d="M377.076,256.8V282.53L365.87,289V263.284Z" transform="translate(-354.663 -250.343)"/>
        <path id="Path_14145" data-name="Path 14145" class="cls-5" d="M356.932,263.285V289l-11.206-6.47V256.8Z" transform="translate(-345.726 -250.344)"/>
      </g>
      <path id="Path_14146" data-name="Path 14146" class="cls-8" d="M330.432,280.551l-11.205,6.469,11.206,6.47,11.206-6.47Z" transform="translate(-137.904 -110.965)"/>
      <path id="Path_14147" data-name="Path 14147" class="cls-30" d="M330.432,280.551l-11.205,6.469,11.206,6.47,11.206-6.47Z" transform="translate(-137.904 -110.965)"/>
      <path id="Path_14148" data-name="Path 14148" class="cls-31" d="M350.577,292.154v14.574L339.37,313.2V298.639Z" transform="translate(-146.841 -116.114)"/>
      <path id="Path_14149" data-name="Path 14149" class="cls-8" d="M330.432,298.641V313.2l-11.206-6.47V292.157Z" transform="translate(-137.904 -116.115)"/>
      <path id="Path_14150" data-name="Path 14150" class="cls-14" d="M330.432,298.641V313.2l-11.206-6.47V292.157Z" transform="translate(-137.904 -116.115)"/>
      <path id="Path_14151" data-name="Path 14151" class="cls-8" d="M303.932,284.972l-11.205,6.469,11.206,6.47,11.206-6.47Z" transform="translate(-126.147 -112.927)"/>
      <path id="Path_14152" data-name="Path 14152" class="cls-32" d="M303.932,284.972l-11.205,6.469,11.206,6.47,11.206-6.47Z" transform="translate(-126.147 -112.927)"/>
      <path id="Path_14153" data-name="Path 14153" class="cls-8" d="M324.077,296.576V317.2l-11.205,6.47V303.061Z" transform="translate(-135.083 -118.075)"/>
      <path id="Path_14154" data-name="Path 14154" class="cls-31" d="M324.077,296.576V317.2l-11.205,6.47V303.061Z" transform="translate(-135.083 -118.075)"/>
      <path id="Path_14155" data-name="Path 14155" class="cls-8" d="M303.933,303.062v20.611l-11.206-6.47V296.578Z" transform="translate(-126.146 -118.076)"/>
      <path id="Path_14156" data-name="Path 14156" class="cls-14" d="M303.933,303.062v20.611l-11.206-6.47V296.578Z" transform="translate(-126.146 -118.076)"/>
      <path id="Path_14157" data-name="Path 14157" class="cls-8" d="M277.433,324.248l-11.205,6.469,11.206,6.47,11.206-6.47Z" transform="translate(-114.389 -130.353)"/>
      <path id="Path_14158" data-name="Path 14158" class="cls-33" d="M277.433,324.248l-11.205,6.469,11.206,6.47,11.206-6.47Z" transform="translate(-114.389 -130.353)"/>
      <path id="Path_14159" data-name="Path 14159" class="cls-8" d="M297.577,335.851v7.288l-11.205,6.47v-7.272Z" transform="translate(-123.326 -135.501)"/>
      <path id="Path_14160" data-name="Path 14160" class="cls-34" d="M297.577,335.851v7.288l-11.205,6.47v-7.272Z" transform="translate(-123.326 -135.501)"/>
      <path id="Path_14161" data-name="Path 14161" class="cls-8" d="M277.433,342.337v7.272l-11.206-6.47v-7.286Z" transform="translate(-114.389 -135.502)"/>
      <path id="Path_14162" data-name="Path 14162" class="cls-35" d="M277.433,342.337v7.272l-11.206-6.47v-7.286Z" transform="translate(-114.389 -135.502)"/>
      <path id="Path_14163" data-name="Path 14163" class="cls-5" d="M173.312,396.527v4.241l-4.19-11.386v-4.236l.006.006Z" transform="translate(-71.306 -157.372)"/>
      <path id="Path_14164" data-name="Path 14164" class="cls-6" d="M176.656,400.827v4.239l17.28-5.994v-4.239Z" transform="translate(-74.649 -161.67)"/>
      <path id="Path_14165" data-name="Path 14165" class="cls-7" d="M169.123,385l4.191,11.384,17.28-5.994C185.85,386.253,177.6,384.183,169.123,385Z" transform="translate(-71.307 -157.23)"/>
      <path id="Path_14166" data-name="Path 14166" class="cls-8" d="M136.667,407.02a1.119,1.119,0,0,0-.005.13v-.13Z" transform="translate(-56.904 -167.077)"/>
      <path id="Path_14167" data-name="Path 14167" class="cls-8" d="M157.189,411.686l-2.567,12.07c-10.473-1.021-18.043-6.32-17.955-12.376l-.005.011v-4.137c0,6.009,7.549,11.251,17.96,12.267l1.763-8.3Z" transform="translate(-56.904 -167.18)"/>
      <path id="Path_14168" data-name="Path 14168" class="cls-14" d="M157.189,411.686l-2.567,12.07c-10.473-1.021-18.043-6.32-17.955-12.376l-.005.011v-4.137c0,6.009,7.549,11.251,17.96,12.267l1.763-8.3Z" transform="translate(-56.904 -167.18)"/>
      <g id="Group_4407" data-name="Group 4407" transform="translate(86.788 230.858)">
        <path id="Path_14169" data-name="Path 14169" class="cls-31" d="M172.48,418.312v4.239a33.431,33.431,0,0,0,12.752-1.744c4.94-1.714,8.426-4.434,9.821-7.662a7.643,7.643,0,0,0,.649-2.96c0-.4,0-4.381,0-4.381a4.5,4.5,0,0,1-2.6-1.589l-3.236,1.122-14.82,5.142Z" transform="translate(-159.584 -396.691)"/>
        <path id="Path_14170" data-name="Path 14170" class="cls-36" d="M172.48,418.312v4.239a33.431,33.431,0,0,0,12.752-1.744c4.94-1.714,8.426-4.434,9.821-7.662a7.643,7.643,0,0,0,.649-2.96c0-.4,0-4.381,0-4.381a4.5,4.5,0,0,1-2.6-1.589l-3.236,1.122-14.82,5.142Z" transform="translate(-159.584 -396.691)"/>
        <path id="Path_14171" data-name="Path 14171" class="cls-31" d="M149.3,394.928l12.874,7.433v-4.239L149.3,390.689Z" transform="translate(-149.299 -390.689)"/>
        <path id="Path_14172" data-name="Path 14172" class="cls-37" d="M149.3,394.928l12.874,7.433v-4.239L149.3,390.689Z" transform="translate(-149.299 -390.689)"/>
      </g>
      <path id="Path_14173" data-name="Path 14173" class="cls-8" d="M136.821,399.021c-1.409,6.625,6.513,12.693,17.8,13.8l2.567-12.071-14.9-8.6C139.182,394.093,137.389,396.347,136.821,399.021Z" transform="translate(-56.903 -160.477)"/>
      <path id="Path_14174" data-name="Path 14174" class="cls-21" d="M136.821,399.021c-1.409,6.625,6.513,12.693,17.8,13.8l2.567-12.071-14.9-8.6C139.182,394.093,137.389,396.347,136.821,399.021Z" transform="translate(-56.903 -160.477)"/>
      <path id="Path_14175" data-name="Path 14175" class="cls-8" d="M172.555,414.578l-.075.353a33.432,33.432,0,0,0,12.752-1.744c4.94-1.714,8.426-4.434,9.821-7.662,1.313-3.042.619-6.19-1.949-8.93l-3.236,1.122-14.82,5.142Z" transform="translate(-72.796 -162.452)"/>
      <path id="Path_14176" data-name="Path 14176" class="cls-30" d="M172.555,414.578l-.075.353a33.432,33.432,0,0,0,12.752-1.744c4.94-1.714,8.426-4.434,9.821-7.662,1.313-3.042.619-6.19-1.949-8.93l-3.236,1.122-14.82,5.142Z" transform="translate(-72.796 -162.452)"/>
      <path id="Path_14177" data-name="Path 14177" class="cls-30" d="M149.3,388.417l12.874,7.433-3.785-10.282A26.388,26.388,0,0,0,149.3,388.417Z" transform="translate(-62.511 -157.559)"/>
      <path id="Path_14178" data-name="Path 14178" class="cls-8" d="M171.512,411.843V407.6l-2.567,12.071v4.239Z" transform="translate(-71.228 -167.336)"/>
      <path id="Path_14179" data-name="Path 14179" class="cls-14" d="M171.512,411.843V407.6l-2.567,12.071v4.239Z" transform="translate(-71.228 -167.336)"/>
      <path id="Path_14180" data-name="Path 14180" class="cls-8" d="M200.844,373.712l-2.8,1.619,2.8,1.62,2.8-1.619Z" transform="translate(-84.136 -152.299)"/>
      <path id="Path_14181" data-name="Path 14181" class="cls-21" d="M200.844,373.712l-2.8,1.619,2.8,1.62,2.8-1.619Z" transform="translate(-84.136 -152.299)"/>
      <path id="Path_14182" data-name="Path 14182" class="cls-8" d="M205.886,376.616v1.625l-2.8,1.619v-1.621Z" transform="translate(-86.373 -153.587)"/>
      <path id="Path_14183" data-name="Path 14183" class="cls-31" d="M205.886,376.616v1.625l-2.8,1.619v-1.621Z" transform="translate(-86.373 -153.587)"/>
      <path id="Path_14184" data-name="Path 14184" class="cls-8" d="M200.844,378.239v1.621l-2.8-1.62v-1.625Z" transform="translate(-84.136 -153.587)"/>
      <path id="Path_14185" data-name="Path 14185" class="cls-14" d="M200.844,378.239v1.621l-2.8-1.62v-1.625Z" transform="translate(-84.136 -153.587)"/>
      <path id="Path_14186" data-name="Path 14186" class="cls-4" d="M210.39,366.445l10.392-6a2.409,2.409,0,0,1,2.176-.04c.581.336.55.9-.07,1.256l-10.392,6a2.4,2.4,0,0,1-2.175.04C209.739,367.365,209.77,366.8,210.39,366.445Z" transform="translate(-89.4 -146.288)"/>
      <path id="Path_14187" data-name="Path 14187" class="cls-8" d="M212.2,380.269l-2.8,1.619,2.8,1.619,2.8-1.619Z" transform="translate(-89.175 -155.208)"/>
      <path id="Path_14188" data-name="Path 14188" class="cls-33" d="M212.2,380.269l-2.8,1.619,2.8,1.619,2.8-1.619Z" transform="translate(-89.175 -155.208)"/>
      <path id="Path_14189" data-name="Path 14189" class="cls-8" d="M217.243,383.173V384.8l-2.8,1.619V384.8Z" transform="translate(-91.412 -156.496)"/>
      <path id="Path_14190" data-name="Path 14190" class="cls-34" d="M217.243,383.173V384.8l-2.8,1.619V384.8Z" transform="translate(-91.412 -156.496)"/>
      <path id="Path_14191" data-name="Path 14191" class="cls-8" d="M212.2,384.8v1.621l-2.8-1.619v-1.625Z" transform="translate(-89.175 -156.497)"/>
      <path id="Path_14192" data-name="Path 14192" class="cls-35" d="M212.2,384.8v1.621l-2.8-1.619v-1.625Z" transform="translate(-89.175 -156.497)"/>
      <path id="Path_14193" data-name="Path 14193" class="cls-4" d="M221.747,373l10.392-6a2.4,2.4,0,0,1,2.175-.04c.582.335.551.9-.07,1.256l-10.391,6a2.409,2.409,0,0,1-2.176.04C221.1,373.923,221.128,373.36,221.747,373Z" transform="translate(-94.439 -149.198)"/>
      <path id="Path_14194" data-name="Path 14194" class="cls-8" d="M223.559,386.826l-2.8,1.619,2.8,1.619,2.8-1.619Z" transform="translate(-94.214 -158.117)"/>
      <path id="Path_14195" data-name="Path 14195" class="cls-32" d="M223.559,386.826l-2.8,1.619,2.8,1.619,2.8-1.619Z" transform="translate(-94.214 -158.117)"/>
      <path id="Path_14196" data-name="Path 14196" class="cls-36" d="M228.6,389.73v1.625l-2.8,1.619v-1.621Z" transform="translate(-96.451 -159.406)"/>
      <path id="Path_14197" data-name="Path 14197" class="cls-8" d="M223.559,391.354v1.621l-2.8-1.62v-1.625Z" transform="translate(-94.214 -159.406)"/>
      <path id="Path_14198" data-name="Path 14198" class="cls-21" d="M223.559,391.354v1.621l-2.8-1.62v-1.625Z" transform="translate(-94.214 -159.406)"/>
      <path id="Path_14199" data-name="Path 14199" class="cls-4" d="M233.105,379.56l10.391-6a2.407,2.407,0,0,1,2.176-.04c.581.335.55.9-.07,1.256l-10.391,6a2.407,2.407,0,0,1-2.176.04C232.454,380.48,232.485,379.918,233.105,379.56Z" transform="translate(-99.478 -152.107)"/>
      <path id="Path_14200" data-name="Path 14200" class="cls-7" d="M234.916,393.383l-2.8,1.619,2.8,1.619,2.8-1.619Z" transform="translate(-99.253 -161.026)"/>
      <path id="Path_14201" data-name="Path 14201" class="cls-6" d="M239.958,396.287v1.625l-2.8,1.619v-1.621Z" transform="translate(-101.49 -162.315)"/>
      <path id="Path_14202" data-name="Path 14202" class="cls-5" d="M234.916,397.911v1.621l-2.8-1.62v-1.625Z" transform="translate(-99.253 -162.315)"/>
      <path id="Path_14203" data-name="Path 14203" class="cls-4" d="M244.463,386.117l10.392-6a2.409,2.409,0,0,1,2.176-.04c.581.336.55.9-.07,1.256l-10.392,6a2.4,2.4,0,0,1-2.175.04C243.812,387.037,243.843,386.475,244.463,386.117Z" transform="translate(-104.517 -155.016)"/>
      <g id="Group_4408" data-name="Group 4408" transform="translate(223.606 144.51)">
        <path id="Path_14204" data-name="Path 14204" class="cls-38" d="M395.232,235.478c3.857-.022,5.686,1.084,7.074,4.777s5.071,12.153,5.143,14.67c.075,2.61-8.327,10.519-8.026,10.383.092-.042-2.56-4.794-2.56-4.794l4.725-5.79-2.709-7.863Z" transform="translate(-395.232 -235.477)"/>
      </g>
      <g id="Group_4412" data-name="Group 4412" transform="translate(198.769 168.015)">
        <g id="Group_4409" data-name="Group 4409" transform="translate(19.264 57.516)">
          <path id="Path_14205" data-name="Path 14205" class="cls-5" d="M395.56,386.532c.236.225.281.444.273,1.266s.34,1.742-.082,2.509a2.613,2.613,0,0,1-2.745.544,8.5,8.5,0,0,1-1.889-1.7,13.4,13.4,0,0,0-1.654-1.6c-.694-.517-1.5-.862-2.225-1.336a4.444,4.444,0,0,1-2.017-3.332,2.185,2.185,0,0,1,.258-1.269,1.445,1.445,0,0,1,1.452-.475,20.034,20.034,0,0,1,4.057,2.036C391.758,383.71,395.316,386.3,395.56,386.532Z" transform="translate(-385.213 -381.115)"/>
        </g>
        <path id="Path_14206" data-name="Path 14206" class="cls-38" d="M393.6,384.2c-.025.591-2.515-.792-3.534-.656a.1.1,0,0,0-.028.013c-.946.456-.161,1.784.722,2.463s3.759,2.794,3.759,2.794l.589-3.412Z" transform="translate(-367.901 -324.671)"/>
        <g id="Group_4410" data-name="Group 4410" transform="translate(0 69.137)">
          <path id="Path_14207" data-name="Path 14207" class="cls-5" d="M365.5,402c.462,0,.667,1.51.752,2.676.066.9.407,2.371.088,3.033s-1.534,1.076-3.409,1.038a11.01,11.01,0,0,0-4.423,1.482,6.74,6.74,0,0,1-4.214.529c-1.666-.218-3.382-1.207-3.643-1.9s.091-1.022,4.044-2.646c.036-.015,4.17-1.818,6.1-3.893Z" transform="translate(-350.586 -402.003)"/>
        </g>
        <path id="Path_14208" data-name="Path 14208" class="cls-38" d="M356.806,406.444c-.547.225-1.019.423-1.436.6-.107.374.036.966,1.783,1.257,2.663.444,10.486-5.445,10.486-5.445s-1.121.309-1.332-.333l-3.4.026C360.976,404.626,356.842,406.429,356.806,406.444Z" transform="translate(-352.696 -333.098)"/>
        <g id="Group_4411" data-name="Group 4411" transform="translate(9.679 0)">
          <path id="Path_14209" data-name="Path 14209" class="cls-38" d="M389.5,321.311a33.92,33.92,0,0,0-.764-7.717s.464-9.934.517-16.179c.106-12.349-.131-14.162-2.862-19.49,0,0-15.949-1.866-16.621,5.906-.837,9.68-1.81,25.878-1.785,30.488.019,3.432.408,7.153.6,14.936.121,4.985.647,12.028-.067,17.927.9,1.511,3.343,1.484,4.733.307.4-5.775,3.267-16.834,3.711-20.693a32.672,32.672,0,0,0-.34-8.338s2.113-16.487,2.484-19a46.457,46.457,0,0,1,.925,8.053c-.011,1.095.379,4.767,1.005,10.943.382,3.762,3.044,18.459,3.62,23.184,1.335,1.29,3.06.4,3.138-.161C388.237,335.716,389.5,324.909,389.5,321.311Z" transform="translate(-367.983 -277.729)"/>
        </g>
        <path id="Path_14210" data-name="Path 14210" class="cls-39" d="M387.969,307.78l1.41-8.007a10.943,10.943,0,0,0,6.278-3.3,6.718,6.718,0,0,1-4.99,4.291l-1.649,7.244-.279,6.6Z" transform="translate(-367.172 -286.047)"/>
      </g>
      <g id="Group_4414" data-name="Group 4414" transform="translate(215.564 140.646)">
        <g id="Group_4413" data-name="Group 4413">
          <path id="Path_14211" data-name="Path 14211" class="cls-38" d="M380.776,229.709l.665,7.258,6.375-.386-.489-8.048Z" transform="translate(-380.776 -228.532)"/>
        </g>
      </g>
      <g id="Group_4416" data-name="Group 4416" transform="translate(208.767 144.51)">
        <g id="Group_4415" data-name="Group 4415" transform="translate(0 0)">
          <path id="Path_14212" data-name="Path 14212" class="cls-8" d="M388.151,261.129a29.442,29.442,0,0,0-2.757-5.512c2.725-8.777,3.6-11.732,3.068-15.485-.337-2.387-2.212-4.773-4.537-4.649,0,0-1.256,0-1.785,0-.1,1.664-4.727,1.745-6.481.6l-1.614.043c-1.142.4-5.026,6.094-5.455,9.871-.348,3.069,2.056,5.729,2.056,5.729a29.207,29.207,0,0,1-.228,3.891s.012,7.427,0,11.119c0,0,.9,2.847,10.256,1.957,8.321-.792,8.525-3.636,8.525-3.636A17.623,17.623,0,0,0,388.151,261.129Z" transform="translate(-368.557 -235.478)"/>
        </g>
      </g>
      <g id="Group_4418" data-name="Group 4418" transform="translate(208.767 144.51)">
        <g id="Group_4417" data-name="Group 4417" transform="translate(0 0)">
          <path id="Path_14213" data-name="Path 14213" class="cls-14" d="M388.151,261.129a29.442,29.442,0,0,0-2.757-5.512c2.725-8.777,3.6-11.732,3.068-15.485-.337-2.387-2.212-4.773-4.537-4.649,0,0-1.256,0-1.785,0-.1,1.664-4.727,1.745-6.481.6l-1.614.043c-1.142.4-5.026,6.094-5.455,9.871-.348,3.069,2.056,5.729,2.056,5.729a29.207,29.207,0,0,1-.228,3.891s.012,7.427,0,11.119c0,0,.9,2.847,10.256,1.957,8.321-.792,8.525-3.636,8.525-3.636A17.623,17.623,0,0,0,388.151,261.129Z" transform="translate(-368.557 -235.478)"/>
        </g>
      </g>
      <g id="Group_4421" data-name="Group 4421" transform="translate(209.607 124.437)">
        <path id="Path_14214" data-name="Path 14214" class="cls-5" d="M377.331,200.09a5.927,5.927,0,0,0-5.127,1.857c-3.262,3.675.315,6.377.315,6.377l4.812-8.234" transform="translate(-370.407 -199.683)"/>
        <g id="Group_4419" data-name="Group 4419" transform="translate(0 9.411)">
          <path id="Path_14215" data-name="Path 14215" class="cls-40" d="M371.318,216.314s-1.417,2.13-1.233,2.356a3.38,3.38,0,0,0,1.08.469Z" transform="translate(-370.068 -216.314)"/>
        </g>
        <g id="Group_4420" data-name="Group 4420" transform="translate(1.022 2.107)">
          <path id="Path_14216" data-name="Path 14216" class="cls-38" d="M376.464,203.739c-1.374.705-3.749,2.009-4.372,7.061-.639,5.187.511,6.993,1.216,7.675.476.46,2.94.633,4.226.238,1.609-.5,5.1-2.207,6.738-4.881,1.929-3.145,2.338-7.344.124-9A8.285,8.285,0,0,0,376.464,203.739Z" transform="translate(-371.905 -203.185)"/>
        </g>
        <path id="Path_14217" data-name="Path 14217" class="cls-5" d="M377.091,208.025c-2.873-1.463-2.141-5.278-2.141-5.278s4.107-5.866,11.681-2.072c2.621,1.313,4.193,4.295,4.129,7.786h0a8.221,8.221,0,0,1-8.221,8.221h0a4.793,4.793,0,0,1-4.793-4.793v-.318l.243.078a2.437,2.437,0,0,0,2.238-.6c1.26-1.085,1.412-3.216-.185-3.754s-2.43,1.311-2.43,1.311l0,0-.618,1.7a1.207,1.207,0,0,1-.721-1.547A1.185,1.185,0,0,1,377.091,208.025Z" transform="translate(-372.197 -199.397)"/>
      </g>
      <path id="Path_14218" data-name="Path 14218" class="cls-32" d="M336.718,217.012l-13.675,6.85,6.43,18.532,12.77-6.877Z" transform="translate(-139.597 -82.775)"/>
      <path id="Path_14219" data-name="Path 14219" class="cls-18" d="M337.3,220.234l-11.473,5.746,5.7,15.935,10.713-5.77Z" transform="translate(-140.833 -84.205)"/>
      <path id="Path_14220" data-name="Path 14220" class="cls-39" d="M337.251,222.657l-.211-.567c-.117-.313-1.066-.144-2.121.379l-2.021,1c-1.055.522-1.816,1.2-1.7,1.513l.211.567Z" transform="translate(-143.21 -84.958)"/>
      <g id="Group_4422" data-name="Group 4422" transform="translate(186.845 135.216)">
        <path id="Path_14221" data-name="Path 14221" class="cls-6" d="M336.166,219c-.072-.2-.485-.171-.921.056l-.792.41s-.463-1.224-2.281-.413-1.429,2.23-1.429,2.23l-.84.444c-.464.246-.8.606-.745.805l.1.359,7.044-3.528S336.237,219.192,336.166,219Z" transform="translate(-329.152 -218.771)"/>
        <path id="Path_14222" data-name="Path 14222" class="cls-5" d="M336.539,220.407c-.655.309-.913.458-.734.941.2.551.4.948.4.948l-3.116,1.564s-.246-.7-.354-.971-.332-.4-.828-.154l-.18-.2,4.913-2.4Z" transform="translate(-330.293 -219.377)"/>
        <path id="Path_14223" data-name="Path 14223" class="cls-6" d="M337.488,222.713l-.211-.567c-.116-.313-1.066-.143-2.121.379l-2.02,1c-1.055.522-1.816,1.2-1.7,1.513l.211.567Z" transform="translate(-330.16 -220.199)"/>
      </g>
      <g id="Group_4424" data-name="Group 4424" transform="translate(198.029 145.155)">
        <g id="Group_4423" data-name="Group 4423">
          <path id="Path_14224" data-name="Path 14224" class="cls-38" d="M365.483,236.639c-2.153-.036-3.455.155-6.394,4.516s-8.387,12.393-9.026,13.433a5.572,5.572,0,0,0-.365,5.023c.676,1.266,1.864,1.7,5.25-1.893,2.508-2.665,7.777-9.742,7.777-9.742S366.825,240.332,365.483,236.639Z" transform="translate(-349.256 -236.636)"/>
        </g>
      </g>
      <path id="Path_14225" data-name="Path 14225" class="cls-38" d="M338.865,261.553c-1.775.548-8.286-7.2-10.1-9.534a26.836,26.836,0,0,0-5.085-5.159c-2.509-1.918-2.091-4.795-.939-7.419.4-.908,1.69-.292,1.69-.292l.438,1.261.758,2.184c.53.508.833.676.872.528.072-.279-.371-1.454-.339-2.671.038-1.464,1.047-.485,1.345.034a18.23,18.23,0,0,1,1.042,2.437c.49,1.319.256,2.641.864,3.545s9.452,8.25,9.452,8.25Z" transform="translate(-139.06 -92.506)"/>
      <path id="Path_14226" data-name="Path 14226" class="cls-8" d="M384.821,271.678s-6.239,3.685-14.975,0a128.959,128.959,0,0,0-1.584,13.844c-.31,5.906-1,18.586-1,18.586s2.58,3.008,11.781,2.4c8.843-.586,10.4-2.891,10.4-2.891s.021-11.389.067-16.368C389.577,280.88,388.685,277.4,384.821,271.678Z" transform="translate(-159.218 -107.029)"/>
      <path id="Path_14227" data-name="Path 14227" class="cls-32" d="M384.821,271.678s-6.239,3.685-14.975,0a128.959,128.959,0,0,0-1.584,13.844c-.31,5.906-1,18.586-1,18.586s2.58,3.008,11.781,2.4c8.843-.586,10.4-2.891,10.4-2.891s.021-11.389.067-16.368C389.577,280.88,388.685,277.4,384.821,271.678Z" transform="translate(-159.218 -107.029)"/>
      <path id="Path_14228" data-name="Path 14228" class="cls-5" d="M403.038,209.894l1.459-1.337a1.275,1.275,0,0,0-2.16,1.235c-.181-.016-.364-.028-.549-.028v11.73a6.093,6.093,0,0,0,6.093,6.093v-11.73A6.094,6.094,0,0,0,403.038,209.894Z" transform="translate(-174.534 -78.84)"/>
    </g>
  </g>
</svg>
