<svg xmlns="http://www.w3.org/2000/svg" xmlns:xlink="http://www.w3.org/1999/xlink" width="340" height="402" viewBox="0 0 340 402">
  <defs>
    <style>
      .cls-1 {
        fill: url(#linear-gradient);
      }

      .cls-2 {
        fill: #fff;
        font-size: 28px;
        font-family: NunitoSans-SemiBold, Nunito Sans;
        font-weight: 600;
      }

      .cls-11, .cls-3 {
        opacity: 0.1;
      }

      .cls-4 {
        fill: #b56b7c;
      }

      .cls-5 {
        fill: #fc8b9a;
      }

      .cls-6 {
        fill: #73c139;
      }

      .cls-7 {
        fill: #4d9b12;
      }

      .cls-8 {
        fill: url(#linear-gradient-2);
      }

      .cls-9 {
        fill: #ffe85f;
      }

      .cls-10 {
        fill: url(#linear-gradient-3);
      }

      .cls-12 {
        isolation: isolate;
      }

      .cls-13 {
        fill: #323a3b;
      }

      .cls-14 {
        fill: #232829;
      }

      .cls-15 {
        fill: #1d1f1f;
      }

      .cls-16 {
        fill: #141515;
      }

      .cls-17 {
        fill: #a9d6ea;
      }

      .cls-18 {
        fill: #303637;
      }

      .cls-19 {
        fill: #454e4f;
      }

      .cls-20 {
        fill: #def6ff;
      }

      .cls-21 {
        fill: #efb185;
      }

      .cls-22 {
        fill: #e6a376;
      }

      .cls-23 {
        fill: #5fb9e6;
      }

      .cls-24 {
        fill: #77d2ff;
      }

      .cls-25 {
        fill: #111114;
      }

      .cls-26 {
        fill: #0a0a0a;
      }

      .cls-27 {
        fill: #dd9569;
      }

      .cls-28 {
        fill: #341c09;
      }

      .cls-29 {
        fill: #221101;
      }

      .cls-30 {
        fill: #aac6c3;
      }

      .cls-31 {
        fill: #c2e7f2;
      }

      .cls-32 {
        fill: #a9d5e0;
      }

      .cls-33 {
        fill: #5a5c5d;
      }

      .cls-34 {
        fill: #6d6f70;
      }
    </style>
    <linearGradient id="linear-gradient" x1="1" x2="0" y2="1" gradientUnits="objectBoundingBox">
      <stop offset="0" stop-color="#8697d3"/>
      <stop offset="1" stop-color="#2e78a6"/>
    </linearGradient>
    <linearGradient id="linear-gradient-2" x1="15.418" y1="0.5" x2="16.418" y2="0.5" gradientUnits="objectBoundingBox">
      <stop offset="0" stop-color="#ffdf02"/>
      <stop offset="0.125" stop-color="#f8d301"/>
      <stop offset="0.442" stop-color="#ebbc00"/>
      <stop offset="0.741" stop-color="#e3ae00"/>
      <stop offset="1" stop-color="#e1aa00"/>
    </linearGradient>
    <linearGradient id="linear-gradient-3" x1="38.358" y1="-0.756" x2="40.95" y2="-0.756" xlink:href="#linear-gradient-2"/>
  </defs>
  <g id="Group_20072" data-name="Group 20072" transform="translate(8628 -15715)">
    <rect id="Rectangle_2648" data-name="Rectangle 2648" class="cls-1" width="340" height="402" rx="8" transform="translate(-8628 15715)"/>
    <g id="Group_1203" data-name="Group 1203" transform="translate(-8590.9 15754)">
      <text id="Real_time_Customer_Insights" data-name="Real time Customer
Insights" class="cls-2" transform="translate(-0.1 275)"><tspan x="0" y="0">Real time Customer</tspan><tspan x="0" y="38">Insights</tspan></text>
      <g id="Group_1200" data-name="Group 1200" transform="translate(2.883 0)">
        <g id="Group_1153" data-name="Group 1153" transform="translate(0 16.548)">
          <g id="Group_1140" data-name="Group 1140" class="cls-3" transform="translate(0 59.344)">
            <g id="Group_1139" data-name="Group 1139">
              <path id="Path_8300" data-name="Path 8300" d="M71.456,182.123c10.173,5.868,10.2,15.369.139,21.217-10.081,5.86-26.429,5.86-36.6-.018-10.139-5.85-10.183-15.33-.118-21.18S61.333,176.283,71.456,182.123Z" transform="translate(-27.357 -177.75)"/>
            </g>
          </g>
          <g id="Group_1152" data-name="Group 1152" transform="translate(12.163 0)">
            <g id="Group_1141" data-name="Group 1141" transform="translate(0.11 21.638)">
              <path id="Path_8301" data-name="Path 8301" class="cls-4" d="M66.1,166.764c7.833,4.525,7.87,11.852.094,16.374s-20.43,4.52-28.257,0-7.878-11.849-.094-16.374S58.274,162.245,66.1,166.764Z" transform="translate(-32.036 -163.376)"/>
            </g>
            <path id="Path_8302" data-name="Path 8302" class="cls-5" d="M66.1,166.764c-7.83-4.52-20.482-4.515-28.257,0s-7.744,11.849.094,16.374,20.474,4.52,28.257,0S73.937,171.289,66.1,166.764Zm-2.474,14.9c-6.385,3.709-16.76,3.709-23.184,0s-6.461-9.719-.071-13.428c6.374-3.709,16.755-3.714,23.176,0S70.01,177.96,63.63,181.667Z" transform="translate(-31.926 -141.738)"/>
            <g id="Group_1143" data-name="Group 1143" transform="translate(4.152 2.713)">
              <path id="Path_8303" data-name="Path 8303" class="cls-6" d="M37.887,156.765l-.01.031a.734.734,0,0,1-.071.21l-.021.045a1.387,1.387,0,0,1-.142.207c-.042.045-.092.089-.142.134a.969.969,0,0,1-.121.108,2.6,2.6,0,0,1-.622.346c-.034.013-.068.029-.1.042a3.687,3.687,0,0,1-.732.184l-.026,0a3.7,3.7,0,0,1-.8.018l-.029-.005a2.732,2.732,0,0,1-.737-.173,1.079,1.079,0,0,1-.753-.805l7.673,58.327a1.081,1.081,0,0,0,.755.8,2.667,2.667,0,0,0,.328.11c.092.018.181.039.278.05.039.005.084.013.131.016l.034,0a.266.266,0,0,0,.068.01c.068.005.142.005.218.005l-.005-.021h0l.005.021h.212c.071-.005.139-.016.215-.021l.076-.013.029,0,.113-.013c.079-.016.163-.031.239-.05.092-.024.178-.045.27-.073l.11-.045c.034-.016.071-.026.1-.039.06-.026.126-.05.181-.076a2.219,2.219,0,0,0,.446-.27l.024-.021a.594.594,0,0,0,.092-.089,1.416,1.416,0,0,0,.142-.136l.01-.01c.039-.055.081-.11.121-.163a.074.074,0,0,1,.016-.037l.016-.039a.355.355,0,0,1,.034-.063.757.757,0,0,0,.039-.131v-.016l.008-.031.013-.079c0-.039,0-.087,0-.123v-.024l-7.678-58.322A.8.8,0,0,1,37.887,156.765Z" transform="translate(-33.571 -155.545)"/>
              <g id="Group_1142" data-name="Group 1142">
                <path id="Path_8304" data-name="Path 8304" class="cls-7" d="M37.137,156.359c.913.37,1.026,1.159.249,1.758a3.36,3.36,0,0,1-3.048.415.943.943,0,0,1-.244-1.768A3.373,3.373,0,0,1,37.137,156.359Z" transform="translate(-33.577 -156.162)"/>
              </g>
            </g>
            <g id="Group_1145" data-name="Group 1145" transform="translate(16.679)">
              <path id="Path_8305" data-name="Path 8305" class="cls-6" d="M42.661,155.733l-.005.029a.8.8,0,0,1-.073.21l-.021.045a1.055,1.055,0,0,1-.144.207,1.716,1.716,0,0,1-.139.136,1.035,1.035,0,0,1-.123.108,2.621,2.621,0,0,1-.619.346c-.037.011-.066.026-.1.039a3.558,3.558,0,0,1-.732.184l-.031.005a3.46,3.46,0,0,1-.79.013h-.031a2.861,2.861,0,0,1-.737-.173,1.091,1.091,0,0,1-.758-.8L46.03,214.4a1.088,1.088,0,0,0,.753.8,2.111,2.111,0,0,0,.331.108,2.006,2.006,0,0,0,.278.055l.131.013.031.005.068.005c.076.005.15.01.223.01l-.01-.026h0l.01.026c.066,0,.139,0,.212-.005s.144-.01.21-.021c.024,0,.055,0,.079-.008l.026,0a.852.852,0,0,0,.118-.018,1.5,1.5,0,0,0,.236-.047c.087-.018.184-.045.268-.071.042-.016.079-.034.115-.047a.7.7,0,0,1,.1-.042c.06-.026.126-.045.176-.071a2.421,2.421,0,0,0,.449-.27l.024-.021a.743.743,0,0,0,.092-.089c.05-.047.1-.092.147-.139l.005-.01c.045-.053.081-.11.121-.16l.013-.039.024-.039c.005-.021.018-.039.026-.063a.424.424,0,0,0,.042-.131l0-.013.005-.037.013-.079a1.012,1.012,0,0,0-.005-.123v-.018l-7.676-58.325A.732.732,0,0,1,42.661,155.733Z" transform="translate(-38.35 -154.512)"/>
              <g id="Group_1144" data-name="Group 1144">
                <path id="Path_8306" data-name="Path 8306" class="cls-7" d="M41.914,155.322a.938.938,0,0,1,.244,1.76,3.375,3.375,0,0,1-3.043.414.945.945,0,0,1-.249-1.768A3.4,3.4,0,0,1,41.914,155.322Z" transform="translate(-38.352 -155.128)"/>
              </g>
            </g>
            <g id="Group_1147" data-name="Group 1147" transform="translate(19.721 5.149)">
              <path id="Path_8307" data-name="Path 8307" class="cls-6" d="M61.555,158.882l-.029.029a.706.706,0,0,1-.15.16l-.034.026a1.121,1.121,0,0,1-.218.126,1.339,1.339,0,0,1-.189.066.634.634,0,0,1-.155.047,2.427,2.427,0,0,1-.708.042.555.555,0,0,1-.113-.008,3.107,3.107,0,0,1-.735-.142l-.034-.01a3.662,3.662,0,0,1-.724-.32l-.029-.016a2.769,2.769,0,0,1-.585-.475,1.071,1.071,0,0,1-.344-1.047L39.546,213.372a1.1,1.1,0,0,0,.338,1.052,2.235,2.235,0,0,0,.257.241,2.633,2.633,0,0,0,.226.163.966.966,0,0,0,.11.068l.029.016.058.039c.063.034.129.068.194.1l.01-.021h0l-.01.021c.066.032.131.058.2.089s.134.05.2.073a.264.264,0,0,0,.076.021l.026.01c.034.01.071.026.1.034.084.024.163.037.239.058.094.018.189.037.273.045a1.021,1.021,0,0,0,.121.011.815.815,0,0,0,.113.008c.06,0,.131.011.194.011a2.44,2.44,0,0,0,.519-.055l.029,0a.775.775,0,0,1,.123-.045.838.838,0,0,0,.181-.071h.018a.776.776,0,0,0,.171-.1c.016-.005.024-.021.031-.026l.039-.024a.282.282,0,0,1,.052-.045.9.9,0,0,0,.1-.1l.005-.01.018-.029a.305.305,0,0,0,.042-.066.436.436,0,0,0,.052-.113l.008-.024,17.961-56.014A.725.725,0,0,1,61.555,158.882Z" transform="translate(-39.512 -156.652)"/>
              <g id="Group_1146" data-name="Group 1146" transform="translate(17.963)">
                <path id="Path_8308" data-name="Path 8308" class="cls-7" d="M50.2,158.078a.939.939,0,0,1-.533,1.7,3.374,3.374,0,0,1-2.928-.929c-.666-.729-.43-1.487.527-1.7A3.409,3.409,0,0,1,50.2,158.078Z" transform="translate(-46.36 -157.091)"/>
              </g>
            </g>
            <g id="Group_1149" data-name="Group 1149" transform="translate(9.628 5.785)">
              <path id="Path_8309" data-name="Path 8309" class="cls-8" d="M48.633,158.562l-.005.021a1.215,1.215,0,0,1-.129.184l-.031.034a1.237,1.237,0,0,1-.2.16,1.1,1.1,0,0,1-.176.094,1.378,1.378,0,0,1-.139.073,2.956,2.956,0,0,1-.7.157l-.113.008a3.872,3.872,0,0,1-.755-.024l-.029,0a3.528,3.528,0,0,1-.763-.207l-.029-.005a2.927,2.927,0,0,1-.661-.375,1.094,1.094,0,0,1-.506-.978l-8.73,58.17a1.1,1.1,0,0,0,.5.981,2.027,2.027,0,0,0,.291.2,2.212,2.212,0,0,0,.249.126c.039.018.081.037.126.052l.018.008a.206.206,0,0,0,.073.026c.066.026.134.05.2.071s.139.039.212.052a1.45,1.45,0,0,0,.207.042.653.653,0,0,0,.081.013l.024.005.115.016c.079.008.165.013.241.018a2.513,2.513,0,0,0,.281,0c.045,0,.081-.013.123-.013a.683.683,0,0,0,.1-.008c.063-.005.129-.011.191-.021a2.154,2.154,0,0,0,.5-.139l.031-.008c.039-.021.079-.045.115-.066a.881.881,0,0,0,.171-.092l.013-.005a1.515,1.515,0,0,0,.155-.123.319.319,0,0,1,.029-.031l.029-.034a.318.318,0,0,0,.05-.052.649.649,0,0,0,.071-.115l.016-.016.008-.024.037-.073c.013-.039.021-.079.031-.123l0-.021,8.73-58.172A.676.676,0,0,1,48.633,158.562Z" transform="translate(-35.664 -156.734)"/>
              <g id="Group_1148" data-name="Group 1148" transform="translate(8.732)">
                <path id="Path_8310" data-name="Path 8310" class="cls-9" d="M42.8,157.962a.943.943,0,0,1-.249,1.765,3.408,3.408,0,0,1-3.046-.449.941.941,0,0,1,.249-1.763A3.381,3.381,0,0,1,42.8,157.962Z" transform="translate(-38.993 -157.333)"/>
              </g>
            </g>
            <g id="Group_1151" data-name="Group 1151" transform="translate(23.732 0.266)">
              <path id="Path_8311" data-name="Path 8311" class="cls-10" d="M46.033,155.974l-.008.026a1.28,1.28,0,0,1-.1.2c-.013.016-.021.029-.029.039a2.184,2.184,0,0,1-.173.189,1.51,1.51,0,0,1-.157.113c-.045.029-.081.066-.131.094a2.96,2.96,0,0,1-.666.247.616.616,0,0,1-.108.024,3.742,3.742,0,0,1-.753.081h-.031a3.306,3.306,0,0,1-.79-.1l-.026-.005a2.52,2.52,0,0,1-.7-.275,1.092,1.092,0,0,1-.635-.9l-.679,58.82a1.1,1.1,0,0,0,.635.905c.1.055.2.1.31.152.087.034.173.06.27.092.039.01.079.024.126.034l.024.005a.369.369,0,0,0,.073.016,1.793,1.793,0,0,0,.212.042c.073.008.142.016.212.026a2.008,2.008,0,0,0,.215.011.455.455,0,0,0,.084,0,.065.065,0,0,0,.024,0,.785.785,0,0,0,.11,0c.084,0,.165,0,.244-.011.1-.01.186-.021.283-.034a.811.811,0,0,1,.121-.031c.031-.008.068-.018.1-.024.066-.016.126-.026.191-.047a2.18,2.18,0,0,0,.477-.2l.029-.016c.037-.024.071-.052.108-.079a1.244,1.244,0,0,0,.155-.113l.013-.011a.991.991,0,0,0,.136-.144.063.063,0,0,0,.024-.034l.024-.034a.229.229,0,0,0,.042-.06.78.78,0,0,0,.058-.126l.008-.016.01-.029a.541.541,0,0,0,.018-.076.413.413,0,0,0,.018-.123v-.021l.679-58.82A1.024,1.024,0,0,1,46.033,155.974Z" transform="translate(-41.041 -154.464)"/>
              <g id="Group_1150" data-name="Group 1150" transform="translate(0.68)">
                <path id="Path_8312" data-name="Path 8312" class="cls-9" d="M45.017,155.611a.945.945,0,0,1-.005,1.786,3.409,3.409,0,0,1-3.077-.029.943.943,0,0,1,.005-1.784A3.393,3.393,0,0,1,45.017,155.611Z" transform="translate(-41.3 -155.229)"/>
              </g>
            </g>
            <path id="Path_8313" data-name="Path 8313" class="cls-5" d="M37.938,178.052c7.828,4.52,20.474,4.52,28.257,0,5.372-3.124,7.015-7.589,4.929-11.542H67.307c2.217,3.387,1,7.348-3.68,10.071-6.385,3.709-16.76,3.709-23.184,0-4.717-2.725-5.973-6.689-3.791-10.071h-3.78C30.837,170.463,32.526,174.925,37.938,178.052Z" transform="translate(-31.923 -136.652)"/>
            <path id="Path_8314" data-name="Path 8314" class="cls-4" d="M72.022,168.474c-.021.207-.034.415-.073.624-.029.171-.081.336-.126.5a5.715,5.715,0,0,1-.176.609c-.055.157-.131.315-.2.48-.092.21-.184.422-.294.627-.084.147-.176.3-.268.443-.144.233-.3.47-.47.7-.168.218-.333.438-.525.651-.047.05-.084.1-.134.157-.257.278-.538.554-.839.821-.2.178-.414.346-.627.514-.184.15-.354.3-.546.438-.228.163-.477.32-.721.48s-.491.331-.758.491a21.094,21.094,0,0,1-1.886.95c-.186.087-.383.163-.574.247-.509.213-1.031.412-1.566.593-.194.063-.38.136-.577.2-.338.107-.685.2-1.026.3-.262.068-.525.147-.79.212-.357.084-.732.157-1.091.228-.257.055-.512.113-.769.157-.745.134-1.5.236-2.266.315-.233.026-.47.039-.711.06-.449.037-.9.073-1.354.094-.283.008-.572.016-.858.018-.365.01-.732.013-1.094.01l-.926-.029c-.338-.01-.674-.034-1.013-.055-.3-.024-.606-.047-.913-.073-.333-.034-.664-.073-1-.115-.3-.037-.6-.079-.9-.123-.357-.058-.708-.118-1.06-.186-.275-.052-.546-.11-.821-.163-.42-.094-.837-.2-1.249-.309-.228-.06-.454-.115-.677-.184-.735-.215-1.453-.451-2.148-.721-.352-.139-.7-.294-1.041-.443-.16-.074-.328-.136-.488-.212-.5-.241-.994-.5-1.464-.763-3.945-2.282-5.915-5.262-5.9-8.247l-.11,39.22c-.005,2.983,1.96,5.968,5.9,8.245.47.265.96.522,1.466.763.178.081.357.152.533.228.3.134.582.273.889.391l.1.029c.7.275,1.419.517,2.162.732.055.016.11.039.168.06.163.042.325.073.493.121.417.11.842.215,1.264.31.11.024.218.058.328.079.155.034.32.05.48.084.354.066.711.131,1.07.186.142.021.281.055.428.073s.315.031.47.055c.333.039.669.076,1.013.113.152.011.3.037.459.05s.286.01.43.026c.346.018.7.039,1.036.05.165.008.333.021.5.029.136,0,.265,0,.4,0,.373.005.737,0,1.1-.005.181,0,.365.005.54,0,.108-.005.215-.018.32-.018.462-.021.913-.055,1.372-.094.178-.016.349-.016.525-.031.055-.008.1-.018.16-.024.766-.084,1.529-.189,2.282-.317.034-.008.068-.008.1-.018.212-.034.42-.092.627-.134.38-.073.755-.15,1.128-.241.26-.06.514-.139.769-.207.357-.094.706-.189,1.047-.3.068-.021.147-.039.212-.063.123-.037.228-.092.352-.131.538-.181,1.062-.386,1.582-.6.189-.084.378-.163.564-.241.651-.3,1.288-.606,1.886-.952.081-.05.163-.1.244-.147.178-.113.338-.228.512-.341.247-.157.5-.317.724-.48.2-.15.372-.3.567-.451s.414-.331.6-.5c.042-.039.092-.071.131-.108a9.794,9.794,0,0,0,.719-.721c.045-.047.087-.1.131-.157.131-.147.262-.3.388-.454.052-.066.087-.139.136-.2a8.1,8.1,0,0,0,.47-.7c.063-.1.144-.192.2-.291a1.585,1.585,0,0,1,.068-.152q.157-.307.283-.614a3.965,3.965,0,0,0,.178-.37c.016-.045.021-.089.034-.134a5.894,5.894,0,0,0,.163-.569c.039-.136.1-.281.126-.422a.765.765,0,0,1,.016-.115c.037-.2.05-.4.068-.6.013-.142.045-.286.045-.428.005-.06.005-.121.005-.178l.11-39.212C72.072,168.081,72.04,168.278,72.022,168.474Z" transform="translate(-31.994 -134.613)"/>
          </g>
        </g>
        <path id="Path_8315" data-name="Path 8315" class="cls-11" d="M126.044,180.554,282.03,270.623l-94.043,54.658-156-90.066Z" transform="translate(-19.843 -97.307)"/>
        <g id="Group_1176" data-name="Group 1176" transform="translate(13.594 77.835)">
          <g id="Group_1175" data-name="Group 1175" class="cls-12" transform="translate(0)">
            <g id="Group_1154" data-name="Group 1154" transform="translate(65.668 5.892)">
              <path id="Path_8316" data-name="Path 8316" class="cls-13" d="M79.21,180.737l-.01,6.8L57.574,200.108l.007-6.773Z" transform="translate(-57.574 -180.737)"/>
            </g>
            <g id="Group_1155" data-name="Group 1155" transform="translate(87.295 5.892)">
              <path id="Path_8317" data-name="Path 8317" class="cls-14" d="M92.419,196.077,92.4,202.87,65.818,187.535l.01-6.8Z" transform="translate(-65.818 -180.737)"/>
            </g>
            <g id="Group_1156" data-name="Group 1156" transform="translate(92.25 21.232)">
              <path id="Path_8318" data-name="Path 8318" class="cls-15" d="M89.353,186.585l-.018,6.793L67.707,205.966l.017-6.8Z" transform="translate(-67.707 -186.585)"/>
            </g>
            <g id="Group_1157" data-name="Group 1157" transform="translate(65.668 18.49)">
              <path id="Path_8319" data-name="Path 8319" class="cls-16" d="M84.172,200.859l-.017,6.8-26.582-15.35.007-6.773Z" transform="translate(-57.574 -185.54)"/>
            </g>
            <g id="Group_1158" data-name="Group 1158" transform="translate(13.436 44.684)">
              <path id="Path_8320" data-name="Path 8320" class="cls-13" d="M44.813,195.525l0,6.783-7.146,4.14.02-6.768Z" transform="translate(-37.662 -195.525)"/>
            </g>
            <g id="Group_1159" data-name="Group 1159" transform="translate(20.582 44.684)">
              <path id="Path_8321" data-name="Path 8321" class="cls-14" d="M66.96,210.88l-.025,6.778-26.549-15.35,0-6.783Z" transform="translate(-40.386 -195.525)"/>
            </g>
            <g id="Group_1160" data-name="Group 1160" transform="translate(13.455 44.684)">
              <path id="Path_8322" data-name="Path 8322" class="cls-17" d="M71.37,210.88,64.236,215,37.669,199.68l7.131-4.155Z" transform="translate(-37.669 -195.525)"/>
            </g>
            <g id="Group_1161" data-name="Group 1161" transform="translate(13.436 48.839)">
              <path id="Path_8323" data-name="Path 8323" class="cls-16" d="M64.248,212.429l-.012,6.8L37.662,203.877l.02-6.768Z" transform="translate(-37.662 -197.109)"/>
            </g>
            <g id="Group_1162" data-name="Group 1162" transform="translate(40.01 60.039)">
              <path id="Path_8324" data-name="Path 8324" class="cls-15" d="M54.939,201.378l-.025,6.778L47.792,212.3l.012-6.8Z" transform="translate(-47.792 -201.378)"/>
            </g>
            <g id="Group_1163" data-name="Group 1163" transform="translate(44.602 24.853)">
              <path id="Path_8325" data-name="Path 8325" class="cls-13" d="M125.124,187.965l-.012,6.808-75.568,43.9.007-6.791Z" transform="translate(-49.543 -187.965)"/>
            </g>
            <g id="Group_1164" data-name="Group 1164" transform="translate(120.17 24.853)">
              <path id="Path_8326" data-name="Path 8326" class="cls-14" d="M178.4,245.738l-.017,6.788L78.35,194.773l.012-6.808Z" transform="translate(-78.35 -187.965)"/>
            </g>
            <g id="Group_1165" data-name="Group 1165" transform="translate(44.602 68.773)">
              <path id="Path_8327" data-name="Path 8327" class="cls-18" d="M149.6,262.452l-.03,6.8L49.543,211.5l.007-6.791Z" transform="translate(-49.543 -204.708)"/>
            </g>
            <g id="Group_1166" data-name="Group 1166" transform="translate(144.628 82.626)">
              <path id="Path_8328" data-name="Path 8328" class="cls-19" d="M163.267,209.989l-.017,6.788-75.576,43.9.03-6.8Z" transform="translate(-87.674 -209.989)"/>
            </g>
            <g id="Group_1168" data-name="Group 1168" transform="translate(44.609 24.853)">
              <g id="Group_1167" data-name="Group 1167">
                <path id="Path_8329" data-name="Path 8329" class="cls-17" d="M225.157,245.738l-75.563,43.891L49.546,231.885l75.573-43.92Z" transform="translate(-49.546 -187.965)"/>
              </g>
            </g>
            <g id="Group_1169" data-name="Group 1169" transform="translate(0.005)">
              <path id="Path_8330" data-name="Path 8330" class="cls-20" d="M119.942,178.491l144.949,83.694L177.5,312.976,32.542,229.282Zm57.252,126.518,75.564-43.892L152.72,203.343,77.147,247.264l100.047,57.745ZM124.8,212.3l21.631-12.578-26.592-15.341-21.631,12.6L124.8,212.3ZM72.559,242.65l7.135-4.121L53.124,223.175l-7.133,4.155,26.568,15.32Z" transform="translate(-32.542 -178.491)"/>
            </g>
            <g id="Group_1171" data-name="Group 1171" transform="translate(65.675 5.892)">
              <g id="Group_1170" data-name="Group 1170">
                <path id="Path_8331" data-name="Path 8331" class="cls-17" d="M105.8,196.077,84.168,208.655l-26.592-15.32,21.629-12.6Z" transform="translate(-57.576 -180.737)"/>
              </g>
            </g>
            <g id="Group_1173" data-name="Group 1173" transform="translate(144.941 83.693)">
              <g id="Group_1172" data-name="Group 1172">
                <path id="Path_8332" data-name="Path 8332" class="cls-17" d="M175.206,210.4l-.022,6.781-87.391,50.79.025-6.778Z" transform="translate(-87.793 -210.396)"/>
              </g>
            </g>
            <g id="Group_1174" data-name="Group 1174" transform="translate(0 50.79)">
              <path id="Path_8333" data-name="Path 8333" class="cls-17" d="M177.507,281.548l-.025,6.778L32.54,204.634l0-6.781Z" transform="translate(-32.54 -197.853)"/>
            </g>
          </g>
        </g>
        <g id="Group_1197" data-name="Group 1197" transform="translate(91.14)">
          <path id="Path_8334" data-name="Path 8334" class="cls-11" d="M84.863,206.685c-15.986,9.229-16.065,24.2-.184,33.436s41.725,9.226,57.713,0,16.072-24.2.189-33.428S100.849,197.457,84.863,206.685Z" transform="translate(-44.699 -66.124)"/>
          <g id="Group_1178" data-name="Group 1178" transform="translate(26.733 24.771)">
            <g id="Group_1177" data-name="Group 1177" transform="translate(0 50.769)">
              <path id="Path_8335" data-name="Path 8335" class="cls-21" d="M76.783,177.616s-3.5,4.557-3.812,5.755-1.737,6.254.782,9.672c1.361,1.849,2.1-.753,2.437-4.137.152-1.532-.071-2.7,1.933-4.357a17.566,17.566,0,0,0,3.691-4.874C82.431,178.419,76.783,177.616,76.783,177.616Z" transform="translate(-72.292 -177.616)"/>
              <path id="Path_8336" data-name="Path 8336" class="cls-22" d="M80.769,179.128c-.614,1.257-2.387,3.442-2.655,5.3-.331,2.24-2.747,2.135-2.9,3.667-.27,2.634-.839,4.827-1.668,4.772.352-1.983-1.967-3.481.488-8.1a33.085,33.085,0,0,1,5.577-6.642C80.614,178.593,81.005,178.635,80.769,179.128Z" transform="translate(-71.317 -176.801)"/>
              <path id="Path_8337" data-name="Path 8337" class="cls-21" d="M78.083,178.108s-.7,6.432-1.186,8.352-1.64,3.046-1.87,2.626c-.249-.422.9-6.18-1.188-6.012C72.737,183.16,77.773,179.005,78.083,178.108Z" transform="translate(-70.037 -176.817)"/>
            </g>
            <path id="Path_8338" data-name="Path 8338" class="cls-23" d="M93.443,158.309s-6.469-1.422-9,11.427-2.466,17.846-4.3,22.263-6.713,18.719-6.713,18.719,4.09.157,5.692,3.2c0,0,10.362-17.72,12.361-25.5S100.192,161.782,93.443,158.309Z" transform="translate(-70.439 -158.262)"/>
            <path id="Path_8339" data-name="Path 8339" class="cls-24" d="M80.146,191.6c1.834-4.417,1.773-9.415,4.3-22.263,1.38-6.986,3.911-9.751,5.955-10.821,6.13,3.958-.362,22.266-2.322,29.9-1.493,5.816-7.476,17.73-10.417,23.4a7.437,7.437,0,0,0-4.229-1.5S78.307,196.01,80.146,191.6Z" transform="translate(-70.439 -157.858)"/>
          </g>
          <path id="Path_8340" data-name="Path 8340" class="cls-25" d="M100.789,204.235s1.708,4,0,5.029-1.949,2.169-4.69,1.944-2.35.685-3.295,1.713-10.648,5.262-12.476,3.2,3.313-4.465,5.134-5.661,6.178-6,6.293-7.366S100.789,204.235,100.789,204.235Z" transform="translate(-33.144 -61.391)"/>
          <path id="Path_8341" data-name="Path 8341" class="cls-26" d="M100.792,208.139c-1.721,1.028-1.949,2.169-4.69,1.944s-2.35.685-3.295,1.713-10.648,5.262-12.476,3.2a1.516,1.516,0,0,1,.152-2.167c.674.123,1.613.3,2.851.509,2.857.5,6.54-2.8,7.959-4.021s3.213-.753,5.669-1.157S99.071,204,99.071,204l1.821-.627C101.23,204.257,102.24,207.261,100.792,208.139Z" transform="translate(-33.147 -60.267)"/>
          <path id="Path_8342" data-name="Path 8342" class="cls-25" d="M101.2,208.222s.721,4.73-1.1,7.287c-1.8,2.56-5.805,6.991-7.529,6.8s-2-.989-2-.989a17.193,17.193,0,0,1,.543-7.678,24.108,24.108,0,0,0,1.361-5.42Z" transform="translate(-16.229 -52.396)"/>
          <path id="Path_8343" data-name="Path 8343" class="cls-26" d="M98.288,215.509c-1.592,2.253-4.874,5.944-6.812,6.676,2.56-3.3-1.288-2.618,1.605-4.184,3.974-2.156,1.432-3.953,3.206-4.462s.472-4.882.472-4.882l.96-.435H99.39S100.112,212.952,98.288,215.509Z" transform="translate(-14.419 -52.396)"/>
          <path id="Path_8344" data-name="Path 8344" class="cls-4" d="M93.321,183.182s-8.166-.884-10.892-6.925a199.581,199.581,0,0,0,.908,28.8c1.65,15.464,3.019,42.656,3.019,42.656s5.283,4.981,10.737,0c0,0,1.537-17.953,0-27.9,0,0,1.026-17.421-.679-26.13S93.321,183.182,93.321,183.182Z" transform="translate(-29.374 -104.282)"/>
          <path id="Path_8345" data-name="Path 8345" class="cls-5" d="M86.421,248.96S85.052,221.767,83.4,206.3a246.417,246.417,0,0,1-1.086-30.818c1.991,4.433,7.1,8.111,9.577,8.68-.2,5.9-.753,23.3-.661,29.081.081,5.5,1.162,28.291,1.619,37.864A8.631,8.631,0,0,1,86.421,248.96Z" transform="translate(-29.439 -105.534)"/>
          <path id="Path_8346" data-name="Path 8346" class="cls-4" d="M107.71,178.543s.792,9.045.96,23.1,1.2,19.344,1.54,21.495,1.532,25.671.853,32.533c0,0-4.436,6.857-11.427,0,0,0-1.188-24.1-2.382-29.593s-7.875-32.137-10.574-41.7c-1.188-4.223-1.469-5.829-1.469-5.829S96.976,187,107.71,178.543Z" transform="translate(-24.588 -100.571)"/>
          <path id="Path_8347" data-name="Path 8347" class="cls-5" d="M101.168,256.689s-1.188-24.1-2.382-29.593-7.875-32.137-10.574-41.7a22.4,22.4,0,0,0-3.945-7.479s7.731,5.425,14.415,5.409c.294,2.059,3.135,21.744,3.8,30.343.653,8.533,6.5,38.54,4.926,46.072C105.68,259.787,103.577,259.05,101.168,256.689Z" transform="translate(-26.121 -101.592)"/>
          <path id="Path_8348" data-name="Path 8348" class="cls-24" d="M98.973,158.09s13.292,4.494,13.738,5.4,4,2.728,1,14.265c0,0-4.407,12.707.4,24.055a75.45,75.45,0,0,0,4.905,9.908s-4.292,8.95-20.556,5.54c-3.276-.69-9.131-4.174-11.214-7.35a81.316,81.316,0,0,0-3.694-21.8c-3.662-11.505-6.993-26.639-.6-29.661C82.951,158.444,84.352,156.146,98.973,158.09Z" transform="translate(-34.112 -135.038)"/>
          <g id="Group_1180" data-name="Group 1180" transform="translate(41.503)">
            <path id="Path_8349" data-name="Path 8349" class="cls-21" d="M91.762,153.792s-1.464,6.8,2.775,9.36c2.363,1.422.538,7.707-5.968,9.779,0,0-3.1.407-3.213-.737-.252-2.581-1.7-3.536-3.4-4.94S91.762,153.792,91.762,153.792Z" transform="translate(-71.653 -140.748)"/>
            <path id="Path_8350" data-name="Path 8350" class="cls-27" d="M91.157,162.772a1.782,1.782,0,0,1,.664.708c-3.326-1.5-7.954.084-7.954.084l3.436-9.006c.2-.2.359-.383.5-.532l.412.519C88.009,156.594,87.993,160.862,91.157,162.772Z" transform="translate(-68.273 -140.368)"/>
            <g id="Group_1179" data-name="Group 1179" transform="translate(0.56 0.045)">
              <path id="Path_8351" data-name="Path 8351" class="cls-21" d="M97.633,158.222s1.23,7.765-2.445,12.919c-3.25,4.583-7.594,8.441-10.558,3.591-2.35-3.854-8.473-13.622-5.637-17.158,3.662-4.554,4.082-8.6,10.32-8.7C89.312,148.878,96.66,149.324,97.633,158.222Z" transform="translate(-77.938 -148.769)"/>
              <path id="Path_8352" data-name="Path 8352" class="cls-22" d="M97.339,157.365a17.273,17.273,0,0,1-2.385,13.014,21.772,21.772,0,0,1-3.284,3.8c1.645-2.579,1.676-3.2,2.657-5.96s-3.145-.241-2.175-6.723c.331-2.2-3.817,2.085-4.958,2.495-6.789,2.432-7.78-1.611-8.546-3.179a13.088,13.088,0,0,1-.21-2.209l.163-1.469c.031-.136.066-.281.1-.414a24.168,24.168,0,0,1,1.254-3.24c2.912-1.052,11.159-4.053,11.33-4.071.129-.016,2.272,1.348,4.289,2.66A11.869,11.869,0,0,1,97.339,157.365Z" transform="translate(-77.644 -147.912)"/>
              <path id="Path_8353" data-name="Path 8353" class="cls-28" d="M97.564,166.374s3.5-7.109-1.159-13.546a8.991,8.991,0,0,0-9.939-3.654c-3.206.816-8.392,3.389-8.329,10.464.021,2.211,1.524,6.141,8.329,1.241.971-.7,3.7-2.193,5.071-1.666s2.156,2.2,2.235,3.856c.073,1.445,1.249,1.141,1.3.816s.076-4.559,2.012-3.657C98.815,161.039,97.6,166.07,97.564,166.374Z" transform="translate(-78.136 -148.836)"/>
              <path id="Path_8354" data-name="Path 8354" class="cls-29" d="M92.41,165.92c.039-.3,1.251-5.336-.48-6.146-1.936-.9-1.962,3.324-2.012,3.657s-1.228.63-1.3-.816c-.079-1.653-.855-3.331-2.235-3.856-1.246-.483-3.6.921-5.071,1.666.939-1.285,3.337-2.542,3.421-4.976.094-3.263,1.27-5.22,2.668-6.332a9.3,9.3,0,0,1,3.851,3.258C95.914,158.811,92.41,165.92,92.41,165.92Z" transform="translate(-72.982 -148.383)"/>
            </g>
            <path id="Path_8355" data-name="Path 8355" class="cls-28" d="M87.229,161a10.822,10.822,0,0,0,4.124-7.628,4.28,4.28,0,0,1,1.928-3.581s-3.631-2.413-9.512.365c-2.762,1.3-4.8,5.118-5.2,5.942C76.492,160.4,79.414,166.9,87.229,161Z" transform="translate(-77.922 -148.819)"/>
          </g>
          <path id="Path_8356" data-name="Path 8356" class="cls-23" d="M98.649,161.293c.451.9,4,2.728,1,14.265,0,0-4.407,12.707.4,24.055a75.443,75.443,0,0,0,4.905,9.908s-2.148,4.42-9.082,5.858c-3.922-9.787-5.866-28.176-7.618-40.757-1.123-8.108,1.807-13.148,4.459-15.96C95.7,159.769,98.45,160.889,98.649,161.293Z" transform="translate(-20.05 -132.843)"/>
          <path id="Path_8357" data-name="Path 8357" class="cls-24" d="M89.006,163.275c.456-3.533,5.152-7.647,9.284-.666s11.839,29.118,9.005,32.334c-1.1,1.254-3.087,2.783-4.926,1.548-2.875-1.931-5.742-7.88-6.857-11.256C93.664,179.7,88.581,166.583,89.006,163.275Z" transform="translate(-18.47 -132.603)"/>
          <g id="Group_1196" data-name="Group 1196" transform="translate(0 24.764)">
            <g id="Group_1181" data-name="Group 1181" transform="translate(0 104.721)">
              <path id="Path_8358" data-name="Path 8358" class="cls-30" d="M62.1,217.191,88.552,198.18l-5.77,3.379Z" transform="translate(-62.101 -198.18)"/>
            </g>
            <g id="Group_1182" data-name="Group 1182" transform="translate(0 95.448)">
              <path id="Path_8359" data-name="Path 8359" class="cls-20" d="M62.1,222.929,82.782,207.3,69.45,194.645Z" transform="translate(-62.101 -194.645)"/>
            </g>
            <g id="Group_1184" data-name="Group 1184" transform="translate(20.681 12.699)">
              <g id="Group_1183" data-name="Group 1183">
                <path id="Path_8360" data-name="Path 8360" class="cls-31" d="M134.069,166.522,69.985,258.5l5.77-3.379L139.768,163.1Z" transform="translate(-69.985 -163.101)"/>
              </g>
            </g>
            <g id="Group_1186" data-name="Group 1186" transform="translate(11.096 11.536)">
              <g id="Group_1185" data-name="Group 1185">
                <path id="Path_8361" data-name="Path 8361" class="cls-20" d="M130.405,162.657,66.331,254.613l9.584,4.609L140,167.242Z" transform="translate(-66.331 -162.657)"/>
              </g>
            </g>
            <g id="Group_1188" data-name="Group 1188" transform="translate(7.349 3.424)">
              <g id="Group_1187" data-name="Group 1187">
                <path id="Path_8362" data-name="Path 8362" class="cls-31" d="M128.915,159.565,64.9,251.589l3.747,8.043,64.074-91.956Z" transform="translate(-64.902 -159.565)"/>
              </g>
            </g>
            <g id="Group_1190" data-name="Group 1190" transform="translate(71.362)">
              <g id="Group_1189" data-name="Group 1189">
                <path id="Path_8363" data-name="Path 8363" class="cls-32" d="M93.114,169.8l9.594,4.585,5.7-3.421L104.6,162.9l-9.579-4.644L89.3,161.683Z" transform="translate(-89.305 -158.259)"/>
              </g>
            </g>
            <g id="Group_1192" data-name="Group 1192" transform="translate(77.394 4.538)">
              <g id="Group_1191" data-name="Group 1191">
                <path id="Path_8364" data-name="Path 8364" class="cls-20" d="M93.292,165.073,97.5,167.1l2.507-1.465-1.717-3.584-4.177-2.065-2.51,1.5Z" transform="translate(-91.604 -159.989)"/>
              </g>
            </g>
            <g id="Group_1193" data-name="Group 1193" transform="translate(0 95.448)">
              <path id="Path_8365" data-name="Path 8365" class="cls-31" d="M62.1,222.929l11.1-20.241-3.747-8.043Z" transform="translate(-62.101 -194.645)"/>
            </g>
            <g id="Group_1194" data-name="Group 1194" transform="translate(0 118.041)">
              <path id="Path_8366" data-name="Path 8366" class="cls-33" d="M64.408,204.839l-2.307,4.11,1.484-5.691Z" transform="translate(-62.101 -203.258)"/>
            </g>
            <g id="Group_1195" data-name="Group 1195" transform="translate(0 119.622)">
              <path id="Path_8367" data-name="Path 8367" class="cls-34" d="M64.408,203.861l2.026,1.052L62.1,207.971Z" transform="translate(-62.101 -203.861)"/>
            </g>
          </g>
          <path id="Path_8368" data-name="Path 8368" class="cls-22" d="M93.149,174.827s-4.9.546-5.934-.181-2.358.477-1.06,1.225a7.379,7.379,0,0,0,3.009.782s-5.448,1.852-6.388.372.63,4.467,3.426,4.882,5.763,1.393,10.11-4.242A4.941,4.941,0,0,0,93.149,174.827Z" transform="translate(-28.982 -107.257)"/>
          <path id="Path_8369" data-name="Path 8369" class="cls-24" d="M112.01,176s-7.172,9.617-23.892,11.516a5.821,5.821,0,0,0-1.857-5.081S113.712,159.123,112.01,176Z" transform="translate(-22.886 -114.658)"/>
        </g>
      </g>
    </g>
  </g>
</svg>
