<svg xmlns="http://www.w3.org/2000/svg" xmlns:xlink="http://www.w3.org/1999/xlink" width="340" height="402" viewBox="0 0 340 402">
  <defs>
    <style>
      .cls-1 {
        fill: url(#linear-gradient);
      }

      .cls-2, .cls-5 {
        fill: #fff;
      }

      .cls-2 {
        font-size: 28px;
        font-family: NunitoSans-SemiBold, Nunito Sans;
        font-weight: 600;
        letter-spacing: 0.01em;
      }

      .cls-3 {
        fill: rgba(0,0,0,0.1);
      }

      .cls-4 {
        fill: #ce7788;
      }

      .cls-6 {
        fill: #fc8b9a;
      }

      .cls-7 {
        fill: #396caa;
      }

      .cls-8 {
        fill: #173d7a;
      }

      .cls-9 {
        fill: #d4ecff;
      }

      .cls-10 {
        fill: #5793ce;
      }

      .cls-11 {
        fill: #ffc2b0;
      }

      .cls-12 {
        fill: #ea9c92;
      }

      .cls-13 {
        fill: #699dd1;
      }
    </style>
    <linearGradient id="linear-gradient" x1="1" x2="0" y2="1" gradientUnits="objectBoundingBox">
      <stop offset="0" stop-color="#9299d8"/>
      <stop offset="1" stop-color="#7690ca"/>
    </linearGradient>
  </defs>
  <g id="Group_20079" data-name="Group 20079" transform="translate(-2130 -576)">
    <rect id="Rectangle_2659" data-name="Rectangle 2659" class="cls-1" width="340" height="402" rx="8" transform="translate(2130 576)"/>
    <text id="Structured_and_Customised_Financial_Product_offerings" data-name="Structured and 
Customised Financial 
Product offerings" class="cls-2" transform="translate(2163 871)"><tspan x="0" y="0">Structured and </tspan><tspan x="0" y="38">Customised Financial </tspan><tspan x="0" y="76">Product offerings</tspan></text>
    <g id="Group_4632" data-name="Group 4632" transform="translate(-6855.607 1413.129)">
      <path id="Path_14481" data-name="Path 14481" class="cls-3" d="M221,251.607a8.672,8.672,0,0,1-3.023-1c-2.6-1.5-2.6-3.935,0-5.437a10.41,10.41,0,0,1,9.417,0,4.019,4.019,0,0,1,1.728,1.746l17.993-10.388-38.284-22.1a12.873,12.873,0,0,0-11.648,0l-38.283,22.1,17.631,10.179a7.89,7.89,0,0,0-1.885.759c-2.6,1.5-2.6,3.936,0,5.437a10.4,10.4,0,0,0,9.417,0,4.687,4.687,0,0,0,1.315-1.089l17.631,10.179Z" transform="translate(8952.246 -917.368)"/>
      <path id="Path_14482" data-name="Path 14482" class="cls-3" d="M317.313,281.407l-38.284-22.1-17.994,10.388a4.007,4.007,0,0,0-1.727-1.745,10.407,10.407,0,0,0-9.417,0c-2.6,1.5-2.6,3.936,0,5.437a8.671,8.671,0,0,0,3.023,1l-17.994,10.388,18.523,10.695a3.45,3.45,0,0,1,1.93-2.475,10.411,10.411,0,0,1,9.417,0c2.6,1.5,2.6,3.936,0,5.437a9.4,9.4,0,0,1-4.285,1.115l18.523,10.695,38.283-22.1C320.53,286.274,320.53,283.264,317.313,281.407Z" transform="translate(8941.61 -923.84)"/>
      <path id="Path_14483" data-name="Path 14483" class="cls-3" d="M156.149,296.881a8.618,8.618,0,0,0-2.954-.988l17.967-10.373-17.631-10.179a4.7,4.7,0,0,1-1.315,1.089,10.411,10.411,0,0,1-9.417,0c-2.6-1.5-2.6-3.936,0-5.437a7.9,7.9,0,0,1,1.886-.759l-17.631-10.179-38.283,22.1c-3.217,1.857-3.217,4.867,0,6.724l38.284,22.1,17.967-10.374a4.061,4.061,0,0,0,1.711,1.706,10.411,10.411,0,0,0,9.417,0C158.75,300.816,158.75,298.382,156.149,296.881Z" transform="translate(8962.393 -923.945)"/>
      <path id="Path_14484" data-name="Path 14484" class="cls-3" d="M227.591,320.238a8.9,8.9,0,0,0,4.053-1.055c2.46-1.42,2.459-3.722,0-5.142a9.843,9.843,0,0,0-8.906,0,3.261,3.261,0,0,0-1.825,2.34l-17.52-10.115L186.4,316.077a8.175,8.175,0,0,1,2.795.934c2.46,1.42,2.46,3.723,0,5.143a9.843,9.843,0,0,1-8.906,0,3.839,3.839,0,0,1-1.618-1.614l-16.994,9.811,36.21,20.906a12.177,12.177,0,0,0,11.017,0l36.209-20.905Z" transform="translate(8951.857 -930.41)"/>
      <g id="Group_4613" data-name="Group 4613" transform="translate(9101.826 -742.078)">
        <path id="Path_14485" data-name="Path 14485" class="cls-4" d="M242.951,202.484l-34.408-19.865a15.593,15.593,0,0,0-14.108,0l-36.092,20.837-10.277-4.2V209.39l16.721,9.654v6.735c-.071,1.243.707,2.5,2.35,3.446a12.6,12.6,0,0,0,11.405,0,5.664,5.664,0,0,0,1.594-1.319l21.355,12.33,21.794-12.583h0v-9a12.459,12.459,0,0,1,7.744,1.208,4.866,4.866,0,0,1,2.093,2.114l21.794-12.583V199.259Z" transform="translate(-148.065 -170.8)"/>
        <path id="Path_14486" data-name="Path 14486" class="cls-5" d="M223.969,224.077l-.353.48.2.009-19.605,11.319-21.355-12.329a5.691,5.691,0,0,1-1.594,1.319,12.6,12.6,0,0,1-11.405,0,4.444,4.444,0,0,1-2.267-2.614c-.358,1.407.392,2.889,2.267,3.972a12.605,12.605,0,0,0,11.405,0,5.68,5.68,0,0,0,1.594-1.319l21.355,12.33L226,224.66V223.3Z" transform="translate(-150.784 -176.581)"/>
        <path id="Path_14487" data-name="Path 14487" class="cls-6" d="M223.284,215.872a10.523,10.523,0,0,1-3.662-1.208c-3.149-1.819-3.15-4.767,0-6.586a12.6,12.6,0,0,1,11.406,0,4.862,4.862,0,0,1,2.093,2.114l21.794-12.583-46.37-26.773a15.593,15.593,0,0,0-14.108,0l-46.369,26.772,21.355,12.329a9.589,9.589,0,0,0-2.284.92c-3.149,1.818-3.149,4.767,0,6.585a12.6,12.6,0,0,0,11.405,0,5.692,5.692,0,0,0,1.594-1.319l21.355,12.329Z" transform="translate(-148.065 -169.152)"/>
        <g id="Group_4612" data-name="Group 4612" transform="translate(0 28.459)">
          <path id="Path_14488" data-name="Path 14488" class="cls-5" d="M169.42,214.568l-21.355-12.329V203.6l19.9,11.491A10.531,10.531,0,0,1,169.42,214.568Z" transform="translate(-148.065 -202.239)"/>
          <path id="Path_14489" data-name="Path 14489" class="cls-5" d="M244.375,214.823a4.861,4.861,0,0,0-2.093-2.114,12.6,12.6,0,0,0-11.406,0c-1.875,1.083-2.624,2.565-2.267,3.972a4.447,4.447,0,0,1,2.267-2.614,12.607,12.607,0,0,1,11.406,0,4.863,4.863,0,0,1,2.093,2.115L266.168,203.6V202.24Z" transform="translate(-159.32 -202.239)"/>
        </g>
      </g>
      <g id="Group_4615" data-name="Group 4615" transform="translate(9167.577 -703.591)">
        <path id="Path_14490" data-name="Path 14490" class="cls-7" d="M319.446,249.646l-41.514-23.969L256.139,238.26a4.867,4.867,0,0,0-2.093-2.115,10.633,10.633,0,0,0-3.856-1.235,40.829,40.829,0,0,0-3.284-3.785c-.274-.078-6.624-1.914-6.624-1.914v10.172c-.025,1.21.759,2.425,2.358,3.348a10.505,10.505,0,0,0,3.662,1.208l-10.966,6.33-10.828-3.88v10.132l22.435,12.953a4.176,4.176,0,0,1,2.338-3,11.889,11.889,0,0,1,6.216-1.35v9.284l22.436,12.953,46.37-26.771c1.991-1.15,2.958-2.665,2.913-4.172l0,0v-9.931Z" transform="translate(-224.509 -215.546)"/>
        <path id="Path_14491" data-name="Path 14491" class="cls-8" d="M250.594,255.662v18a4.174,4.174,0,0,1,2.337-2.992,12.6,12.6,0,0,1,11.405,0,5.681,5.681,0,0,1,1.584,1.307,21.066,21.066,0,0,1,5.238-.916v-15.4Z" transform="translate(-228.158 -219.74)"/>
        <path id="Path_14492" data-name="Path 14492" class="cls-8" d="M286.595,225.677l-.161.093v61.5l.163.093,46.369-26.771c1.991-1.15,2.958-2.665,2.913-4.172l0,0v-9.931l-7.775,3.151Z" transform="translate(-233.172 -215.546)"/>
        <path id="Path_14493" data-name="Path 14493" class="cls-7" d="M260.538,273.492V270.56l2.539,1.466Z" transform="translate(-229.549 -221.824)"/>
        <path id="Path_14494" data-name="Path 14494" class="cls-5" d="M332.188,250.549a5.383,5.383,0,0,1-2.844,3.393l-46.37,26.772-19.556-11.291c-.022-.308-.112-.928-.112-.928l-2.768-.735v1.357l22.436,12.954,46.37-26.772C331.591,254,332.534,252.24,332.188,250.549Z" transform="translate(-229.549 -219.025)"/>
        <path id="Path_14495" data-name="Path 14495" class="cls-9" d="M324.3,240.67,277.932,213.9l-21.793,12.583a4.867,4.867,0,0,0-2.093-2.114,12.6,12.6,0,0,0-11.406,0c-3.15,1.819-3.15,4.767,0,6.586a10.505,10.505,0,0,0,3.662,1.208l-21.793,12.583,22.436,12.953a4.177,4.177,0,0,1,2.338-3,12.6,12.6,0,0,1,11.405,0c3.15,1.818,3.15,4.767,0,6.584a11.4,11.4,0,0,1-5.19,1.35l22.436,12.953,46.37-26.772C328.2,246.566,328.2,242.919,324.3,240.67Z" transform="translate(-224.509 -213.898)"/>
        <g id="Group_4614" data-name="Group 4614" transform="translate(0 14.44)">
          <path id="Path_14496" data-name="Path 14496" class="cls-5" d="M245.206,234.657a9.275,9.275,0,0,0,1.973.826l1.689-.975a10.506,10.506,0,0,1-3.662-1.208,4.447,4.447,0,0,1-2.267-2.614C242.582,232.092,243.331,233.575,245.206,234.657Z" transform="translate(-227.075 -230.686)"/>
          <path id="Path_14497" data-name="Path 14497" class="cls-5" d="M262.955,263.687c.358-1.406-.392-2.889-2.267-3.971a12.6,12.6,0,0,0-11.405,0,4.177,4.177,0,0,0-2.338,3l-22.436-12.953v1.358l22.436,12.953a4.174,4.174,0,0,1,2.338-3,12.605,12.605,0,0,1,11.405,0A4.444,4.444,0,0,1,262.955,263.687Z" transform="translate(-224.509 -233.354)"/>
        </g>
      </g>
      <g id="Group_4617" data-name="Group 4617" transform="translate(9040 -703.592)">
        <path id="Path_14498" data-name="Path 14498" class="cls-8" d="M178.9,256.521V246.389l-10.647,3.984-10.708-6.182a5.647,5.647,0,0,1-1.593,1.319,12.6,12.6,0,0,1-11.406,0c-3.077-1.776-3.139-4.628-.2-6.454l2.487,1.392V227.874h-7.706l-.764,5.242-12.885-7.439L84.458,249.358l-8.274-2.969V256.52h0c0,1.474.974,2.948,2.923,4.073l46.37,26.772L147.24,274.8a4.914,4.914,0,0,0,2.072,2.067,12.606,12.606,0,0,0,11.406,0c1.635-.944,2.413-2.192,2.351-3.429v-7.776Z" transform="translate(-76.184 -215.545)"/>
        <path id="Path_14499" data-name="Path 14499" class="cls-7" d="M125.475,225.676,84.458,249.358l-8.274-2.969V256.52h0c0,1.474.974,2.948,2.923,4.073l46.37,26.772V225.677Z" transform="translate(-76.184 -215.545)"/>
        <path id="Path_14500" data-name="Path 14500" class="cls-5" d="M155.729,228.278l-.266.686.064.061c-.083.041-.166.081-.244.126-1.875,1.082-2.625,2.565-2.267,3.971a4.447,4.447,0,0,1,2.267-2.614,9.6,9.6,0,0,1,2.284-.919v-1.358Z" transform="translate(-86.92 -215.902)"/>
        <path id="Path_14501" data-name="Path 14501" class="cls-10" d="M160.718,258.5a10.469,10.469,0,0,0-3.579-1.2L178.9,244.741l-21.355-12.329a5.675,5.675,0,0,1-1.593,1.319,12.607,12.607,0,0,1-11.406,0c-3.15-1.818-3.15-4.767,0-6.585a9.6,9.6,0,0,1,2.284-.92L125.475,213.9,79.106,240.668c-3.9,2.249-3.9,5.9,0,8.145l46.37,26.773,21.763-12.565a4.917,4.917,0,0,0,2.072,2.066,12.6,12.6,0,0,0,11.406,0C163.867,263.269,163.867,260.321,160.718,258.5Z" transform="translate(-76.184 -213.897)"/>
        <g id="Group_4616" data-name="Group 4616" transform="translate(0.008 30.844)">
          <path id="Path_14502" data-name="Path 14502" class="cls-5" d="M160.719,270.214a12.606,12.606,0,0,1-11.406,0,4.917,4.917,0,0,1-2.072-2.066l-21.763,12.565L79.108,253.94a5.385,5.385,0,0,1-2.845-3.393c-.346,1.691.6,3.453,2.845,4.751l46.37,26.773,21.763-12.564a4.918,4.918,0,0,0,2.072,2.066,12.607,12.607,0,0,0,11.406,0c1.875-1.082,2.624-2.565,2.267-3.971A4.445,4.445,0,0,1,160.719,270.214Z" transform="translate(-76.193 -249.868)"/>
          <path id="Path_14503" data-name="Path 14503" class="cls-5" d="M170.305,262.323a12.22,12.22,0,0,1,1.675.391l20.086-11.6v-1.358Z" transform="translate(-89.358 -249.758)"/>
        </g>
      </g>
      <g id="Group_4619" data-name="Group 4619" transform="translate(9101.828 -662.511)">
        <path id="Path_14504" data-name="Path 14504" class="cls-4" d="M244.5,298.268l-12.016-6.938a11.4,11.4,0,0,0,5.191-1.349,4.377,4.377,0,0,0,2.291-2.711l.069.046v-10.8l-10.162,3.951,2.337,1.577a11.767,11.767,0,0,0-5.941,1.357,4.174,4.174,0,0,0-2.338,3L201.49,273.439l-13.184,7.611-1.368-4.571-7.211-.608v11.262l2.2-.56a8.837,8.837,0,0,1,1.375.626c3.15,1.818,3.15,4.767,0,6.585a12.605,12.605,0,0,1-11.405,0,4.9,4.9,0,0,1-2.072-2.067l-12.046,6.955-9.717-4.522v10.131l46.37,26.773a15.593,15.593,0,0,0,14.108,0l46.369-26.772V294.152Z" transform="translate(-148.067 -263.307)"/>
        <path id="Path_14505" data-name="Path 14505" class="cls-5" d="M188.456,277.463a8.964,8.964,0,0,0-1.622-.7l-.2-.384-1.761-.108v1.358a10.437,10.437,0,0,1,3.579,1.2,4.441,4.441,0,0,1,2.267,2.614C191.081,280.028,190.331,278.546,188.456,277.463Z" transform="translate(-153.216 -263.703)"/>
        <path id="Path_14506" data-name="Path 14506" class="cls-6" d="M232.479,279.551a11.4,11.4,0,0,0,5.191-1.35c3.149-1.818,3.149-4.766,0-6.585a12.6,12.6,0,0,0-11.405,0,4.177,4.177,0,0,0-2.338,3L201.49,261.659l-21.763,12.565a10.457,10.457,0,0,1,3.579,1.2c3.15,1.818,3.15,4.767,0,6.585a12.6,12.6,0,0,1-11.405,0,4.908,4.908,0,0,1-2.072-2.066L148.067,292.5l46.37,26.772a15.593,15.593,0,0,0,14.108,0L254.915,292.5Z" transform="translate(-148.067 -261.659)"/>
        <g id="Group_4618" data-name="Group 4618" transform="translate(0 13.929)">
          <path id="Path_14507" data-name="Path 14507" class="cls-5" d="M253.665,277.853a4.441,4.441,0,0,1-2.266,2.613,11.4,11.4,0,0,1-5.191,1.35l1.975,1.14a10.185,10.185,0,0,0,3.216-1.132C253.274,280.742,254.023,279.259,253.665,277.853Z" transform="translate(-161.796 -277.853)"/>
          <path id="Path_14508" data-name="Path 14508" class="cls-5" d="M208.546,324.292a15.593,15.593,0,0,1-14.108,0l-46.37-26.772v1.358l46.37,26.772a15.593,15.593,0,0,0,14.108,0l46.369-26.771v-1.358Z" transform="translate(-148.067 -280.604)"/>
        </g>
      </g>
      <g id="Group_4624" data-name="Group 4624" transform="translate(9059.87 -808.105)">
        <ellipse id="Ellipse_1105" data-name="Ellipse 1105" class="cls-7" cx="21.372" cy="12.339" rx="21.372" ry="12.339" transform="translate(8.35 125.563)"/>
        <g id="Group_4623" data-name="Group 4623" transform="translate(0 0)">
          <path id="Path_14509" data-name="Path 14509" class="cls-4" d="M121.949,105.864s.465,9.593,1.2,16.039,16.255-4.952,16.255-4.952v-7.34Z" transform="translate(-102.456 -94.271)"/>
          <g id="Group_4621" data-name="Group 4621" transform="translate(8.179 1.611)">
            <path id="Path_14510" data-name="Path 14510" class="cls-8" d="M131.537,243.986c.233.583,4.256,5.48,8.279,6.7a9.24,9.24,0,0,0,3.7.51,1.218,1.218,0,0,0,.99-1.623,15.276,15.276,0,0,0-7.717-8.506C129.963,237.689,131.537,243.986,131.537,243.986Z" transform="translate(-111.954 -114.657)"/>
            <path id="Path_14511" data-name="Path 14511" class="cls-8" d="M129.089,246.809a33.271,33.271,0,0,1,1.983,6.53c.285,1.813-.711,4.169-1.531,5.731a1.673,1.673,0,0,1-2.608.452,9.672,9.672,0,0,1-3.265-6.241c-.467-5.014,0-5.888,0-5.888Z" transform="translate(-110.846 -115.599)"/>
            <path id="Path_14512" data-name="Path 14512" class="cls-9" d="M118.7,175.551a95.217,95.217,0,0,0,0,13.321c.525,7,2.4,39.713,2.752,47.584,0,0-.175,2.383,4.438,1.858s4.241-3.169,4.241-3.169,6.479-.088,6.683-3.907,6.635-45.6,6.635-60.622Z" transform="translate(-110.148 -104.94)"/>
            <g id="Group_4620" data-name="Group 4620" transform="translate(0 0)">
              <path id="Path_14513" data-name="Path 14513" class="cls-11" d="M149.849,138.333l3.174,4.916,10.911,13.179a2.446,2.446,0,0,1-1.733,1.543c-1.061.249-10.238-8.506-14.2-12.347a3.044,3.044,0,0,1-.418-3.867Z" transform="translate(-114.15 -100.424)"/>
              <path id="Path_14514" data-name="Path 14514" class="cls-10" d="M143.1,114.872s5.043-.131,6.8,7.157,3.128,16.411,1.6,17.17c-4.583,2.276-7.482-.388-7.482-.388Z" transform="translate(-113.594 -97.142)"/>
              <path id="Path_14515" data-name="Path 14515" class="cls-10" d="M140.536,115.181a4.13,4.13,0,0,0-2.721-.15c-4.3,1.234-20.447,5.974-23.109,8.249-3.075,2.629,4.613,17.4,4.5,22.243s-.657,10.553-1.085,15.818-1.007,8.151,3.3,10.389,11.659,2.342,17.163-1.852,4.505-7.063,4.276-10.108-2.1-16.212-1.94-19.949a14.139,14.139,0,0,0,3.376-3.879c1.436-2.45-1.1-6.953-2.155-9.881s.594-6.276.268-8.665A2.712,2.712,0,0,0,140.536,115.181Z" transform="translate(-109.52 -97.142)"/>
              <path id="Path_14516" data-name="Path 14516" class="cls-5" d="M130.5,126.657l1.835,2.1a1.249,1.249,0,0,1,.3,1l-1.6,11.208a1.225,1.225,0,0,0,.22.89l3.925,5.433a.368.368,0,0,0,.645-.094l2.4-6.913a1.229,1.229,0,0,0,0-.808L134.6,129.157a1.243,1.243,0,0,1-.036-.7l.643-2.692Z" transform="translate(-111.831 -98.666)"/>
              <path id="Path_14517" data-name="Path 14517" class="cls-5" d="M136.873,120.42c.341,2.66-2.1,5.165-5.451,5.6s-6.344-1.38-6.685-4.04,2.1-5.165,5.451-5.6S136.532,117.759,136.873,120.42Z" transform="translate(-111.021 -97.345)"/>
              <path id="Path_14518" data-name="Path 14518" class="cls-11" d="M135.425,120.868c.243,1.9-1.5,3.692-3.9,4s-4.535-.986-4.778-2.887,1.5-3.692,3.9-4S135.181,118.966,135.425,120.868Z" transform="translate(-111.303 -97.571)"/>
              <path id="Path_14519" data-name="Path 14519" class="cls-11" d="M133.334,113.839s-2.915-2.4-3.488-1.184-1.045,6.426-1.045,6.426l5.79,1.556-.879-5.281S134.872,114.374,133.334,113.839Z" transform="translate(-111.593 -96.784)"/>
              <circle id="Ellipse_1106" data-name="Ellipse 1106" class="cls-11" cx="8.645" cy="8.645" r="8.645" transform="matrix(0.954, -0.299, 0.299, 0.954, 11.327, 5.165)"/>
              <path id="Path_14520" data-name="Path 14520" class="cls-12" d="M129.522,114.4c-.051.273-.1.564-.147.863.581,3.008,5.082,4.324,5.082,4.324l-.665-4s.545-.462.391-.925C132.405,114.1,130.163,113.606,129.522,114.4Z" transform="translate(-111.674 -97.019)"/>
              <circle id="Ellipse_1107" data-name="Ellipse 1107" class="cls-11" cx="8.645" cy="8.645" r="8.645" transform="matrix(0.954, -0.299, 0.299, 0.954, 11.327, 5.165)"/>
              <path id="Path_14521" data-name="Path 14521" class="cls-11" d="M109.794,149.4l.968,23.135,3.382.349,2.2-20.826Z" transform="translate(-108.935 -101.973)"/>
              <path id="Path_14522" data-name="Path 14522" class="cls-7" d="M122.021,144.573c-.182-.806-1.663-1.468-1.89-2.518a94.539,94.539,0,0,1-1.441-13.336l-.944,10.855c1.09,3.219,2.026,6.175,1.988,7.887-.065,2.843-.281,5.986-.534,9.159v.01S123.141,149.513,122.021,144.573Z" transform="translate(-110.047 -99.08)"/>
              <path id="Path_14523" data-name="Path 14523" class="cls-10" d="M114.626,124.1s-2.7,1.034-4.235,9.341-2.675,16.629.053,17.7,5.009,1.878,5.812-.343,1.3-12.928,1.4-16.778S117.9,124.858,114.626,124.1Z" transform="translate(-108.795 -98.433)"/>
              <path id="Path_14524" data-name="Path 14524" class="cls-11" d="M165.093,158.212a7.27,7.27,0,0,1,2.524,1.691,16.479,16.479,0,0,1,1.724,2.315c.842,1.257,1.552,3.974,1.039,4.312s-3.452-4.548-3.925-3.411,0,2.186-.6,2.2-2.718-4.911-4.379-6.44S165.093,158.212,165.093,158.212Z" transform="translate(-116.119 -103.172)"/>
            </g>
            <path id="Path_14525" data-name="Path 14525" class="cls-7" d="M132.029,237.336a13.353,13.353,0,0,0,1.852-.192h0l1.268-50.858Z" transform="translate(-112.045 -107.132)"/>
          </g>
          <g id="Group_4622" data-name="Group 4622" transform="translate(0 71.34)">
            <path id="Path_14526" data-name="Path 14526" class="cls-7" d="M122.615,208.331l-1.8-2.35L101.89,195.025a2.634,2.634,0,0,1-1.1-2.1l.016-15.494-1.088-1.421,1.023-.592v0a.692.692,0,0,1,.742.042l21.448,12.418a2.63,2.63,0,0,1,1.1,2.1l-.018,16.875a.957.957,0,0,1-.4.9h0Z" transform="translate(-99.347 -175.329)"/>
            <path id="Path_14527" data-name="Path 14527" class="cls-7" d="M109.527,199.447l-1.344-.778-7.381-12.82.008-8.42-1.088-1.421,1.023-.592v0a.692.692,0,0,1,.742.042l21.448,12.418a2.213,2.213,0,0,1,.809.944Z" transform="translate(-99.347 -175.329)"/>
            <path id="Path_14528" data-name="Path 14528" class="cls-7" d="M100.2,176.638l-.483-.63,1.023-.592v0a.692.692,0,0,1,.742.042l.378.219Z" transform="translate(-99.347 -175.329)"/>
            <path id="Path_14529" data-name="Path 14529" class="cls-7" d="M126.578,190.078a2.749,2.749,0,0,1,.9,1.807l-2.1,1.209-1-1.744Z" transform="translate(-102.796 -177.392)"/>
            <path id="Path_14530" data-name="Path 14530" class="cls-9" d="M121.853,188.565l-21.448-12.417c-.607-.351-1.1.021-1.1.83l-.018,16.874a2.635,2.635,0,0,0,1.1,2.1l21.448,12.417c.607.352,1.1-.02,1.1-.83l.018-16.874A2.636,2.636,0,0,0,121.853,188.565Z" transform="translate(-99.286 -175.425)"/>
            <path id="Path_14531" data-name="Path 14531" class="cls-5" d="M122.269,188.339l-21.448-12.417a.643.643,0,0,0-.874.08.781.781,0,0,1,.55.114l21.448,12.417a2.636,2.636,0,0,1,1.1,2.1l-.018,16.874a1.143,1.143,0,0,1-.227.75c.327-.065.55-.4.55-.944l.018-16.875A2.636,2.636,0,0,0,122.269,188.339Z" transform="translate(-99.378 -175.393)"/>
          </g>
          <path id="Path_14532" data-name="Path 14532" class="cls-5" d="M120.234,203.154l-1.021-.59v-8.776l1.021.59Z" transform="translate(-102.073 -106.571)"/>
          <path id="Path_14533" data-name="Path 14533" class="cls-5" d="M117.459,201.552l-1.022-.59v-8.776l1.022.59Z" transform="translate(-101.685 -106.347)"/>
          <path id="Path_14534" data-name="Path 14534" class="cls-5" d="M114.684,199.95l-1.021-.59v-8.776l1.021.59Z" transform="translate(-101.297 -106.123)"/>
          <path id="Path_14535" data-name="Path 14535" class="cls-11" d="M110.824,175.615a52.456,52.456,0,0,0-.759,7.129c.134,1.73,1.061,4.583,1.763,4.522s.023-6.955,1.257-6.268,1.364,1.865,1.922,1.448-.975-6.309-.565-8.864S110.824,175.615,110.824,175.615Z" transform="translate(-100.792 -103.636)"/>
          <path id="Path_14536" data-name="Path 14536" class="cls-12" d="M137.406,106.995c4.337,1.54,5.181.6,5.223.55.04-.261.071-.526.087-.8a8.622,8.622,0,0,0-.288-2.762l-11.251-1.519A12.262,12.262,0,0,0,137.406,106.995Z" transform="translate(-103.747 -93.796)"/>
          <path id="Path_14537" data-name="Path 14537" class="cls-6" d="M141.734,96.727c-1.022-.876-4.71-5.208-11.316-4.186-4.129.639-7.61,3.456-8.383,9.882a14.773,14.773,0,0,0,4,11.747,3.536,3.536,0,0,0,.47-.237c1.655-1.089,1.834-1.688,1.833-1.694l.366-3.279a.916.916,0,0,0-.824-.909,1.651,1.651,0,0,1-1.211-.738,1.929,1.929,0,0,1,1.387-3.249,1.456,1.456,0,0,0,1.516-1.078.776.776,0,0,1,1.012-.527c2.16.781,7.48,2.466,10.9,1.5C145.865,102.713,142.757,97.6,141.734,96.727Z" transform="translate(-102.455 -92.386)"/>
          <path id="Path_14538" data-name="Path 14538" class="cls-5" d="M138.8,112.153l2.645-.726a6.384,6.384,0,0,1-3.106,2.493c-1.843.506-2.13-1.054-2.13-1.054Z" transform="translate(-104.452 -95.049)"/>
          <path id="Path_14539" data-name="Path 14539" class="cls-7" d="M115.811,183.611l-2.253-1.29.847,1.382,1.139.421Z" transform="translate(-101.282 -104.967)"/>
        </g>
        <path id="Path_14540" data-name="Path 14540" class="cls-5" d="M128.4,109.843a.9.9,0,1,1-.9-.9A.9.9,0,0,1,128.4,109.843Z" transform="translate(-103.108 -94.703)"/>
      </g>
      <g id="Group_4628" data-name="Group 4628" transform="translate(9190.646 -814)">
        <ellipse id="Ellipse_1108" data-name="Ellipse 1108" class="cls-13" cx="21" cy="12.125" rx="21" ry="12.125" transform="translate(9.038 128.761)"/>
        <g id="Group_4627" data-name="Group 4627" transform="translate(0 0)">
          <g id="Group_4626" data-name="Group 4626">
            <g id="Group_4625" data-name="Group 4625" transform="translate(1.923 6.962)">
              <path id="Path_14541" data-name="Path 14541" class="cls-8" d="M285.558,241.265c-.234.586-4.274,5.5-8.314,6.733a9.283,9.283,0,0,1-3.711.513,1.223,1.223,0,0,1-.994-1.63,15.347,15.347,0,0,1,7.751-8.544C287.139,234.941,285.558,241.265,285.558,241.265Z" transform="translate(-256.21 -113.729)"/>
              <path id="Path_14542" data-name="Path 14542" class="cls-8" d="M288.921,244.1a33.4,33.4,0,0,0-1.99,6.557c-.286,1.821.714,4.187,1.537,5.756a1.681,1.681,0,0,0,2.619.453,9.724,9.724,0,0,0,3.28-6.268c.468-5.036,0-5.914,0-5.914Z" transform="translate(-258.226 -114.676)"/>
              <path id="Path_14543" data-name="Path 14543" class="cls-9" d="M296.525,172.538a95.72,95.72,0,0,1,0,13.377c-.527,7.026-2.413,39.883-2.764,47.788,0,0,.176,2.393-4.457,1.866s-4.26-3.184-4.26-3.184-6.506-.088-6.711-3.923-6.664-45.795-6.664-60.88Z" transform="translate(-256.098 -103.972)"/>
              <path id="Path_14544" data-name="Path 14544" class="cls-7" d="M286.71,234.587a13.231,13.231,0,0,1-1.859-.193h0l-1.274-51.075Z" transform="translate(-257.764 -106.173)"/>
              <path id="Path_14545" data-name="Path 14545" class="cls-10" d="M289.27,118.911c10.511,4.357,10.3,10.57,10.3,10.57s-2.059,22.777-1.356,37.989c.294,6.359-33.786,6.845-28.7-10.121,5.992-20,3.747-36.2,6.551-38.64S286.551,117.784,289.27,118.911Z" transform="translate(-255.724 -96.952)"/>
              <path id="Path_14546" data-name="Path 14546" class="cls-11" d="M294.776,124.675c-.55,2.134-3.345,3.259-6.244,2.512s-4.8-3.083-4.254-5.217,3.345-3.258,6.244-2.512S295.326,122.541,294.776,124.675Z" transform="translate(-257.849 -97.208)"/>
              <path id="Path_14547" data-name="Path 14547" class="cls-5" d="M290.217,127.972a7.876,7.876,0,0,1-1.958-.253,7.154,7.154,0,0,1-3.767-2.31,3.956,3.956,0,0,1,1.673-6.494,7.524,7.524,0,0,1,8.182,2.108,3.956,3.956,0,0,1-1.673,6.494A6.6,6.6,0,0,1,290.217,127.972Zm-1.6-8.192a5.269,5.269,0,0,0-1.961.36,2.647,2.647,0,0,0-1.142,4.435,6.214,6.214,0,0,0,6.666,1.717,2.646,2.646,0,0,0,1.142-4.434,5.819,5.819,0,0,0-3.073-1.866A6.528,6.528,0,0,0,288.618,119.78Z" transform="translate(-257.741 -97.1)"/>
              <path id="Path_14548" data-name="Path 14548" class="cls-11" d="M287.654,118.264a26.028,26.028,0,0,1-.091,3.753c-.058,1.047,3.609,2.025,4.556,1.077s.569-1.933.8-5.5S287.654,118.264,287.654,118.264Z" transform="translate(-258.322 -96.78)"/>
              <path id="Path_14549" data-name="Path 14549" class="cls-12" d="M292.915,117.83s-.9,3.3-5.353,4.571l.067-3Z" transform="translate(-258.322 -97.012)"/>
              <path id="Path_14550" data-name="Path 14550" class="cls-11" d="M294.474,107.083a8.09,8.09,0,1,1-9.858-5.807A8.091,8.091,0,0,1,294.474,107.083Z" transform="translate(-257.061 -94.66)"/>
              <path id="Path_14551" data-name="Path 14551" class="cls-12" d="M288.49,110.451s-4.455,1.909-7.539,1.93-2.4-2.561-2.4-2.561L287.7,108.5Z" transform="translate(-257.052 -95.706)"/>
              <path id="Path_14552" data-name="Path 14552" class="cls-6" d="M279.46,109.362s3.88-1.647,7.284-.961a3.571,3.571,0,0,1,2.057,1.223,1.211,1.211,0,0,0,.622.45c.6.137,1.592-2.367,2.765-2.425s1.956.774.994,2.314-.637,3.264-.194,3.511,5.137-3.348,1-11.552-14.661-3.785-16.3-2.123c0,0-1.725,1.5-3.126.165C274.563,99.964,272.991,111.734,279.46,109.362Z" transform="translate(-256.48 -94.114)"/>
              <path id="Path_14553" data-name="Path 14553" class="cls-11" d="M268.762,113.72l-5.652-2.436a2.509,2.509,0,0,1-1.378-1.485l-5.58-16.173-2.586.449,4.511,20.127a3.394,3.394,0,0,0,1.65,2.217l9.41,5.285Z" transform="translate(-253.566 -93.626)"/>
            </g>
            <path id="Path_14554" data-name="Path 14554" class="cls-11" d="M339.314,119.05l1.3-.594a10.46,10.46,0,0,0,2.977-2.057l.9-.891a1.749,1.749,0,0,0,.383-1.924h0a.964.964,0,0,0-1.323-.486l-2.708,1.368s.424-1.2.22-1.511-2.3,2-3.269,3.643S339.314,119.05,339.314,119.05Z" transform="translate(-263.394 -89.364)"/>
            <path id="Path_14555" data-name="Path 14555" class="cls-11" d="M313.374,126.117l4.834-.54a8.523,8.523,0,0,0,3.25-1.053l12.95-7.329,1.522,2.452L322.689,129.87a6.121,6.121,0,0,1-1.331.781l-7.9,3.376Z" transform="translate(-260.009 -89.961)"/>
            <path id="Path_14556" data-name="Path 14556" class="cls-11" d="M253.253,92.943l-.494-.569a4.553,4.553,0,0,1-1.062-2.318l-.345-2.358a2.019,2.019,0,0,1,.776-1.921l.065-.047a1.221,1.221,0,0,1,1.791.584l1.163,2.81s-.367-1.455.1-1.616c.344-.118,1,1.688.611,2.692a4.248,4.248,0,0,0-.021,2.294Z" transform="translate(-251.33 -85.532)"/>
            <path id="Path_14557" data-name="Path 14557" class="cls-5" d="M283.885,116.808l-2.088-.574a5.039,5.039,0,0,0,2.453,1.969c1.455.4,1.682-.833,1.682-.833Z" transform="translate(-255.592 -89.827)"/>
          </g>
        </g>
        <path id="Path_14558" data-name="Path 14558" class="cls-10" d="M277.946,117.115s-9.441-1.866-12.324-2.741-4.087,7.043-3.868,9.049,10.036,4.247,11.2,7.689S277.946,117.115,277.946,117.115Z" transform="translate(-252.785 -89.557)"/>
        <path id="Path_14559" data-name="Path 14559" class="cls-10" d="M297.366,121.612s6.9,2.961,18.447,4.4a1.241,1.241,0,0,1,1.027.816,13.651,13.651,0,0,1,.612,6.941,2.549,2.549,0,0,1-2.525,2.007c-3.614-.026-11.394.322-12.657,3.7C300.616,143.908,297.366,121.612,297.366,121.612Z" transform="translate(-257.77 -90.579)"/>
        <path id="Path_14560" data-name="Path 14560" class="cls-5" d="M291.322,128.684l-1.892,2.054a1.246,1.246,0,0,0-.321.987l1.3,11.247a1.227,1.227,0,0,1-.243.885l-4.071,5.325a.368.368,0,0,1-.642-.112l-2.216-6.975a1.222,1.222,0,0,1,.023-.808l3.9-10.216a1.235,1.235,0,0,0,.055-.7l-.57-2.708Z" transform="translate(-255.786 -91.425)"/>
      </g>
      <path id="Path_14561" data-name="Path 14561" class="cls-7" d="M313.921,134.969c-2.065.24-7.134.677-11.032,1a3.586,3.586,0,0,0-3.153,4.51c2.078,7.979-.673,20.806-.177,25.148.594,5.2-2.554,7.2-2.571,7.215,3.109-.672,5.216-1.9,5.142-3.5a291.641,291.641,0,0,1,.714-29.553c2.27-2.478,8.854-2.752,12.069-2.727a2.539,2.539,0,0,0,2.5-2.071,12.055,12.055,0,0,0,.036-4.2C317.448,130.868,317.447,134.56,313.921,134.969Z" transform="translate(8932.928 -905.863)"/>
      <g id="Group_4631" data-name="Group 4631" transform="translate(9133.175 -783.935)">
        <ellipse id="Ellipse_1109" data-name="Ellipse 1109" class="cls-4" cx="24.858" cy="14.352" rx="24.858" ry="14.352" transform="translate(0 139.048)"/>
        <g id="Group_4630" data-name="Group 4630" transform="translate(6.936 15.955)">
          <path id="Path_14562" data-name="Path 14562" class="cls-8" d="M195.268,289.1a4.746,4.746,0,0,0-2.678,4.744,7.974,7.974,0,0,0,.39,2.32c.55,1.157,2.357,2.745,5.239,1.6s9.285-7.154,9.525-11.091C208.191,279.364,199.828,287.151,195.268,289.1Z" transform="translate(-192.578 -159.26)"/>
          <path id="Path_14563" data-name="Path 14563" class="cls-8" d="M215.324,303.15s-.692,4.217-.356,4.989,2.342,2.423,5.306,2.066,11.491-3.3,13.39-8.917c2.943-8.712-16.46.654-16.46.654Z" transform="translate(-195.697 -161.214)"/>
          <path id="Path_14564" data-name="Path 14564" class="cls-9" d="M220.537,225.05l.66,65.827a4.61,4.61,0,0,1-3.586,4.563c-.249.042-.516.077-.8.1a4.1,4.1,0,0,1-3.91-1.618,4.829,4.829,0,0,1-.881-2.658l-.84-28.1-4.195-25.125-5.8,44.468a3.844,3.844,0,0,1-1.6,2.928,4.447,4.447,0,0,1-2.647.718,4.866,4.866,0,0,1-3.519-1.733,3.53,3.53,0,0,1-.84-2.381l2.3-26.755.856-34.127Z" transform="translate(-192.578 -150.524)"/>
          <path id="Path_14565" data-name="Path 14565" class="cls-11" d="M215,157.177l-1.041,6a2.749,2.749,0,0,0,2.247,2.614c2.284.567,2.991-.908,2.991-.908l1.033-6.755Z" transform="translate(-195.569 -141.574)"/>
          <path id="Path_14566" data-name="Path 14566" class="cls-11" d="M227.04,151.354c-1.622,5.139-6.643,8.121-11.212,6.662s-6.961-6.809-5.339-11.947,6.643-8.121,11.212-6.662S228.663,146.215,227.04,151.354Z" transform="translate(-195.012 -139.036)"/>
          <path id="Path_14567" data-name="Path 14567" class="cls-10" d="M212.752,163.838c-.158-.064-9.7-6.2-13.22.221-5.748,10.478-1.544,22.492-3.6,48.576-.343,4.365,5.875,7.025,8.814,8.7a17.605,17.605,0,0,0,8.554,2.433c2.98.024,8.695-2.626,8.488-6.521-.954-17.918.63-33.021,2.094-47.677C223.885,169.573,222.056,167.6,212.752,163.838Z" transform="translate(-193.046 -142.127)"/>
          <path id="Path_14568" data-name="Path 14568" class="cls-7" d="M208.042,240.786l-5.8,44.468a3.841,3.841,0,0,1-1.595,2.928,4.258,4.258,0,0,1-.5.28c1.205-.9,4.723-38.228,5.374-42.38S208.042,240.786,208.042,240.786Z" transform="translate(-193.637 -153.27)"/>
        </g>
        <path id="Path_14569" data-name="Path 14569" class="cls-11" d="M250.986,167.755l7.984-15.848-2.5-1.582L248.19,162.4Z" transform="translate(-193.421 -124.661)"/>
        <path id="Path_14570" data-name="Path 14570" class="cls-11" d="M190.212,148.151l3.884-17.67,3.093.034-1.162,14.654Z" transform="translate(-185.311 -121.885)"/>
        <path id="Path_14571" data-name="Path 14571" class="cls-10" d="M227.509,169.849s8.93,3.522,16.6-6.157a1.471,1.471,0,0,1,2.464.162c.691,1.586,1.555,3.982.507,6.232-4.638,9.952-20.46,9.607-24.272,15.186S227.509,169.849,227.509,169.849Z" transform="translate(-189.734 -126.449)"/>
        <path id="Path_14572" data-name="Path 14572" class="cls-10" d="M205.872,159.529s-7.373.567-8.434-5.815a48.587,48.587,0,0,1-.741-6.379,1.287,1.287,0,0,0-1.446-1.251c-1.766.219-4.5.746-4.871,1.929-.554,1.768-1.595,10.434,5.688,23.731C200.839,180.456,205.872,159.529,205.872,159.529Z" transform="translate(-185.279 -124.066)"/>
        <path id="Path_14573" data-name="Path 14573" class="cls-11" d="M194.709,129.127l.071-2.014a4.154,4.154,0,0,1,.6-2.013l2.043-3.354.532-.672a1.552,1.552,0,0,1,2.041-.348l.47.3a1.927,1.927,0,0,1,.9,1.756l-1.056,2.868,1.336-.26a.474.474,0,0,1,.556.382h0a.474.474,0,0,1-.289.524l-2.182.881-1.981,2.8Z" transform="translate(-185.94 -120.487)"/>
        <path id="Path_14574" data-name="Path 14574" class="cls-11" d="M259.985,150.669l.934-1.786a4.144,4.144,0,0,0,.47-2.047l-.117-3.926-.132-.846a1.551,1.551,0,0,0-1.6-1.312l-.555.024a1.932,1.932,0,0,0-1.649,1.084l-.5,3.015-1.034-.885a.474.474,0,0,0-.673.057h0a.473.473,0,0,0-.007.6l1.461,1.843.378,3.841Z" transform="translate(-194.377 -123.321)"/>
        <path id="Path_14575" data-name="Path 14575" class="cls-7" d="M221.451,185.267c-.776,3.539,3.9,30.236-1.3,40,2.6-1.053,5.17-3.114,5.03-5.75a243.9,243.9,0,0,1,.876-34.985c4.446-2.253,11.393-3.6,16.307-7.194C237.1,179.28,222.144,182.108,221.451,185.267Z" transform="translate(-189.499 -128.44)"/>
        <path id="Path_14576" data-name="Path 14576" class="cls-5" d="M211.5,162.088l1.325-1.361s2.178,2.226,3.928,2.611a20.422,20.422,0,0,0,3.135.649l.852,2.351S213.806,165.84,211.5,162.088Z" transform="translate(-188.289 -126.116)"/>
        <path id="Path_14577" data-name="Path 14577" class="cls-8" d="M220.548,151.19a1.122,1.122,0,0,0,.913-.473c.362-.525.133-2.934,1.248-3.332,1.744-.622,5.881,1.56,6.324-4.731.23-3.27-1.362-4.139-1.355-5.93,0,0,.138.9-8.276.339s-11.149,6.913-11.348,10.471,1.523,9.41,7.274,10.213c.953.133,4.958-3.087,4.854-3.509s-1.615-.4-1.4-1.628A1.582,1.582,0,0,1,220.548,151.19Z" transform="translate(-187.805 -122.758)"/>
      </g>
    </g>
  </g>
</svg>
