<svg xmlns="http://www.w3.org/2000/svg" width="110" height="53.002" viewBox="0 0 110 53.002">
    <defs>
        <style>
            .cls-3{fill:#ec2023}
        </style>
    </defs>
    <g id="Group_733" data-name="Group 733" transform="translate(-283.762 -1516.58)">
        <path id="Path_3852" fill="#25b99b" d="M332.825 1545.786l1.258-4.388c.7-2.445 1.394-4.894 2.113-7.335a2.337 2.337 0 0 1 2.65-1.982c.869-.016 1.74.036 2.607-.014.777-.044.777.265.569.871-1.033 3.005-2.032 6.024-3.051 9.035-1.61 4.763-3.212 9.53-4.842 14.286-1.1 3.2-2.61 4.279-5.989 4.338-.7.011-1.391-.022-2.086 0-.572.016-.762-.262-.749-.793.025-.984.049-1.97.029-2.955-.011-.5.169-.678.654-.636.346.028.7.011 1.043 0 2.443-.047 3.54-1.56 2.751-3.882-1.477-4.352-2.991-8.691-4.5-13.033-.749-2.155-1.514-4.3-2.272-6.455-.179-.506-.156-.8.534-.779 1.447.043 2.9.035 4.347 0a.847.847 0 0 1 .975.733q1.735 6.184 3.51 12.355a6.6 6.6 0 0 0 .246.627z" data-name="Path 3852" transform="translate(22.717 8.982)"/>
        <path id="Path_3853" fill="#f06029" d="M318.617 1538.575c-.376 0-.755-.029-1.13 0a2.2 2.2 0 0 1-2.312-1.019 3.612 3.612 0 0 0-6.09 1.344 10.909 10.909 0 0 0 .081 7.4 3.725 3.725 0 0 0 5.9 1.489c1.835-1.85 3.943-1.248 6.008-1.372.454-.028.374.291.289.607a8.06 8.06 0 0 1-7.955 6.153 12.086 12.086 0 0 1-5.093-.852 7.759 7.759 0 0 1-4.456-5.437 17.041 17.041 0 0 1-.087-8.593 7.62 7.62 0 0 1 6.344-6.12c2.8-.518 5.592-.513 8.128 1.106a7.546 7.546 0 0 1 3.16 4.8c.107.419-.081.5-.442.5-.779-.014-1.562-.006-2.345-.006z" data-name="Path 3853" transform="translate(11.316 8.874)"/>
        <path id="Path_3854" d="M286.208 1548.817l1.852-5.189q2.892-8.13 5.78-16.26a2.878 2.878 0 0 1 2.84-2.13c1.62-.041 3.243 0 4.864-.033a.739.739 0 0 1 .814.586q1.505 4.25 3.042 8.49a.87.87 0 0 1-.2.947 48.79 48.79 0 0 1-3.775 3.936c-.4.376-.529.229-.673-.221-.665-2.094-1.359-4.178-2.045-6.264-.077-.235-.161-.469-.326-.947-.5 1.535-.94 2.84-1.362 4.148q-1.292 4-2.563 8.01a2.116 2.116 0 0 1-.958 1.267 70.02 70.02 0 0 1-6.561 3.522.831.831 0 0 1-.729.138z" class="cls-3" data-name="Path 3854" transform="translate(1.419 5.003)"/>
        <path id="Path_3855" fill="#ec4d32" d="M312.673 1534.089a37.93 37.93 0 0 1-6.259 10.458 62.835 62.835 0 0 1-14.19 12.24 58.113 58.113 0 0 1-5.926 3.426 2.118 2.118 0 0 1-.8.245c.64-1.406.477-3.066 2.309-4.007a61.406 61.406 0 0 0 17.121-12.694 34.267 34.267 0 0 0 8.3-14.34 28.585 28.585 0 0 0 .926-6.687.8.8 0 0 0-.232-.78l-1.8 2.173-.2-.071 1.6-7.425.2-.044 2.945 7.237-.163.122-2.016-2.156a11.866 11.866 0 0 0 .3 2.8 27.771 27.771 0 0 1-2 14.024 44.181 44.181 0 0 1-11.077 15.456 67.4 67.4 0 0 1-17.278 12.043c-.152.073-.31.133-.683.292.4-1.307.722-2.448 1.122-3.558.076-.213.45-.337.7-.466a69.886 69.886 0 0 0 17.573-12.547 41.056 41.056 0 0 0 8.658-12.044c.476-1.04.749-2.147 1.157-3.209.362-2.079 1.1-4.079 1.272-5.96a27.456 27.456 0 0 1-.752 3.59 5.613 5.613 0 0 1-.807 1.882z" data-name="Path 3855"/>
        <path id="Path_3856" fill="#942683" d="M316.491 1540.045c0-3.622.016-7.244-.013-10.864 0-.637.15-.9.82-.838.719.067 1.454-.013 2.166.085a2.519 2.519 0 0 1 2.2 2.506c.025.868.028 1.738 0 2.606-.017.505.106.762.67.7a11.143 11.143 0 0 1 1.215-.006c1.343 0 1.343 0 1.22 1.353a2.4 2.4 0 0 1-2.448 2.323c-.556.017-.662.194-.659.7.021 3.448.006 6.9.013 10.342 0 1.24.365 1.6 1.6 1.62 1.5.027 1.5.027 1.5 1.509 0 .637-.014 1.275 0 1.912.011.379-.081.575-.518.593a27.851 27.851 0 0 1-5.284-.155 2.593 2.593 0 0 1-2.326-2.238 9.023 9.023 0 0 1-.155-1.726c-.009-3.467-.001-6.945-.001-10.422z" data-name="Path 3856" transform="translate(18.981 6.82)"/>
        <path id="Path_3857" fill="#b2d234" d="M343.246 1545.355a16.925 16.925 0 0 0 1.484-4c.82-2.46 1.55-4.953 2.35-7.421a2.515 2.515 0 0 1 2.767-1.978c3.53 0 7.06 0 10.641.2-1.078.378-2.152.77-3.236 1.128-1.2.4-2.411.776-3.623 1.146a.889.889 0 0 0-.6.66c-.887 2.525-1.792 5.044-2.691 7.566-1.117 3.138-2.245 6.272-3.341 9.418a.893.893 0 0 1-.994.72c-1.389-.032-2.781-.011-4.17-.016-.2 0-.412.046-.563-.146a.866.866 0 0 1-.063-.9c.679-2.075 1.334-4.157 1.915-6.262.016-.05.078-.083.124-.115z" data-name="Path 3857" transform="translate(33.275 8.918)"/>
        <path id="Path_3858" fill="#3f7b3b" d="M345.922 1545.286a9.839 9.839 0 0 1-.746 3.061c-.373 1.416-.981 2.764-1.228 4.216-.428.106-.452-.223-.547-.495q-3-8.559-6.008-17.113c-.269-.763-.533-1.53-.809-2.29-.131-.356-.174-.6.352-.594 1.564.019 3.129.012 4.693 0a.544.544 0 0 1 .6.479c1.087 3.81 2.2 7.613 3.274 11.428.126.445.252.881.419 1.308z" data-name="Path 3858" transform="translate(30.598 8.987)"/>
        <path id="Path_3859" d="M301.578 1535.494l3.617 10.111c.547 1.524 1.087 3.05 1.65 4.568.186.5.141.74-.485.73q-2.735-.04-5.474 0a.777.777 0 0 1-.875-.625c-.883-2.751-1.784-5.5-2.678-8.247-.079-.243-.22-.48-.008-.733a63.784 63.784 0 0 0 4.253-5.804z" class="cls-3" data-name="Path 3859" transform="translate(7.804 10.974)"/>
        <path id="Path_3860" fill="#fad7ca" d="M302.058 1529.845a53.962 53.962 0 0 0 1.634-5.951 18.717 18.717 0 0 1-1.332 6.439c-.141-.133.291-.633-.302-.488z" data-name="Path 3860" transform="translate(10.615 4.244)"/>
    </g>
</svg>
