<svg xmlns="http://www.w3.org/2000/svg" width="899.244" height="241.095" viewBox="0 0 899.244 241.095">
    <g id="Group_1015" fill="none" stroke="#000" stroke-dasharray="0 2.574" stroke-linecap="round" stroke-linejoin="round" data-name="Group 1015" transform="translate(-339.073 13.908)">
        <path id="Path_4473" stroke-width="1.417px" d="M356.979 25.872C476.82 55.316 475.486 6.528 502.9 4.522 559.187.4 503.425 51.4 528.986 96.5c33.676 59.414 121.431 78.167 161.691 76.874 27.722-.891 40.492-14.407 48.315-30.044 27.487-54.938 90.984 13.2 111.29 40.726 43.867 59.462 97.028-30.864 112.312-59.925 45.308-86.15 71.411-46.909 99.036-45.477 61.38 3.182-3.524-19.192-30.2-31.575-67.144-31.164 3.376-88.488 79.623-43.929 30.125 17.606 48.047 50.794 124.924 27.457" data-name="Path 4473" opacity="0.38" transform="translate(1.457)"/>
        <path id="Path_4474" stroke-width="1.382px" d="M1235.464 33.33c-75.5 22.8-93.389-9.325-122.945-26.48-46.178-26.837-90.081-16.149-101.778 2.932-7.212 11.766-1.958 26.936 22.626 38.482 25.5 12.057 88.088 33.792 28.291 31.4-27.083-1.083-51.994-38.059-97.081 45.466-7.553 13.992-24.328 40.325-42.259 57.123-21.1 19.77-46.3 28.992-68.93-3.059-7.773-11.012-21.519-27.224-37.252-39.243-26.09-19.933-57.029-31.169-74.461 1.57-7.953 14.935-21.121 27.572-48.8 27.559-12.588-.005-29.528-1.889-47.674-6.044-30.274-6.932-61.718-17.91-85.068-36.418-10.415-8.294-19.891-18.107-27.058-29.929-25.76-42.484 27.046-91.445-29.6-87.636-7.928.531-13.424 4.981-20.366 9.868-18.279 12.868-41.367 33.213-126.685 12.915" data-name="Path 4474" opacity="0.399" transform="translate(1.412 .322)"/>
        <path id="Path_4475" stroke-width="1.346px" d="M1234.951 36.054c-74.113 22.256-91.978-8.8-120.964-25.5-45.176-26.1-87.989-16.174-99.852 1.884-7.319 11.14-2.374 25.738 21.17 37.016 24.352 11.664 84.591 32.833 26.38 31.227-26.544-.731-50.357-35.486-95.126 45.456-7.953 14.379-26.022 39.969-42.977 54.793-20.733 18.127-45.125 25.852-67.088-6.591-7.909-11.682-21.647-27.993-37.484-38.908-26.213-18.066-56.934-26.917-74.653 4.286-8.083 14.233-21.661 25.971-49.291 25.077-12.837-.415-29.891-2.708-47.837-7.029-31.826-7.662-62.26-17.262-83.9-33.688-9.734-7.389-19.021-16.21-26.179-27.193-25.96-39.838 23.891-86.793-33.113-83.3-7.99.487-13.523 4.937-20.693 9.41-20.062 12.516-42.3 34.4-127.481 14.8" data-name="Path 4475" opacity="0.419" transform="translate(1.366 .643)"/>
        <path id="Path_4476" stroke-width="1.311px" d="M1234.44 38.78c-72.732 21.716-90.568-8.274-118.984-24.525-44.173-25.364-85.891-16.207-97.927.836-7.422 10.508-2.8 24.571 19.715 35.548 23.191 11.306 81.086 31.882 24.469 31.055-26.009-.381-48.808-32.952-93.172 45.445-8.357 14.768-27.686 39.571-43.695 52.463-20.382 16.414-43.911 22.678-65.245-10.122-8.039-12.36-21.76-28.755-37.718-38.572-26.312-16.189-56.837-22.669-74.843 7-8.21 13.529-22.212 24.344-49.779 22.594-13.093-.831-30.251-3.545-48-8.012-33.379-8.4-62.781-16.636-82.721-30.958-9.044-6.5-18.148-14.3-25.3-24.458-26.159-37.155 20.736-82.141-36.629-78.954-8.051.443-13.659 4.868-21.02 8.952-21.931 12.165-43.239 35.593-128.278 16.694" data-name="Path 4476" opacity="0.438" transform="translate(1.32 .964)"/>
        <path id="Path_4477" stroke-width="1.276px" d="M1233.928 41.506c-71.35 21.176-89.158-7.748-117-23.548-43.17-24.627-83.785-16.248-96-.212-7.521 9.872-3.23 23.4 18.259 34.082 22.03 10.947 77.577 30.937 22.558 30.881-25.479-.026-47.341-30.454-91.216 45.436-8.763 15.158-29.31 39.122-44.413 50.134-20.046 14.616-42.667 19.476-63.4-13.653-8.165-13.046-21.855-29.514-37.949-38.239-26.386-14.307-56.737-18.425-75.036 9.72-8.336 12.823-22.769 22.695-50.266 20.111a316.49 316.49 0 0 1-48.162-9c-34.933-9.157-63.3-16-81.549-28.228-8.354-5.6-17.268-12.381-24.418-21.722-26.354-34.432 17.58-77.491-40.146-74.614-8.113.4-13.821 4.774-21.346 8.494-23.87 11.8-44.176 36.785-129.076 18.584" data-name="Path 4477" opacity="0.458" transform="translate(1.275 1.284)"/>
        <path id="Path_4478" stroke-width="1.24px" d="M1233.415 44.233c-69.969 20.635-87.748-7.223-115.023-22.571-42.167-23.89-81.673-16.3-94.076-1.259-7.615 9.233-3.656 22.235 16.8 32.614 20.871 10.588 74.062 30 20.648 30.709-24.952.329-45.945-27.991-89.261 45.425-9.175 15.551-30.871 38.609-45.132 47.8-19.711 12.71-41.394 16.249-61.561-17.185-8.287-13.737-21.933-30.267-38.182-37.9C801.2 109.44 771 107.678 752.4 134.3c-8.459 12.114-23.333 21.023-50.754 17.627a365.288 365.288 0 0 1-48.326-9.981c-36.487-9.922-63.825-15.359-80.374-25.5-7.665-4.695-16.381-10.445-23.539-18.988-26.534-31.665 14.426-72.838-43.66-70.272-8.176.354-14.007 4.655-21.674 8.035C458.208 46.633 438.964 73.2 354.2 55.7" data-name="Path 4478" opacity="0.477" transform="translate(1.229 1.602)"/>
        <path id="Path_4479" stroke-width="1.205px" d="M1232.9 46.961c-68.588 20.1-86.338-6.7-113.043-21.594-41.165-23.154-79.55-16.354-92.151-2.307-7.705 8.589-4.081 21.065 15.348 31.146 19.714 10.227 70.54 29.077 18.737 30.535-24.427.687-44.616-25.56-87.305 45.415-9.59 15.943-31.247 40.491-45.85 45.474-17.2 13.894-40.095 13-59.72-20.716-8.4-14.436-21.989-31.019-38.414-37.569-26.447-10.547-56.522-9.954-75.418 15.154-8.582 11.4-23.9 19.331-51.242 15.145a430.094 430.094 0 0 1-48.488-10.965c-38.041-10.7-64.344-14.7-79.2-22.767-6.976-3.786-15.481-8.492-22.659-16.251-26.689-28.85 11.271-68.188-47.175-65.931-8.236.309-14.21 4.515-22 7.577-27.92 10.975-46.051 39.166-130.671 22.364" data-name="Path 4479" opacity="0.496" transform="translate(1.184 1.92)"/>
        <path id="Path_4480" stroke-width="1.169px" d="M1232.391 49.688c-67.205 19.556-84.958-6.117-111.063-20.617-40.208-22.333-77.415-16.42-90.225-3.355-7.787 7.943-4.505 19.9 13.892 29.679 18.556 9.868 67.011 28.163 16.826 30.363-23.91 1.047-43.347-23.161-85.351 45.4-10.007 16.337-32.684 40.465-46.567 43.144-16.486 12.65-38.772 9.737-57.878-24.247-8.511-15.14-22.025-31.775-38.646-37.234-26.43-8.68-56.406-5.725-75.609 17.871-8.7 10.692-24.473 17.617-51.73 12.661-14.151-2.572-31.672-7.022-48.65-11.949-39.595-11.487-64.858-14.03-78.029-20.036-6.284-2.867-14.565-6.524-21.779-13.517-26.806-25.985 8.118-63.532-50.692-61.586-8.3.265-14.426 4.354-22.327 7.119-30.009 10.5-46.988 40.358-131.469 24.255" data-name="Path 4480" opacity="0.516" transform="translate(1.138 2.239)"/>
        <path id="Path_4481" stroke-width="1.134px" d="M1231.879 52.418c-65.824 19.015-83.551-5.584-109.083-19.64-39.211-21.585-75.267-16.493-88.3-4.4-7.862 7.294-4.929 18.723 12.436 28.212 17.4 9.508 63.475 27.26 14.915 30.189-23.4 1.411-42.134-20.788-83.4 45.395-10.43 16.729-34.123 40.439-47.286 40.814-15.772 11.406-37.429 6.456-56.035-27.779-8.615-15.849-22.041-32.539-38.88-36.9-26.38-6.831-56.282-1.5-75.8 20.589-8.816 9.977-25.045 15.883-52.217 10.178-14.422-3.029-32.023-7.918-48.815-12.932-41.145-12.289-65.354-13.328-76.855-17.307-5.589-1.933-13.629-4.535-20.9-10.78C534.8 74.97 566.627 39.169 507.46 40.8c-8.361.221-14.653 4.176-22.654 6.661-32.13 9.98-47.925 41.549-132.267 26.145" data-name="Path 4481" opacity="0.535" transform="translate(1.093 2.555)"/>
        <path id="Path_4482" stroke-width="1.098px" d="M1231.367 55.15c-64.443 18.475-82.145-5.052-107.1-18.663-38.213-20.839-73.1-16.572-86.373-5.451-7.927 6.644-5.348 17.552 10.981 26.745 16.248 9.148 59.933 26.37 13 30.017-22.887 1.778-40.972-18.443-81.44 45.384-10.856 17.122-35.561 40.413-48 38.485-15.057 10.162-36.064 3.162-54.194-31.31-8.71-16.564-22.037-33.315-39.111-36.565-26.3-5.008-56.149 2.718-75.991 23.3-8.928 9.263-25.617 14.132-52.7 7.7-14.692-3.492-32.371-8.821-48.977-13.917-42.694-13.1-65.81-12.593-75.682-14.576-4.877-.98-12.668-2.53-20.019-8.046-26.847-20.145 1.8-54.233-57.722-52.907-8.423.176-14.886 3.981-22.981 6.2-34.276 9.407-48.862 42.74-133.065 28.035" data-name="Path 4482" opacity="0.554" transform="translate(1.047 2.869)"/>
        <path id="Path_4483" stroke-width="1.063px" d="M1230.854 57.884c-63.061 17.935-80.737-4.52-105.123-17.686-37.215-20.093-70.922-16.656-84.448-6.5-7.981 5.993-5.766 16.378 9.525 25.277 15.1 8.787 56.385 25.494 11.093 29.842-22.383 2.149-39.856-16.123-79.485 45.374-11.287 17.514-37 40.387-48.723 36.155-14.341 8.918-34.682-.143-52.351-34.841-8.8-17.282-22.017-34.106-39.344-36.23-26.2-3.214-56.006 6.935-76.183 26.022-9.035 8.546-26.187 12.364-53.193 5.211-14.962-3.963-32.717-9.731-49.139-14.9-44.24-13.927-66.178-11.824-74.509-11.846a35.03 35.03 0 0 1-19.139-5.31c-26.728-17.192-1.35-49.582-61.238-48.567-8.483.133-15.122 3.772-23.307 5.745-36.442 8.78-49.8 43.932-133.864 29.926" data-name="Path 4483" opacity="0.574" transform="translate(1.002 3.181)"/>
        <path id="Path_4484" stroke-width="1.028px" d="M1230.343 60.62c-61.68 17.395-79.33-3.987-103.143-16.709-36.217-19.347-68.721-16.739-82.523-7.546-8.023 5.344-6.179 15.2 8.07 23.809 13.95 8.427 52.829 24.635 9.182 29.67-21.883 2.524-38.782-13.828-77.531 45.363-11.721 17.905-38.437 40.36-49.439 33.825-13.628 7.675-33.286-3.457-50.51-38.373-8.882-18.005-21.984-34.916-39.576-35.9-26.077-1.452-55.85 11.149-76.373 28.739-9.137 7.831-26.755 10.582-53.681 2.729-15.231-4.443-33.062-10.647-49.3-15.885-45.782-14.765-66.388-11.087-73.335-9.115-3.315.94-10.009.015-18.259-2.574-23.33-18.985-4.506-44.931-64.752-44.226-8.546.088-15.364 3.551-23.635 5.286-38.619 8.1-50.738 45.123-134.661 31.816" data-name="Path 4484" opacity="0.593" transform="translate(.956 3.491)"/>
        <path id="Path_4485" stroke-width="0.992px" d="M1229.83 63.359c-60.3 16.854-77.923-3.456-101.162-15.732-35.217-18.6-66.5-16.821-80.6-8.595-8.054 4.7-6.591 14.026 6.614 22.343 12.8 8.065 49.268 23.792 7.271 29.5-21.39 2.905-37.747-11.554-75.576 45.353-12.16 18.294-39.875 40.334-50.158 31.5-12.913 6.431-31.871-6.779-48.668-41.9-8.958-18.731-21.941-35.748-39.809-35.56-25.942.272-55.684 15.364-76.566 31.456-9.232 7.114-27.319 8.784-54.168.245-15.5-4.929-33.4-11.568-49.465-16.868-47.317-15.631-66.465-10.549-72.158-6.401-2.454 1.79-9.032 1.835-17.379.161-23.127-16.611-7.661-40.279-68.269-39.884-8.608.043-15.605 3.319-23.962 4.827-40.8 7.362-51.674 46.314-135.459 33.706" data-name="Path 4485" opacity="0.613" transform="translate(.911 3.798)"/>
        <path id="Path_4486" stroke-width="0.957px" d="M1229.318 66.1c-58.917 16.314-76.515-2.925-99.182-14.755-34.218-17.858-64.256-16.9-78.672-9.642-8.071 4.062-7 12.847 5.159 20.876 11.665 7.705 45.7 22.968 5.36 29.323-20.9 3.292-36.748-9.3-73.62 45.343-12.606 18.681-41.314 40.308-50.876 29.166-12.2 5.186-30.444-10.108-46.826-45.436-9.025-19.463-21.9-36.605-40.041-35.227-25.8 1.961-55.5 19.58-76.757 34.173-9.322 6.4-27.881 6.975-54.656-2.238-15.763-5.423-33.745-12.494-49.629-17.852-48.855-16.482-66.678-10.238-70.988-3.655-1.652 2.524-8.055 3.654-16.5 2.9-22.924-14.237-10.816-35.628-71.784-35.544-8.669 0-15.847 3.078-24.287 4.369-42.995 6.571-52.612 47.506-136.257 35.6" data-name="Path 4486" opacity="0.632" transform="translate(.865 4.103)"/>
        <path id="Path_4487" stroke-width="0.921px" d="M1228.805 68.843c-57.534 15.775-75.106-2.392-97.2-13.776-33.218-17.113-61.994-16.96-76.746-10.689-8.077 3.432-7.4 11.666 3.7 19.407 10.534 7.346 42.129 22.167 3.451 29.15-20.415 3.685-35.782-7.07-71.665 45.334-13.056 19.065-42.752 40.281-51.595 26.834-11.484 3.944-29-13.442-44.984-48.966-9.085-20.2-21.851-37.486-40.273-34.891-25.663 3.613-55.307 23.8-76.948 36.89-9.4 5.688-28.437 5.153-55.144-4.721-16.026-5.925-34.085-13.426-49.791-18.837-50.386-17.361-67.177-9.974-69.815-.925-.95 3.257-7.078 5.473-15.619 5.632-22.722-11.863-13.971-30.976-75.3-31.2-8.731-.045-16.09 2.83-24.615 3.91-45.184 5.727-53.549 48.7-137.055 37.487" data-name="Path 4487" opacity="0.651" transform="translate(.82 4.404)"/>
        <path id="Path_4488" stroke-width="0.886px" d="M1228.294 71.592c-56.153 15.234-73.7-1.862-95.222-12.8-32.218-16.37-59.712-17.005-74.82-11.738-8.073 2.814-7.788 10.485 2.246 17.941 9.407 6.988 38.552 21.387 1.54 28.976-19.934 4.088-34.846-4.855-69.711 45.324-13.511 19.446-44.19 40.255-52.312 24.5-10.768 2.7-27.551-16.781-43.142-52.5-9.138-20.932-21.812-38.389-40.506-34.557-25.532 5.235-55.1 28.031-77.139 39.607-9.482 4.981-28.989 3.32-55.632-7.2-16.285-6.433-34.423-14.36-49.953-19.821-51.911-18.253-67.815-9.59-68.642 1.806-.294 4.044-6.1 7.292-14.739 8.367-22.518-9.489-17.126-26.325-78.814-26.861-8.793-.09-16.33 2.574-24.942 3.453-47.371 4.83-54.486 49.888-137.852 39.377" data-name="Path 4488" opacity="0.671" transform="translate(.774 4.701)"/>
        <path id="Path_4489" stroke-width="0.85px" d="M1227.782 74.346c-54.771 14.694-72.289-1.332-93.242-11.822-31.217-15.628-57.415-17.03-72.9-12.785-8.059 2.21-8.17 9.3.791 16.473 8.289 6.634 34.97 20.633-.371 28.8-19.458 4.5-33.938-2.661-67.756 45.313-13.974 19.824-45.628 40.229-53.03 22.175-10.053 1.456-26.088-20.124-41.3-56.03C890.8 84.8 878.2 67.158 859.239 72.252c-25.413 6.828-54.876 32.269-77.33 42.324-9.553 4.277-29.535 1.478-56.119-9.687-16.542-6.948-34.761-15.3-50.118-20.8-53.43-19.16-68.468-9.1-67.468 4.535.357 4.876-5.123 9.112-13.859 11.1-22.316-7.115-20.282-21.673-82.331-22.519-8.854-.134-16.569 2.312-25.269 2.994-49.553 3.883-55.423 51.08-138.65 41.268" data-name="Path 4489" opacity="0.69" transform="translate(.729 4.993)"/>
        <path id="Path_4490" stroke-width="0.815px" d="M1227.269 77.107c-53.39 14.154-70.88-.8-91.262-10.845-30.215-14.887-55.107-17.028-70.969-13.834-8.04 1.62-8.539 8.12-.664 15.007 7.186 6.283 31.387 19.905-2.282 28.63-18.985 4.92-33.056-.482-65.8 45.3-14.445 20.2-47.067 40.2-53.749 19.846-9.339.212-24.614-23.47-39.457-59.561-9.219-22.414-21.764-40.261-40.971-33.887-25.31 8.4-54.643 36.523-77.521 45.04-9.619 3.582-30.077-.372-56.607-12.17-16.794-7.468-35.1-16.24-50.28-21.789-54.945-20.08-69.1-8.557-66.295 7.266 1.014 5.73-4.146 10.93-12.979 13.838-22.112-4.741-23.437-17.023-85.845-18.179-8.917-.179-16.806 2.045-25.6 2.536-51.729 2.887-56.361 52.271-139.448 43.158" data-name="Path 4490" opacity="0.709" transform="translate(.683 5.278)"/>
        <path id="Path_4491" stroke-width="0.78px" d="M1226.757 79.878c-52.009 13.613-69.471-.274-89.282-9.868-29.213-14.146-52.794-17-69.045-14.881-8.018 1.043-8.892 6.938-2.12 13.538 6.1 5.944 27.8 19.207-4.193 28.457-18.515 5.353-32.2 1.68-63.845 45.293-14.923 20.564-48.505 40.177-54.467 17.516-8.624-1.032-23.131-26.818-37.616-63.092-9.248-23.159-21.761-41.222-41.2-33.553-25.228 9.951-54.4 40.795-77.713 47.758-9.682 2.892-30.613-2.231-57.095-14.654-17.042-7.994-35.431-17.184-50.442-22.772-56.452-21.016-69.7-7.98-65.122 10 1.679 6.6-3.169 12.75-12.1 16.573-21.909-2.367-26.592-12.37-89.361-13.837-8.979-.223-17.041 1.773-25.922 2.078-53.894 1.845-57.3 53.462-140.246 45.048" data-name="Path 4491" opacity="0.729" transform="translate(.637 5.554)"/>
        <path id="Path_4492" stroke-width="0.744px" d="M1226.245 82.752c-50.626 13.073-68.06.254-87.3-8.891-28.21-13.407-50.48-16.934-67.12-15.929-8 .483-9.223 5.764-3.575 12.071 5.031 5.618 24.219 18.537-6.1 28.283-18.045 5.8-31.362 3.827-61.89 45.283-15.411 20.925-49.943 40.151-55.186 15.186-7.909-2.276-21.638-30.169-35.774-66.624-9.269-23.905-21.773-42.2-41.435-33.217C842.7 70.406 813.708 104 789.957 109.389c-9.743 2.212-31.142-4.094-57.583-17.136-17.286-8.527-35.764-18.132-50.605-23.753-57.953-21.966-70.279-7.39-63.948 12.727 2.352 7.475-2.192 14.568-11.22 19.309-21.707.006-29.746-7.719-92.876-9.5-9.039-.267-17.271 1.5-26.249 1.62-56.048.759-58.235 54.653-141.043 46.939" data-name="Path 4492" opacity="0.748" transform="translate(.592 5.725)"/>
        <path id="Path_4493" stroke-width="0.709px" d="M1225.733 86.161c-49.245 12.533-66.65.781-85.321-7.914-27.206-12.67-48.173-16.84-65.193-16.977-7.979-.064-9.532 4.609-5.031 10.6 3.993 5.32 20.64 17.9-8.015 28.111-17.575 6.262-30.546 5.959-59.936 45.272-15.908 21.279-51.381 40.124-55.9 12.857-7.194-3.52-20.139-33.52-33.931-70.156-9.283-24.654-21.8-43.181-41.668-32.883-25.122 13.022-53.9 49.4-78.1 53.192-9.8 1.538-31.665-5.966-58.069-19.62-17.527-9.063-36.1-19.081-50.768-24.741-59.448-22.933-70.844-6.793-62.775 15.457 3.029 8.354-1.215 16.387-10.339 22.045-21.5 2.379-32.9-3.069-96.392-5.156-9.1-.312-17.5 1.218-26.577 1.161-58.191-.37-59.172 55.845-141.84 48.829" data-name="Path 4493" opacity="0.767" transform="translate(.546 5.362)"/>
        <path id="Path_4494" stroke-width="0.673px" d="M1225.221 89.572c-47.864 11.992-65.239 1.307-83.341-6.937-26.2-11.933-45.88-16.715-63.268-18.024-7.967-.6-10.865 4.259-6.487 9.137 1.925 5.557 17.066 17.3-9.926 27.937-17.1 6.742-29.748 8.076-57.981 45.262-16.418 21.624-52.819 40.1-56.622 10.527-6.479-4.763-18.63-36.874-32.09-73.686-9.287-25.405-21.847-44.173-41.9-32.549-25.1 14.548-53.655 53.727-78.286 55.909-9.863.873-32.183-7.841-58.557-22.1C719 75.439 700.337 65.012 685.832 59.32c-60.935-23.915-71.4-6.192-61.6 18.187 3.71 9.235-.238 18.206-9.459 24.78-21.3 4.754-36.058 1.584-99.907-.815-9.164-.356-17.727.937-26.9.7-60.321-1.538-60.11 57.036-142.639 50.719" data-name="Path 4494" opacity="0.787" transform="translate(.501 4.997)"/>
        <path id="Path_4495" stroke-width="0.638px" d="M1224.708 92.989c-46.482 11.452-63.827 1.833-81.36-5.96-25.2-11.2-43.6-16.565-61.343-19.073-7.963-1.125-11.311 3.126-7.942 7.671.747 5.232 13.5 16.728-11.836 27.764-16.626 7.241-28.969 10.18-56.025 45.252-16.94 21.959-54.259 40.072-57.34 8.2-5.764-6.006-17.116-40.226-30.247-77.217-9.286-26.157-21.908-45.167-42.133-32.214-25.095 16.068-53.416 58.075-78.482 58.621-9.926.216-32.695-9.721-59.045-24.586-17.99-10.147-36.755-20.986-51.091-26.709-62.415-24.913-71.942-5.59-60.429 20.917 4.4 10.117.739 20.025-8.578 27.516-21.1 7.127-39.213 6.235-103.422 3.526-9.227-.4-17.951.651-27.23.245-62.435-2.743-61.047 58.227-143.436 52.61" data-name="Path 4495" opacity="0.806" transform="translate(.455 4.626)"/>
        <path id="Path_4496" stroke-width="0.602px" d="M1224.2 96.428c-45.1 10.912-62.415 2.357-79.381-4.983-24.189-10.464-41.346-16.392-59.417-20.12-7.969-1.644-11.755 1.992-9.4 6.2-.432 4.907 9.952 16.194-13.747 27.591-16.14 7.763-28.2 12.269-54.069 45.242-17.479 22.28-55.7 40.046-58.059 5.867-5.05-7.251-15.594-43.579-28.406-80.749-9.275-26.911-21.982-46.165-42.365-31.879-25.109 17.6-53.184 62.45-78.669 61.343-9.994-.435-33.2-11.6-59.533-27.07-18.22-10.7-37.085-21.94-51.256-27.692-63.888-25.927-72.481-4.986-59.257 23.648 5.081 11 2.874 23.357-7.7 30.25-19.227 12.538-42.367 10.886-106.937 7.867-9.287-.444-18.171.366-27.557-.213-64.537-3.983-61.984 59.419-144.234 54.5" data-name="Path 4496" opacity="0.826" transform="translate(.41 4.233)"/>
        <path id="Path_4497" stroke-width="0.567px" d="M1223.684 99.868c-43.718 10.371-61 2.879-77.4-4.006-23.181-9.734-39.111-16.2-57.492-21.168-7.985-2.158-12.2.857-10.854 4.735-1.61 4.582 6.419 15.693-15.658 27.418-15.642 8.308-27.453 14.346-52.115 45.231-18.034 22.585-57.133 40.02-58.776 3.537-4.335-8.494-14.066-46.931-26.564-84.281-9.257-27.666-22.068-47.163-42.6-31.543-25.138 19.125-52.964 66.835-78.86 64.059-10.066-1.079-33.7-13.491-60.021-29.552C724.9 63.043 705.936 51.4 691.928 45.621 626.577 18.663 618.914 41.238 633.845 72c5.768 11.883 3.8 24.945-6.818 32.987-19.019 14.4-45.523 15.538-110.454 12.209-9.349-.489-18.388.077-27.884-.672-66.623-5.254-62.921 60.61-145.031 56.39" data-name="Path 4497" opacity="0.845" transform="translate(.364 3.839)"/>
        <path id="Path_4498" stroke-width="0.531px" d="M1223.172 103.309c-42.338 9.831-59.589 3.4-75.42-3.029-22.174-9-36.9-16-55.567-22.216-8.013-2.668-12.646-.276-12.309 3.268-2.788 4.258 2.908 15.226-17.569 27.245-15.127 8.879-26.715 16.408-50.16 45.221-18.611 22.873-52.173 39.308-59.494 1.208-1.961-10.2-12.532-50.284-24.721-87.811-9.232-28.424-22.168-48.16-42.83-31.21-25.183 20.657-52.761 71.235-79.051 66.777-10.145-1.72-34.2-15.381-60.508-32.036-18.662-11.813-37.743-23.858-51.583-29.662-66.806-28.007-73.544-3.778-56.909 29.108 6.458 12.765 4.688 26.543-5.938 35.721-18.887 16.314-48.678 20.19-113.968 16.55-9.412-.532-18.6-.213-28.211-1.13-68.7-6.557-63.859 61.8-145.831 58.28" data-name="Path 4498" opacity="0.864" transform="translate(.319 3.443)"/>
        <path id="Path_4499" stroke-width="0.496px" d="M1222.659 106.752c-40.955 9.291-58.173 3.92-73.44-2.052-21.163-8.279-34.709-15.792-53.64-23.264-8.051-3.178-13.091-1.41-13.766 1.8-3.968 3.932-.573 14.787-19.48 27.071-14.587 9.478-25.989 18.457-48.2 45.211-19.214 23.138-54.814 39.612-60.213-1.122-1.492-11.262-10.993-53.636-22.88-91.343-9.2-29.181-22.275-49.154-43.063-30.875-25.24 22.192-52.572 75.642-79.242 69.492-10.23-2.358-34.686-17.271-61-34.519-18.875-12.372-38.064-24.816-51.746-30.644-68.251-29.073-74.069-3.175-55.736 31.838 7.147 13.65 5.553 28.155-5.053 38.455-18.818 18.269-51.834 24.84-117.484 20.891-9.473-.578-18.814-.505-28.538-1.59-70.751-7.886-64.8 62.994-146.628 60.172" data-name="Path 4499" opacity="0.884" transform="translate(.273 3.047)"/>
        <path id="Path_4500" stroke-width="0.461px" d="M1222.148 110.2c-39.574 8.75-56.759 4.437-71.46-1.074-20.154-7.556-32.541-15.581-51.715-24.312-8.1-3.688-13.536-2.544-15.221.333-5.146 3.607-4.021 14.376-21.391 26.9-14.018 10.106-25.272 20.493-46.249 45.2-19.847 23.374-57.347 39.8-60.931-3.452-1.026-12.378-9.448-56.986-21.037-94.875-9.158-29.94-22.393-50.145-43.3-30.54-25.308 23.735-52.4 80.055-79.433 72.211-10.322-3-35.17-19.165-61.484-37-19.084-12.936-38.387-25.777-51.908-31.629-69.684-30.162-74.59-2.58-54.559 34.56 7.838 14.531 6.395 29.788-4.179 41.192-18.795 20.273-54.988 29.492-121 25.232-9.534-.621-19.022-.8-28.864-2.047-72.791-9.242-65.734 64.185-147.426 62.062" data-name="Path 4500" opacity="0.903" transform="translate(.228 2.649)"/>
        <path id="Path_4501" stroke-width="0.425px" d="M1221.636 113.639c-38.193 8.21-55.344 4.951-69.481-.1-19.142-6.836-30.39-15.37-49.789-25.36-8.155-4.2-13.655-3.28-16.676-1.134-5.809 4.127-7.427 13.983-23.3 26.725-13.409 10.763-24.562 22.513-44.3 45.19-20.514 23.575-59.774 39.893-61.649-5.781-.555-13.539-7.9-60.336-19.2-98.407-9.109-30.7-22.516-51.133-43.527-30.2-25.377 25.283-52.232 84.47-79.614 74.928-10.417-3.63-35.648-21.06-61.971-39.484-19.288-13.5-38.71-26.74-52.071-32.614-71.114-31.259-75.117-1.967-53.39 37.3 8.53 15.415 7.226 31.441-3.3 43.928-18.81 22.319-58.144 34.144-124.515 29.573-9.6-.667-19.229-1.091-29.191-2.506-74.817-10.622-66.672 65.376-148.224 63.952" data-name="Path 4501" opacity="0.923" transform="translate(.182 2.251)"/>
        <path id="Path_4502" stroke-width="0.39px" d="M1221.123 117.084c-36.811 7.671-53.926 5.462-67.5.88-18.129-6.121-28.257-15.163-47.864-26.407-8.219-4.714-14.26-4.5-18.132-2.6-7.24 3.557-10.787 13.6-25.212 26.552-12.752 11.448-23.858 24.519-42.34 45.18-21.228 23.732-62.1 39.929-62.367-8.111-.08-14.733-6.345-63.685-17.353-101.937C931.3 19.178 917.708-1.478 896.6 20.767c-25.475 26.833-52.1 88.888-79.821 77.645-10.519-4.268-36.121-22.955-62.459-41.969-19.49-14.07-39.032-27.7-52.234-33.6-72.53-32.38-75.694-1.331-52.216 40.03 9.2 16.309 8.05 33.109-2.418 46.663-18.851 24.406-61.3 38.8-128.03 33.914-9.658-.71-19.432-1.385-29.518-2.964-76.829-12.025-67.609 66.568-149.022 65.843" data-name="Path 4502" opacity="0.942" transform="translate(.137 1.852)"/>
        <path id="Path_4503" stroke-width="0.354px" d="M1220.611 120.53c-35.43 7.13-52.509 5.968-65.519 1.857-17.117-5.41-26.138-14.961-45.939-27.455-8.291-5.232-14.8-5.745-19.587-4.068-8.564 3-14.095 13.221-27.123 26.379-12.039 12.157-23.157 26.507-40.385 45.169-22 23.83-64.352 39.918-63.086-10.441.4-15.952-4.787-67.032-15.511-105.469-8.99-32.222-22.783-53.1-43.992-29.536-25.564 28.4-51.962 93.3-80.008 80.36-10.628-4.9-36.591-24.851-62.947-44.451-19.687-14.64-39.352-28.667-52.4-34.581-73.936-33.521-76.193-.74-51.043 42.759 9.9 17.189 8.87 34.8-1.539 49.4-18.912 26.529-64.453 43.446-131.546 38.255-9.72-.755-19.632-1.68-29.845-3.422-78.825-13.446-68.546 67.759-149.819 67.733" data-name="Path 4503" opacity="0.961" transform="translate(.091 1.452)"/>
        <path id="Path_4504" stroke-width="0.319px" d="M1220.1 123.978c-34.047 6.59-51.09 6.471-63.539 2.834-16.1-4.7-24.029-14.765-44.013-28.5-8.367-5.753-15.292-6.983-21.042-5.537-9.822 2.472-17.344 12.831-29.034 26.206-11.261 12.884-22.455 28.477-38.429 45.16-22.837 23.851-66.527 39.876-63.8-12.771.888-17.19-3.226-70.376-13.67-109-8.918-32.983-22.924-54.072-44.225-29.2-25.663 29.964-51.84 97.713-80.2 83.077C811.4 90.7 785.089 69.5 758.709 49.308 738.83 34.1 719.037 19.676 706.15 13.743c-75.33-34.681-76.692-.147-49.87 45.49 10.6 18.068 9.69 36.5-.659 52.134-18.985 28.684-67.609 48.1-135.06 42.6a300.937 300.937 0 0 1-30.173-3.881c-80.806-14.887-69.483 68.95-150.617 69.623" data-name="Path 4504" opacity="0.981" transform="translate(.046 1.051)"/>
        <path id="Path_4505" stroke-width="0.283px" d="M1219.587 127.426c-74.131 13.728-67.611 1.03-103.647-25.74-36.147-26.853-51.48 25.74-89.918 64.179-23.767 23.768-68.64 39.811-64.521-15.1 2.586-34.481-10.3-197.682-56.285-141.4-25.768 31.536-51.729 102.12-80.39 85.794-19.105-10.883-87.16-72.182-116.645-85.966-76.712-35.861-77.191.445-48.7 48.22 35.285 59.159-47.314 121.469-168.853 97.468-82.776-16.345-70.421 70.142-151.415 71.514" data-name="Path 4505" transform="translate(0 .649)"/>
    </g>
</svg>
