<svg xmlns="http://www.w3.org/2000/svg" width="1684.564" height="451.142" viewBox="0 0 1684.564 451.142">
    <g id="Group_19898" fill="none" stroke="#6eaec8" stroke-dasharray="0 2.574" stroke-linecap="round" stroke-linejoin="round" data-name="Group 19898" opacity="0.6" transform="translate(-339.073 13.911)">
        <path id="Path_4473" stroke-width="1.417px" d="M356.979 60.029C581.6 115.217 579.1 23.773 630.486 20.013c105.494-7.719.978 87.868 48.888 172.394 63.12 111.361 227.6 146.51 303.06 144.086 51.959-1.669 75.894-27 90.557-56.311 51.519-102.971 170.532 24.74 208.593 76.332 82.22 111.45 181.861-57.849 210.508-112.318 84.921-161.473 133.846-87.923 185.625-85.238 115.044 5.965-6.605-35.972-56.607-59.181-125.85-58.41 6.327-165.853 149.237-82.337 56.463 33 90.056 95.2 234.146 51.462" data-name="Path 4473" opacity="0.38" transform="translate(18.26)"/>
        <path id="Path_4474" stroke-width="1.382px" d="M2004.019 70.576c-141.5 42.729-175.041-17.478-230.437-49.631-86.552-50.3-168.84-30.269-190.764 5.5-13.517 22.053-3.671 50.487 42.409 72.128 47.793 22.6 165.105 63.337 53.026 58.857-50.763-2.03-97.453-71.335-181.96 85.217-14.156 26.225-45.6 75.582-79.206 107.066-39.551 37.055-86.787 54.34-129.2-5.733-14.57-20.64-40.334-51.026-69.822-73.554-48.9-37.361-106.889-58.42-139.563 2.943-14.906 27.993-39.588 51.679-91.472 51.655-23.594-.01-55.344-3.541-89.356-11.329C840.933 300.7 782 280.121 738.232 245.431c-19.52-15.545-37.282-33.938-50.716-56.1-48.282-79.628 50.693-171.4-55.478-164.257-14.859 1-25.16 9.335-38.172 18.5-34.256 24.114-77.529 62.247-237.442 24.2" data-name="Path 4474" opacity="0.399" transform="translate(17.69 4.035)"/>
        <path id="Path_4475" stroke-width="1.346px" d="M2003.543 72.258c-138.911 41.715-172.4-16.492-226.724-47.8-84.674-48.919-164.918-30.316-187.154 3.531-13.718 20.879-4.449 48.242 39.679 69.38 45.644 21.863 158.551 61.54 49.444 58.53-49.753-1.371-94.384-66.512-178.3 85.2-14.906 26.951-48.773 74.915-80.553 102.7-38.86 33.976-84.578 48.455-125.744-12.353-14.823-21.895-40.573-52.468-70.256-72.925-49.132-33.861-106.713-50.45-139.922 8.033-15.15 26.677-40.6 48.678-92.387 47-24.061-.779-56.025-5.076-89.661-13.174-59.651-14.361-116.695-32.354-157.246-63.142-18.245-13.85-35.651-30.382-49.067-50.967C647 111.6 740.437 23.594 633.592 30.149c-14.975.913-25.347 9.254-38.785 17.638-37.6 23.459-79.287 64.48-238.939 27.746" data-name="Path 4475" opacity="0.419" transform="translate(17.119 8.062)"/>
        <path id="Path_4476" stroke-width="1.311px" d="M2003.069 73.949c-136.323 40.7-169.753-15.509-223.012-45.968-82.794-47.54-160.986-30.376-183.546 1.568-13.91 19.695-5.253 46.053 36.952 66.628 43.468 21.191 151.981 59.757 45.863 58.208-48.749-.714-91.482-61.763-174.633 85.179-15.663 27.679-51.892 74.168-81.9 98.333-38.2 30.766-82.3 42.506-122.29-18.973-15.068-23.167-40.785-53.9-70.694-72.3-49.317-30.344-106.53-42.488-140.279 13.126-15.389 25.357-41.632 45.627-93.3 42.348-24.54-1.558-56.7-6.644-89.967-15.018-62.563-15.749-117.671-31.18-155.046-58.022-16.951-12.174-34.015-26.807-47.418-45.842-49.031-69.64 38.866-153.959-68.654-147.984-15.091.829-25.6 9.124-39.4 16.778-41.1 22.8-81.044 66.713-240.433 31.289" data-name="Path 4476" opacity="0.438" transform="translate(16.549 12.08)"/>
        <path id="Path_4477" stroke-width="1.276px" d="M2002.6 75.651c-133.733 39.691-167.111-14.523-219.3-44.137-80.914-46.159-157.039-30.453-179.936-.4-14.1 18.5-6.054 43.865 34.224 63.88 41.291 20.518 145.4 57.986 42.281 57.881-47.755-.049-88.732-57.08-170.968 85.161-16.425 28.411-54.936 73.327-83.244 93.966-37.572 27.4-79.97 36.5-118.838-25.59-15.3-24.452-40.963-55.318-71.129-71.672-49.457-26.815-106.344-34.534-140.64 18.218-15.624 24.035-42.677 42.537-94.214 37.694-25.026-2.351-57.374-8.238-90.271-16.861-65.476-17.164-118.65-29.993-152.847-52.908-15.659-10.491-32.366-23.205-45.767-40.713-49.4-64.537 32.95-145.242-75.245-139.849-15.206.746-25.9 8.948-40.01 15.92-44.739 22.114-82.8 68.946-241.928 34.832" data-name="Path 4477" opacity="0.458" transform="translate(15.978 16.087)"/>
        <path id="Path_4478" stroke-width="1.24px" d="M2002.12 77.364c-131.143 38.677-164.466-13.537-215.59-42.305C1707.5-9.719 1633.449 4.514 1610.2 32.7c-14.272 17.3-6.851 41.672 31.5 61.126 39.119 19.845 138.815 56.234 38.7 57.559-46.767.617-86.116-52.464-167.3 85.14-17.2 29.147-57.863 72.365-84.591 89.6-36.945 23.822-77.586 30.456-115.385-32.21-15.533-25.748-41.109-56.729-71.564-71.043-49.544-23.288-106.149-26.592-141 23.311-15.856 22.706-43.733 39.4-95.129 33.039-25.519-3.16-58.041-9.858-90.578-18.707-68.388-18.6-119.627-28.788-150.647-47.789-14.367-8.8-30.7-19.577-44.119-35.589-49.732-59.349 27.038-136.521-81.832-131.711-15.324.663-26.253 8.725-40.624 15.06-48.491 21.376-84.56 71.177-243.431 38.375" data-name="Path 4478" opacity="0.477" transform="translate(15.408 20.083)"/>
        <path id="Path_4479" stroke-width="1.205px" d="M2001.646 79.091c-128.555 37.665-161.823-12.552-211.878-40.474-77.156-43.4-149.1-30.652-172.72-4.324-14.442 16.1-7.65 39.482 28.766 58.378 36.949 19.169 132.214 54.5 35.118 57.232-45.784 1.288-83.624-47.907-163.637 85.122-17.975 29.882-58.567 75.892-85.937 85.232-32.24 26.042-75.15 24.371-111.933-38.827-15.748-27.058-41.214-58.139-72-70.416-49.57-19.768-105.94-18.656-141.356 28.4-16.085 21.376-44.8 36.231-96.043 28.387-26.02-3.985-58.7-11.5-90.882-20.552-71.3-20.054-120.6-27.559-148.448-42.673-13.075-7.1-29.016-15.916-42.47-30.46C678.2 120.043 749.349 46.313 639.8 50.541c-15.438.58-26.635 8.463-41.235 14.2-52.33 20.571-86.315 73.41-244.919 41.918" data-name="Path 4479" opacity="0.496" transform="translate(14.837 24.065)"/>
        <path id="Path_4480" stroke-width="1.169px" d="M2001.17 80.8c-125.964 36.654-159.238-11.463-208.17-38.642-75.36-41.858-145.1-30.775-169.108-6.289-14.6 14.888-8.445 37.29 26.038 55.628 34.78 18.5 125.6 52.787 31.536 56.91-44.814 1.963-81.246-43.411-159.974 85.1-18.756 30.62-61.26 75.844-87.282 80.865-30.9 23.71-72.672 18.251-108.481-45.447-15.953-28.377-41.281-59.556-72.434-69.788-49.538-16.269-105.723-10.73-141.715 33.5-16.308 20.039-45.871 33.019-96.958 23.73-26.523-4.821-59.364-13.162-91.186-22.4-74.213-21.53-121.564-26.3-146.25-37.554-11.779-5.374-27.3-12.227-40.821-25.335-50.241-48.71 15.21-119.086-95.011-115.438-15.553.5-27.038 8.161-41.847 13.343-56.246 19.682-88.071 75.643-246.414 45.461" data-name="Path 4480" opacity="0.516" transform="translate(14.266 28.064)"/>
        <path id="Path_4481" stroke-width="1.134px" d="M2000.7 82.557c-123.38 35.643-156.606-10.467-204.46-36.811-73.493-40.458-141.074-30.914-165.5-8.252-14.74 13.671-9.24 35.093 23.309 52.877 32.615 17.821 118.972 51.093 27.955 56.583-43.851 2.645-78.973-38.963-156.309 85.083-19.549 31.356-63.957 75.795-88.629 76.5-29.561 21.378-70.153 12.1-105.027-52.067-16.147-29.705-41.312-60.988-72.872-69.161-49.444-12.8-105.49-2.813-142.072 38.59-16.525 18.7-46.942 29.77-97.87 19.076-27.032-5.677-60.021-14.841-91.494-24.239C850.61 197.7 805.236 195.753 783.68 188.3c-10.475-3.622-25.546-8.5-39.17-20.206-50.355-43.265 9.3-110.367-101.6-107.3-15.671.414-27.464 7.826-42.462 12.485-60.221 18.7-89.827 77.876-247.909 49" data-name="Path 4481" opacity="0.535" transform="translate(13.696 32.017)"/>
        <path id="Path_4482" stroke-width="1.098px" d="M2000.223 84.333c-120.786 34.627-153.965-9.469-200.746-34.98-71.623-39.059-137.018-31.062-161.89-10.217-14.858 12.452-10.025 32.9 20.581 50.128 30.454 17.145 112.333 49.426 24.373 56.261-42.9 3.332-76.795-34.568-152.645 85.063-20.348 32.092-66.652 75.746-89.975 72.132-28.221 19.048-67.6 5.926-101.576-58.684-16.326-31.046-41.3-62.442-73.307-68.534-49.3-9.386-105.24 5.094-142.431 43.68-16.734 17.362-48.014 26.489-98.785 14.424-27.537-6.545-60.674-16.533-91.8-26.085C852 182.962 808.675 183.917 790.173 180.2c-9.141-1.837-23.745-4.742-37.521-15.081-50.32-37.759 3.383-101.649-108.189-99.164-15.786.331-27.9 7.461-43.074 11.625-64.243 17.632-91.583 80.109-249.405 52.547" data-name="Path 4482" opacity="0.554" transform="translate(13.124 35.95)"/>
        <path id="Path_4483" stroke-width="1.063px" d="M1999.747 86.132c-118.2 33.615-151.326-8.471-197.033-33.149-69.754-37.661-132.93-31.218-158.283-12.181-14.959 11.233-10.808 30.7 17.853 47.378 28.3 16.47 105.682 47.783 20.792 55.934-41.953 4.028-74.7-30.22-148.979 85.045-21.155 32.826-69.35 75.7-91.322 67.766-26.88 16.715-65.006-.268-98.122-65.3-16.494-32.392-41.267-63.925-73.742-67.906-49.106-6.023-104.973 13-142.79 48.773-16.934 16.018-49.083 23.175-99.7 9.767-28.044-7.429-61.323-18.238-92.1-27.929-82.92-26.1-124.039-22.163-139.653-22.2-7.739-.02-21.883-.953-35.872-9.952-50.1-32.224-2.531-92.932-114.778-91.03-15.9.249-28.344 7.07-43.684 10.767-68.3 16.456-93.342 82.342-250.9 56.09" data-name="Path 4483" opacity="0.574" transform="translate(12.554 39.86)"/>
        <path id="Path_4484" stroke-width="1.028px" d="M1999.273 87.956c-115.608 32.6-148.69-7.473-193.322-31.317-67.881-36.262-128.8-31.374-154.674-14.144-15.038 10.017-11.583 28.494 15.125 44.626 26.146 15.795 99.018 46.173 17.21 55.612-41.016 4.731-72.69-25.919-145.317 85.025-21.968 33.56-72.043 75.647-92.664 63.4-25.544 14.385-62.388-6.48-94.672-71.923-16.649-33.747-41.2-65.444-74.179-67.279-48.876-2.722-104.681 20.9-143.147 53.865-17.125 14.677-50.148 19.835-100.614 5.115-28.547-8.327-61.968-19.956-92.409-29.774-85.809-27.675-124.432-20.78-137.452-17.084-6.214 1.762-18.76.028-34.224-4.825-43.727-35.584-8.445-84.215-121.366-82.893-16.018.164-28.8 6.656-44.3 9.907-72.384 15.18-95.1 84.574-252.4 59.633" data-name="Path 4484" opacity="0.593" transform="translate(11.983 43.745)"/>
        <path id="Path_4485" stroke-width="0.992px" d="M1998.8 89.812c-113.016 31.589-146.051-6.478-189.61-29.486-66.01-34.867-124.642-31.526-151.067-16.109-15.1 8.81-12.353 26.29 12.4 41.878 24 15.117 92.344 44.593 13.629 55.285-40.091 5.445-70.749-21.656-141.652 85.006-22.792 34.289-74.738 75.6-94.011 59.033-24.2 12.053-59.737-12.706-91.218-78.543-16.79-35.108-41.125-67-74.615-66.65-48.623.509-104.368 28.8-143.508 58.958-17.3 13.335-51.2 16.464-101.527.458-29.048-9.238-62.61-21.682-92.713-31.616-88.7-29.273-124.584-19.749-135.254-11.97-4.6 3.354-16.928 3.44-32.573.3-43.351-31.132-14.362-75.492-127.96-74.756-16.133.081-29.249 6.22-44.912 9.047-76.478 13.8-96.852 86.807-253.892 63.176" data-name="Path 4485" opacity="0.613" transform="translate(11.412 47.598)"/>
        <path id="Path_4486" stroke-width="0.957px" d="M1998.323 91.7c-110.428 30.577-143.413-5.482-185.9-27.655-64.135-33.471-120.437-31.668-147.457-18.072-15.127 7.613-13.114 24.079 9.67 39.127 21.865 14.442 85.657 43.05 10.047 54.961-39.172 6.169-68.877-17.435-137.987 84.986-23.627 35.015-77.436 75.55-95.358 54.667-22.863 9.72-57.062-18.946-87.766-85.161-16.916-36.479-41.04-68.609-75.049-66.026-48.361 3.675-104.03 36.7-143.867 64.05-17.472 12-52.257 13.073-102.442-4.194-29.545-10.165-63.25-23.418-93.019-33.461-91.569-30.894-124.982-19.19-133.053-6.851-3.1 4.731-15.1 6.849-30.924 5.429-42.966-26.685-20.273-66.778-134.546-66.62-16.249 0-29.7 5.77-45.522 8.189-80.585 12.316-98.611 89.04-255.388 66.719" data-name="Path 4486" opacity="0.632" transform="translate(10.842 51.417)"/>
        <path id="Path_4487" stroke-width="0.921px" d="M1997.847 93.632c-107.836 29.567-140.772-4.484-182.185-25.821-62.262-32.076-116.2-31.788-143.847-20.035-15.14 6.433-13.864 21.867 6.938 36.375 19.743 13.769 78.963 41.547 6.468 54.636-38.264 6.908-67.066-13.251-134.323 84.97-24.471 35.735-80.131 75.5-96.7 50.3-21.524 7.392-54.36-25.195-84.315-91.778-17.028-37.854-40.955-70.26-75.485-65.4-48.1 6.772-103.663 44.611-144.224 69.143-17.628 10.662-53.3 9.658-103.356-8.848-30.038-11.106-63.886-25.164-93.323-35.307-94.439-32.54-125.911-18.695-130.855-1.734-1.781 6.1-13.266 10.258-29.275 10.556-42.587-22.236-26.186-58.059-141.133-58.481-16.365-.085-30.157 5.3-46.136 7.329-84.696 10.734-100.372 91.272-256.888 70.263" data-name="Path 4487" opacity="0.651" transform="translate(10.271 55.193)"/>
        <path id="Path_4488" stroke-width="0.886px" d="M1997.373 95.616c-105.248 28.553-138.133-3.49-178.476-23.99-60.386-30.683-111.919-31.873-140.237-22-15.131 5.275-14.6 19.652 4.21 33.627 17.632 13.1 72.258 40.087 2.886 54.31-37.363 7.662-65.312-9.1-130.66 84.952-25.324 36.448-82.826 75.45-98.049 45.93-20.183 5.06-51.639-31.453-80.861-98.4-17.127-39.233-40.882-71.954-75.921-64.77-47.854 9.812-103.271 52.539-144.583 74.235-17.772 9.335-54.334 6.222-104.271-13.5-30.522-12.057-64.519-26.914-93.628-37.15-97.3-34.211-127.107-17.975-128.656 3.385-.552 7.579-11.434 13.667-27.626 15.683C759.3 130.14 769.4 98.585 653.78 97.579c-16.48-.168-30.607 4.825-46.749 6.472-88.789 9.053-102.123 93.506-258.378 73.805" data-name="Path 4488" opacity="0.671" transform="translate(9.701 58.919)"/>
        <path id="Path_4489" stroke-width="0.85px" d="M1996.9 97.666c-102.659 27.541-135.493-2.5-174.765-22.159-58.509-29.291-107.613-31.92-136.629-23.964-15.105 4.141-15.314 17.435 1.483 30.875 15.537 12.434 65.545 38.673-.7 53.987-36.47 8.431-63.61-4.987-127 84.931-26.192 37.156-85.521 75.4-99.4 41.563-18.843 2.73-48.9-37.718-77.409-105.017-17.21-40.62-40.825-73.69-76.357-64.142-47.631 12.8-102.855 60.483-144.94 79.328-17.906 8.017-55.358 2.77-105.184-18.157-31.005-13.022-65.154-28.673-93.936-38.994-100.144-35.911-128.33-17.062-126.456 8.5.669 9.138-9.6 17.078-25.976 20.81-41.827-13.337-38.014-40.622-154.314-42.208-16.6-.251-31.056 4.334-47.361 5.612-92.863 7.279-103.865 95.74-259.856 77.349" data-name="Path 4489" opacity="0.69" transform="translate(9.13 62.578)"/>
        <path id="Path_4490" stroke-width="0.815px" d="M1996.424 99.8c-100.069 26.529-132.85-1.5-171.053-20.327-56.632-27.9-103.287-31.916-133.019-25.929-15.069 3.036-16.005 15.219-1.245 28.127 13.469 11.777 58.828 37.308-4.277 53.661-35.584 9.222-61.958-.9-123.331 84.913-27.075 37.856-88.219 75.353-100.742 37.2-17.5.4-46.134-43.991-73.955-111.635-17.279-42.011-40.792-75.462-76.793-63.515-47.439 15.74-102.417 68.455-145.3 84.418-18.03 6.713-56.374-.7-106.1-22.81-31.478-14-65.782-30.439-94.24-40.839-102.981-37.637-129.506-16.038-124.256 13.619 1.9 10.741-7.772 20.486-24.327 25.937-41.446-8.887-43.928-31.906-160.9-34.074-16.713-.335-31.5 3.833-47.974 4.754-96.956 5.411-105.638 97.972-261.369 80.891" data-name="Path 4490" opacity="0.709" transform="translate(8.56 66.15)"/>
        <path id="Path_4491" stroke-width="0.78px" d="M1995.95 102.062c-97.481 25.515-130.21-.513-167.342-18.5-54.754-26.515-98.951-31.857-129.411-27.892-15.028 1.955-16.667 13-3.973 25.375 11.428 11.14 52.111 36-7.859 53.338-34.7 10.033-60.349 3.15-119.666 84.893-27.971 38.543-90.914 75.3-102.088 32.83-16.164-1.935-43.354-50.266-70.5-118.255-17.334-43.407-40.786-77.263-77.226-62.888-47.285 18.652-101.963 76.462-145.658 89.513-18.147 5.421-57.378-4.182-107.013-27.466-31.942-14.983-66.409-32.208-94.545-42.683-105.812-39.386-130.642-14.952-122.063 18.74 3.147 12.371-5.94 23.9-22.678 31.064-41.064-4.437-49.842-23.185-167.49-25.935-16.829-.418-31.94 3.324-48.586 3.894-101.014 3.458-107.394 100.2-262.864 84.434" data-name="Path 4491" opacity="0.729" transform="translate(7.989 69.599)"/>
        <path id="Path_4492" stroke-width="0.744px" d="M1995.474 105.627c-94.889 24.5-127.565.477-163.628-16.665-52.873-25.13-94.615-31.739-125.8-29.855-14.988.9-17.287 10.8-6.7 22.625 9.431 10.53 45.395 34.745-11.44 53.012-33.822 10.872-58.781 7.173-116 84.875-28.886 39.221-93.609 75.255-103.436 28.464-14.823-4.265-40.557-56.547-67.052-124.874-17.378-44.809-40.818-79.092-77.668-62.261-47.165 21.538-101.5 84.5-146.015 94.6-18.261 4.145-58.37-7.674-107.927-32.118-32.4-15.981-67.034-33.984-94.851-44.528C866.336 37.733 843.232 65.053 855.1 102.759c4.409 14.01-4.109 27.306-21.029 36.191-40.685.012-55.754-14.468-174.079-17.8-16.942-.5-32.372 2.807-49.2 3.036-105.052 1.422-109.15 102.438-264.358 87.978" data-name="Path 4492" opacity="0.748" transform="translate(7.418 71.744)"/>
        <path id="Path_4493" stroke-width="0.709px" d="M1995 115.879c-92.3 23.491-124.922 1.464-159.919-14.833-50.992-23.747-90.292-31.563-122.191-31.82-14.955-.12-17.865 8.64-9.43 19.875 7.484 9.972 38.685 33.552-15.022 52.689-32.942 11.736-57.252 11.169-112.338 84.854-29.817 39.884-96.305 75.2-104.78 24.1-13.485-6.6-37.747-62.827-63.6-131.494-17.4-46.209-40.865-80.934-78.1-61.633-47.085 24.408-101.03 92.583-146.375 99.7-18.37 2.882-59.349-11.183-108.84-36.775-32.851-16.987-67.654-35.763-95.155-46.372-111.424-42.983-132.784-12.732-117.66 28.971 5.677 15.659-2.278 30.715-19.378 41.32-40.306 4.46-61.669-5.752-180.668-9.664-17.06-.584-32.8 2.284-49.814 2.176-109.067-.694-110.907 104.671-265.853 91.521" data-name="Path 4493" opacity="0.767" transform="translate(6.848 67.201)"/>
        <path id="Path_4494" stroke-width="0.673px" d="M1994.526 126.167c-89.711 22.477-122.278 2.45-156.207-13-49.108-22.366-85.994-31.33-118.583-33.784-14.932-1.126-20.364 7.982-12.158 17.125 3.608 10.416 31.987 32.421-18.6 52.363-32.058 12.637-55.758 15.137-108.674 84.836-30.772 40.531-99 75.156-106.127 19.731-12.144-8.928-34.919-69.112-60.146-138.111-17.407-47.617-40.949-82.794-78.535-61.006-47.041 27.267-100.566 100.7-146.733 104.79-18.486 1.637-60.321-14.7-109.755-41.429-33.293-18-68.275-37.546-95.461-48.215-114.211-44.824-133.82-11.607-115.46 34.088 6.954 17.31-.446 34.124-17.729 46.445-39.924 8.911-67.583 2.969-187.257-1.527-17.176-.667-33.226 1.756-50.424 1.318-113.061-2.882-112.665 106.9-267.35 95.064" data-name="Path 4494" opacity="0.787" transform="translate(6.277 62.622)"/>
        <path id="Path_4495" stroke-width="0.638px" d="M1994.05 136.526c-87.121 21.465-119.631 3.436-152.494-11.171-47.225-20.988-81.725-31.048-114.975-35.749-14.924-2.109-21.2 5.859-14.886 14.377 1.4 9.806 25.306 31.354-22.185 52.038-31.163 13.572-54.3 19.08-105.009 84.816C1552.749 282 1482.8 315.945 1477.027 256.2c-10.8-11.258-32.08-75.4-56.693-144.729-17.4-49.026-41.062-84.658-78.971-60.38-47.035 30.125-100.115 108.858-147.091 109.883-18.6.406-61.28-18.22-110.67-46.082-33.725-19.027-68.891-39.334-95.765-50.061C870.852 18.138 853 54.355 874.574 104.037c8.238 18.963 1.385 37.533-16.074 51.573-39.548 13.359-73.5 11.69-193.849 6.61-17.293-.75-33.646 1.221-51.038.458-117.023-5.141-114.422 109.136-268.844 98.607" data-name="Path 4495" opacity="0.806" transform="translate(5.707 57.972)"/>
        <path id="Path_4496" stroke-width="0.602px" d="M1993.576 147.16c-84.534 20.453-116.985 4.417-148.785-9.339-45.338-19.613-77.495-30.723-111.365-37.712-14.937-3.081-22.033 3.734-17.616 11.625-.809 9.2 18.652 30.352-25.767 51.714-30.251 14.549-52.861 23-101.342 84.8-32.761 41.76-104.393 75.059-108.82 11-9.465-13.59-29.229-81.68-53.241-151.349-17.385-50.44-41.2-86.527-79.4-59.751-47.061 32.982-99.683 117.05-147.451 114.975-18.731-.815-62.229-21.751-111.584-50.738-34.151-20.056-69.508-41.123-96.069-51.9-119.75-48.605-135.857-9.356-111.07 44.315 9.524 20.615 5.387 43.778-14.43 56.7C830.6 185 787.228 181.9 666.2 176.242c-17.407-.831-34.057.686-51.651-.4-120.962-7.465-116.178 111.369-270.339 102.15" data-name="Path 4496" opacity="0.826" transform="translate(5.136 53.047)"/>
        <path id="Path_4497" stroke-width="0.567px" d="M1993.1 157.81c-81.942 19.439-114.336 5.4-145.072-7.508-43.449-18.244-73.306-30.368-107.757-39.675-14.967-4.044-22.867 1.606-20.344 8.875-3.018 8.589 12.03 29.413-29.348 51.389-29.318 15.572-51.456 26.888-97.68 84.777-33.8 42.332-107.086 75.01-110.164 6.63-8.125-15.92-26.365-87.963-49.789-157.968-17.35-51.856-41.362-88.4-79.841-59.122-47.116 35.846-99.272 125.27-147.807 120.066-18.867-2.022-63.168-25.286-112.5-55.391-34.566-21.094-70.12-42.918-96.376-53.75-122.487-50.527-136.85-8.214-108.865 49.44 10.812 22.272 7.121 46.755-12.779 61.828-35.647 27-85.325 29.123-207.025 22.883-17.522-.917-34.465.144-52.263-1.259-124.872-9.848-117.934 113.6-271.834 105.693" data-name="Path 4497" opacity="0.845" transform="translate(4.566 48.106)"/>
        <path id="Path_4498" stroke-width="0.531px" d="M1992.628 168.473c-79.354 18.427-111.688 6.374-141.361-5.677-41.561-16.878-69.161-29.991-104.149-41.64-15.018-5-23.7-.517-23.071 6.125-5.226 7.98 5.452 28.539-32.93 51.065-28.352 16.642-50.073 30.754-94.016 84.759-34.882 42.871-97.789 73.676-111.511 2.263-3.675-19.123-23.489-94.248-46.335-164.586-17.3-53.275-41.549-90.267-80.277-58.5-47.2 38.718-98.89 133.516-148.166 125.16-19.015-3.225-64.095-28.829-113.411-60.045-34.978-22.14-70.733-44.715-96.682-55.593C875.5-.688 862.875 44.724 894.053 106.363c12.1 23.925 8.788 49.75-11.13 66.953-35.4 30.577-91.239 37.842-213.612 31.019-17.64-1-34.869-.4-52.876-2.117-128.756-12.29-119.693 115.835-273.335 109.236" data-name="Path 4498" opacity="0.864" transform="translate(3.994 43.152)"/>
        <path id="Path_4499" stroke-width="0.496px" d="M1992.152 179.15c-76.762 17.415-109.035 7.348-137.649-3.845-39.667-15.517-65.057-29.6-100.537-43.6-15.091-5.956-24.538-2.643-25.8 3.375-7.437 7.37-1.075 27.716-36.511 50.74-27.34 17.764-48.712 34.595-90.35 84.739-36.012 43.368-102.738 74.245-112.858-2.1-2.8-21.108-20.606-100.531-42.884-171.205-17.241-54.695-41.75-92.129-80.713-57.869-47.307 41.6-98.536 141.776-148.523 130.25-19.173-4.419-65.012-32.372-114.326-64.7-35.378-23.189-71.343-46.514-96.988-57.437C877.086-7 866.182 41.542 900.545 107.166c13.4 25.582 10.4 52.774-9.481 72.082-35.27 34.242-97.153 46.558-220.2 39.156-17.756-1.083-35.264-.947-53.488-2.979-132.611-14.782-121.45 118.069-274.829 112.775" data-name="Path 4499" opacity="0.884" transform="translate(3.423 38.184)"/>
        <path id="Path_4500" stroke-width="0.461px" d="M1991.678 189.84c-74.175 16.4-106.384 8.317-133.937-2.014-37.775-14.162-60.992-29.2-96.93-45.569-15.18-6.912-25.371-4.768-28.529.625-9.646 6.762-7.536 26.945-40.093 50.416-26.273 18.942-47.367 38.41-86.685 84.72-37.2 43.81-107.485 74.59-114.2-6.47-1.923-23.2-17.709-106.81-39.43-177.825C1434.7 37.607 1409.9-.263 1370.72 36.481c-47.434 44.488-98.211 150.048-148.882 135.345-19.346-5.614-65.92-35.921-115.241-69.354-35.769-24.246-71.95-48.315-97.293-59.282-130.618-56.524-139.813-4.819-102.267 64.793 14.692 27.235 11.986 55.833-7.832 77.206-35.227 38-103.064 55.277-226.79 47.292-17.869-1.164-35.653-1.495-54.1-3.837-136.432-17.322-123.205 120.3-276.322 116.324" data-name="Path 4500" opacity="0.903" transform="translate(2.853 33.203)"/>
        <path id="Path_4501" stroke-width="0.425px" d="M1991.2 200.541c-71.585 15.389-103.732 9.28-130.229-.183-35.878-12.813-56.96-28.809-93.319-47.532-15.286-7.871-25.594-6.147-31.256-2.125-10.889 7.735-13.921 26.209-43.674 50.091-25.132 20.173-46.037 42.2-83.023 84.7-38.45 44.187-112.034 74.773-115.549-10.836-1.04-25.377-14.805-113.089-35.978-184.445-17.072-57.54-42.2-95.838-81.583-56.613-47.58 47.39-97.915 158.325-149.243 140.435-19.524-6.8-66.815-39.472-116.154-74.006-36.152-25.306-72.554-50.12-97.6-61.128-133.284-58.588-140.785-3.686-100.062 69.911 15.987 28.892 13.543 58.93-6.182 82.335-35.256 41.833-108.98 64-233.38 55.429-17.987-1.249-36.041-2.044-54.713-4.7-140.231-19.91-124.963 122.536-277.819 119.867" data-name="Path 4501" opacity="0.923" transform="translate(2.282 28.211)"/>
        <path id="Path_4502" stroke-width="0.39px" d="M1990.728 211.249c-68.995 14.377-101.074 10.238-126.515 1.649-33.98-11.473-52.963-28.419-89.712-49.495-15.4-8.836-26.728-8.443-33.984-4.878-13.57 6.666-20.218 25.495-47.256 49.767-23.9 21.457-44.717 45.956-79.358 84.682-39.789 44.482-116.4 74.84-116.9-15.2-.15-27.614-11.893-119.366-32.524-191.062-16.969-58.968-42.449-97.684-82.021-55.989-47.741 50.3-97.641 166.6-149.6 145.53-19.717-8-67.7-43.025-117.068-78.663-36.53-26.371-73.158-51.923-97.9-62.971-135.943-60.69-141.873-2.495-97.869 75.028 17.242 30.569 15.089 62.057-4.533 87.46-35.331 45.743-114.888 72.712-239.967 63.564-18.1-1.33-36.422-2.6-55.326-5.555-144-22.538-126.72 124.769-279.313 123.41" data-name="Path 4502" opacity="0.942" transform="translate(1.712 23.212)"/>
        <path id="Path_4503" stroke-width="0.354px" d="M1990.254 221.975c-66.407 13.363-98.418 11.187-122.8 3.48-32.082-10.14-48.99-28.042-86.1-51.46-15.539-9.806-27.734-10.767-36.712-7.626-16.052 5.616-26.418 24.781-50.838 49.442-22.564 22.785-43.4 49.682-75.693 84.662-41.231 44.664-120.615 74.819-118.242-19.569.752-29.9-8.972-125.639-29.072-197.682-16.849-60.394-42.7-99.519-82.455-55.36-47.915 53.227-97.394 174.878-149.959 150.62-19.92-9.191-68.583-46.579-117.983-83.315-36.9-27.44-73.759-53.732-98.207-64.815-138.58-62.829-142.81-1.387-95.67 80.143 18.555 32.218 16.626 65.221-2.884 92.589-35.446 49.724-120.806 81.431-246.558 71.7-18.218-1.416-36.8-3.15-55.938-6.415-147.743-25.2-128.476 127-280.808 126.953" data-name="Path 4503" opacity="0.961" transform="translate(1.141 18.195)"/>
        <path id="Path_4504" stroke-width="0.319px" d="M1989.778 232.712c-63.815 12.351-95.759 12.128-119.092 5.312-30.181-8.818-45.037-27.675-82.494-53.423-15.683-10.783-28.663-13.089-39.44-10.378-18.409 4.634-32.508 24.049-54.419 49.118-21.106 24.148-42.088 53.375-72.029 84.643-42.8 44.7-124.691 74.74-119.587-23.937 1.665-32.22-6.046-131.907-25.622-204.3-16.715-61.819-42.966-101.347-82.895-54.731-48.1 56.161-97.165 183.145-150.316 155.713-20.13-10.39-69.453-50.134-118.9-87.971-37.26-28.511-74.357-55.539-98.511-66.658-141.192-65-143.745-.276-93.472 85.262 19.869 33.865 18.161 68.411-1.235 97.716-35.585 53.762-126.72 90.15-253.145 79.839a564.039 564.039 0 0 1-56.553-7.275c-151.456-27.9-130.232 129.234-282.3 130.5" data-name="Path 4504" opacity="0.981" transform="translate(.571 13.167)"/>
        <path id="Path_4505" stroke-width="0.283px" d="M1989.3 243.46c-138.945 25.73-126.724 1.931-194.267-48.246-67.752-50.33-96.489 48.246-168.534 120.291-44.546 44.549-128.652 74.619-120.932-28.3 4.847-64.628-19.3-370.518-105.5-265.024-48.3 59.108-96.956 191.4-150.676 160.805-35.809-20.4-163.365-135.292-218.63-161.128-143.782-67.214-144.68.834-91.271 90.379 66.145 110.879-88.671 227.663-316.474 182.683-155.147-30.636-131.991 131.467-283.8 134.039" data-name="Path 4505" transform="translate(0 8.128)"/>
    </g>
</svg>
