<svg xmlns="http://www.w3.org/2000/svg" id="Group_933" width="40.536" height="40.536" data-name="Group 933" viewBox="0 0 40.536 40.536">
    <path id="Path_4005" fill="#3e5c9a" d="M286.613 120.65a20.268 20.268 0 0 1-20.268-20.268 20.268 20.268 0 0 1 20.268-20.268 20.268 20.268 0 0 1 20.268 20.268 20.268 20.268 0 0 1-20.268 20.268z" data-name="Path 4005" transform="translate(-266.345 -80.114)"/>
    <path id="Path_4006" fill="#fff" d="M294.769 118.8h4.931v-12.353h3.442l.367-4.137H299.7v-2.356c0-.975.2-1.361 1.139-1.361h2.67V94.3H300.1c-3.671 0-5.326 1.617-5.326 4.712v3.3H292.2v4.188h2.566z" data-name="Path 4006" transform="translate(-277.59 -86.283)"/>
</svg>
