<svg xmlns="http://www.w3.org/2000/svg" id="Group_935" width="40.536" height="40.536" data-name="Group 935" viewBox="0 0 40.536 40.536">
    <defs>
        <radialGradient id="radial-gradient" cx="-.025" cy="1.003" r="1.849" gradientUnits="objectBoundingBox">
            <stop offset="0" stop-color="#f5ec53"/>
            <stop offset=".241" stop-color="#e48244"/>
            <stop offset=".397" stop-color="#d05667"/>
            <stop offset=".489" stop-color="#c84278"/>
            <stop offset="1" stop-color="#192cfa"/>
        </radialGradient>
        <style>
            .cls-2{fill:#fff}
        </style>
    </defs>
    <path id="Path_4007" fill="url(#radial-gradient)" d="M391.646 120.65a20.268 20.268 0 0 1-20.268-20.268 20.268 20.268 0 0 1 20.268-20.268 20.268 20.268 0 0 1 20.268 20.268 20.268 20.268 0 0 1-20.268 20.268z" data-name="Path 4007" transform="translate(-371.378 -80.114)"/>
    <g id="Group_934" data-name="Group 934" transform="translate(9.155 9.155)">
        <path id="Path_4008" d="M398.69 98.316c2.967 0 3.319.011 4.491.064a6.15 6.15 0 0 1 2.064.383 3.683 3.683 0 0 1 2.109 2.109 6.151 6.151 0 0 1 .383 2.064c.053 1.172.064 1.523.064 4.491s-.011 3.319-.064 4.491a6.143 6.143 0 0 1-.383 2.063 3.682 3.682 0 0 1-2.109 2.109 6.139 6.139 0 0 1-2.064.383c-1.172.053-1.523.065-4.491.065s-3.319-.012-4.491-.065a6.132 6.132 0 0 1-2.063-.383 3.68 3.68 0 0 1-2.109-2.109 6.161 6.161 0 0 1-.383-2.063c-.054-1.172-.064-1.523-.064-4.491s.011-3.319.064-4.491a6.169 6.169 0 0 1 .383-2.064 3.682 3.682 0 0 1 2.109-2.109 6.142 6.142 0 0 1 2.063-.383c1.172-.053 1.524-.064 4.491-.064m0-2c-3.018 0-3.4.013-4.582.067a8.162 8.162 0 0 0-2.7.517 5.682 5.682 0 0 0-3.25 3.25 8.151 8.151 0 0 0-.516 2.7c-.054 1.186-.067 1.564-.067 4.582s.013 3.4.067 4.582a8.155 8.155 0 0 0 .516 2.7 5.682 5.682 0 0 0 3.25 3.25 8.177 8.177 0 0 0 2.7.517c1.185.054 1.564.067 4.582.067s3.4-.013 4.582-.067a8.181 8.181 0 0 0 2.7-.517 5.682 5.682 0 0 0 3.25-3.25 8.169 8.169 0 0 0 .517-2.7c.054-1.185.067-1.564.067-4.582s-.013-3.4-.067-4.582a8.165 8.165 0 0 0-.517-2.7 5.682 5.682 0 0 0-3.25-3.25 8.166 8.166 0 0 0-2.7-.517c-1.186-.054-1.564-.067-4.582-.067" class="cls-2" data-name="Path 4008" transform="translate(-387.577 -96.314)"/>
        <path id="Path_4009" d="M402.85 105.88a5.707 5.707 0 1 0 5.707 5.707 5.707 5.707 0 0 0-5.707-5.707m0 9.411a3.7 3.7 0 1 1 3.7-3.7 3.7 3.7 0 0 1-3.7 3.7" class="cls-2" data-name="Path 4009" transform="translate(-391.737 -100.474)"/>
        <path id="Path_4010" d="M418.045 104.455a1.334 1.334 0 1 1-1.334-1.333 1.334 1.334 0 0 1 1.334 1.333" class="cls-2" data-name="Path 4010" transform="translate(-399.666 -99.275)"/>
    </g>
</svg>
