<svg xmlns="http://www.w3.org/2000/svg" width="38" height="38" viewBox="0 0 38 38">
    <defs>
        <linearGradient id="linear-gradient" x1="1" x2="0" y2="1" gradientUnits="objectBoundingBox">
            <stop offset="0" stop-color="#ff956f"/>
            <stop offset="1" stop-color="#fc6c7c"/>
        </linearGradient>
        <linearGradient id="linear-gradient-2" x2=".329" y1=".011" y2=".432" gradientUnits="objectBoundingBox">
            <stop offset="0" stop-color="#f143ff"/>
            <stop offset="1" stop-color="#fff" stop-opacity="0"/>
        </linearGradient>
        <linearGradient id="linear-gradient-3" x1=".188" x2=".762" y1=".113" y2=".152" gradientUnits="objectBoundingBox">
            <stop offset="0" stop-color="#2880b8"/>
            <stop offset="1" stop-color="#289cac" stop-opacity="0"/>
        </linearGradient>
        <clipPath id="clip-path">
            <circle id="Ellipse_1150" cx="19" cy="19" r="19" class="cls-1" data-name="Ellipse 1150" transform="translate(-832 8851)"/>
        </clipPath>
        <clipPath id="clip-path-2">
            <path id="Rectangle_2583" d="M0 0H274V211H0z" class="cls-1" data-name="Rectangle 2583" transform="translate(.394 .262)"/>
        </clipPath>
        <filter id="Ellipse_1149" width="439" height="440" x="-140" y="-142" filterUnits="userSpaceOnUse">
            <feOffset dx="-10" dy="-10"/>
            <feGaussianBlur result="blur" stdDeviation="20"/>
            <feFlood flood-opacity=".161"/>
            <feComposite in2="blur" operator="in"/>
            <feComposite in="SourceGraphic"/>
        </filter>
        <style>
            .cls-1{fill:none}.cls-7{fill:#fff}
        </style>
    </defs>
    <g id="Group_19964" data-name="Group 19964" transform="translate(176 -8514)">
        <g id="Mask_Group_65" clip-path="url(#clip-path)" data-name="Mask Group 65" transform="translate(656 -337)">
            <path id="Rectangle_2580" fill="url(#linear-gradient)" d="M0 0H274V211H0z" data-name="Rectangle 2580" transform="translate(-950 8696.999)"/>
            <path id="Rectangle_2581" d="M0 0H274V211H0z" class="cls-1" data-name="Rectangle 2581" transform="translate(-950 8696.999)"/>
            <path id="Rectangle_2582" fill="url(#linear-gradient-2)" d="M0 0H274V211H0z" data-name="Rectangle 2582" transform="translate(-950 8696.999)"/>
            <g id="Mask_Group_64" clip-path="url(#clip-path-2)" data-name="Mask Group 64" transform="translate(-950.394 8696.737)">
                <g filter="url(#Ellipse_1149)" transform="translate(118.39 154.26)">
                    <ellipse id="Ellipse_1149-2" cx="159.5" cy="160" fill="url(#linear-gradient-3)" data-name="Ellipse 1149" rx="159.5" ry="160" transform="translate(-70 -72)"/>
                </g>
            </g>
        </g>
        <g id="Group_19963" data-name="Group 19963" transform="translate(-232.245 8500.685)">
            <path id="Path_28207" d="M84.875 37.63q0-8.6-.007-17.2c0-.1.005-.2.007-.3h-.229c-.045.057-.111.037-.169.047a8.479 8.479 0 0 0-1.769.405 4.711 4.711 0 0 0-1.372.6 1.987 1.987 0 0 0-.444.274 4.428 4.428 0 0 0-1.58 1.927c-.027.053-.058.1-.08.159a6.786 6.786 0 0 0-.444 2.617c-.007 2.437 0 4.874-.005 7.311v4.836A5.839 5.839 0 0 1 75 43.605a14.745 14.745 0 0 0 5.124-.576 7.247 7.247 0 0 0 3.34-2.078 5.316 5.316 0 0 0 1.229-2.27 2.037 2.037 0 0 0 .138-.6.9.9 0 0 0 .044-.451z" class="cls-7" data-name="Path 28207" transform="translate(-2.455)"/>
            <path id="Path_28208" d="M73.612 45.062a4.587 4.587 0 0 1-1.943-2.3l-.225-.735-.1-.55-.087-1.148a12.064 12.064 0 0 1 .1-1.321q.159-.576.316-1.153l.552-1.145a6.028 6.028 0 0 1 1.929-1.984c.121-.072.083-.123-.017-.168a3.483 3.483 0 0 0-1.136-.324 3.9 3.9 0 0 0-.917-.057 3.968 3.968 0 0 0-.825 0 3.431 3.431 0 0 0-1.16.133 3.235 3.235 0 0 0-.952.286 1.565 1.565 0 0 0-.554.258 3.624 3.624 0 0 0-.871.564.462.462 0 0 0-.058.035 6.068 6.068 0 0 0-1.713 7.3 5.687 5.687 0 0 0 4.232 3.173 4.429 4.429 0 0 0 3.373-.651c.07-.051.26-.091.056-.213z" class="cls-7" data-name="Path 28208" transform="translate(0 -3.578)"/>
        </g>
    </g>
</svg>
