<svg xmlns="http://www.w3.org/2000/svg" width="596" height="217" viewBox="0 0 596 217">
    <defs>
        <style>
            .cls-3,.cls-6{fill:#fff}.cls-3{opacity:.6}.cls-12{fill:#ee78c5}.cls-7{fill:#bd94f8}.cls-8{fill:#70ef78}.cls-9{fill:#f9d649}.cls-10{fill:#ecfa50}.cls-11{fill:#bc93f7}.cls-13{fill:#86cefa}
        </style>
    </defs>
    <g id="Group_19993" data-name="Group 19993" transform="translate(-802 -940)">
        <path id="Rectangle_2536" fill="#505669" d="M0 0h596v167a12 12 0 0 1-12 12H12a12 12 0 0 1-12-12V0z" data-name="Rectangle 2536" transform="translate(802 978)"/>
        <g id="Group_19736" data-name="Group 19736" transform="translate(0 -63)">
            <path id="Path_27556" fill="#3d4255" d="M14.962 0h566.076C589.3 0 596 5.373 596 12v26H0V12C0 5.373 6.7 0 14.962 0z" data-name="Path 27556" transform="translate(802 1003)"/>
            <circle id="Ellipse_1134" cx="6" cy="6" r="6" class="cls-3" data-name="Ellipse 1134" transform="translate(827 1016)"/>
            <circle id="Ellipse_1135" cx="6" cy="6" r="6" class="cls-3" data-name="Ellipse 1135" transform="translate(849 1016)"/>
            <circle id="Ellipse_1133" cx="6" cy="6" r="6" class="cls-3" data-name="Ellipse 1133" transform="translate(871 1016)"/>
            <text id="_Documents_ActyvExperience_KycEngine.actyv" fill="#fff" data-name="~/Documents/ActyvExperience/KycEngine.actyv" font-family="NunitoSans-Regular, Nunito Sans" font-size="12px" letter-spacing="0.01em" transform="translate(901 1025)">
                <tspan x="0" y="0">~/Documents/ActyvExperience/KycEngine.actyv</tspan>
            </text>
        </g>
        <text id="const_engine_require_actyv-re_const_instance_engine.getKYCEnngine_Instance.fireEngine_facts:_pan:_XXXXXXXXXX_dob:_XX-XX-XXXX_" fill="#ee78c5" data-name="const engine = require(“actyv-re”); const instance = engine.getKYCEnngine({ Instance.fireEngine({ facts: { pan: “XXXXXXXXXX” dob: “XX-XX-XXXX, }});" font-family="NunitoSans-SemiBold, Nunito Sans" font-size="12px" font-weight="600" letter-spacing="0.08em" transform="translate(849 1010)">
            <tspan x="0" y="0">const</tspan><tspan y="0" class="cls-6"> </tspan><tspan y="0" class="cls-7">engine</tspan><tspan y="0" class="cls-6"> </tspan><tspan y="0">=</tspan><tspan y="0" class="cls-6"> </tspan><tspan y="0" class="cls-8">require</tspan><tspan y="0" class="cls-9">(</tspan><tspan y="0" class="cls-10">“actyv-re”</tspan><tspan y="0" class="cls-9">)</tspan><tspan y="0" class="cls-6">;</tspan><tspan x="0" y="18">const</tspan><tspan y="18" class="cls-6"> </tspan><tspan y="18" class="cls-11">instance</tspan><tspan y="18" class="cls-6"> </tspan><tspan y="18">=</tspan><tspan y="18" class="cls-6"> </tspan><tspan y="18" class="cls-11">engine</tspan><tspan y="18" class="cls-6">.</tspan><tspan y="18" class="cls-8">getKYCEnngine</tspan><tspan y="18" class="cls-10">(</tspan><tspan y="18" class="cls-7">{</tspan><tspan class="cls-6"><tspan x="0" y="36"> Instance.</tspan><tspan y="36" class="cls-12">fireEngine(</tspan><tspan y="36" class="cls-10">{</tspan></tspan><tspan class="cls-11"><tspan x="0" y="54">facts: </tspan><tspan y="54" class="cls-10">{</tspan></tspan><tspan class="cls-6"><tspan x="0" y="72"> pan</tspan><tspan y="72" class="cls-12">: “XXXXXXXXXX”</tspan><tspan y="72"> </tspan><tspan x="0" y="90"> dob</tspan><tspan y="90" class="cls-12">:</tspan><tspan y="90"> </tspan><tspan y="90" class="cls-11">“XX-XX-XXXX</tspan><tspan y="90">,</tspan></tspan><tspan class="cls-10"><tspan x="0" y="108">}</tspan></tspan><tspan x="0" y="126">}</tspan><tspan y="126" class="cls-10">)</tspan><tspan y="126" class="cls-6">;</tspan>
        </text>
    </g>
</svg>
