<svg xmlns="http://www.w3.org/2000/svg" id="Group_929" width="40.536" height="40.536" data-name="Group 929" viewBox="0 0 40.536 40.536">
    <path id="Path_4000" fill="#29a9e1" d="M77.735 120.65a20.268 20.268 0 0 1-20.268-20.268 20.268 20.268 0 0 1 20.268-20.268A20.268 20.268 0 0 1 98 100.382a20.268 20.268 0 0 1-20.265 20.268z" data-name="Path 4000" transform="translate(-57.467 -80.114)"/>
    <path id="Path_4001" fill="#fff" d="M74.222 116.01a12.6 12.6 0 0 0 19.387-11.19 8.973 8.973 0 0 0 2.211-2.294 8.829 8.829 0 0 1-2.544.7 4.439 4.439 0 0 0 1.947-2.451 8.888 8.888 0 0 1-2.813 1.076 4.434 4.434 0 0 0-7.551 4.041 12.576 12.576 0 0 1-9.133-4.63 4.437 4.437 0 0 0 1.372 5.916 4.426 4.426 0 0 1-2.008-.554 4.436 4.436 0 0 0 3.554 4.4 4.437 4.437 0 0 1-2 .076 4.432 4.432 0 0 0 4.139 3.077 8.9 8.9 0 0 1-6.561 1.833z" data-name="Path 4001" transform="translate(-64.753 -88.957)"/>
</svg>
