<svg xmlns="http://www.w3.org/2000/svg" xmlns:xlink="http://www.w3.org/1999/xlink" width="1440" height="585" viewBox="0 0 1440 585">
  <defs>
    <style>
      .cls-1, .cls-10, .cls-11, .cls-12, .cls-13, .cls-14, .cls-15, .cls-16, .cls-17, .cls-18, .cls-19, .cls-20, .cls-21, .cls-22, .cls-23, .cls-24, .cls-25, .cls-26, .cls-27, .cls-28, .cls-29, .cls-30, .cls-31, .cls-32, .cls-33, .cls-34, .cls-35, .cls-36, .cls-37, .cls-38, .cls-39, .cls-7, .cls-8, .cls-9 {
        fill: none;
      }

      .cls-2 {
        clip-path: url(#clip-path);
      }

      .cls-3 {
        fill: #023c60;
      }

      .cls-4 {
        fill: url(#linear-gradient);
      }

      .cls-5 {
        fill: #91929a;
      }

      .cls-6 {
        opacity: 0.5;
      }

      .cls-10, .cls-11, .cls-12, .cls-13, .cls-14, .cls-15, .cls-16, .cls-17, .cls-18, .cls-19, .cls-20, .cls-21, .cls-22, .cls-23, .cls-24, .cls-25, .cls-26, .cls-27, .cls-28, .cls-29, .cls-30, .cls-31, .cls-32, .cls-33, .cls-34, .cls-35, .cls-36, .cls-37, .cls-38, .cls-39, .cls-7, .cls-8, .cls-9 {
        stroke: #fff;
        stroke-linecap: round;
        stroke-linejoin: round;
        stroke-dasharray: 0 2.574;
      }

      .cls-7 {
        stroke-width: 1.417px;
        opacity: 0.38;
      }

      .cls-8 {
        stroke-width: 1.382px;
        opacity: 0.399;
      }

      .cls-9 {
        stroke-width: 1.346px;
        opacity: 0.419;
      }

      .cls-10 {
        stroke-width: 1.311px;
        opacity: 0.438;
      }

      .cls-11 {
        stroke-width: 1.276px;
        opacity: 0.458;
      }

      .cls-12 {
        stroke-width: 1.24px;
        opacity: 0.477;
      }

      .cls-13 {
        stroke-width: 1.205px;
        opacity: 0.496;
      }

      .cls-14 {
        stroke-width: 1.169px;
        opacity: 0.516;
      }

      .cls-15 {
        stroke-width: 1.134px;
        opacity: 0.535;
      }

      .cls-16 {
        stroke-width: 1.098px;
        opacity: 0.554;
      }

      .cls-17 {
        stroke-width: 1.063px;
        opacity: 0.574;
      }

      .cls-18 {
        stroke-width: 1.028px;
        opacity: 0.593;
      }

      .cls-19 {
        stroke-width: 0.992px;
        opacity: 0.613;
      }

      .cls-20 {
        stroke-width: 0.957px;
        opacity: 0.632;
      }

      .cls-21 {
        stroke-width: 0.921px;
        opacity: 0.651;
      }

      .cls-22 {
        stroke-width: 0.886px;
        opacity: 0.671;
      }

      .cls-23 {
        stroke-width: 0.85px;
        opacity: 0.69;
      }

      .cls-24 {
        stroke-width: 0.815px;
        opacity: 0.709;
      }

      .cls-25 {
        stroke-width: 0.78px;
        opacity: 0.729;
      }

      .cls-26 {
        stroke-width: 0.744px;
        opacity: 0.748;
      }

      .cls-27 {
        stroke-width: 0.709px;
        opacity: 0.767;
      }

      .cls-28 {
        stroke-width: 0.673px;
        opacity: 0.787;
      }

      .cls-29 {
        stroke-width: 0.638px;
        opacity: 0.806;
      }

      .cls-30 {
        stroke-width: 0.602px;
        opacity: 0.826;
      }

      .cls-31 {
        stroke-width: 0.567px;
        opacity: 0.845;
      }

      .cls-32 {
        stroke-width: 0.531px;
        opacity: 0.864;
      }

      .cls-33 {
        stroke-width: 0.496px;
        opacity: 0.884;
      }

      .cls-34 {
        stroke-width: 0.461px;
        opacity: 0.903;
      }

      .cls-35 {
        stroke-width: 0.425px;
        opacity: 0.923;
      }

      .cls-36 {
        stroke-width: 0.39px;
        opacity: 0.942;
      }

      .cls-37 {
        stroke-width: 0.354px;
        opacity: 0.961;
      }

      .cls-38 {
        stroke-width: 0.319px;
        opacity: 0.981;
      }

      .cls-39 {
        stroke-width: 0.283px;
      }

      .cls-40, .cls-41 {
        fill: #fff;
      }

      .cls-40 {
        opacity: 0.6;
      }

      .cls-41 {
        font-size: 14px;
        font-family: Avenir-Book, Avenir;
      }
    </style>
    <clipPath id="clip-path">
      <rect id="Rectangle_2660" data-name="Rectangle 2660" class="cls-1" width="1440" height="585" transform="translate(-2891 7320)"/>
    </clipPath>
    <linearGradient id="linear-gradient" x1="1" y1="0.458" x2="0" y2="0.467" gradientUnits="objectBoundingBox">
      <stop offset="0" stop-color="#023c60"/>
      <stop offset="1" stop-color="#4d5a65"/>
    </linearGradient>
  </defs>
  <g id="Mask_Group_103" data-name="Mask Group 103" class="cls-2" transform="translate(2891 -7320)">
    <rect id="Rectangle_2528" data-name="Rectangle 2528" class="cls-3" width="1440" height="585" transform="translate(-2891 7320)"/>
    <rect id="Rectangle_244" data-name="Rectangle 244" class="cls-4" width="1440" height="527" transform="translate(-2891 7378)"/>
    <rect id="Rectangle_2535" data-name="Rectangle 2535" class="cls-5" width="1440" height="58" transform="translate(-2891 7320)"/>
    <g id="Group_1048" data-name="Group 1048" class="cls-6" transform="translate(-3325.217 7524.35)">
      <path id="Path_4473" data-name="Path 4473" class="cls-7" d="M356.979,54.921C565.928,106.259,563.6,21.194,611.406,17.7c98.135-7.18.909,81.738,45.478,160.368C715.6,281.657,868.607,314.353,938.8,312.1c48.334-1.553,70.6-25.12,84.24-52.383,47.925-95.788,158.636,23.014,194.042,71.007,76.484,103.676,169.174-53.813,195.822-104.483,79-150.208,124.509-81.789,172.676-79.291,107.019,5.548-6.144-33.462-52.659-55.053C1415.854,37.56,1538.81-62.387,1671.751,15.3c52.524,30.7,83.774,88.562,217.812,47.872" transform="translate(15.748 0)"/>
      <path id="Path_4474" data-name="Path 4474" class="cls-8" d="M1889.083,65.006c-131.631,39.749-162.83-16.259-214.362-46.169-80.514-46.791-157.062-28.157-177.456,5.113-12.574,20.515-3.415,46.965,39.45,67.1,44.459,21.022,153.588,58.918,49.327,54.751-47.222-1.888-90.655-66.359-169.267,79.273-13.168,24.4-42.418,70.309-73.681,99.6-36.792,34.47-80.733,50.549-120.183-5.333-13.553-19.2-37.521-47.467-64.952-68.423-45.489-34.755-99.433-54.345-129.827,2.737-13.867,26.041-36.826,48.074-85.091,48.051-21.949-.009-51.483-3.294-83.123-10.539-52.785-12.086-107.609-31.227-148.322-63.5-18.159-14.461-34.681-31.57-47.178-52.183-44.914-74.073,47.157-159.439-51.608-152.8-13.823.926-23.405,8.684-35.509,17.206C545.436,62.319,505.182,97.793,356.424,62.4" transform="translate(15.256 3.48)"/>
      <path id="Path_4475" data-name="Path 4475" class="cls-9" d="M1888.6,66.844c-129.22,38.805-160.37-15.342-210.908-44.465-78.767-45.506-153.413-28.2-174.1,3.285-12.761,19.422-4.139,44.876,36.911,64.54,42.46,20.337,147.49,57.247,46,54.447-46.282-1.275-87.8-61.873-165.858,79.256-13.866,25.071-45.37,69.689-74.933,95.535-36.149,31.606-78.678,45.074-116.972-11.491-13.789-20.368-37.743-48.808-65.355-67.838-45.7-31.5-99.268-46.931-130.161,7.473-14.093,24.816-37.768,45.282-85.942,43.724-22.382-.724-52.117-4.722-83.406-12.255-55.49-13.359-108.554-30.1-146.277-58.737-16.972-12.884-33.164-28.263-45.644-47.412-45.263-69.46,41.656-151.329-57.735-145.232-13.931.849-23.579,8.609-36.079,16.408C543.16,65.9,504.383,104.062,355.869,69.89" transform="translate(14.763 6.953)"/>
      <path id="Path_4476" data-name="Path 4476" class="cls-10" d="M1888.123,68.69c-126.813,37.864-157.911-14.427-207.455-42.761-77.018-44.224-149.755-28.257-170.742,1.458-12.94,18.321-4.886,42.841,34.374,61.98,40.435,19.713,141.379,55.588,42.663,54.147-45.348-.664-85.1-57.454-162.451,79.237-14.57,25.748-48.272,68.994-76.184,91.473-35.538,28.62-76.562,39.541-113.759-17.649-14.017-21.551-37.939-50.136-65.763-67.253-45.876-28.227-99.1-39.524-130.493,12.21-14.315,23.588-38.728,42.444-86.792,39.394-22.828-1.449-52.745-6.18-83.691-13.97-58.2-14.653-109.462-29.006-144.23-53.977-15.768-11.325-31.642-24.937-44.11-42.644-45.61-64.782,36.155-143.219-63.865-137.661-14.038.772-23.814,8.488-36.649,15.608-38.237,21.211-75.39,62.059-223.661,29.106" transform="translate(14.271 10.417)"/>
      <path id="Path_4477" data-name="Path 4477" class="cls-11" d="M1887.643,70.544c-124.4,36.922-155.453-13.51-204-41.058-75.269-42.939-146.084-28.329-167.384-.37-13.114,17.213-5.632,40.805,31.836,59.424,38.411,19.087,135.261,53.941,39.332,53.843-44.423-.045-82.542-53.1-159.041,79.22-15.28,26.429-51.1,68.212-77.437,87.411-34.951,25.484-74.392,33.957-110.549-23.8-14.236-22.747-38.105-51.459-66.167-66.672-46.006-24.944-98.925-32.125-130.829,16.947-14.534,22.358-39.7,39.569-87.641,35.064-23.28-2.187-53.372-7.663-83.974-15.685-60.909-15.966-110.373-27.9-142.185-49.217-14.566-9.759-30.108-21.586-42.575-37.873-45.95-60.035,30.651-135.11-70-130.094-14.146.694-24.1,8.324-37.219,14.81-41.618,20.571-77.024,64.136-225.051,32.4" transform="translate(13.779 13.873)"/>
      <path id="Path_4478" data-name="Path 4478" class="cls-12" d="M1887.162,72.409c-121.995,35.979-152.993-12.593-200.55-39.354-73.521-41.654-142.4-28.414-164.028-2.2-13.278,16.1-6.375,38.768,29.3,56.864,36.391,18.46,129.131,52.311,36,53.543-43.5.574-80.109-48.8-155.632,79.2-16,27.114-53.826,67.317-78.69,83.35-34.368,22.16-72.173,28.331-107.336-29.963-14.449-23.952-38.241-52.772-66.572-66.087-46.088-21.664-98.744-24.737-131.163,21.684-14.749,21.122-40.683,36.655-88.492,30.734-23.739-2.939-53.992-9.171-84.259-17.4C812.121,225.483,764.456,216,735.6,198.328c-13.365-8.186-28.561-18.211-41.041-33.106-46.263-55.209,25.152-127-76.124-122.523-14.255.617-24.422,8.116-37.79,14.01-45.1,19.885-78.658,66.212-226.442,35.7" transform="translate(13.287 17.319)"/>
      <path id="Path_4479" data-name="Path 4479" class="cls-13" d="M1886.682,74.286c-119.587,35.038-150.535-11.676-197.1-37.651-71.774-40.371-138.7-28.514-160.672-4.022-13.434,14.976-7.116,36.728,26.76,54.305,34.371,17.832,122.991,50.7,32.668,53.24-42.59,1.2-77.79-44.565-152.222,79.184-16.721,27.8-54.481,70.6-79.942,79.286-29.991,24.226-69.907,22.671-104.125-36.119-14.65-25.171-38.339-54.083-66.978-65.5-46.112-18.389-98.55-17.355-131.5,26.422-14.962,19.885-41.675,33.7-89.343,26.407-24.2-3.707-54.609-10.7-84.542-19.119-66.327-18.655-112.188-25.637-138.093-39.7-12.163-6.6-26.991-14.806-39.507-28.335-46.534-50.3,19.651-118.889-82.253-114.956-14.361.54-24.777,7.873-38.358,13.212C532.8,80.076,501.19,129.229,353.649,99.934" transform="translate(12.795 20.753)"/>
      <path id="Path_4480" data-name="Path 4480" class="cls-14" d="M1886.2,76.148c-117.176,34.1-148.129-10.665-193.645-35.947-70.105-38.939-134.978-28.629-157.313-5.85-13.578,13.849-7.856,34.689,24.222,51.747,32.353,17.206,116.839,49.1,29.337,52.94-41.688,1.826-75.579-40.382-148.814,79.165-17.447,28.484-56.986,70.553-81.193,75.224-28.744,22.056-67.6,16.977-100.914-42.277-14.84-26.4-38.4-55.4-67.381-64.919-46.082-15.134-98.348-9.982-131.829,31.159-15.17,18.641-42.671,30.716-90.194,22.075-24.673-4.484-55.222-12.244-84.825-20.834C814.614,198.6,770.566,194.17,747.6,183.7c-10.957-5-25.4-11.374-37.973-23.567-46.737-45.312,14.149-110.779-88.383-107.385-14.468.462-25.152,7.592-38.928,12.412C530,83.466,500.391,135.523,353.094,107.447" transform="translate(12.303 24.202)"/>
      <path id="Path_4481" data-name="Path 4481" class="cls-15" d="M1885.721,78.05c-114.769,33.153-145.677-9.737-190.193-34.243C1627.162,6.171,1564.3,15.049,1541.573,36.13c-13.708,12.718-8.593,32.646,21.683,49.189,30.34,16.577,110.673,47.529,26,52.636-40.792,2.46-73.464-36.245-145.405,79.148-18.185,29.169-59.5,70.508-82.446,71.162-27.5,19.887-65.259,11.257-97.7-48.434-15.021-27.633-38.43-56.734-67.789-64.336-46-11.91-98.131-2.617-132.161,35.9-15.372,17.4-43.667,27.693-91.043,17.745-25.146-5.281-55.834-13.806-85.112-22.548-71.739-21.426-113.948-23.239-134-30.176-9.744-3.369-23.763-7.907-36.438-18.8C670.324,117.37,725.814,54.949,622.653,57.8c-14.578.385-25.548,7.28-39.5,11.614-56.02,17.4-83.561,72.443-230.615,45.586" transform="translate(11.811 27.611)"/>
      <path id="Path_4482" data-name="Path 4482" class="cls-16" d="M1885.242,79.969c-112.36,32.212-143.224-8.808-186.742-32.54-66.627-36.334-127.46-28.9-150.6-9.5-13.821,11.584-9.325,30.6,19.145,46.631,28.329,15.949,104.5,45.978,22.673,52.336-39.905,3.1-71.437-32.157-142,79.129-18.928,29.853-62,70.462-83.7,67.1-26.252,17.719-62.88,5.513-94.49-54.59-15.187-28.88-38.422-58.086-68.193-63.754-45.859-8.731-97.9,4.739-132.495,40.633-15.566,16.151-44.665,24.641-91.894,13.417-25.616-6.088-56.441-15.379-85.395-24.265-74.439-22.845-114.744-21.956-131.956-25.414-8.5-1.709-22.088-4.411-34.9-14.029-46.81-35.125,3.147-94.558-100.642-92.247-14.685.308-25.954,6.941-40.069,10.814-59.762,16.4-85.195,74.52-232.007,48.882" transform="translate(11.318 31.003)"/>
      <path id="Path_4483" data-name="Path 4483" class="cls-17" d="M1884.761,81.908c-109.95,31.27-140.77-7.88-183.288-30.836-64.887-35.034-123.657-29.04-147.241-11.331-13.916,10.45-10.054,28.555,16.608,44.073,26.323,15.321,98.31,44.45,19.341,52.032-39.026,3.747-69.491-28.112-138.587,79.112-19.679,30.536-64.512,70.417-84.951,63.039-25,15.549-60.471-.249-91.277-60.748-15.344-30.133-38.388-59.465-68.6-63.169-45.68-5.6-97.65,12.091-132.829,45.371-15.753,14.9-45.659,21.558-92.745,9.086-26.088-6.911-57.045-16.966-85.678-25.98-77.135-24.282-115.386-20.617-129.911-20.654-7.2-.019-20.356-.887-33.37-9.257-46.6-29.976-2.355-86.449-106.772-84.68-14.791.232-26.367,6.577-40.637,10.016-63.538,15.308-86.83,76.6-233.4,52.177" transform="translate(10.826 34.374)"/>
      <path id="Path_4484" data-name="Path 4484" class="cls-18" d="M1884.281,83.868c-107.543,30.329-138.317-6.952-179.835-29.133C1641.3,21,1584.627,25.55,1560.562,41.578c-13.989,9.318-10.774,26.507,14.07,41.513,24.322,14.693,92.111,42.952,16.01,51.732-38.154,4.4-67.619-24.111-135.18,79.093-20.436,31.219-67.017,70.37-86.2,58.977-23.762,13.382-58.035-6.028-88.068-66.906-15.487-31.393-38.33-60.878-69-62.586-45.467-2.532-97.378,19.439-133.161,50.108-15.93,13.653-46.65,18.451-93.6,4.758-26.556-7.746-57.645-18.564-85.963-27.7-79.824-25.744-115.752-19.33-127.864-15.893-5.78,1.639-17.451.026-31.836-4.488-40.677-33.1-7.856-78.341-112.9-77.111-14.9.153-26.788,6.192-41.209,9.216-67.334,14.121-88.464,78.675-234.79,55.473" transform="translate(10.334 37.725)"/>
      <path id="Path_4485" data-name="Path 4485" class="cls-19" d="M1883.8,85.856c-105.132,29.386-135.863-6.026-176.383-27.429-61.4-32.434-115.944-29.329-140.526-14.985-14.042,8.2-11.491,24.456,11.532,38.956,22.326,14.063,85.9,41.482,12.678,51.428-37.294,5.065-65.814-20.145-131.771,79.076-21.2,31.9-69.525,70.324-87.453,54.915-22.514,11.212-55.569-11.819-84.855-73.064-15.619-32.659-38.256-62.329-69.409-62-45.231.474-97.087,26.788-133.5,54.845-16.1,12.4-47.633,15.315-94.445.426-27.022-8.593-58.243-20.17-86.245-29.41-82.508-27.231-115.893-18.372-125.818-11.135-4.279,3.12-15.748,3.2-30.3.281C706.983,118.8,733.95,77.532,628.277,78.221c-15.008.075-27.208,5.786-41.778,8.416-71.143,12.836-90.1,80.752-236.18,58.769" transform="translate(9.842 41.048)"/>
      <path id="Path_4486" data-name="Path 4486" class="cls-20" d="M1883.32,87.873c-102.724,28.444-133.408-5.1-172.93-25.726-59.661-31.136-112.035-29.459-137.17-16.811-14.072,7.082-12.2,22.4,9,36.4,20.339,13.434,79.682,40.047,9.346,51.127-36.44,5.739-64.072-16.219-128.362,79.057-21.979,32.572-72.034,70.279-88.706,50.853-21.267,9.042-53.081-17.624-81.644-79.22-15.736-33.934-38.177-63.823-69.813-61.42-44.988,3.418-96.772,34.14-133.831,59.582-16.253,11.159-48.612,12.161-95.3-3.9-27.484-9.456-58.837-21.784-86.53-31.127-85.181-28.738-116.263-17.851-123.772-6.373-2.881,4.4-14.044,6.371-28.767,5.05-39.969-24.824-18.858-62.12-125.16-61.973-15.115,0-27.631,5.367-42.346,7.618-74.964,11.457-91.732,82.829-237.573,62.065" transform="translate(9.35 44.341)"/>
      <path id="Path_4487" data-name="Path 4487" class="cls-21" d="M1882.839,89.925c-100.314,27.5-130.952-4.171-169.476-24.02-57.918-29.838-108.09-29.57-133.812-18.638-14.084,5.984-12.9,20.341,6.454,33.838,18.366,12.808,73.454,38.649,6.016,50.825-35.594,6.426-62.388-12.327-124.953,79.042-22.763,33.242-74.541,70.232-89.958,46.787-20.022,6.877-50.568-23.437-78.433-85.376-15.84-35.213-38.1-65.359-70.219-60.835-44.744,6.3-96.431,41.5-134.163,64.32-16.4,9.918-49.581,8.984-96.146-8.231-27.943-10.331-59.43-23.409-86.813-32.844-87.851-30.27-117.127-17.391-121.727-1.613-1.656,5.679-12.34,9.542-27.233,9.82-39.617-20.685-24.36-54.009-131.288-54.4-15.223-.079-28.054,4.933-42.918,6.818-78.78,9.986-93.365,84.906-238.963,65.361" transform="translate(8.858 47.598)"/>
      <path id="Path_4488" data-name="Path 4488" class="cls-22" d="M1882.359,92.023c-97.906,26.561-128.5-3.247-166.025-22.316-56.173-28.542-104.112-29.65-130.454-20.466-14.076,4.907-13.58,18.281,3.916,31.282,16.4,12.184,67.217,37.29,2.685,50.521-34.756,7.128-60.755-8.465-121.546,79.025-23.558,33.906-77.048,70.187-91.209,42.726-18.775,4.707-48.036-29.259-75.22-91.534-15.933-36.5-38.03-66.934-70.625-60.252-44.516,9.127-96.067,48.874-134.5,69.057-16.532,8.684-50.543,5.788-97-12.561-28.393-11.216-60.018-25.037-87.1-34.559-90.509-31.825-118.24-16.721-119.682,3.149-.513,7.05-10.636,12.714-25.7,14.589-39.262-16.545-29.861-45.9-137.417-46.835-15.331-.157-28.472,4.488-43.488,6.02-82.595,8.422-95,86.983-240.353,68.657" transform="translate(8.366 50.811)"/>
      <path id="Path_4489" data-name="Path 4489" class="cls-23" d="M1881.88,94.179c-95.5,25.62-126.041-2.322-162.573-20.613-54.428-27.248-100.106-29.693-127.1-22.292-14.051,3.852-14.245,16.219,1.379,28.721,14.453,11.567,60.973,35.975-.647,50.221-33.926,7.843-59.173-4.639-118.136,79.007-24.365,34.564-79.556,70.141-92.462,38.664-17.528,2.539-45.486-35.087-72.009-97.691-16.01-37.786-37.977-68.549-71.03-59.667-44.308,11.9-95.68,56.264-134.829,73.794-16.657,7.458-51.5,2.577-97.846-16.891-28.842-12.114-60.609-26.673-87.383-36.273-93.158-33.406-119.378-15.872-117.634,7.907.622,8.5-8.933,15.887-24.164,19.358-38.909-12.406-35.362-37.788-143.549-39.264-15.438-.234-28.889,4.032-44.057,5.22-86.4,6.771-96.633,89.06-241.744,71.953" transform="translate(7.874 53.966)"/>
      <path id="Path_4490" data-name="Path 4490" class="cls-24" d="M1881.4,96.409c-93.088,24.678-123.583-1.4-159.121-18.909C1669.6,51.544,1626.2,47.81,1598.539,53.38c-14.017,2.824-14.889,14.157-1.158,26.165,12.529,10.955,54.724,34.706-3.979,49.917-33.1,8.578-57.635-.84-114.728,78.99-25.186,35.215-82.065,70.1-93.714,34.6-16.283.37-42.916-40.922-68.8-103.847-16.074-39.081-37.947-70.2-71.436-59.084-44.129,14.642-95.273,63.68-135.163,78.529-16.772,6.245-52.442-.649-98.7-21.218-29.282-13.021-61.194-28.316-87.666-37.99-95.8-35.011-120.474-14.919-115.589,12.668,1.768,9.991-7.23,19.056-22.63,24.128-38.554-8.267-40.864-29.68-149.676-31.7-15.547-.311-29.3,3.566-44.627,4.422C500.487,114,492.41,200.1,347.543,184.213" transform="translate(7.382 57.046)"/>
      <path id="Path_4491" data-name="Path 4491" class="cls-25" d="M1880.919,98.745c-90.681,23.735-121.127-.477-155.668-17.206C1674.317,56.874,1633.2,51.9,1604.868,55.593c-13.98,1.819-15.5,12.1-3.7,23.605,10.631,10.363,48.476,33.489-7.311,49.617-32.281,9.333-56.139,2.93-111.318,78.971-26.02,35.855-84.572,70.051-94.967,30.54-15.036-1.8-40.33-46.759-65.585-110.005-16.125-40.379-37.941-71.873-71.839-58.5-43.986,17.351-94.85,71.128-135.5,83.268-16.881,5.043-53.375-3.89-99.548-25.55C985.393,113.6,953.33,97.577,927.158,87.833,828.73,51.189,805.633,73.919,813.613,105.261c2.928,11.508-5.526,22.23-21.1,28.9-38.2-4.128-46.365-21.567-155.806-24.126-15.655-.389-29.712,3.092-45.2,3.622-93.967,3.217-99.9,93.215-244.527,78.544" transform="translate(6.89 60.022)"/>
      <path id="Path_4492" data-name="Path 4492" class="cls-26" d="M1880.437,102.206c-88.27,22.794-118.666.443-152.214-15.5-49.185-23.377-88.015-29.525-117.027-27.772-13.942.841-16.081,10.05-6.233,21.047,8.773,9.8,42.228,32.321-10.642,49.314-31.463,10.114-54.681,6.673-107.909,78.954-26.871,36.485-87.079,70.006-96.22,26.478-13.789-3.967-37.728-52.6-62.374-116.163-16.161-41.68-37.962-73.573-72.245-57.916-43.874,20.036-94.418,78.607-135.829,88-16.987,3.856-54.3-7.139-100.4-29.878-30.14-14.866-62.357-31.614-88.234-41.422-101.044-38.3-122.536-12.885-111.5,22.19,4.1,13.033-3.822,25.4-19.562,33.666-37.847.011-51.864-13.459-161.935-16.559-15.76-.466-30.114,2.611-45.767,2.824-97.723,1.322-101.536,95.292-245.917,81.84" transform="translate(6.398 61.871)"/>
      <path id="Path_4493" data-name="Path 4493" class="cls-27" d="M1879.958,111.435c-85.862,21.852-116.208,1.362-148.763-13.8-47.434-22.09-83.993-29.361-113.667-29.6-13.911-.111-16.619,8.037-8.772,18.489,6.961,9.276,35.986,31.212-13.974,49.014-30.644,10.918-53.259,10.389-104.5,78.935-27.737,37.1-89.587,69.958-97.471,22.416-12.544-6.137-35.113-58.445-59.161-122.321C1317.462,71.582,1295.632,39.28,1261,57.235c-43.8,22.705-93.982,86.125-136.165,92.743-17.089,2.681-55.209-10.4-101.247-34.21-30.559-15.8-62.935-33.268-88.517-43.137C831.416,32.647,811.547,60.787,825.615,99.581c5.281,14.566-2.119,28.572-18.026,38.437-37.494,4.149-57.367-5.35-168.065-8.99-15.87-.543-30.516,2.124-46.338,2.024-101.459-.645-103.17,97.369-247.307,85.136" transform="translate(5.906 57.953)"/>
      <path id="Path_4494" data-name="Path 4494" class="cls-28" d="M1879.479,120.695c-83.453,20.909-113.748,2.279-145.311-12.095-45.682-20.805-80-29.144-110.311-31.427-13.891-1.047-18.943,7.426-11.31,15.93,3.356,9.69,29.755,30.159-17.306,48.71-29.821,11.755-51.868,14.081-101.093,78.918-28.625,37.7-92.094,69.913-98.723,18.355-11.3-8.3-32.483-64.291-55.951-128.477-16.193-44.3-38.092-77.018-73.056-56.75-43.76,25.365-93.551,93.677-136.5,97.48-17.2,1.522-56.113-13.672-102.1-38.539-30.97-16.747-63.512-34.926-88.8-44.852-106.243-41.7-124.485-10.8-107.405,31.71,6.469,16.1-.415,31.744-16.493,43.2-37.139,8.29-62.869,2.762-174.194-1.421-15.978-.621-30.908,1.634-46.906,1.226-105.174-2.681-104.806,99.446-248.7,88.432" transform="translate(5.414 54.004)"/>
      <path id="Path_4495" data-name="Path 4495" class="cls-29" d="M1879,130.015c-81.044,19.968-111.286,3.2-141.856-10.391-43.931-19.524-76.024-28.882-106.954-33.255-13.883-1.962-19.72,5.45-13.848,13.374,1.3,9.122,23.541,29.167-20.638,48.408-28.989,12.625-50.509,17.749-97.683,78.9-29.536,38.286-94.6,69.868-99.976,14.291-10.05-10.473-29.842-70.136-52.738-134.633-16.191-45.606-38.2-78.752-73.462-56.168-43.754,28.023-93.132,101.265-136.83,102.217-17.306.377-57.005-16.949-102.949-42.867-31.372-17.7-64.086-36.59-89.085-46.569-108.824-43.437-125.436-9.746-105.362,36.47,7.663,17.64,1.288,34.915-14.957,47.976-36.785,12.427-68.37,10.871-180.322,6.148-16.087-.7-31.3,1.136-47.478.426C486,149.56,488.419,255.866,344.768,246.071" transform="translate(4.921 49.994)"/>
      <path id="Path_4496" data-name="Path 4496" class="cls-30" d="M1878.518,139.573c-78.637,19.026-108.824,4.109-138.406-8.688-42.175-18.245-72.089-28.58-103.6-35.081-13.895-2.866-20.5,3.473-16.387,10.814-.753,8.556,17.351,28.235-23.969,48.106-28.14,13.534-49.174,21.392-94.273,78.882-30.476,38.847-97.11,69.823-101.229,10.229-8.8-12.642-27.19-75.982-49.527-140.791-16.172-46.921-38.326-80.491-73.866-55.583-43.778,30.682-92.73,108.885-137.164,106.955-17.425-.758-57.888-20.234-103.8-47.2-31.768-18.656-64.659-38.254-89.368-48.283-111.392-45.2-126.375-8.693-103.317,41.231,8.859,19.177,5.011,40.724-13.423,52.743-33.523,21.86-73.869,18.981-186.452,13.717-16.193-.773-31.682.638-48.048-.372-112.524-6.945-108.073,103.6-251.48,95.024" transform="translate(4.429 45.747)"/>
      <path id="Path_4497" data-name="Path 4497" class="cls-31" d="M1878.036,149.145c-76.226,18.083-106.36,5.02-134.952-6.984-40.418-16.972-68.193-28.25-100.24-36.907-13.923-3.762-21.271,1.494-18.924,8.256-2.807,7.99,11.191,27.361-27.3,47.8-27.273,14.485-47.867,25.012-90.866,78.863-31.444,39.379-99.615,69.777-102.479,6.167-7.558-14.81-24.526-81.827-46.316-146.948-16.14-48.238-38.477-82.231-74.271-55-43.829,33.345-92.347,116.531-137.5,111.69-17.551-1.881-58.761-23.522-104.651-51.527-32.155-19.622-65.229-39.924-89.653-50-113.942-47-127.3-7.641-101.27,45.991,10.057,20.719,6.624,43.493-11.887,57.515-33.161,25.114-79.373,27.091-192.583,21.286-16.3-.853-32.061.134-48.617-1.172C480.368,169.02,486.822,283.858,343.658,276.5" transform="translate(3.937 41.486)"/>
      <path id="Path_4498" data-name="Path 4498" class="cls-32" d="M1877.557,158.728c-73.819,17.142-103.9,5.93-131.5-5.281-38.662-15.7-64.337-27.9-96.884-38.735-13.97-4.652-22.049-.481-21.462,5.7-4.862,7.424,5.071,26.548-30.633,47.5-26.374,15.481-46.58,28.608-87.456,78.846-32.449,39.881-90.968,68.536-103.732,2.105-3.418-17.789-21.85-87.674-43.1-153.1-16.1-49.559-38.651-83.97-74.677-54.417-43.908,36.017-91.992,124.2-137.83,116.429-17.689-3-59.624-26.818-105.5-55.856-32.538-20.6-65.8-41.6-89.937-51.715-116.48-48.832-128.228-6.588-99.225,50.751,11.259,22.256,8.175,46.28-10.354,62.282-32.93,28.444-84.874,35.2-198.711,28.855-16.41-.928-32.436-.372-49.187-1.97C477.593,178.686,486.024,297.873,343.1,291.734" transform="translate(3.444 37.214)"/>
      <path id="Path_4499" data-name="Path 4499" class="cls-33" d="M1877.076,168.323c-71.408,16.2-101.429,6.835-128.047-3.577-36.9-14.434-60.518-27.535-93.524-40.562-14.038-5.541-22.826-2.458-24,3.139-6.918,6.856-1,25.782-33.964,47.2-25.433,16.525-45.314,32.181-84.047,78.827-33.5,40.343-95.571,69.066-104.985-1.956-2.6-19.636-19.168-93.518-39.892-159.262-16.038-50.879-38.837-85.7-75.082-53.832C1249.527,77,1201.872,170.187,1155.371,159.465c-17.836-4.111-60.476-30.114-106.351-60.186-32.91-21.571-66.366-43.269-90.222-53.43-119-50.691-129.145-5.535-97.178,55.511,12.463,23.8,9.678,49.093-8.82,67.053-32.81,31.853-90.375,43.31-204.84,36.424-16.517-1.007-32.8-.881-49.757-2.771C474.844,188.317,485.226,311.9,342.547,306.98" transform="translate(2.952 32.929)"/>
      <path id="Path_4500" data-name="Path 4500" class="cls-34" d="M1876.6,177.929c-69,15.257-98.963,7.737-124.594-1.873-35.14-13.174-56.738-27.167-90.168-42.39-14.121-6.429-23.6-4.435-26.539.581-8.972,6.29-7.01,25.065-37.3,46.9-24.441,17.621-44.063,35.73-80.638,78.81-34.6,40.754-99.987,69.387-106.238-6.018-1.788-21.583-16.474-99.359-36.679-165.42-15.968-52.2-39.043-87.43-75.488-53.249-44.126,41.384-91.36,139.581-138.5,125.9-18-5.222-61.322-33.415-107.2-64.516C1019.985,74.1,986.328,51.713,962.753,41.51c-121.506-52.581-130.06-4.483-95.133,60.273,13.667,25.335,11.15,51.938-7.286,71.821-32.77,35.347-95.875,51.421-210.97,43.993-16.623-1.083-33.166-1.39-50.327-3.569-126.915-16.113-114.61,111.911-257.046,108.209" transform="translate(2.46 28.634)"/>
      <path id="Path_4501" data-name="Path 4501" class="cls-35" d="M1876.117,187.545c-66.591,14.315-96.5,8.633-121.144-.17-33.376-11.919-52.987-26.8-86.81-44.216-14.219-7.322-23.809-5.718-29.076-1.977-10.129,7.2-12.95,24.38-40.627,46.6-23.379,18.766-42.826,39.252-77.231,78.792-35.768,41.105-104.219,69.557-107.489-10.08-.968-23.607-13.772-105.2-33.468-171.578-15.881-53.526-39.258-89.153-75.892-52.664-44.261,44.084-91.084,147.28-138.832,130.639-18.162-6.33-62.154-36.719-108.051-68.844C1023.867,70.5,990,47.421,966.709,37.18c-123.992-54.5-130.971-3.43-93.088,65.033,14.872,26.876,12.6,54.819-5.75,76.592-32.8,38.915-101.378,59.531-217.1,51.562-16.732-1.162-33.527-1.9-50.9-4.369C469.427,207.477,483.629,339.985,341.437,337.5" transform="translate(1.968 24.328)"/>
      <path id="Path_4502" data-name="Path 4502" class="cls-36" d="M1875.635,197.167c-64.182,13.374-94.024,9.524-117.689,1.534-31.61-10.672-49.268-26.437-83.453-46.042-14.331-8.22-24.863-7.854-31.614-4.537-12.623,6.2-18.807,23.716-43.959,46.3-22.234,19.96-41.6,42.75-73.822,78.775-37.013,41.379-108.283,69.619-108.741-14.142-.14-25.688-11.063-111.039-30.255-177.734-15.785-54.854-39.488-90.869-76.3-52.083-44.41,46.793-90.83,154.981-139.164,135.378-18.341-7.441-62.98-40.024-108.9-73.175-33.981-24.531-68.055-48.3-91.073-58.579C844.2-23.6,838.687,30.536,879.622,102.651c16.04,28.437,14.036,57.728-4.217,81.359-32.868,42.554-106.879,67.642-223.229,59.131-16.84-1.238-33.881-2.415-51.466-5.167-133.955-20.966-117.88,116.065-259.829,114.8" transform="translate(1.476 20.018)"/>
      <path id="Path_4503" data-name="Path 4503" class="cls-37" d="M1875.156,206.8c-61.774,12.431-91.553,10.406-114.237,3.237-29.844-9.433-45.573-26.086-80.1-47.87-14.455-9.122-25.8-10.016-34.151-7.094-14.932,5.224-24.575,23.052-47.291,45.993-20.99,21.2-40.375,46.216-70.413,78.756-38.355,41.548-112.2,69.6-109.994-18.2.7-27.814-8.346-116.874-27.044-183.892-15.674-56.181-39.724-92.577-76.7-51.5-44.573,49.514-90.6,162.679-139.5,140.113-18.53-8.55-63.8-43.329-109.752-77.5-34.325-25.526-68.613-49.983-91.356-60.294-128.913-58.447-132.848-1.29-89,74.552,17.26,29.97,15.466,60.671-2.683,86.13-32.974,46.255-112.378,75.75-229.358,66.7-16.947-1.317-34.23-2.93-52.036-5.967-137.436-23.445-119.514,118.142-261.219,118.1" transform="translate(0.984 15.691)"/>
      <path id="Path_4504" data-name="Path 4504" class="cls-38" d="M1874.675,216.451c-59.363,11.489-89.079,11.282-110.784,4.941-28.076-8.2-41.9-25.744-76.739-49.7-14.589-10.031-26.663-12.176-36.688-9.654-17.125,4.311-30.24,22.371-50.623,45.691-19.634,22.464-39.152,49.651-67,78.739C1493.018,328.058,1416.843,356,1421.591,264.2c1.549-29.972-5.624-122.706-23.835-190.047-15.549-57.507-39.969-94.279-77.109-50.913-44.744,52.243-90.386,170.368-139.83,144.85-18.726-9.665-64.608-46.637-110.6-81.835-34.66-26.522-69.17-51.664-91.639-62.008-131.343-60.469-133.718-.257-86.951,79.314,18.483,31.5,16.894,63.638-1.149,90.9-33.1,50.012-117.88,83.861-235.486,74.269a524.707,524.707,0,0,1-52.608-6.767C461.491,236.011,481.234,382.186,339.772,383.36" transform="translate(0.492 11.355)"/>
      <path id="Path_4505" data-name="Path 4505" class="cls-39" d="M1874.195,226.107c-129.252,23.935-117.884,1.8-180.715-44.88-63.025-46.819-89.758,44.88-156.777,111.9-41.439,41.441-119.678,69.413-112.5-26.329,4.509-60.12-17.953-344.67-98.136-246.536-44.927,54.985-90.192,178.053-140.164,149.588C1152.6,150.874,1033.938,43.995,982.529,19.962c-133.752-62.525-134.587.775-84.9,84.074,61.522,103.147-82.495,211.789-294.406,169.942-144.324-28.5-122.783,122.3-264,124.688" transform="translate(0 7.009)"/>
    </g>
    <circle id="Ellipse_36" data-name="Ellipse 36" class="cls-40" cx="6" cy="6" r="6" transform="translate(-2866 7344)"/>
    <circle id="Ellipse_37" data-name="Ellipse 37" class="cls-40" cx="6" cy="6" r="6" transform="translate(-2844 7344)"/>
    <circle id="Ellipse_38" data-name="Ellipse 38" class="cls-40" cx="6" cy="6" r="6" transform="translate(-2822 7344)"/>
    <text id="_Documents_ActyvExperience_request.actyv" data-name="~/Documents/ActyvExperience/request.actyv" class="cls-41" transform="translate(-2792 7353)"><tspan x="0" y="0">~/Documents/ActyvExperience/request.actyv</tspan></text>
  </g>
</svg>
