<svg xmlns="http://www.w3.org/2000/svg" xmlns:xlink="http://www.w3.org/1999/xlink" width="1440" height="585" viewBox="0 0 1440 585">
  <defs>
    <clipPath id="clip-path">
      <rect id="Rectangle_2647" data-name="Rectangle 2647" width="1440" height="585" transform="translate(0 173)" fill="none"/>
    </clipPath>
    <linearGradient id="linear-gradient" x1="0.576" y1="0.982" x2="-0.346" y2="0.151" gradientUnits="objectBoundingBox">
      <stop offset="0" stop-color="#fff"/>
      <stop offset="1" stop-color="#d9d9d9"/>
    </linearGradient>
    <linearGradient id="linear-gradient-2" x1="0.48" y1="0.449" x2="1.123" y2="0.396" gradientUnits="objectBoundingBox">
      <stop offset="0" stop-color="#fff"/>
      <stop offset="1" stop-color="gray"/>
    </linearGradient>
    <clipPath id="clip-path-2">
      <rect id="Rectangle_1681" data-name="Rectangle 1681" width="1440" height="140" transform="translate(8167 -2392)" fill="none"/>
    </clipPath>
    <clipPath id="clip-path-3">
      <rect id="Rectangle_1679" data-name="Rectangle 1679" width="1440" height="682" transform="translate(3127 -2638)" fill="none"/>
    </clipPath>
    <linearGradient id="linear-gradient-3" x1="1" x2="0" y2="1" gradientUnits="objectBoundingBox">
      <stop offset="0" stop-color="#ff956f"/>
      <stop offset="1" stop-color="#fc6c7c"/>
    </linearGradient>
    <linearGradient id="linear-gradient-4" y1="0.011" x2="0.329" y2="0.432" gradientUnits="objectBoundingBox">
      <stop offset="0" stop-color="#f143ff"/>
      <stop offset="1" stop-color="#fff" stop-opacity="0"/>
    </linearGradient>
    <clipPath id="clip-path-4">
      <rect id="Rectangle_1678" data-name="Rectangle 1678" width="1440" height="1103" transform="translate(15437 1293)" fill="none"/>
    </clipPath>
    <linearGradient id="linear-gradient-5" x1="0.188" y1="0.113" x2="0.762" y2="0.152" gradientUnits="objectBoundingBox">
      <stop offset="0" stop-color="#2880b8"/>
      <stop offset="1" stop-color="#289cac" stop-opacity="0"/>
    </linearGradient>
    <filter id="Ellipse_1101" x="180" y="543" width="1792" height="1792" filterUnits="userSpaceOnUse">
      <feOffset dx="-10" dy="-10" input="SourceAlpha"/>
      <feGaussianBlur stdDeviation="20" result="blur"/>
      <feFlood flood-opacity="0.161"/>
      <feComposite operator="in" in2="blur"/>
      <feComposite in="SourceGraphic"/>
    </filter>
    <clipPath id="clip-path-5">
      <rect id="Rectangle_1680" data-name="Rectangle 1680" width="1440.677" height="596.248" transform="translate(0 162)" fill="none"/>
    </clipPath>
    <linearGradient id="linear-gradient-6" x1="0.05" y1="0.197" x2="1" y2="0.47" gradientUnits="objectBoundingBox">
      <stop offset="0" stop-color="#fff" stop-opacity="0.071"/>
      <stop offset="1" stop-color="#fe8475"/>
    </linearGradient>
  </defs>
  <g id="Mask_Group_102" data-name="Mask Group 102" transform="translate(0 -173)" clip-path="url(#clip-path)">
    <g id="Group_20063" data-name="Group 20063">
      <path id="Rectangle_1688" data-name="Rectangle 1688" d="M0,0H1107a70,70,0,0,1,70,70V375a70,70,0,0,1-70,70H0a0,0,0,0,1,0,0V0A0,0,0,0,1,0,0Z" transform="translate(0 173)" fill="url(#linear-gradient)"/>
      <g id="Group_9490" data-name="Group 9490" transform="translate(-716.479 285.695)" opacity="0.6">
        <path id="Path_4473" data-name="Path 4473" d="M356.979,46.408C539.816,91.331,537.782,16.9,579.611,13.836c85.871-6.283.8,71.524,39.795,140.327C670.784,244.81,804.67,273.42,866.094,271.447c42.294-1.359,61.777-21.981,73.713-45.837,41.936-83.817,138.811,20.138,169.792,62.134,66.926,90.719,148.033-47.088,171.351-91.426,69.125-131.437,108.949-71.568,151.1-69.383,93.645,4.855-5.377-29.281-46.078-48.173-102.44-47.545,5.151-135,121.478-67.022,45.961,26.861,73.3,77.495,190.593,41.89" transform="translate(11.56 0)" fill="none" stroke="#3b2a2b" stroke-linecap="round" stroke-linejoin="round" stroke-width="1.417" stroke-dasharray="0 2.574" opacity="0.38"/>
        <path id="Path_4474" data-name="Path 4474" d="M1697.55,55.723C1582.368,90.5,1555.068,41.5,1509.976,15.324,1439.524-25.619,1372.542-9.314,1354.7,19.8c-11,17.951-2.988,41.1,34.52,58.712,38.9,18.4,134.394,51.555,43.163,47.909-41.32-1.652-79.326-58.066-148.114,69.366-11.523,21.347-37.117,61.523-64.473,87.15-32.194,30.162-70.644,44.232-105.164-4.667-11.859-16.8-32.832-41.535-56.835-59.872-39.8-30.412-87.007-47.554-113.6,2.4-12.134,22.786-32.224,42.066-74.457,42.047-19.206-.008-45.049-2.882-72.735-9.222-46.189-10.575-94.161-27.324-129.786-55.562-15.889-12.654-30.347-27.625-41.282-45.662-39.3-64.816,41.264-139.515-45.158-133.7-12.1.811-20.48,7.6-31.072,15.056-27.884,19.628-63.108,50.669-193.275,19.7" transform="translate(11.199 2.554)" fill="none" stroke="#3b2a2b" stroke-linecap="round" stroke-linejoin="round" stroke-width="1.382" stroke-dasharray="0 2.574" opacity="0.399"/>
        <path id="Path_4475" data-name="Path 4475" d="M1697.059,57.821C1583.987,91.777,1556.731,44.4,1512.508,18.913c-68.924-39.82-134.242-24.677-152.341,2.874-11.166,17-3.622,39.268,32.3,56.475,37.154,17.8,129.058,50.093,40.247,47.643-40.5-1.116-76.828-54.14-145.131,69.351-12.133,21.938-39.7,60.98-65.569,83.6-31.631,27.656-68.846,39.441-102.355-10.055-12.066-17.822-33.026-42.709-57.188-59.36-39.993-27.562-86.863-41.066-113.9,6.539-12.332,21.715-33.048,39.623-75.2,38.26-19.585-.634-45.6-4.132-72.983-10.724-48.556-11.689-94.989-26.336-128-51.4-14.851-11.273-29.02-24.731-39.94-41.487C592.847,89.847,668.9,18.21,581.933,23.545c-12.19.743-20.632,7.533-31.57,14.357C519.755,57,485.824,90.389,355.869,60.487" transform="translate(10.838 5.104)" fill="none" stroke="#3b2a2b" stroke-linecap="round" stroke-linejoin="round" stroke-width="1.346" stroke-dasharray="0 2.574" opacity="0.419"/>
        <path id="Path_4476" data-name="Path 4476" d="M1696.57,59.925C1585.6,93.057,1558.393,47.3,1515.04,22.507c-67.393-38.7-131.041-24.726-149.4,1.276-11.323,16.031-4.276,37.487,30.078,54.235,35.382,17.249,123.711,48.642,37.332,47.38-39.681-.581-74.466-50.274-142.149,69.335-12.749,22.53-42.24,60.372-66.664,80.042-31.1,25.043-66.994,34.6-99.543-15.443-12.266-18.857-33.2-43.871-57.545-58.849C1027,175.783,980.43,165.9,952.959,211.167c-12.526,20.64-33.888,37.14-75.946,34.471-19.975-1.268-46.154-5.408-73.232-12.224C752.856,220.592,708,208.032,677.575,186.182c-13.8-9.91-27.688-21.821-38.6-37.315C599.067,92.18,670.613,23.546,583.093,28.409c-12.284.675-20.838,7.427-32.069,13.657-33.459,18.56-65.969,54.3-195.71,25.469" transform="translate(10.476 7.647)" fill="none" stroke="#3b2a2b" stroke-linecap="round" stroke-linejoin="round" stroke-width="1.311" stroke-dasharray="0 2.574" opacity="0.438"/>
        <path id="Path_4477" data-name="Path 4477" d="M1696.081,62.035c-108.857,32.308-136.026-11.822-178.51-35.927-65.863-37.573-127.828-24.789-146.466-.324-11.475,15.062-4.928,35.706,27.858,52,33.611,16.7,118.357,47.2,34.416,47.115-38.872-.04-72.227-46.462-139.166,69.32-13.37,23.126-44.718,59.687-67.76,76.488-30.583,22.3-65.1,29.713-96.734-20.83-12.457-19.9-33.343-45.028-57.9-58.34-40.257-21.827-86.562-28.11-114.48,14.829-12.718,19.564-34.738,34.624-76.689,30.682-20.371-1.913-46.7-6.706-73.48-13.725-53.3-13.971-96.58-24.414-124.416-43.067-12.746-8.54-26.345-18.889-37.254-33.14C605.295,94.581,672.323,28.888,584.253,33.278c-12.378.608-21.086,7.283-32.568,12.959-36.417,18-67.4,56.121-196.927,28.353" transform="translate(10.115 10.184)" fill="none" stroke="#3b2a2b" stroke-linecap="round" stroke-linejoin="round" stroke-width="1.276" stroke-dasharray="0 2.574" opacity="0.458"/>
        <path id="Path_4478" data-name="Path 4478" d="M1695.591,64.152C1588.842,95.635,1561.717,53.133,1520.1,29.716,1455.77-6.732,1395.5,4.853,1376.573,27.795c-11.619,14.086-5.578,33.923,25.636,49.758,31.843,16.153,112.994,45.774,31.5,46.852-38.068.5-70.1-42.705-136.183,69.3-14,23.726-47.1,58.9-68.856,72.933-30.073,19.391-63.154,24.79-93.922-26.218-12.644-20.959-33.462-46.177-58.253-57.828-40.328-18.956-86.4-21.646-114.772,18.975-12.906,18.483-35.6,32.074-77.434,26.894-20.772-2.572-47.245-8.025-73.729-15.227C754.9,198.1,713.188,189.8,687.938,174.335c-11.694-7.163-24.992-15.935-35.912-28.969C611.544,97.057,674.035,34.24,585.415,38.155c-12.474.54-21.37,7.1-33.068,12.259C512.88,67.814,483.52,108.352,354.2,81.651" transform="translate(9.754 12.714)" fill="none" stroke="#3b2a2b" stroke-linecap="round" stroke-linejoin="round" stroke-width="1.24" stroke-dasharray="0 2.574" opacity="0.477"/>
        <path id="Path_4479" data-name="Path 4479" d="M1695.1,66.279c-104.643,30.659-131.723-10.217-172.467-32.946-62.8-35.326-121.367-24.951-140.593-3.52-11.755,13.1-6.227,32.138,23.415,47.519,30.076,15.6,107.621,44.363,28.586,46.586-37.268,1.048-68.069-39-133.2,69.288-14.631,24.323-47.672,61.776-69.952,69.378-26.243,21.2-61.171,19.838-91.112-31.605-12.819-22.025-33.548-47.324-58.608-57.318-40.35-16.091-86.234-15.186-115.063,23.12-13.093,17.4-36.467,29.492-78.178,23.107-21.18-3.244-47.785-9.363-73.977-16.729-58.038-16.323-98.168-22.433-120.835-34.735-10.643-5.776-23.618-12.956-34.57-24.794C617.831,99.614,675.745,39.6,586.576,43.04c-12.566.472-21.68,6.889-33.565,11.561-42.6,16.744-70.259,59.755-199.362,34.121" transform="translate(9.393 15.235)" fill="none" stroke="#3b2a2b" stroke-linecap="round" stroke-linejoin="round" stroke-width="1.205" stroke-dasharray="0 2.574" opacity="0.496"/>
        <path id="Path_4480" data-name="Path 4480" d="M1694.611,68.394c-102.533,29.835-129.618-9.332-169.446-31.455-61.344-34.073-118.11-25.051-137.654-5.119-11.881,12.119-6.874,30.354,21.195,45.281,28.31,15.056,102.237,42.968,25.671,46.324-36.478,1.6-66.134-35.336-130.217,69.272-15.267,24.924-49.865,61.736-71.047,65.823-25.152,19.3-59.154,14.856-88.3-36.993-12.985-23.1-33.6-48.478-58.961-56.807-40.323-13.243-86.058-8.734-115.355,27.265C957.22,208.3,933.156,218.862,891.572,211.3c-21.59-3.924-48.321-10.714-74.224-18.23C756.939,175.546,718.4,171.667,698.3,162.5c-9.588-4.375-22.222-9.953-33.228-20.622-40.9-39.65,12.381-96.935-77.338-93.965-12.66.4-22.009,6.643-34.063,10.861-45.784,16.021-71.689,61.572-200.579,37" transform="translate(9.031 17.766)" fill="none" stroke="#3b2a2b" stroke-linecap="round" stroke-linejoin="round" stroke-width="1.169" stroke-dasharray="0 2.574" opacity="0.516"/>
        <path id="Path_4481" data-name="Path 4481" d="M1694.122,70.539C1593.7,99.549,1566.65,62.019,1527.7,40.575c-59.823-32.932-114.833-25.164-134.716-6.717-11.995,11.128-7.519,28.566,18.973,43.042,26.548,14.506,96.842,41.589,22.755,46.058-35.694,2.153-64.283-31.716-127.234,69.257-15.912,25.523-52.061,61.7-72.143,62.269-24.062,17.4-57.1,9.85-85.491-42.382-13.144-24.18-33.627-49.644-59.317-56.3-40.247-10.422-85.868-2.29-115.645,31.412-13.451,15.222-38.21,24.232-79.666,15.528-22-4.621-48.856-12.081-74.475-19.731-62.774-18.748-99.708-20.335-117.255-26.4-8.527-2.948-20.794-6.919-31.884-16.447-40.988-35.217,7.567-89.838-82.7-87.344-12.756.337-22.355,6.371-34.563,10.162-49.02,15.226-73.118,63.39-201.8,39.889" transform="translate(8.67 20.268)" fill="none" stroke="#3b2a2b" stroke-linecap="round" stroke-linejoin="round" stroke-width="1.134" stroke-dasharray="0 2.574" opacity="0.535"/>
        <path id="Path_4482" data-name="Path 4482" d="M1693.634,72.7c-98.318,28.186-125.326-7.708-163.406-28.473-58.3-31.793-111.531-25.284-131.777-8.317-12.094,10.136-8.16,26.778,16.753,40.8,24.789,13.956,91.438,40.232,19.839,45.8-34.918,2.712-62.51-28.138-124.251,69.241-16.563,26.123-54.254,61.657-73.239,58.715-22.971,15.5-55.022,4.824-82.682-47.768-13.289-25.271-33.621-50.827-59.671-55.786-40.128-7.64-85.664,4.147-115.937,35.555-13.621,14.133-39.083,21.561-80.41,11.741-22.415-5.327-49.388-13.457-74.723-21.233-65.137-19.99-100.4-19.212-115.465-22.238-7.44-1.5-19.328-3.86-30.542-12.276-40.96-30.735,2.754-82.741-88.065-80.719-12.85.269-22.71,6.073-35.062,9.463-52.293,14.352-74.548,65.208-203.014,42.773" transform="translate(8.308 22.758)" fill="none" stroke="#3b2a2b" stroke-linecap="round" stroke-linejoin="round" stroke-width="1.098" stroke-dasharray="0 2.574" opacity="0.554"/>
        <path id="Path_4483" data-name="Path 4483" d="M1693.143,74.868c-96.21,27.362-123.178-6.9-160.383-26.983-56.779-30.656-108.2-25.411-128.84-9.915-12.177,9.144-8.8,24.987,14.532,38.565,23.034,13.406,86.024,38.9,16.924,45.53-34.149,3.279-60.807-24.6-121.268,69.226-17.22,26.72-56.45,61.617-74.335,55.161-21.88,13.606-52.914-.218-79.87-53.157-13.426-26.367-33.591-52.034-60.026-55.275-39.971-4.9-85.447,10.58-116.23,39.7-13.784,13.038-39.953,18.864-81.155,7.95-22.828-6.047-49.916-14.846-74.971-22.734-67.5-21.248-100.966-18.04-113.676-18.073-6.3-.017-17.812-.776-29.2-8.1-40.779-26.23-2.06-75.646-93.429-74.1-12.942.2-23.072,5.755-35.559,8.764-55.6,13.395-75.979,67.025-204.232,45.657" transform="translate(7.947 25.234)" fill="none" stroke="#3b2a2b" stroke-linecap="round" stroke-linejoin="round" stroke-width="1.063" stroke-dasharray="0 2.574" opacity="0.574"/>
        <path id="Path_4484" data-name="Path 4484" d="M1692.654,77.056c-94.1,26.539-121.032-6.083-157.362-25.492-55.255-29.517-104.846-25.538-125.9-11.513-12.241,8.153-9.428,23.194,12.312,36.325,21.282,12.857,80.6,37.584,14.009,45.267-33.386,3.851-59.169-21.1-118.287,69.209-17.882,27.318-58.642,61.576-75.428,51.606-20.792,11.709-50.783-5.274-77.062-58.545-13.552-27.47-33.54-53.271-60.381-54.765-39.785-2.215-85.209,17.01-116.52,43.846-13.939,11.947-40.82,16.145-81.9,4.163-23.237-6.778-50.441-16.244-75.22-24.236-69.848-22.527-101.286-16.914-111.885-13.907-5.058,1.435-15.27.023-27.858-3.927-35.594-28.965-6.874-68.551-98.79-67.474-13.038.134-23.44,5.418-36.059,8.064-58.92,12.356-77.409,68.843-205.449,48.541" transform="translate(7.586 27.693)" fill="none" stroke="#3b2a2b" stroke-linecap="round" stroke-linejoin="round" stroke-width="1.028" stroke-dasharray="0 2.574" opacity="0.593"/>
        <path id="Path_4485" data-name="Path 4485" d="M1692.163,79.263c-91.994,25.713-118.884-5.273-154.341-24C1484.093,26.881,1436.368,29.6,1414.858,42.15c-12.287,7.171-10.055,21.4,10.091,34.088,19.536,12.305,75.167,36.3,11.094,45-32.634,4.432-57.589-17.628-115.3,69.194-18.552,27.91-60.836,61.536-76.524,48.052-19.7,9.811-48.625-10.342-74.251-63.933-13.667-28.577-33.475-54.54-60.735-54.253-39.578.414-84.955,23.44-116.814,47.991-14.085,10.854-41.68,13.4-82.642.373-23.645-7.52-50.964-17.649-75.467-25.735-72.2-23.828-101.41-16.076-110.1-9.743-3.744,2.73-13.78,2.8-26.514.246-35.285-25.343-11.688-61.452-104.155-60.849-13.132.066-23.808,5.063-36.557,7.364-62.253,11.232-78.837,70.66-206.665,51.425" transform="translate(7.225 30.132)" fill="none" stroke="#3b2a2b" stroke-linecap="round" stroke-linejoin="round" stroke-width="0.992" stroke-dasharray="0 2.574" opacity="0.613"/>
        <path id="Path_4486" data-name="Path 4486" d="M1691.674,81.493c-89.887,24.889-116.736-4.462-151.32-22.511-52.206-27.245-98.034-25.778-120.028-14.711-12.314,6.2-10.674,19.6,7.871,31.849,17.8,11.756,69.724,35.042,8.178,44.737-31.886,5.022-56.065-14.192-112.321,69.178-19.232,28.5-63.032,61.5-77.62,44.5-18.61,7.912-46.448-15.422-71.441-69.32-13.77-29.693-33.406-55.847-61.089-53.744-39.366,2.991-84.679,29.873-117.106,52.136-14.222,9.765-42.537,10.641-83.387-3.414-24.049-8.274-51.484-19.062-75.717-27.237-74.536-25.147-101.734-15.62-108.3-5.576-2.521,3.851-12.289,5.575-25.172,4.419-34.974-21.722-16.5-54.357-109.519-54.228-13.226,0-24.178,4.7-37.054,6.666-65.6,10.025-80.268,72.478-207.884,54.309" transform="translate(6.864 32.55)" fill="none" stroke="#3b2a2b" stroke-linecap="round" stroke-linejoin="round" stroke-width="0.957" stroke-dasharray="0 2.574" opacity="0.632"/>
        <path id="Path_4487" data-name="Path 4487" d="M1691.184,83.748c-87.778,24.067-114.587-3.65-148.3-21.018-50.68-26.109-94.582-25.875-117.09-16.309-12.324,5.236-11.285,17.8,5.648,29.609,16.071,11.207,64.275,33.819,5.264,44.473-31.146,5.623-54.591-10.786-109.338,69.165-19.919,29.088-65.226,61.455-78.716,40.94-17.52,6.017-44.249-20.508-68.631-74.706-13.86-30.813-33.337-57.191-61.444-53.233-39.153,5.512-84.38,36.313-117.4,56.282-14.349,8.678-43.385,7.861-84.131-7.2-24.451-9.04-52-20.483-75.964-28.739C764.216,96.522,738.6,107.792,734.573,121.6c-1.449,4.969-10.8,8.35-23.83,8.593-34.666-18.1-21.315-47.26-114.881-47.6-13.321-.069-24.548,4.317-37.555,5.966-68.935,8.738-81.7,74.3-209.1,57.193" transform="translate(6.502 34.941)" fill="none" stroke="#3b2a2b" stroke-linecap="round" stroke-linejoin="round" stroke-width="0.921" stroke-dasharray="0 2.574" opacity="0.651"/>
        <path id="Path_4488" data-name="Path 4488" d="M1690.695,86.036c-85.671,23.242-112.439-2.841-145.277-19.528-49.153-24.975-91.1-25.944-114.151-17.908-12.317,4.294-11.883,16,3.427,27.372,14.352,10.661,58.817,32.63,2.349,44.207-30.413,6.237-53.163-7.407-106.356,69.15-20.614,29.669-67.419,61.416-79.811,37.386-16.429,4.119-42.033-25.6-65.82-80.095-13.942-31.935-33.277-58.57-61.8-52.722-38.953,7.987-84.062,42.766-117.689,60.427-14.466,7.6-44.227,5.065-84.876-10.991-24.845-9.814-52.518-21.908-76.212-30.24-79.2-27.848-103.464-14.631-104.725,2.755-.449,6.169-9.307,11.125-22.488,12.766-34.355-14.478-26.129-40.163-120.244-40.982-13.415-.137-24.914,3.927-38.053,5.268-72.273,7.369-83.127,76.113-210.317,60.077" transform="translate(6.141 37.299)" fill="none" stroke="#3b2a2b" stroke-linecap="round" stroke-linejoin="round" stroke-width="0.886" stroke-dasharray="0 2.574" opacity="0.671"/>
        <path id="Path_4489" data-name="Path 4489" d="M1690.206,88.367c-83.563,22.418-110.29-2.032-142.257-18.037-47.626-23.843-87.6-25.982-111.214-19.506-12.3,3.371-12.465,14.192,1.207,25.132,12.647,10.121,53.353,31.48-.566,43.945-29.687,6.862-51.778-4.059-103.373,69.133-21.32,30.245-69.614,61.376-80.907,33.832-15.338,2.222-39.8-30.7-63.01-85.483-14.009-33.064-33.231-59.983-62.154-52.211-38.771,10.417-83.723,49.233-117.979,64.572-14.575,6.526-45.061,2.255-85.618-14.78-25.238-10.6-53.034-23.339-76.463-31.74-81.516-29.231-104.459-13.888-102.934,6.919.545,7.439-7.817,13.9-21.144,16.939-34.047-10.856-30.943-33.066-125.61-34.357-13.509-.2-25.279,3.528-38.552,4.568-75.6,5.925-84.557,77.931-211.533,62.961" transform="translate(5.78 39.615)" fill="none" stroke="#3b2a2b" stroke-linecap="round" stroke-linejoin="round" stroke-width="0.85" stroke-dasharray="0 2.574" opacity="0.69"/>
        <path id="Path_4490" data-name="Path 4490" d="M1689.715,90.753c-81.455,21.594-108.139-1.225-139.236-16.546C1504.382,51.495,1466.4,48.228,1442.2,53.1c-12.266,2.471-13.028,12.388-1.014,22.9,10.963,9.586,47.886,30.369-3.482,43.679-28.965,7.506-50.433-.735-100.39,69.118-22.038,30.814-71.809,61.336-82,30.278-14.248.324-37.553-35.808-60.2-90.87-14.065-34.2-33.2-61.426-62.509-51.7-38.615,12.812-83.367,55.722-118.272,68.716-14.676,5.464-45.888-.568-86.363-18.567-25.622-11.394-53.546-24.777-76.711-33.243-83.827-30.636-105.418-13.055-101.144,11.085,1.547,8.743-6.326,16.675-19.8,21.112C696.58,118.371,694.56,99.634,599.345,97.87c-13.6-.272-25.641,3.12-39.05,3.87-78.921,4.4-85.988,79.748-212.752,65.845" transform="translate(5.419 41.877)" fill="none" stroke="#3b2a2b" stroke-linecap="round" stroke-linejoin="round" stroke-width="0.815" stroke-dasharray="0 2.574" opacity="0.709"/>
        <path id="Path_4491" data-name="Path 4491" d="M1689.226,93.216c-79.349,20.769-105.99-.418-136.214-15.056-44.569-21.583-80.546-25.931-105.339-22.7-12.233,1.591-13.567,10.585-3.234,20.655,9.3,9.068,42.418,29.3-6.4,43.417-28.247,8.167-49.123,2.564-97.407,69.1-22.768,31.374-74,61.3-83.1,26.724-13.157-1.575-35.29-40.916-57.389-96.258-14.11-35.333-33.2-62.891-62.862-51.19-38.489,15.183-83,62.239-118.564,72.862-14.772,4.413-46.705-3.4-87.107-22.357-26-12.2-54.056-26.217-76.958-34.743C768.528,51.6,748.317,71.493,755.3,98.918c2.562,10.07-4.835,19.452-18.46,25.286-33.426-3.612-40.571-18.872-136.335-21.111-13.7-.34-26,2.706-39.549,3.17-82.224,2.815-87.418,81.566-213.969,68.729" transform="translate(5.058 44.06)" fill="none" stroke="#3b2a2b" stroke-linecap="round" stroke-linejoin="round" stroke-width="0.78" stroke-dasharray="0 2.574" opacity="0.729"/>
        <path id="Path_4492" data-name="Path 4492" d="M1688.735,96.505c-77.239,19.945-103.837.388-133.192-13.565-43.039-20.455-77.016-25.835-102.4-24.3-12.2.736-14.072,8.794-5.454,18.417,7.676,8.571,36.951,28.282-9.312,43.151-27.531,8.85-47.848,5.839-94.424,69.087-23.513,31.925-76.2,61.257-84.2,23.169-12.066-3.472-33.013-46.028-54.58-101.646-14.141-36.472-33.218-64.379-63.217-50.679-38.391,17.532-82.619,68.783-118.854,77.006-14.864,3.374-47.512-6.247-87.852-26.144-26.374-13.009-54.565-27.663-77.208-36.246-88.417-33.513-107.223-11.275-97.564,19.417,3.589,11.4-3.345,22.227-17.117,29.459-33.117.01-45.383-11.777-141.7-14.489-13.791-.408-26.35,2.285-40.047,2.471-85.511,1.157-88.847,83.383-215.185,71.613" transform="translate(4.696 45.418)" fill="none" stroke="#3b2a2b" stroke-linecap="round" stroke-linejoin="round" stroke-width="0.744" stroke-dasharray="0 2.574" opacity="0.748"/>
        <path id="Path_4493" data-name="Path 4493" d="M1688.246,104.029c-75.132,19.122-101.686,1.192-130.172-12.074-41.507-19.33-73.5-25.692-99.462-25.9-12.173-.1-14.542,7.033-7.676,16.178,6.091,8.117,31.489,27.311-12.228,42.888-26.814,9.553-46.6,9.091-91.443,69.071-24.271,32.465-78.391,61.216-85.29,19.615-10.976-5.37-30.725-51.141-51.768-107.035-14.163-37.614-33.264-65.879-63.572-50.169-38.327,19.868-82.238,75.362-119.148,81.153-14.953,2.346-48.31-9.1-88.595-29.934-26.74-13.827-55.07-29.111-77.455-37.746-90.7-34.988-108.085-10.364-95.774,23.582,4.621,12.746-1.854,25-15.774,33.634-32.809,3.63-50.2-4.682-147.062-7.866-13.887-.475-26.7,1.859-40.548,1.771-88.78-.565-90.277,85.2-216.4,74.5" transform="translate(4.335 42.542)" fill="none" stroke="#3b2a2b" stroke-linecap="round" stroke-linejoin="round" stroke-width="0.709" stroke-dasharray="0 2.574" opacity="0.767"/>
        <path id="Path_4494" data-name="Path 4494" d="M1687.758,111.575c-73.024,18.3-99.533,1.994-127.151-10.583-39.973-18.205-70-25.5-96.526-27.5-12.155-.916-16.576,6.5-9.9,13.94,2.937,8.479,26.037,26.39-15.143,42.623-26.095,10.286-45.386,12.322-88.459,69.056C1325.534,232.1,1270,260.286,1264.2,215.171c-9.885-7.267-28.424-56.257-48.958-112.421-14.169-38.76-33.332-67.393-63.927-49.658-38.291,22.2-81.86,81.97-119.439,85.3-15.047,1.332-49.1-11.964-89.339-33.723-27.1-14.654-55.575-30.562-77.7-39.247C771.862,28.933,755.9,55.972,770.845,93.166c5.661,14.09-.363,27.777-14.432,37.806-32.5,7.254-55.012,2.417-152.426-1.243-13.981-.543-27.046,1.43-41.044,1.073-92.03-2.346-91.708,87.018-217.62,77.381" transform="translate(3.974 39.643)" fill="none" stroke="#3b2a2b" stroke-linecap="round" stroke-linejoin="round" stroke-width="0.673" stroke-dasharray="0 2.574" opacity="0.787"/>
        <path id="Path_4495" data-name="Path 4495" d="M1687.267,119.165c-70.916,17.472-97.379,2.8-124.129-9.093-38.441-17.084-66.523-25.272-93.589-29.1-12.148-1.717-17.256,4.769-12.117,11.7,1.139,7.982,20.6,25.522-18.058,42.359-25.366,11.047-44.2,15.531-85.476,69.039-25.845,33.5-82.781,61.137-87.482,12.505-8.794-9.164-26.113-61.371-46.147-117.808-14.167-39.907-33.424-68.91-64.281-49.148-38.286,24.521-81.493,88.61-119.731,89.443-15.143.33-49.881-14.831-90.084-37.51C918.72,86.068,890.1,69.538,868.22,60.807,773,22.8,758.46,52.279,776.025,92.719c6.706,15.435,1.127,30.552-13.088,41.98-32.188,10.874-59.826,9.512-157.788,5.38-14.077-.611-27.387.994-41.545.373-95.256-4.185-93.138,88.836-218.837,80.265" transform="translate(3.613 36.699)" fill="none" stroke="#3b2a2b" stroke-linecap="round" stroke-linejoin="round" stroke-width="0.638" stroke-dasharray="0 2.574" opacity="0.806"/>
        <path id="Path_4496" data-name="Path 4496" d="M1686.778,126.93c-68.81,16.649-95.225,3.6-121.11-7.6-36.9-15.965-63.08-25.008-90.65-30.7-12.158-2.508-17.935,3.039-14.339,9.463-.659,7.487,15.183,24.706-20.974,42.094-24.624,11.843-43.029,18.719-82.492,69.024-26.667,33.992-84.975,61.1-88.578,8.951-7.7-11.062-23.792-66.487-43.338-123.2-14.151-41.058-33.536-70.432-64.635-48.637-38.307,26.847-81.141,95.277-120.023,93.589-15.247-.664-50.654-17.705-90.828-41.3-27.8-16.325-56.579-33.474-78.2-42.25-97.471-39.555-110.582-7.607-90.406,36.079,7.752,16.781,4.385,35.635-11.745,46.152-29.333,19.128-64.638,16.609-163.151,12-14.169-.677-27.722.558-42.043-.325C465.8,144.2,469.7,240.931,344.213,233.426" transform="translate(3.252 33.582)" fill="none" stroke="#3b2a2b" stroke-linecap="round" stroke-linejoin="round" stroke-width="0.602" stroke-dasharray="0 2.574" opacity="0.826"/>
        <path id="Path_4497" data-name="Path 4497" d="M1686.288,134.7c-66.7,15.823-93.069,4.393-118.087-6.111-35.367-14.851-59.671-24.719-87.713-32.3-12.183-3.292-18.613,1.307-16.559,7.224-2.456,6.991,9.793,23.942-23.889,41.83-23.864,12.675-41.885,21.887-79.51,69.008-27.514,34.458-87.167,61.057-89.673,5.4-6.613-12.959-21.461-71.6-40.528-128.584-14.123-42.21-33.669-71.955-64.99-48.125-38.352,29.178-80.806,101.968-120.314,97.732-15.358-1.646-51.418-20.583-91.573-45.087C925.315,78.522,896.374,60.758,875,51.941c-99.7-41.129-111.394-6.686-88.615,40.244,8.8,18.129,5.8,38.058-10.4,50.327-29.017,21.976-69.453,23.706-168.516,18.626-14.263-.746-28.054.117-42.542-1.025-101.645-8.016-96,92.471-221.27,86.033" transform="translate(2.89 30.454)" fill="none" stroke="#3b2a2b" stroke-linecap="round" stroke-linejoin="round" stroke-width="0.567" stroke-dasharray="0 2.574" opacity="0.845"/>
        <path id="Path_4498" data-name="Path 4498" d="M1685.8,142.488c-64.594,15-90.913,5.189-115.066-4.621-33.83-13.738-56.3-24.412-84.776-33.895-12.224-4.071-19.293-.421-18.78,4.985-4.254,6.5,4.437,23.23-26.8,41.566-23.078,13.547-40.759,25.033-76.527,68.993-28.394,34.9-79.6,59.971-90.769,1.842-2.991-15.566-19.12-76.717-37.716-133.971-14.085-43.366-33.82-73.477-65.345-47.616-38.421,31.516-80.5,108.68-120.606,101.879-15.478-2.625-52.173-23.467-92.316-48.876-28.472-18.022-57.576-36.4-78.7-45.252-101.924-42.73-112.2-5.765-86.825,44.409,9.852,19.475,7.153,40.5-9.06,54.5-28.815,24.889-74.267,30.8-173.878,25.249-14.359-.812-28.383-.325-43.04-1.723-104.806-10-97.428,94.289-222.49,88.917" transform="translate(2.528 27.318)" fill="none" stroke="#3b2a2b" stroke-linecap="round" stroke-linejoin="round" stroke-width="0.531" stroke-dasharray="0 2.574" opacity="0.864"/>
        <path id="Path_4499" data-name="Path 4499" d="M1685.309,150.28c-62.484,14.176-88.754,5.981-112.045-3.13-32.288-12.63-52.955-24.094-81.836-35.493-12.284-4.848-19.973-2.151-21,2.747-6.054,6-.875,22.56-29.72,41.3-22.255,14.46-39.651,28.16-73.544,68.976-29.314,35.3-83.627,60.435-91.865-1.712-2.276-17.182-16.772-81.831-34.907-139.359-14.034-44.521-33.984-74.992-65.7-47.1-38.507,33.858-80.207,115.4-120.9,106.023-15.607-3.6-52.919-26.35-93.06-52.665C931.936,70.99,902.661,52,881.786,43.112,777.657-1.244,768.78,38.269,796.752,91.686c10.905,20.824,8.469,42.958-7.718,58.674-28.709,27.873-79.081,37.9-179.242,31.872-14.453-.882-28.7-.771-43.539-2.425-107.943-12.031-98.858,96.108-223.707,91.8" transform="translate(2.167 24.173)" fill="none" stroke="#3b2a2b" stroke-linecap="round" stroke-linejoin="round" stroke-width="0.496" stroke-dasharray="0 2.574" opacity="0.884"/>
        <path id="Path_4500" data-name="Path 4500" d="M1684.82,158.081c-60.377,13.35-86.6,6.77-109.024-1.639-30.748-11.528-49.647-23.772-78.9-37.092-12.356-5.626-20.652-3.881-23.222.508-7.851,5.5-6.134,21.933-32.635,41.038-21.386,15.419-38.557,31.265-70.561,68.962-30.279,35.661-87.492,60.716-92.961-5.266-1.565-18.885-14.415-86.942-32.1-144.748-13.973-45.678-34.164-76.5-66.054-46.595-38.611,36.213-79.943,122.138-121.189,110.169-15.747-4.569-53.658-29.239-93.8-56.453-29.116-19.736-58.566-39.328-79.2-48.255C778.857-7.3,771.372,34.787,801.933,91.45c11.959,22.169,9.756,45.447-6.375,62.845-28.675,30.93-83.893,44.995-184.605,38.5-14.545-.948-29.021-1.217-44.037-3.123-111.054-14.1-100.288,97.925-224.923,94.686" transform="translate(1.806 21.019)" fill="none" stroke="#3b2a2b" stroke-linecap="round" stroke-linejoin="round" stroke-width="0.461" stroke-dasharray="0 2.574" opacity="0.903"/>
        <path id="Path_4501" data-name="Path 4501" d="M1684.331,165.888c-58.269,12.526-84.437,7.554-106-.149-29.2-10.43-46.365-23.45-75.961-38.69-12.442-6.407-20.833-5-25.443-1.73-8.863,6.3-11.331,21.334-35.55,40.774-20.457,16.421-37.474,34.347-67.58,68.945-31.3,35.968-91.195,60.864-94.056-8.82-.847-20.657-12.051-92.053-29.285-150.136C1236.554,29.244,1216.1-1.93,1184.043,30c-38.73,38.575-79.7,128.875-121.483,114.313-15.892-5.539-54.386-32.13-94.548-60.24-29.428-20.6-59.058-40.8-79.443-49.758-108.5-47.691-114.6-3-81.455,56.906,13.013,23.518,11.024,47.968-5.032,67.02-28.7,34.052-88.709,52.092-189.969,45.119-14.641-1.017-29.337-1.664-44.536-3.823-114.146-16.206-101.719,99.743-226.142,97.57" transform="translate(1.445 17.859)" fill="none" stroke="#3b2a2b" stroke-linecap="round" stroke-linejoin="round" stroke-width="0.425" stroke-dasharray="0 2.574" opacity="0.923"/>
        <path id="Path_4502" data-name="Path 4502" d="M1683.84,173.7c-56.161,11.7-82.274,8.333-102.982,1.342-27.659-9.339-43.111-23.133-73.024-40.288-12.54-7.193-21.756-6.872-27.663-3.97-11.046,5.426-16.457,20.753-38.466,40.51-19.455,17.466-36.4,37.408-64.6,68.93-32.388,36.208-94.751,60.919-95.152-12.375-.122-22.478-9.681-97.163-26.474-155.523-13.812-48-34.553-79.514-66.764-45.574-38.86,40.945-79.479,135.614-121.773,118.46-16.049-6.511-55.109-35.022-95.292-64.031-29.735-21.466-59.55-42.264-79.692-51.258C781.3-19.478,776.477,27.892,812.3,90.995c14.035,24.883,12.282,50.514-3.69,71.192-28.761,37.236-93.523,59.189-195.332,51.742-14.735-1.083-29.647-2.113-45.035-4.522-117.215-18.346-103.149,101.56-227.358,100.454" transform="translate(1.084 14.695)" fill="none" stroke="#3b2a2b" stroke-linecap="round" stroke-linejoin="round" stroke-width="0.39" stroke-dasharray="0 2.574" opacity="0.942"/>
        <path id="Path_4503" data-name="Path 4503" d="M1683.351,181.523c-54.055,10.877-80.111,9.106-99.961,2.833-26.114-8.254-39.877-22.826-70.088-41.888-12.649-7.982-22.575-8.764-29.883-6.207-13.066,4.571-21.5,20.171-41.381,40.245-18.367,18.547-35.329,40.44-61.614,68.914-33.562,36.356-98.18,60.9-96.248-15.929.613-24.338-7.3-102.269-23.664-160.911-13.715-49.16-34.76-81.008-67.118-45.063-39,43.326-79.278,142.349-122.065,122.6-16.215-7.482-55.826-37.914-96.037-67.818-30.035-22.336-60.039-43.737-79.94-52.759C782.55-25.6,779.107,24.416,817.478,90.78c15.1,26.225,13.533,53.089-2.348,75.367-28.853,40.475-98.335,66.284-200.7,58.365-14.829-1.152-29.953-2.564-45.533-5.222C448.641,198.776,464.324,322.669,340.327,322.629" transform="translate(0.722 11.518)" fill="none" stroke="#3b2a2b" stroke-linecap="round" stroke-linejoin="round" stroke-width="0.354" stroke-dasharray="0 2.574" opacity="0.961"/>
        <path id="Path_4504" data-name="Path 4504" d="M1682.86,189.353c-51.945,10.054-77.947,9.872-96.94,4.324-24.568-7.178-36.66-22.527-67.149-43.486-12.766-8.777-23.331-10.654-32.1-8.447-14.984,3.772-26.461,19.576-44.3,39.981-17.18,19.656-34.259,43.446-58.631,68.9-34.842,36.389-101.5,60.838-97.342-19.485,1.355-26.227-4.921-107.371-20.857-166.3-13.606-50.32-34.974-82.5-67.473-44.551-39.153,45.715-79.091,149.078-122.356,126.749-16.386-8.457-56.534-40.808-96.781-71.608C948.6,52.224,918.406,30.223,898.745,21.172c-114.929-52.912-117.007-.225-76.085,69.4,16.173,27.565,14.783,55.686-1.005,79.54C792.689,213.876,718.506,243.5,615.6,235.1a459.131,459.131,0,0,1-46.033-5.921C446.28,206.469,463.556,334.377,339.772,335.4" transform="translate(0.361 8.335)" fill="none" stroke="#3b2a2b" stroke-linecap="round" stroke-linejoin="round" stroke-width="0.319" stroke-dasharray="0 2.574" opacity="0.981"/>
        <path id="Path_4505" data-name="Path 4505" d="M1682.371,197.19c-113.1,20.944-103.152,1.572-158.131-39.271-55.149-40.969-78.541,39.271-137.185,97.915-36.26,36.262-104.722,60.739-98.437-23.039,3.946-52.607-15.709-301.6-85.872-215.727-39.313,48.113-78.921,155.8-122.648,130.894-29.148-16.6-132.977-110.127-177.962-131.156-117.037-54.712-117.768.678-74.294,73.567,53.833,90.257-72.186,185.322-257.615,148.7-126.288-24.937-107.439,107.013-231.01,109.106" transform="translate(0 5.145)" fill="none" stroke="#3b2a2b" stroke-linecap="round" stroke-linejoin="round" stroke-width="0.283" stroke-dasharray="0 2.574"/>
      </g>
      <circle id="Ellipse_1110" data-name="Ellipse 1110" cx="303" cy="303" r="303" transform="translate(1000 81)" fill="url(#linear-gradient-2)"/>
      <g id="Mask_Group_47" data-name="Mask Group 47" transform="translate(-8167 3010)" clip-path="url(#clip-path-2)">
        <g id="Mask_Group_45" data-name="Mask Group 45" transform="translate(5040 -15)" clip-path="url(#clip-path-3)">
          <rect id="Rectangle_1675" data-name="Rectangle 1675" width="1440" height="1103" transform="translate(3127 -2638)" fill="url(#linear-gradient-3)"/>
          <rect id="Rectangle_1676" data-name="Rectangle 1676" width="1440" height="1103" transform="translate(3127 -2638)" fill="none"/>
          <rect id="Rectangle_1677" data-name="Rectangle 1677" width="1440" height="1103" transform="translate(3127 -2638)" fill="url(#linear-gradient-4)"/>
          <g id="Mask_Group_44" data-name="Mask Group 44" transform="translate(-12310 -3931)" clip-path="url(#clip-path-4)">
            <g transform="matrix(1, 0, 0, 1, 15437, 1109)" filter="url(#Ellipse_1101)">
              <circle id="Ellipse_1101-2" data-name="Ellipse 1101" cx="836" cy="836" r="836" transform="translate(250 613)" fill="url(#linear-gradient-5)"/>
            </g>
          </g>
        </g>
        <g id="Mask_Group_46" data-name="Mask Group 46" transform="translate(8167 -2729)" opacity="0.16" clip-path="url(#clip-path-5)">
          <g id="Group_3887" data-name="Group 3887" transform="translate(-17134 -1003)">
            <path id="Path_13491" data-name="Path 13491" d="M542.672,336.089H676.123l51.536-70.874H265.081l-51.543,70.874H396.9a136.144,136.144,0,0,1,83.894,72.157H265.081l-51.543,70.865H493.2c-6.609,68.625-64.585,122.461-134.911,122.461H239.054v90.152L495.467,991.947h112.1L364.04,691.725h-5.754c120.057,0,218.484-94.234,225.3-212.613h92.541l51.536-70.865H576.433A225,225,0,0,0,542.672,336.089Z" transform="translate(17099.961 944.285)" fill="#fff" stroke="#fff" stroke-width="50" opacity="0.4"/>
            <path id="Path_13492" data-name="Path 13492" d="M542.672,336.089H676.123l51.536-70.874H265.081l-51.543,70.874H396.9a136.144,136.144,0,0,1,83.894,72.157H265.081l-51.543,70.865H493.2c-6.609,68.625-64.585,122.461-134.911,122.461H239.054v90.152L495.467,991.947h112.1L364.04,691.725h-5.754c120.057,0,218.484-94.234,225.3-212.613h92.541l51.536-70.865H576.433A225,225,0,0,0,542.672,336.089Z" transform="translate(17099.463 944.785)" fill="#fff" opacity="0.4"/>
          </g>
        </g>
      </g>
      <rect id="Rectangle_1689" data-name="Rectangle 1689" width="462" height="445" transform="translate(978 173)" fill="url(#linear-gradient-6)"/>
      <g id="Group_9489" data-name="Group 9489" transform="translate(1028.029 346.234)">
        <path id="Path_4473-2" data-name="Path 4473" d="M1382.1,32.366c-139.762,34.339-138.208-22.559-170.182-24.9-65.641-4.8-.608,54.673-30.419,107.267-39.274,69.291-141.618,91.161-188.571,89.653-32.33-1.039-47.223-16.8-56.347-35.038-32.056-64.071-106.109,15.394-129.791,47.5-51.159,69.347-113.158-35.995-130.982-69.887-52.84-100.472-83.282-54.707-115.5-53.037-71.583,3.711,4.11-22.382,35.222-36.824,78.306-36.344-3.937-103.2-92.859-51.232C467.537,26.4,446.635,65.1,356.979,37.887" transform="translate(-356.979 13.196)" fill="none" stroke="#fe8b71" stroke-linecap="round" stroke-linejoin="round" stroke-width="1.417" stroke-dasharray="0 2.574" opacity="0.38"/>
        <path id="Path_4474-2" data-name="Path 4474" d="M356.424,40.411C444.47,67,465.338,29.536,499.807,9.53c53.854-31.3,105.056-18.834,118.7,3.42,8.411,13.722,2.284,31.414-26.388,44.88-29.738,14.061-102.732,39.409-32.994,36.622,31.586-1.263,60.637-44.386,113.22,53.024,8.808,16.318,28.373,47.029,49.284,66.619,24.61,23.056,54,33.812,80.388-3.567,9.066-12.842,25.1-31.75,43.445-45.767,30.427-23.247,66.509-36.351,86.839,1.831,9.275,17.418,24.632,32.156,56.916,32.141,14.681-.006,34.436-2.2,55.6-7.049,35.307-8.084,71.978-20.887,99.21-42.472,12.146-9.673,23.2-21.117,31.557-34.9C1205.623,64.76,1144.038,7.66,1210.1,12.1c9.246.62,15.655,5.809,23.752,11.509,21.315,15,48.24,38.732,147.741,15.06" transform="translate(-355.774 14.224)" fill="none" stroke="#fe8b71" stroke-linecap="round" stroke-linejoin="round" stroke-width="1.382" stroke-dasharray="0 2.574" opacity="0.399"/>
        <path id="Path_4475-2" data-name="Path 4475" d="M355.869,42.938C442.3,68.894,463.137,32.676,496.942,13.2c52.686-30.438,102.616-18.863,116.451,2.2,8.536,12.991,2.769,30.017-24.689,43.17-28.4,13.6-98.653,38.291-30.765,36.419,30.957-.853,58.728-41.385,110.939,53.013,9.275,16.77,30.348,46.614,50.122,63.9,24.179,21.141,52.627,30.149,78.241-7.686,9.223-13.624,25.246-32.647,43.715-45.376,30.571-21.069,66.4-31.391,87.063,5,9.427,16.6,25.262,30.288,57.485,29.246,14.971-.485,34.86-3.159,55.789-8.2,37.116-8.936,72.61-20.131,97.842-39.288,11.352-8.618,22.183-18.9,30.531-31.713,30.275-46.461-27.863-101.221,38.618-97.143,9.318.568,15.771,5.758,24.133,10.975,23.4,14.6,49.334,40.121,148.673,17.264" transform="translate(-354.568 15.249)" fill="none" stroke="#fe8b71" stroke-linecap="round" stroke-linejoin="round" stroke-width="1.346" stroke-dasharray="0 2.574" opacity="0.419"/>
        <path id="Path_4476-2" data-name="Path 4476" d="M355.314,45.467c84.823,25.326,105.624-9.65,138.763-28.6,51.516-29.58,100.169-18.9,114.206.975,8.655,12.254,3.268,28.655-22.992,41.457-27.047,13.186-94.566,37.182-28.537,36.218,30.333-.444,56.922-38.43,108.66,53,9.746,17.223,32.289,46.149,50.958,61.185,23.771,19.143,51.211,26.448,76.092-11.805,9.376-14.415,25.377-33.535,43.988-44.984,30.686-18.881,66.286-26.437,87.285,8.167,9.575,15.778,25.9,28.39,58.054,26.35,15.269-.969,35.28-4.134,55.979-9.344,38.927-9.8,73.217-19.4,96.473-36.1,10.547-7.575,21.165-16.68,29.5-28.524,30.508-43.331-24.183-95.8,42.718-92.079,9.39.516,15.929,5.677,24.514,10.44,25.576,14.188,50.427,41.51,149.6,19.469" transform="translate(-353.363 16.273)" fill="none" stroke="#fe8b71" stroke-linecap="round" stroke-linejoin="round" stroke-width="1.311" stroke-dasharray="0 2.574" opacity="0.438"/>
        <path id="Path_4477-2" data-name="Path 4477" d="M354.759,48c83.211,24.7,103.98-9.037,136.455-27.463,50.346-28.721,97.713-18.949,111.96-.247,8.772,11.514,3.767,27.294-21.295,39.748C556.187,72.8,491.406,96.116,555.571,96.05c29.714-.03,55.211-35.516,106.38,52.989,10.22,17.678,34.183,45.626,51.8,58.468,23.378,17.046,49.76,22.713,73.944-15.923,9.522-15.215,25.488-34.42,44.258-44.6,30.773-16.685,66.169-21.488,87.509,11.336,9.722,14.955,26.555,26.467,58.622,23.454,15.572-1.463,35.7-5.126,56.169-10.491,40.741-10.68,73.826-18.662,95.1-32.921,9.743-6.528,20.139-14.439,28.477-25.333,30.735-40.156-20.5-90.373,46.819-87.017,9.462.464,16.118,5.568,24.9,9.906,27.838,13.76,51.52,42.9,150.533,21.673" transform="translate(-352.158 17.294)" fill="none" stroke="#fe8b71" stroke-linecap="round" stroke-linejoin="round" stroke-width="1.276" stroke-dasharray="0 2.574" opacity="0.458"/>
        <path id="Path_4478-2" data-name="Path 4478" d="M354.2,50.532C435.8,74.6,456.538,42.109,488.349,24.209,537.525-3.653,583.6,5.2,598.064,22.74c8.881,10.768,4.264,25.931-19.6,38.035-24.341,12.348-86.374,34.99-24.081,35.814,29.1.384,53.583-32.644,104.1,52.976,10.7,18.136,36,45.027,52.634,55.751,22.988,14.822,48.275,18.95,71.795-20.042,9.665-16.021,25.579-35.3,44.529-44.2,30.827-14.49,66.048-16.546,87.733,14.5,9.866,14.128,27.212,24.518,59.191,20.558,15.879-1.966,36.115-6.134,56.359-11.64,42.552-11.572,74.434-17.913,93.736-29.736,8.939-5.475,19.1-12.181,27.451-22.144,30.944-36.928-16.824-84.947,50.918-81.953,9.535.413,16.336,5.429,25.277,9.371,30.17,13.3,52.613,44.288,151.463,23.878" transform="translate(-350.952 18.312)" fill="none" stroke="#fe8b71" stroke-linecap="round" stroke-linejoin="round" stroke-width="1.24" stroke-dasharray="0 2.574" opacity="0.477"/>
        <path id="Path_4479-2" data-name="Path 4479" d="M353.649,53.07c79.99,23.436,100.69-7.81,131.835-25.184,48.008-27,92.774-19.072,107.47-2.69,8.986,10.017,4.76,24.567-17.9,36.324C552.065,73.447,492.789,95.431,553.2,97.131c28.488.8,52.032-29.809,101.818,52.965,11.184,18.593,36.441,47.222,53.472,53.033,20.061,16.2,46.76,15.164,69.647-24.159,9.8-16.836,25.644-36.175,44.8-43.815,30.844-12.3,65.918-11.608,87.955,17.673,10.008,13.3,27.876,22.544,59.76,17.663,16.19-2.48,36.527-7.158,56.549-12.788,44.365-12.478,75.04-17.148,92.368-26.552,8.136-4.415,18.054-9.9,26.426-18.953,31.126-33.646-13.144-79.523,55.018-76.892,9.606.361,16.573,5.266,25.657,8.837,32.561,12.8,53.707,45.677,152.394,26.082" transform="translate(-349.747 19.326)" fill="none" stroke="#fe8b71" stroke-linecap="round" stroke-linejoin="round" stroke-width="1.205" stroke-dasharray="0 2.574" opacity="0.496"/>
        <path id="Path_4480-2" data-name="Path 4480" d="M353.094,55.6C431.471,78.41,452.175,48.47,482.62,31.559,529.512,5.514,572.9,12.41,587.844,27.646c9.082,9.264,5.255,23.2-16.2,34.613C550,73.768,493.491,95.1,552.02,97.669c27.884,1.222,50.553-27.011,99.539,52.952,11.67,19.052,38.117,47.192,54.309,50.316,19.226,14.753,45.218,11.356,67.5-28.278,9.926-17.657,25.686-37.057,45.07-43.424,30.823-10.123,65.783-6.677,88.178,20.842,10.147,12.469,28.542,20.545,60.329,14.766,16.5-3,36.937-8.19,56.738-13.935,46.177-13.4,75.64-16.362,91-23.367,7.329-3.344,16.986-7.608,25.4-15.764,31.261-30.308-9.464-74.1,59.118-71.828,9.678.309,16.824,5.078,26.038,8.3,35,12.247,54.8,47.067,153.324,28.287" transform="translate(-348.541 20.345)" fill="none" stroke="#fe8b71" stroke-linecap="round" stroke-linejoin="round" stroke-width="1.169" stroke-dasharray="0 2.574" opacity="0.516"/>
        <path id="Path_4481-2" data-name="Path 4481" d="M352.539,58.149c76.767,22.175,97.441-6.513,127.217-22.9,45.729-25.174,87.78-19.235,102.978-5.135,9.169,8.507,5.748,21.836-14.5,32.9C547.936,74.1,494.2,94.8,550.836,98.218c27.285,1.646,49.139-24.244,97.259,52.941,12.164,19.51,39.8,47.161,55.147,47.6,18.394,13.3,43.651,7.53,65.35-32.4,10.047-18.483,25.7-37.948,45.343-43.034,30.765-7.966,65.638-1.75,88.4,24.012,10.282,11.636,29.208,18.524,60.9,11.869,16.82-3.532,37.346-9.235,56.93-15.082,47.985-14.331,76.218-15.544,89.631-20.184,6.518-2.254,15.9-5.289,24.373-12.572,31.332-26.92-5.785-68.673,63.218-66.766,9.751.257,17.089,4.87,26.421,7.768,37.471,11.639,55.892,48.456,154.254,30.491" transform="translate(-347.336 21.352)" fill="none" stroke="#fe8b71" stroke-linecap="round" stroke-linejoin="round" stroke-width="1.134" stroke-dasharray="0 2.574" opacity="0.535"/>
        <path id="Path_4482-2" data-name="Path 4482" d="M351.983,60.7c75.155,21.546,95.8-5.892,124.909-21.765,44.566-24.3,85.256-19.327,100.732-6.357,9.245,7.748,6.238,20.469-12.806,31.191-18.949,10.668-69.9,30.754-15.166,35.007,26.692,2.073,47.783-21.509,94.979,52.928,12.661,19.968,41.473,47.131,55.984,44.882,17.56,11.852,42.059,3.687,63.2-36.515,10.158-19.317,25.7-38.853,45.613-42.644,30.674-5.84,65.483,3.17,88.624,27.179,10.412,10.8,29.876,16.482,61.466,8.975,17.134-4.072,37.753-10.287,57.119-16.231,49.791-15.28,76.75-14.686,88.263-17,5.688-1.143,14.775-2.95,23.347-9.384,31.311-23.494-2.1-63.248,67.318-61.7,9.823.206,17.36,4.643,26.8,7.233,39.973,10.971,56.985,49.845,155.186,32.7" transform="translate(-346.13 22.354)" fill="none" stroke="#fe8b71" stroke-linecap="round" stroke-linejoin="round" stroke-width="1.098" stroke-dasharray="0 2.574" opacity="0.554"/>
        <path id="Path_4483-2" data-name="Path 4483" d="M351.428,63.255c73.544,20.916,94.158-5.271,122.6-20.626,43.4-23.434,82.712-19.425,98.487-7.579,9.308,6.99,6.725,19.1-11.109,29.479-17.607,10.248-65.758,29.732-12.937,34.8,26.1,2.506,46.481-18.8,92.7,52.917,13.163,20.425,43.151,47.1,56.822,42.165,16.725,10.4,40.448-.167,61.054-40.633,10.263-20.155,25.677-39.775,45.884-42.252,30.555-3.748,65.316,8.088,88.847,30.348,10.537,9.967,30.541,14.42,62.035,6.077,17.45-4.622,38.156-11.348,57.308-17.378,51.594-16.242,77.179-13.79,86.895-13.815a40.852,40.852,0,0,0,22.321-6.192c31.172-20.05,1.575-57.824,71.418-56.641,9.893.155,17.636,4.4,27.181,6.7,42.5,10.239,58.079,51.235,156.117,34.9" transform="translate(-344.924 23.35)" fill="none" stroke="#fe8b71" stroke-linecap="round" stroke-linejoin="round" stroke-width="1.063" stroke-dasharray="0 2.574" opacity="0.574"/>
        <path id="Path_4484-2" data-name="Path 4484" d="M350.873,65.818c71.934,20.286,92.518-4.65,120.289-19.486,42.237-22.563,80.145-19.522,96.242-8.8,9.357,6.233,7.207,17.73-9.411,27.767-16.269,9.828-61.611,28.73-10.709,34.6,25.521,2.944,45.229-16.127,90.419,52.9,13.669,20.882,44.827,47.069,57.658,39.448,15.894,8.951,38.819-4.032,58.907-44.752,10.359-21,25.638-40.721,46.155-41.863,30.412-1.693,65.135,13,89.069,33.516,10.656,9.132,31.2,12.341,62.6,3.183,17.763-5.181,38.558-12.417,57.5-18.526,53.393-17.22,77.424-12.929,85.526-10.63,3.866,1.1,11.672.018,21.295-3,27.208-22.141,5.255-52.4,75.516-51.578,9.967.1,17.918,4.142,27.564,6.164,45.039,9.445,59.172,52.624,157.047,37.105" transform="translate(-343.719 24.34)" fill="none" stroke="#fe8b71" stroke-linecap="round" stroke-linejoin="round" stroke-width="1.028" stroke-dasharray="0 2.574" opacity="0.593"/>
        <path id="Path_4485-2" data-name="Path 4485" d="M350.318,68.388c70.321,19.655,90.876-4.031,117.979-18.347,41.071-21.695,77.553-19.618,94-10.023,9.392,5.482,7.686,16.358-7.714,26.057-14.933,9.406-57.458,27.747-8.48,34.4,24.945,3.388,44.022-13.475,88.139,52.893,14.181,21.335,46.5,47.039,58.5,36.732,15.06,7.5,37.169-7.906,56.758-48.871,10.447-21.845,25.589-41.691,46.427-41.471,30.254.317,64.94,17.918,89.294,36.685,10.766,8.3,31.861,10.244,63.172.285,18.074-5.748,38.958-13.491,57.688-19.672,55.188-18.214,77.519-12.288,84.158-7.448,2.862,2.087,10.533,2.14,20.268.188,26.972-19.373,8.934-46.974,79.617-46.514,10.039.05,18.2,3.87,27.945,5.629,47.586,8.586,60.264,54.013,157.977,39.31" transform="translate(-342.513 25.321)" fill="none" stroke="#fe8b71" stroke-linecap="round" stroke-linejoin="round" stroke-width="0.992" stroke-dasharray="0 2.574" opacity="0.613"/>
        <path id="Path_4486-2" data-name="Path 4486" d="M349.763,70.968C418.474,89.994,439,67.557,465.433,53.76c39.907-20.827,74.938-19.7,91.751-11.245,9.413,4.737,8.159,14.983-6.017,24.346-13.6,8.986-53.3,26.786-6.252,34.2,24.374,3.839,42.857-10.849,85.859,52.88,14.7,21.787,48.182,47.009,59.334,34.015,14.226,6.048,35.505-11.789,54.61-52.989,10.526-22.7,25.536-42.69,46.7-41.083,30.091,2.287,64.729,22.835,89.517,39.854,10.871,7.464,32.516,8.134,63.742-2.61,18.383-6.325,39.355-14.571,57.879-20.82,56.976-19.223,77.766-11.94,82.789-4.263,1.927,2.944,9.394,4.261,19.242,3.378,26.735-16.6,12.614-41.551,83.717-41.452,10.11,0,18.482,3.59,28.325,5.1,50.142,7.664,61.358,55.4,158.908,41.514" transform="translate(-341.308 26.294)" fill="none" stroke="#fe8b71" stroke-linecap="round" stroke-linejoin="round" stroke-width="0.957" stroke-dasharray="0 2.574" opacity="0.632"/>
        <path id="Path_4487-2" data-name="Path 4487" d="M349.208,73.557c67.1,18.4,87.591-2.79,113.36-16.067,38.74-19.958,72.3-19.779,89.5-12.466,9.42,4,8.626,13.606-4.317,22.634-12.285,8.567-49.132,25.851-4.024,34,23.808,4.3,41.73-8.245,83.579,52.87,15.226,22.235,49.859,46.977,60.172,31.3,13.393,4.6,33.824-15.677,52.462-57.106,10.595-23.553,25.483-43.717,46.968-40.691,29.929,4.214,64.5,27.758,89.739,43.022,10.968,6.634,33.164,6.009,64.31-5.506,18.69-6.91,39.751-15.658,58.068-21.969,58.762-20.247,78.344-11.632,81.421-1.079,1.108,3.8,8.254,6.383,18.216,6.568,26.5-13.836,16.294-36.126,87.816-36.388,10.182-.053,18.765,3.3,28.707,4.561,52.695,6.679,62.451,56.792,159.838,43.719" transform="translate(-340.102 27.256)" fill="none" stroke="#fe8b71" stroke-linecap="round" stroke-linejoin="round" stroke-width="0.921" stroke-dasharray="0 2.574" opacity="0.651"/>
        <path id="Path_4488-2" data-name="Path 4488" d="M348.653,76.16C414.141,93.926,434.6,73.988,459.7,61.233c37.573-19.091,69.638-19.832,87.258-13.689,9.415,3.282,9.083,12.228-2.62,20.924-10.971,8.149-44.961,24.943-1.8,33.793,23.248,4.767,40.638-5.662,81.3,52.859C639.6,177.8,675.383,202.066,684.855,183.7c12.559,3.148,32.131-19.571,50.314-61.225,10.657-24.412,25.438-44.771,47.239-40.3,29.776,6.105,64.258,32.691,89.963,46.191,11.058,5.809,33.808,3.872,64.88-8.4,18.992-7.5,40.145-16.747,58.257-23.116,60.54-21.287,79.089-11.184,80.053,2.106.343,4.716,7.115,8.5,17.19,9.758,26.261-11.067,19.973-30.7,91.916-31.327,10.254-.1,19.045,3,29.088,4.027,55.246,5.633,63.543,58.182,160.768,45.923" transform="translate(-338.897 28.206)" fill="none" stroke="#fe8b71" stroke-linecap="round" stroke-linejoin="round" stroke-width="0.886" stroke-dasharray="0 2.574" opacity="0.671"/>
        <path id="Path_4489-2" data-name="Path 4489" d="M348.1,78.78C411.974,95.917,432.4,77.227,456.84,64.992c36.406-18.226,66.959-19.861,85.013-14.911,9.4,2.577,9.529,10.849-.923,19.211-9.667,7.737-40.784,24.063.433,33.592,22.693,5.246,39.58-3.1,79.019,52.846,16.3,23.119,53.213,46.916,61.846,25.862,11.724,1.7,30.425-23.469,48.166-65.344C741.1,90.974,755.8,70.4,777.906,76.338c29.637,7.963,64,37.634,90.185,49.359,11.141,4.988,34.445,1.724,65.447-11.3,19.292-8.1,40.54-17.841,58.449-24.263,62.312-22.345,79.85-10.616,78.684,5.289-.416,5.686,5.975,10.627,16.163,12.948,26.026-8.3,23.653-25.276,96.017-26.263,10.326-.156,19.324,2.7,29.469,3.492,57.79,4.529,64.636,59.571,161.7,48.128" transform="translate(-337.692 29.138)" fill="none" stroke="#fe8b71" stroke-linecap="round" stroke-linejoin="round" stroke-width="0.85" stroke-dasharray="0 2.574" opacity="0.69"/>
        <path id="Path_4490-2" data-name="Path 4490" d="M347.543,81.422c62.265,16.507,82.662-.936,106.433-12.648,35.237-17.361,64.268-19.859,82.767-16.133,9.376,1.889,9.959,9.469.775,17.5-8.38,7.328-36.6,23.214,2.661,33.389,22.141,5.738,38.551-.562,76.739,52.835,16.846,23.555,54.892,46.886,62.684,23.145,10.891.247,28.706-27.372,46.017-69.462C736.371,83.908,751,63.094,773.4,70.528c29.517,9.794,63.726,42.594,90.408,52.527,11.218,4.177,35.077-.434,66.017-14.193,19.586-8.71,40.931-18.94,58.638-25.411,64.078-23.418,80.583-9.979,77.316,8.474-1.182,6.683,4.836,12.747,15.137,16.139,25.788-5.53,27.333-19.852,100.116-21.2,10.4-.208,19.6,2.385,29.85,2.958,60.328,3.367,65.73,60.96,162.63,50.332" transform="translate(-336.486 30.048)" fill="none" stroke="#fe8b71" stroke-linecap="round" stroke-linejoin="round" stroke-width="0.815" stroke-dasharray="0 2.574" opacity="0.709"/>
        <path id="Path_4491-2" data-name="Path 4491" d="M346.988,84.1c60.655,15.876,81.019-.319,104.124-11.509,34.069-16.5,61.57-19.822,80.522-17.355,9.351,1.216,10.37,8.091,2.472,15.789-7.111,6.932-32.425,22.4,4.89,33.188,21.592,6.243,37.551,1.96,74.459,52.822,17.4,23.983,56.569,46.856,63.522,20.428,10.057-1.2,26.976-31.276,43.869-73.581C731.631,76.87,746.224,55.8,768.9,64.748c29.421,11.606,63.444,47.576,90.631,55.7,11.292,3.373,35.7-2.6,66.586-17.09,19.875-9.323,41.321-20.04,58.828-26.558,65.836-24.51,81.286-9.307,75.948,11.657-1.959,7.7,3.7,14.869,14.111,19.329,25.551-2.761,31.013-14.426,104.216-16.137,10.471-.26,19.874,2.068,30.232,2.423,62.853,2.152,66.823,62.35,163.559,52.537" transform="translate(-335.281 30.927)" fill="none" stroke="#fe8b71" stroke-linecap="round" stroke-linejoin="round" stroke-width="0.78" stroke-dasharray="0 2.574" opacity="0.729"/>
        <path id="Path_4492-2" data-name="Path 4492" d="M346.433,87.1c59.042,15.246,79.374.3,101.813-10.369,32.9-15.636,58.872-19.749,78.277-18.577,9.326.563,10.757,6.722,4.169,14.078-5.868,6.552-28.245,21.619,7.118,32.985,21.045,6.765,36.575,4.463,72.179,52.811,17.973,24.4,58.246,46.826,64.36,17.711,9.223-2.654,25.236-35.184,41.721-77.7C726.88,70.162,741.463,48.829,764.394,59.3c29.347,13.4,63.155,52.579,90.853,58.864,11.362,2.579,36.319-4.775,67.155-19.985,20.16-9.944,41.71-21.146,59.018-27.706,67.586-25.618,81.962-8.619,74.579,14.843-2.743,8.717,2.557,16.99,13.085,22.519,25.315.008,34.691-9,108.316-11.076,10.542-.312,20.142,1.746,30.613,1.889,65.365.885,67.916,63.739,164.489,54.742" transform="translate(-334.075 31.473)" fill="none" stroke="#fe8b71" stroke-linecap="round" stroke-linejoin="round" stroke-width="0.744" stroke-dasharray="0 2.574" opacity="0.748"/>
        <path id="Path_4493-2" data-name="Path 4493" d="M345.878,91.811c57.432,14.617,77.73.911,99.505-9.23,31.728-14.776,56.181-19.639,76.03-19.8,9.305-.074,11.116,5.376,5.868,12.367-4.656,6.2-24.071,20.877,9.347,32.784,20.5,7.3,35.624,6.949,69.9,52.8,18.553,24.817,59.923,46.794,65.2,14.994,8.39-4.105,23.487-39.093,39.572-81.818,10.826-28.753,25.427-50.359,48.595-38.349,29.3,15.187,62.863,57.607,91.078,62.034,11.43,1.793,36.928-6.958,67.723-22.882,20.44-10.57,42.1-22.252,59.207-28.854,69.331-26.745,82.621-7.922,73.211,18.026-3.532,9.743,1.417,19.112,12.057,25.71,25.079,2.775,38.372-3.579,112.416-6.013,10.615-.363,20.411,1.421,30.995,1.354,67.864-.432,69.009,65.128,165.42,56.946" transform="translate(-332.87 30.315)" fill="none" stroke="#fe8b71" stroke-linecap="round" stroke-linejoin="round" stroke-width="0.709" stroke-dasharray="0 2.574" opacity="0.767"/>
        <path id="Path_4494-2" data-name="Path 4494" d="M345.323,96.53c55.821,13.986,76.084,1.524,97.2-8.09,30.556-13.916,53.507-19.494,73.785-21.021,9.291-.7,12.671,4.967,7.565,10.656-2.245,6.481-19.9,20.173,11.575,32.581,19.947,7.863,34.694,9.419,67.619,52.787,19.147,25.219,61.6,46.764,66.034,12.277,7.556-5.555,21.728-43,37.424-85.936C717.353,60.156,732,38.268,755.389,51.825c29.27,16.966,62.574,62.659,91.3,65.2,11.5,1.018,37.533-9.145,68.292-25.778,20.715-11.2,42.482-23.362,59.4-30,71.064-27.891,83.266-7.222,71.842,21.21-4.327,10.77.277,21.233,11.031,28.9,24.842,5.545,42.052,1.847,116.516-.95,10.687-.415,20.674,1.093,31.375.82,70.349-1.793,70.1,66.518,166.351,59.151" transform="translate(-331.665 29.149)" fill="none" stroke="#fe8b71" stroke-linecap="round" stroke-linejoin="round" stroke-width="0.673" stroke-dasharray="0 2.574" opacity="0.787"/>
        <path id="Path_4495-2" data-name="Path 4495" d="M344.768,101.267c54.209,13.356,74.437,2.138,94.885-6.951C469.038,81.257,490.5,75,511.193,72.073c9.286-1.312,13.191,3.646,9.262,8.946-.871,6.1-15.746,19.509,13.8,32.379,19.391,8.445,33.785,11.872,65.339,52.774,19.756,25.609,63.278,46.733,66.872,9.559,6.722-7,19.961-46.913,35.275-90.053C712.576,55.172,727.3,33,750.884,48.108c29.266,18.744,62.294,67.734,91.524,68.371,11.576.252,38.13-11.337,68.861-28.673,20.984-11.839,42.866-24.475,59.587-31.149,72.791-29.054,83.9-6.519,70.475,24.394-5.126,11.8-.862,23.354,10,32.09,24.6,8.312,45.732,7.271,120.615,4.113,10.76-.467,20.935.76,31.757.285,72.814-3.2,71.2,67.907,167.281,61.355" transform="translate(-330.459 27.964)" fill="none" stroke="#fe8b71" stroke-linecap="round" stroke-linejoin="round" stroke-width="0.638" stroke-dasharray="0 2.574" opacity="0.806"/>
        <path id="Path_4496-2" data-name="Path 4496" d="M344.213,106.074c52.6,12.726,72.791,2.748,92.577-5.811C465,88.059,485.009,81.146,506.084,76.8c9.294-1.917,13.71,2.323,10.961,7.233.5,5.723-11.606,18.886,16.033,32.177,18.823,9.053,32.892,14.309,63.057,52.763,20.385,25.984,64.955,46.7,67.71,6.842,5.889-8.456,18.187-50.823,33.128-94.172C707.79,50.256,722.609,27.8,746.38,44.463c29.282,20.522,62.025,72.831,91.747,71.54,11.655-.507,38.72-13.534,69.43-31.57,21.249-12.479,43.249-25.588,59.777-32.3,74.508-30.237,84.53-5.815,69.107,27.579-5.926,12.827-3.352,27.24,8.978,35.279,22.423,14.622,49.41,12.7,124.714,9.175,10.831-.517,21.191.427,32.138-.249,75.265-4.645,72.288,69.3,168.211,63.56" transform="translate(-329.254 26.71)" fill="none" stroke="#fe8b71" stroke-linecap="round" stroke-linejoin="round" stroke-width="0.602" stroke-dasharray="0 2.574" opacity="0.826"/>
        <path id="Path_4497-2" data-name="Path 4497" d="M343.658,110.885c50.986,12.1,71.142,3.358,90.267-4.672,27.035-11.352,45.613-18.9,67.049-24.687,9.313-2.516,14.228,1,12.658,5.522,1.878,5.344-7.486,18.3,18.261,31.975,18.242,9.689,32.017,16.73,60.779,52.75,21.032,26.34,66.631,46.673,68.547,4.125,5.055-9.906,16.4-54.733,30.98-98.291,10.8-32.266,25.737-55,49.679-36.787,29.317,22.3,61.769,77.945,91.969,74.707,11.74-1.258,39.3-15.733,70-34.465,21.508-13.125,43.63-26.7,59.967-33.444,76.214-31.439,85.151-5.111,67.738,30.763-6.727,13.858-4.431,29.092,7.951,38.471,22.181,16.8,53.091,18.121,128.815,14.238,10.9-.57,21.445.09,32.519-.784,77.7-6.128,73.381,70.686,169.141,65.764" transform="translate(-328.048 25.451)" fill="none" stroke="#fe8b71" stroke-linecap="round" stroke-linejoin="round" stroke-width="0.567" stroke-dasharray="0 2.574" opacity="0.845"/>
        <path id="Path_4498-2" data-name="Path 4498" d="M343.1,115.7c49.376,11.466,69.495,3.966,87.958-3.532,25.86-10.5,43.034-18.661,64.8-25.909,9.344-3.112,14.748-.322,14.355,3.811,3.252,4.966-3.392,17.758,20.49,31.774,17.641,10.355,31.156,19.136,58.5,52.739,21.7,26.675,60.847,45.843,69.385,1.408,2.286-11.9,14.615-58.643,28.831-102.409,10.767-33.149,25.853-56.166,49.95-36.4,29.37,24.091,61.532,83.076,92.192,77.877,11.832-2.006,39.881-17.938,70.567-37.361C921.9,63.922,944.143,49.876,960.29,43.107c77.911-32.663,85.769-4.407,66.37,33.947-7.531,14.887-5.468,30.956,6.926,41.659,22.026,19.026,56.771,23.546,132.914,19.3,10.976-.621,21.7-.249,32.9-1.317,80.115-7.647,74.475,72.075,170.074,67.969" transform="translate(-326.842 24.189)" fill="none" stroke="#fe8b71" stroke-linecap="round" stroke-linejoin="round" stroke-width="0.531" stroke-dasharray="0 2.574" opacity="0.864"/>
        <path id="Path_4499-2" data-name="Path 4499" d="M342.547,120.517c47.763,10.836,67.844,4.572,85.648-2.393,24.682-9.655,40.48-18.418,62.557-27.131,9.39-3.706,15.268-1.644,16.054,2.1,4.627,4.586.669,17.245,22.718,31.572,17.012,11.053,30.31,21.526,56.218,52.726,22.408,26.985,63.926,46.2,70.223-1.309,1.74-13.134,12.821-62.553,26.683-106.528,10.727-34.032,25.978-57.325,50.221-36.007,29.435,25.882,61.311,88.216,92.414,81.045,11.93-2.75,40.452-20.143,71.136-40.257,22.013-14.429,44.391-28.942,60.348-35.738,79.6-33.906,86.383-3.7,65,37.13-8.336,15.918-6.474,32.837,5.9,44.851,21.946,21.306,60.45,28.97,137.014,24.364,11.048-.674,21.942-.589,33.282-1.854,82.512-9.2,75.568,73.466,171,70.175" transform="translate(-325.636 22.923)" fill="none" stroke="#fe8b71" stroke-linecap="round" stroke-linejoin="round" stroke-width="0.496" stroke-dasharray="0 2.574" opacity="0.884"/>
        <path id="Path_4500-2" data-name="Path 4500" d="M341.992,125.338c46.153,10.205,66.195,5.175,83.339-1.253,23.5-8.812,37.951-18.171,60.312-28.354,9.445-4.3,15.786-2.967,17.751.389,6,4.207,4.689,16.766,24.947,31.37,16.348,11.786,29.473,23.9,53.938,52.715,23.146,27.26,66.88,46.412,71.061-4.025,1.2-14.436,11.019-66.46,24.534-110.647,10.681-34.917,26.115-58.481,50.493-35.617C757.88,57.6,789.474,123.279,821,114.13c12.037-3.493,41.017-22.351,71.705-43.153,22.256-15.086,44.769-30.062,60.537-36.887,81.273-35.171,86.995-3,63.633,40.315-9.141,16.946-7.458,34.74,4.873,48.04,21.919,23.643,64.129,34.395,141.114,29.426,11.119-.724,22.184-.93,33.663-2.388,84.891-10.778,76.661,74.855,171.934,72.379" transform="translate(-324.431 21.654)" fill="none" stroke="#fe8b71" stroke-linecap="round" stroke-linejoin="round" stroke-width="0.461" stroke-dasharray="0 2.574" opacity="0.903"/>
        <path id="Path_4501-2" data-name="Path 4501" d="M341.437,130.163c44.542,9.575,64.544,5.775,81.031-.114,22.324-7.973,35.442-17.925,58.065-29.575,9.511-4.9,15.925-3.825,19.449-1.322,6.775,4.813,8.662,16.308,27.175,31.168,15.638,12.552,28.645,26.255,51.659,52.7,23.924,27.494,69.71,46.525,71.9-6.742.647-15.79,9.212-70.366,22.386-114.765,10.623-35.8,26.259-59.633,50.763-35.226,29.606,29.487,60.925,98.513,92.862,87.382C828.873,109.436,858.3,89.109,889,67.621c22.495-15.746,45.145-31.185,60.727-38.035,82.936-36.455,87.6-2.294,62.265,43.5-9.948,17.977-8.427,36.667,3.846,51.231,21.937,26.029,67.81,39.82,145.214,34.489,11.192-.777,22.425-1.272,34.044-2.923,87.255-12.388,77.755,76.244,172.865,74.584" transform="translate(-323.226 20.382)" fill="none" stroke="#fe8b71" stroke-linecap="round" stroke-linejoin="round" stroke-width="0.425" stroke-dasharray="0 2.574" opacity="0.923"/>
        <path id="Path_4502-2" data-name="Path 4502" d="M340.882,134.988c42.93,8.946,62.891,6.37,78.72,1.026,21.143-7.139,32.955-17.683,55.82-30.8,9.585-5.5,16.631-5.253,21.146-3.035,8.444,4.148,12.58,15.863,29.4,30.966,14.872,13.351,27.824,28.595,49.378,52.691,24.757,27.677,72.428,46.567,72.735-9.459.093-17.182,7.4-74.272,20.237-118.883,10.558-36.691,26.413-60.781,51.035-34.837,29.705,31.3,60.755,103.664,93.085,90.552,12.268-4.977,42.126-26.771,72.842-48.946,22.73-16.409,45.521-32.307,60.917-39.182,84.587-37.763,88.277-1.552,60.9,46.684-10.729,19.021-9.389,38.613,2.82,54.42,21.985,28.464,71.489,45.244,149.314,39.552,11.264-.828,22.663-1.615,34.425-3.456,89.6-14.024,78.848,77.634,173.795,76.788" transform="translate(-322.02 19.109)" fill="none" stroke="#fe8b71" stroke-linecap="round" stroke-linejoin="round" stroke-width="0.39" stroke-dasharray="0 2.574" opacity="0.942"/>
        <path id="Path_4503-2" data-name="Path 4503" d="M340.327,139.819c41.32,8.315,61.238,6.961,76.411,2.165,19.962-6.31,30.483-17.448,53.576-32.02,9.669-6.1,17.257-6.7,22.843-4.745,9.988,3.494,16.438,15.419,31.632,30.764,14.04,14.178,27.006,30.913,47.1,52.678,25.655,27.791,75.049,46.554,73.573-12.176-.468-18.6,5.583-78.175,18.089-123,10.484-37.578,26.571-61.923,51.305-34.446,29.814,33.119,60.6,108.813,93.308,93.719,12.394-5.719,42.674-28.982,73.411-51.84,22.959-17.074,45.894-33.433,61.107-40.329,86.227-39.094,88.86-.863,59.528,49.867C990.663,90.5,991.864,111.036,1004,128.065c22.056,30.939,75.168,50.668,153.414,44.615,11.336-.881,22.9-1.96,34.806-3.991,91.929-15.682,79.941,79.023,174.725,78.993" transform="translate(-320.815 17.831)" fill="none" stroke="#fe8b71" stroke-linecap="round" stroke-linejoin="round" stroke-width="0.354" stroke-dasharray="0 2.574" opacity="0.961"/>
        <path id="Path_4504-2" data-name="Path 4504" d="M339.772,144.652c39.707,7.685,59.583,7.546,74.1,3.3,18.78-5.487,28.023-17.22,51.329-33.241,9.758-6.71,17.834-8.144,24.54-6.457,11.454,2.883,20.227,14.964,33.861,30.562,13.133,15.026,26.188,33.211,44.818,52.667,26.634,27.816,77.586,46.505,74.41-14.894-1.036-20.048,3.762-82.076,15.943-127.119,10.4-38.465,26.735-63.061,51.577-34.055,29.929,34.945,60.458,113.957,93.53,96.888,12.526-6.465,43.215-31.194,73.981-54.738,23.184-17.74,46.267-34.557,61.3-41.476,87.853-40.447,89.441-.172,58.16,53.052-12.363,21.071-11.3,42.567.768,60.8,22.141,33.452,78.848,56.093,157.512,49.677a350.964,350.964,0,0,0,35.188-4.526c94.239-17.361,81.033,80.412,175.655,81.2" transform="translate(-319.609 16.55)" fill="none" stroke="#fe8b71" stroke-linecap="round" stroke-linejoin="round" stroke-width="0.319" stroke-dasharray="0 2.574" opacity="0.981"/>
        <path id="Path_4505-2" data-name="Path 4505" d="M339.217,149.488c86.455,16.01,78.85,1.2,120.877-30.02,42.157-31.317,60.038,30.02,104.866,74.847,27.718,27.719,80.05,46.429,75.246-17.611-3.016-40.213,12.008-230.544,65.642-164.9C735.9,48.579,766.176,130.9,799.6,111.858,821.883,99.165,901.25,27.676,935.637,11.6c89.464-41.822,90.023.519,56.791,56.236-41.151,68.993,55.179,141.662,196.923,113.671,96.536-19.062,82.127,81.8,176.586,83.4" transform="translate(-318.404 15.266)" fill="none" stroke="#fe8b71" stroke-linecap="round" stroke-linejoin="round" stroke-width="0.283" stroke-dasharray="0 2.574"/>
      </g>
    </g>
  </g>
</svg>
