<svg xmlns="http://www.w3.org/2000/svg" xmlns:xlink="http://www.w3.org/1999/xlink" width="1440" height="585" viewBox="0 0 1440 585">
  <defs>
    <clipPath id="clip-path">
      <rect id="Rectangle_2646" data-name="Rectangle 2646" width="1440" height="585" transform="translate(0 173)" fill="none"/>
    </clipPath>
    <linearGradient id="linear-gradient" x1="0.48" y1="0.449" x2="1.123" y2="0.396" gradientUnits="objectBoundingBox">
      <stop offset="0" stop-color="#fff"/>
      <stop offset="1" stop-color="gray"/>
    </linearGradient>
    <clipPath id="clip-path-2">
      <rect id="Rectangle_1681" data-name="Rectangle 1681" width="1440" height="140" transform="translate(8167 -2392)" fill="none"/>
    </clipPath>
    <clipPath id="clip-path-3">
      <rect id="Rectangle_1679" data-name="Rectangle 1679" width="1440" height="682" transform="translate(3127 -2638)" fill="none"/>
    </clipPath>
    <linearGradient id="linear-gradient-2" x1="1" x2="0" y2="1" gradientUnits="objectBoundingBox">
      <stop offset="0" stop-color="#ff956f"/>
      <stop offset="1" stop-color="#fc6c7c"/>
    </linearGradient>
    <linearGradient id="linear-gradient-3" y1="0.011" x2="0.329" y2="0.432" gradientUnits="objectBoundingBox">
      <stop offset="0" stop-color="#f143ff"/>
      <stop offset="1" stop-color="#fff" stop-opacity="0"/>
    </linearGradient>
    <clipPath id="clip-path-4">
      <rect id="Rectangle_1678" data-name="Rectangle 1678" width="1440" height="1103" transform="translate(15437 1293)" fill="none"/>
    </clipPath>
    <linearGradient id="linear-gradient-4" x1="0.188" y1="0.113" x2="0.762" y2="0.152" gradientUnits="objectBoundingBox">
      <stop offset="0" stop-color="#2880b8"/>
      <stop offset="1" stop-color="#289cac" stop-opacity="0"/>
    </linearGradient>
    <filter id="Ellipse_1101" x="180" y="543" width="1792" height="1792" filterUnits="userSpaceOnUse">
      <feOffset dx="-10" dy="-10" input="SourceAlpha"/>
      <feGaussianBlur stdDeviation="20" result="blur"/>
      <feFlood flood-opacity="0.161"/>
      <feComposite operator="in" in2="blur"/>
      <feComposite in="SourceGraphic"/>
    </filter>
    <clipPath id="clip-path-5">
      <rect id="Rectangle_1680" data-name="Rectangle 1680" width="1440.677" height="596.248" transform="translate(0 162)" fill="none"/>
    </clipPath>
    <linearGradient id="linear-gradient-5" x1="0.576" y1="0.982" x2="-0.346" y2="0.151" gradientUnits="objectBoundingBox">
      <stop offset="0" stop-color="#fff"/>
      <stop offset="1" stop-color="#d9d9d9"/>
    </linearGradient>
    <linearGradient id="linear-gradient-6" x1="0.95" y1="0.197" x2="0" y2="0.47" gradientUnits="objectBoundingBox">
      <stop offset="0" stop-color="#fff" stop-opacity="0.071"/>
      <stop offset="1" stop-color="#2880b8"/>
    </linearGradient>
  </defs>
  <g id="Mask_Group_101" data-name="Mask Group 101" transform="translate(0 -173)" clip-path="url(#clip-path)">
    <g id="Group_20062" data-name="Group 20062">
      <circle id="Ellipse_1110" data-name="Ellipse 1110" cx="294.5" cy="294.5" r="294.5" transform="translate(987 101)" fill="url(#linear-gradient)"/>
      <g id="Group_4634" data-name="Group 4634" transform="translate(50.521 285.695)" opacity="0.6">
        <path id="Path_4473" data-name="Path 4473" d="M356.979,46.408C539.816,91.331,537.782,16.9,579.611,13.836c85.871-6.283.8,71.524,39.795,140.327C670.784,244.81,804.67,273.42,866.094,271.447c42.294-1.359,61.777-21.981,73.713-45.837,41.936-83.817,138.811,20.138,169.792,62.134,66.926,90.719,148.033-47.088,171.351-91.426,69.125-131.437,108.949-71.568,151.1-69.383,93.645,4.855-5.377-29.281-46.078-48.173-102.44-47.545,5.151-135,121.478-67.022,45.961,26.861,73.3,77.495,190.593,41.89" transform="translate(11.56 0)" fill="none" stroke="#3b2a2b" stroke-linecap="round" stroke-linejoin="round" stroke-width="1.417" stroke-dasharray="0 2.574" opacity="0.38"/>
        <path id="Path_4474" data-name="Path 4474" d="M1697.55,55.723C1582.368,90.5,1555.068,41.5,1509.976,15.324,1439.524-25.619,1372.542-9.314,1354.7,19.8c-11,17.951-2.988,41.1,34.52,58.712,38.9,18.4,134.394,51.555,43.163,47.909-41.32-1.652-79.326-58.066-148.114,69.366-11.523,21.347-37.117,61.523-64.473,87.15-32.194,30.162-70.644,44.232-105.164-4.667-11.859-16.8-32.832-41.535-56.835-59.872-39.8-30.412-87.007-47.554-113.6,2.4-12.134,22.786-32.224,42.066-74.457,42.047-19.206-.008-45.049-2.882-72.735-9.222-46.189-10.575-94.161-27.324-129.786-55.562-15.889-12.654-30.347-27.625-41.282-45.662-39.3-64.816,41.264-139.515-45.158-133.7-12.1.811-20.48,7.6-31.072,15.056-27.884,19.628-63.108,50.669-193.275,19.7" transform="translate(11.199 2.554)" fill="none" stroke="#3b2a2b" stroke-linecap="round" stroke-linejoin="round" stroke-width="1.382" stroke-dasharray="0 2.574" opacity="0.399"/>
        <path id="Path_4475" data-name="Path 4475" d="M1697.059,57.821C1583.987,91.777,1556.731,44.4,1512.508,18.913c-68.924-39.82-134.242-24.677-152.341,2.874-11.166,17-3.622,39.268,32.3,56.475,37.154,17.8,129.058,50.093,40.247,47.643-40.5-1.116-76.828-54.14-145.131,69.351-12.133,21.938-39.7,60.98-65.569,83.6-31.631,27.656-68.846,39.441-102.355-10.055-12.066-17.822-33.026-42.709-57.188-59.36-39.993-27.562-86.863-41.066-113.9,6.539-12.332,21.715-33.048,39.623-75.2,38.26-19.585-.634-45.6-4.132-72.983-10.724-48.556-11.689-94.989-26.336-128-51.4-14.851-11.273-29.02-24.731-39.94-41.487C592.847,89.847,668.9,18.21,581.933,23.545c-12.19.743-20.632,7.533-31.57,14.357C519.755,57,485.824,90.389,355.869,60.487" transform="translate(10.838 5.104)" fill="none" stroke="#3b2a2b" stroke-linecap="round" stroke-linejoin="round" stroke-width="1.346" stroke-dasharray="0 2.574" opacity="0.419"/>
        <path id="Path_4476" data-name="Path 4476" d="M1696.57,59.925C1585.6,93.057,1558.393,47.3,1515.04,22.507c-67.393-38.7-131.041-24.726-149.4,1.276-11.323,16.031-4.276,37.487,30.078,54.235,35.382,17.249,123.711,48.642,37.332,47.38-39.681-.581-74.466-50.274-142.149,69.335-12.749,22.53-42.24,60.372-66.664,80.042-31.1,25.043-66.994,34.6-99.543-15.443-12.266-18.857-33.2-43.871-57.545-58.849C1027,175.783,980.43,165.9,952.959,211.167c-12.526,20.64-33.888,37.14-75.946,34.471-19.975-1.268-46.154-5.408-73.232-12.224C752.856,220.592,708,208.032,677.575,186.182c-13.8-9.91-27.688-21.821-38.6-37.315C599.067,92.18,670.613,23.546,583.093,28.409c-12.284.675-20.838,7.427-32.069,13.657-33.459,18.56-65.969,54.3-195.71,25.469" transform="translate(10.476 7.647)" fill="none" stroke="#3b2a2b" stroke-linecap="round" stroke-linejoin="round" stroke-width="1.311" stroke-dasharray="0 2.574" opacity="0.438"/>
        <path id="Path_4477" data-name="Path 4477" d="M1696.081,62.035c-108.857,32.308-136.026-11.822-178.51-35.927-65.863-37.573-127.828-24.789-146.466-.324-11.475,15.062-4.928,35.706,27.858,52,33.611,16.7,118.357,47.2,34.416,47.115-38.872-.04-72.227-46.462-139.166,69.32-13.37,23.126-44.718,59.687-67.76,76.488-30.583,22.3-65.1,29.713-96.734-20.83-12.457-19.9-33.343-45.028-57.9-58.34-40.257-21.827-86.562-28.11-114.48,14.829-12.718,19.564-34.738,34.624-76.689,30.682-20.371-1.913-46.7-6.706-73.48-13.725-53.3-13.971-96.58-24.414-124.416-43.067-12.746-8.54-26.345-18.889-37.254-33.14C605.295,94.581,672.323,28.888,584.253,33.278c-12.378.608-21.086,7.283-32.568,12.959-36.417,18-67.4,56.121-196.927,28.353" transform="translate(10.115 10.184)" fill="none" stroke="#3b2a2b" stroke-linecap="round" stroke-linejoin="round" stroke-width="1.276" stroke-dasharray="0 2.574" opacity="0.458"/>
        <path id="Path_4478" data-name="Path 4478" d="M1695.591,64.152C1588.842,95.635,1561.717,53.133,1520.1,29.716,1455.77-6.732,1395.5,4.853,1376.573,27.795c-11.619,14.086-5.578,33.923,25.636,49.758,31.843,16.153,112.994,45.774,31.5,46.852-38.068.5-70.1-42.705-136.183,69.3-14,23.726-47.1,58.9-68.856,72.933-30.073,19.391-63.154,24.79-93.922-26.218-12.644-20.959-33.462-46.177-58.253-57.828-40.328-18.956-86.4-21.646-114.772,18.975-12.906,18.483-35.6,32.074-77.434,26.894-20.772-2.572-47.245-8.025-73.729-15.227C754.9,198.1,713.188,189.8,687.938,174.335c-11.694-7.163-24.992-15.935-35.912-28.969C611.544,97.057,674.035,34.24,585.415,38.155c-12.474.54-21.37,7.1-33.068,12.259C512.88,67.814,483.52,108.352,354.2,81.651" transform="translate(9.754 12.714)" fill="none" stroke="#3b2a2b" stroke-linecap="round" stroke-linejoin="round" stroke-width="1.24" stroke-dasharray="0 2.574" opacity="0.477"/>
        <path id="Path_4479" data-name="Path 4479" d="M1695.1,66.279c-104.643,30.659-131.723-10.217-172.467-32.946-62.8-35.326-121.367-24.951-140.593-3.52-11.755,13.1-6.227,32.138,23.415,47.519,30.076,15.6,107.621,44.363,28.586,46.586-37.268,1.048-68.069-39-133.2,69.288-14.631,24.323-47.672,61.776-69.952,69.378-26.243,21.2-61.171,19.838-91.112-31.605-12.819-22.025-33.548-47.324-58.608-57.318-40.35-16.091-86.234-15.186-115.063,23.12-13.093,17.4-36.467,29.492-78.178,23.107-21.18-3.244-47.785-9.363-73.977-16.729-58.038-16.323-98.168-22.433-120.835-34.735-10.643-5.776-23.618-12.956-34.57-24.794C617.831,99.614,675.745,39.6,586.576,43.04c-12.566.472-21.68,6.889-33.565,11.561-42.6,16.744-70.259,59.755-199.362,34.121" transform="translate(9.393 15.235)" fill="none" stroke="#3b2a2b" stroke-linecap="round" stroke-linejoin="round" stroke-width="1.205" stroke-dasharray="0 2.574" opacity="0.496"/>
        <path id="Path_4480" data-name="Path 4480" d="M1694.611,68.394c-102.533,29.835-129.618-9.332-169.446-31.455-61.344-34.073-118.11-25.051-137.654-5.119-11.881,12.119-6.874,30.354,21.195,45.281,28.31,15.056,102.237,42.968,25.671,46.324-36.478,1.6-66.134-35.336-130.217,69.272-15.267,24.924-49.865,61.736-71.047,65.823-25.152,19.3-59.154,14.856-88.3-36.993-12.985-23.1-33.6-48.478-58.961-56.807-40.323-13.243-86.058-8.734-115.355,27.265C957.22,208.3,933.156,218.862,891.572,211.3c-21.59-3.924-48.321-10.714-74.224-18.23C756.939,175.546,718.4,171.667,698.3,162.5c-9.588-4.375-22.222-9.953-33.228-20.622-40.9-39.65,12.381-96.935-77.338-93.965-12.66.4-22.009,6.643-34.063,10.861-45.784,16.021-71.689,61.572-200.579,37" transform="translate(9.031 17.766)" fill="none" stroke="#3b2a2b" stroke-linecap="round" stroke-linejoin="round" stroke-width="1.169" stroke-dasharray="0 2.574" opacity="0.516"/>
        <path id="Path_4481" data-name="Path 4481" d="M1694.122,70.539C1593.7,99.549,1566.65,62.019,1527.7,40.575c-59.823-32.932-114.833-25.164-134.716-6.717-11.995,11.128-7.519,28.566,18.973,43.042,26.548,14.506,96.842,41.589,22.755,46.058-35.694,2.153-64.283-31.716-127.234,69.257-15.912,25.523-52.061,61.7-72.143,62.269-24.062,17.4-57.1,9.85-85.491-42.382-13.144-24.18-33.627-49.644-59.317-56.3-40.247-10.422-85.868-2.29-115.645,31.412-13.451,15.222-38.21,24.232-79.666,15.528-22-4.621-48.856-12.081-74.475-19.731-62.774-18.748-99.708-20.335-117.255-26.4-8.527-2.948-20.794-6.919-31.884-16.447-40.988-35.217,7.567-89.838-82.7-87.344-12.756.337-22.355,6.371-34.563,10.162-49.02,15.226-73.118,63.39-201.8,39.889" transform="translate(8.67 20.268)" fill="none" stroke="#3b2a2b" stroke-linecap="round" stroke-linejoin="round" stroke-width="1.134" stroke-dasharray="0 2.574" opacity="0.535"/>
        <path id="Path_4482" data-name="Path 4482" d="M1693.634,72.7c-98.318,28.186-125.326-7.708-163.406-28.473-58.3-31.793-111.531-25.284-131.777-8.317-12.094,10.136-8.16,26.778,16.753,40.8,24.789,13.956,91.438,40.232,19.839,45.8-34.918,2.712-62.51-28.138-124.251,69.241-16.563,26.123-54.254,61.657-73.239,58.715-22.971,15.5-55.022,4.824-82.682-47.768-13.289-25.271-33.621-50.827-59.671-55.786-40.128-7.64-85.664,4.147-115.937,35.555-13.621,14.133-39.083,21.561-80.41,11.741-22.415-5.327-49.388-13.457-74.723-21.233-65.137-19.99-100.4-19.212-115.465-22.238-7.44-1.5-19.328-3.86-30.542-12.276-40.96-30.735,2.754-82.741-88.065-80.719-12.85.269-22.71,6.073-35.062,9.463-52.293,14.352-74.548,65.208-203.014,42.773" transform="translate(8.308 22.758)" fill="none" stroke="#3b2a2b" stroke-linecap="round" stroke-linejoin="round" stroke-width="1.098" stroke-dasharray="0 2.574" opacity="0.554"/>
        <path id="Path_4483" data-name="Path 4483" d="M1693.143,74.868c-96.21,27.362-123.178-6.9-160.383-26.983-56.779-30.656-108.2-25.411-128.84-9.915-12.177,9.144-8.8,24.987,14.532,38.565,23.034,13.406,86.024,38.9,16.924,45.53-34.149,3.279-60.807-24.6-121.268,69.226-17.22,26.72-56.45,61.617-74.335,55.161-21.88,13.606-52.914-.218-79.87-53.157-13.426-26.367-33.591-52.034-60.026-55.275-39.971-4.9-85.447,10.58-116.23,39.7-13.784,13.038-39.953,18.864-81.155,7.95-22.828-6.047-49.916-14.846-74.971-22.734-67.5-21.248-100.966-18.04-113.676-18.073-6.3-.017-17.812-.776-29.2-8.1-40.779-26.23-2.06-75.646-93.429-74.1-12.942.2-23.072,5.755-35.559,8.764-55.6,13.395-75.979,67.025-204.232,45.657" transform="translate(7.947 25.234)" fill="none" stroke="#3b2a2b" stroke-linecap="round" stroke-linejoin="round" stroke-width="1.063" stroke-dasharray="0 2.574" opacity="0.574"/>
        <path id="Path_4484" data-name="Path 4484" d="M1692.654,77.056c-94.1,26.539-121.032-6.083-157.362-25.492-55.255-29.517-104.846-25.538-125.9-11.513-12.241,8.153-9.428,23.194,12.312,36.325,21.282,12.857,80.6,37.584,14.009,45.267-33.386,3.851-59.169-21.1-118.287,69.209-17.882,27.318-58.642,61.576-75.428,51.606-20.792,11.709-50.783-5.274-77.062-58.545-13.552-27.47-33.54-53.271-60.381-54.765-39.785-2.215-85.209,17.01-116.52,43.846-13.939,11.947-40.82,16.145-81.9,4.163-23.237-6.778-50.441-16.244-75.22-24.236-69.848-22.527-101.286-16.914-111.885-13.907-5.058,1.435-15.27.023-27.858-3.927-35.594-28.965-6.874-68.551-98.79-67.474-13.038.134-23.44,5.418-36.059,8.064-58.92,12.356-77.409,68.843-205.449,48.541" transform="translate(7.586 27.693)" fill="none" stroke="#3b2a2b" stroke-linecap="round" stroke-linejoin="round" stroke-width="1.028" stroke-dasharray="0 2.574" opacity="0.593"/>
        <path id="Path_4485" data-name="Path 4485" d="M1692.163,79.263c-91.994,25.713-118.884-5.273-154.341-24C1484.093,26.881,1436.368,29.6,1414.858,42.15c-12.287,7.171-10.055,21.4,10.091,34.088,19.536,12.305,75.167,36.3,11.094,45-32.634,4.432-57.589-17.628-115.3,69.194-18.552,27.91-60.836,61.536-76.524,48.052-19.7,9.811-48.625-10.342-74.251-63.933-13.667-28.577-33.475-54.54-60.735-54.253-39.578.414-84.955,23.44-116.814,47.991-14.085,10.854-41.68,13.4-82.642.373-23.645-7.52-50.964-17.649-75.467-25.735-72.2-23.828-101.41-16.076-110.1-9.743-3.744,2.73-13.78,2.8-26.514.246-35.285-25.343-11.688-61.452-104.155-60.849-13.132.066-23.808,5.063-36.557,7.364-62.253,11.232-78.837,70.66-206.665,51.425" transform="translate(7.225 30.132)" fill="none" stroke="#3b2a2b" stroke-linecap="round" stroke-linejoin="round" stroke-width="0.992" stroke-dasharray="0 2.574" opacity="0.613"/>
        <path id="Path_4486" data-name="Path 4486" d="M1691.674,81.493c-89.887,24.889-116.736-4.462-151.32-22.511-52.206-27.245-98.034-25.778-120.028-14.711-12.314,6.2-10.674,19.6,7.871,31.849,17.8,11.756,69.724,35.042,8.178,44.737-31.886,5.022-56.065-14.192-112.321,69.178-19.232,28.5-63.032,61.5-77.62,44.5-18.61,7.912-46.448-15.422-71.441-69.32-13.77-29.693-33.406-55.847-61.089-53.744-39.366,2.991-84.679,29.873-117.106,52.136-14.222,9.765-42.537,10.641-83.387-3.414-24.049-8.274-51.484-19.062-75.717-27.237-74.536-25.147-101.734-15.62-108.3-5.576-2.521,3.851-12.289,5.575-25.172,4.419-34.974-21.722-16.5-54.357-109.519-54.228-13.226,0-24.178,4.7-37.054,6.666-65.6,10.025-80.268,72.478-207.884,54.309" transform="translate(6.864 32.55)" fill="none" stroke="#3b2a2b" stroke-linecap="round" stroke-linejoin="round" stroke-width="0.957" stroke-dasharray="0 2.574" opacity="0.632"/>
        <path id="Path_4487" data-name="Path 4487" d="M1691.184,83.748c-87.778,24.067-114.587-3.65-148.3-21.018-50.68-26.109-94.582-25.875-117.09-16.309-12.324,5.236-11.285,17.8,5.648,29.609,16.071,11.207,64.275,33.819,5.264,44.473-31.146,5.623-54.591-10.786-109.338,69.165-19.919,29.088-65.226,61.455-78.716,40.94-17.52,6.017-44.249-20.508-68.631-74.706-13.86-30.813-33.337-57.191-61.444-53.233-39.153,5.512-84.38,36.313-117.4,56.282-14.349,8.678-43.385,7.861-84.131-7.2-24.451-9.04-52-20.483-75.964-28.739C764.216,96.522,738.6,107.792,734.573,121.6c-1.449,4.969-10.8,8.35-23.83,8.593-34.666-18.1-21.315-47.26-114.881-47.6-13.321-.069-24.548,4.317-37.555,5.966-68.935,8.738-81.7,74.3-209.1,57.193" transform="translate(6.502 34.941)" fill="none" stroke="#3b2a2b" stroke-linecap="round" stroke-linejoin="round" stroke-width="0.921" stroke-dasharray="0 2.574" opacity="0.651"/>
        <path id="Path_4488" data-name="Path 4488" d="M1690.695,86.036c-85.671,23.242-112.439-2.841-145.277-19.528-49.153-24.975-91.1-25.944-114.151-17.908-12.317,4.294-11.883,16,3.427,27.372,14.352,10.661,58.817,32.63,2.349,44.207-30.413,6.237-53.163-7.407-106.356,69.15-20.614,29.669-67.419,61.416-79.811,37.386-16.429,4.119-42.033-25.6-65.82-80.095-13.942-31.935-33.277-58.57-61.8-52.722-38.953,7.987-84.062,42.766-117.689,60.427-14.466,7.6-44.227,5.065-84.876-10.991-24.845-9.814-52.518-21.908-76.212-30.24-79.2-27.848-103.464-14.631-104.725,2.755-.449,6.169-9.307,11.125-22.488,12.766-34.355-14.478-26.129-40.163-120.244-40.982-13.415-.137-24.914,3.927-38.053,5.268-72.273,7.369-83.127,76.113-210.317,60.077" transform="translate(6.141 37.299)" fill="none" stroke="#3b2a2b" stroke-linecap="round" stroke-linejoin="round" stroke-width="0.886" stroke-dasharray="0 2.574" opacity="0.671"/>
        <path id="Path_4489" data-name="Path 4489" d="M1690.206,88.367c-83.563,22.418-110.29-2.032-142.257-18.037-47.626-23.843-87.6-25.982-111.214-19.506-12.3,3.371-12.465,14.192,1.207,25.132,12.647,10.121,53.353,31.48-.566,43.945-29.687,6.862-51.778-4.059-103.373,69.133-21.32,30.245-69.614,61.376-80.907,33.832-15.338,2.222-39.8-30.7-63.01-85.483-14.009-33.064-33.231-59.983-62.154-52.211-38.771,10.417-83.723,49.233-117.979,64.572-14.575,6.526-45.061,2.255-85.618-14.78-25.238-10.6-53.034-23.339-76.463-31.74-81.516-29.231-104.459-13.888-102.934,6.919.545,7.439-7.817,13.9-21.144,16.939-34.047-10.856-30.943-33.066-125.61-34.357-13.509-.2-25.279,3.528-38.552,4.568-75.6,5.925-84.557,77.931-211.533,62.961" transform="translate(5.78 39.615)" fill="none" stroke="#3b2a2b" stroke-linecap="round" stroke-linejoin="round" stroke-width="0.85" stroke-dasharray="0 2.574" opacity="0.69"/>
        <path id="Path_4490" data-name="Path 4490" d="M1689.715,90.753c-81.455,21.594-108.139-1.225-139.236-16.546C1504.382,51.495,1466.4,48.228,1442.2,53.1c-12.266,2.471-13.028,12.388-1.014,22.9,10.963,9.586,47.886,30.369-3.482,43.679-28.965,7.506-50.433-.735-100.39,69.118-22.038,30.814-71.809,61.336-82,30.278-14.248.324-37.553-35.808-60.2-90.87-14.065-34.2-33.2-61.426-62.509-51.7-38.615,12.812-83.367,55.722-118.272,68.716-14.676,5.464-45.888-.568-86.363-18.567-25.622-11.394-53.546-24.777-76.711-33.243-83.827-30.636-105.418-13.055-101.144,11.085,1.547,8.743-6.326,16.675-19.8,21.112C696.58,118.371,694.56,99.634,599.345,97.87c-13.6-.272-25.641,3.12-39.05,3.87-78.921,4.4-85.988,79.748-212.752,65.845" transform="translate(5.419 41.877)" fill="none" stroke="#3b2a2b" stroke-linecap="round" stroke-linejoin="round" stroke-width="0.815" stroke-dasharray="0 2.574" opacity="0.709"/>
        <path id="Path_4491" data-name="Path 4491" d="M1689.226,93.216c-79.349,20.769-105.99-.418-136.214-15.056-44.569-21.583-80.546-25.931-105.339-22.7-12.233,1.591-13.567,10.585-3.234,20.655,9.3,9.068,42.418,29.3-6.4,43.417-28.247,8.167-49.123,2.564-97.407,69.1-22.768,31.374-74,61.3-83.1,26.724-13.157-1.575-35.29-40.916-57.389-96.258-14.11-35.333-33.2-62.891-62.862-51.19-38.489,15.183-83,62.239-118.564,72.862-14.772,4.413-46.705-3.4-87.107-22.357-26-12.2-54.056-26.217-76.958-34.743C768.528,51.6,748.317,71.493,755.3,98.918c2.562,10.07-4.835,19.452-18.46,25.286-33.426-3.612-40.571-18.872-136.335-21.111-13.7-.34-26,2.706-39.549,3.17-82.224,2.815-87.418,81.566-213.969,68.729" transform="translate(5.058 44.06)" fill="none" stroke="#3b2a2b" stroke-linecap="round" stroke-linejoin="round" stroke-width="0.78" stroke-dasharray="0 2.574" opacity="0.729"/>
        <path id="Path_4492" data-name="Path 4492" d="M1688.735,96.505c-77.239,19.945-103.837.388-133.192-13.565-43.039-20.455-77.016-25.835-102.4-24.3-12.2.736-14.072,8.794-5.454,18.417,7.676,8.571,36.951,28.282-9.312,43.151-27.531,8.85-47.848,5.839-94.424,69.087-23.513,31.925-76.2,61.257-84.2,23.169-12.066-3.472-33.013-46.028-54.58-101.646-14.141-36.472-33.218-64.379-63.217-50.679-38.391,17.532-82.619,68.783-118.854,77.006-14.864,3.374-47.512-6.247-87.852-26.144-26.374-13.009-54.565-27.663-77.208-36.246-88.417-33.513-107.223-11.275-97.564,19.417,3.589,11.4-3.345,22.227-17.117,29.459-33.117.01-45.383-11.777-141.7-14.489-13.791-.408-26.35,2.285-40.047,2.471-85.511,1.157-88.847,83.383-215.185,71.613" transform="translate(4.696 45.418)" fill="none" stroke="#3b2a2b" stroke-linecap="round" stroke-linejoin="round" stroke-width="0.744" stroke-dasharray="0 2.574" opacity="0.748"/>
        <path id="Path_4493" data-name="Path 4493" d="M1688.246,104.029c-75.132,19.122-101.686,1.192-130.172-12.074-41.507-19.33-73.5-25.692-99.462-25.9-12.173-.1-14.542,7.033-7.676,16.178,6.091,8.117,31.489,27.311-12.228,42.888-26.814,9.553-46.6,9.091-91.443,69.071-24.271,32.465-78.391,61.216-85.29,19.615-10.976-5.37-30.725-51.141-51.768-107.035-14.163-37.614-33.264-65.879-63.572-50.169-38.327,19.868-82.238,75.362-119.148,81.153-14.953,2.346-48.31-9.1-88.595-29.934-26.74-13.827-55.07-29.111-77.455-37.746-90.7-34.988-108.085-10.364-95.774,23.582,4.621,12.746-1.854,25-15.774,33.634-32.809,3.63-50.2-4.682-147.062-7.866-13.887-.475-26.7,1.859-40.548,1.771-88.78-.565-90.277,85.2-216.4,74.5" transform="translate(4.335 42.542)" fill="none" stroke="#3b2a2b" stroke-linecap="round" stroke-linejoin="round" stroke-width="0.709" stroke-dasharray="0 2.574" opacity="0.767"/>
        <path id="Path_4494" data-name="Path 4494" d="M1687.758,111.575c-73.024,18.3-99.533,1.994-127.151-10.583-39.973-18.205-70-25.5-96.526-27.5-12.155-.916-16.576,6.5-9.9,13.94,2.937,8.479,26.037,26.39-15.143,42.623-26.095,10.286-45.386,12.322-88.459,69.056C1325.534,232.1,1270,260.286,1264.2,215.171c-9.885-7.267-28.424-56.257-48.958-112.421-14.169-38.76-33.332-67.393-63.927-49.658-38.291,22.2-81.86,81.97-119.439,85.3-15.047,1.332-49.1-11.964-89.339-33.723-27.1-14.654-55.575-30.562-77.7-39.247C771.862,28.933,755.9,55.972,770.845,93.166c5.661,14.09-.363,27.777-14.432,37.806-32.5,7.254-55.012,2.417-152.426-1.243-13.981-.543-27.046,1.43-41.044,1.073-92.03-2.346-91.708,87.018-217.62,77.381" transform="translate(3.974 39.643)" fill="none" stroke="#3b2a2b" stroke-linecap="round" stroke-linejoin="round" stroke-width="0.673" stroke-dasharray="0 2.574" opacity="0.787"/>
        <path id="Path_4495" data-name="Path 4495" d="M1687.267,119.165c-70.916,17.472-97.379,2.8-124.129-9.093-38.441-17.084-66.523-25.272-93.589-29.1-12.148-1.717-17.256,4.769-12.117,11.7,1.139,7.982,20.6,25.522-18.058,42.359-25.366,11.047-44.2,15.531-85.476,69.039-25.845,33.5-82.781,61.137-87.482,12.505-8.794-9.164-26.113-61.371-46.147-117.808-14.167-39.907-33.424-68.91-64.281-49.148-38.286,24.521-81.493,88.61-119.731,89.443-15.143.33-49.881-14.831-90.084-37.51C918.72,86.068,890.1,69.538,868.22,60.807,773,22.8,758.46,52.279,776.025,92.719c6.706,15.435,1.127,30.552-13.088,41.98-32.188,10.874-59.826,9.512-157.788,5.38-14.077-.611-27.387.994-41.545.373-95.256-4.185-93.138,88.836-218.837,80.265" transform="translate(3.613 36.699)" fill="none" stroke="#3b2a2b" stroke-linecap="round" stroke-linejoin="round" stroke-width="0.638" stroke-dasharray="0 2.574" opacity="0.806"/>
        <path id="Path_4496" data-name="Path 4496" d="M1686.778,126.93c-68.81,16.649-95.225,3.6-121.11-7.6-36.9-15.965-63.08-25.008-90.65-30.7-12.158-2.508-17.935,3.039-14.339,9.463-.659,7.487,15.183,24.706-20.974,42.094-24.624,11.843-43.029,18.719-82.492,69.024-26.667,33.992-84.975,61.1-88.578,8.951-7.7-11.062-23.792-66.487-43.338-123.2-14.151-41.058-33.536-70.432-64.635-48.637-38.307,26.847-81.141,95.277-120.023,93.589-15.247-.664-50.654-17.705-90.828-41.3-27.8-16.325-56.579-33.474-78.2-42.25-97.471-39.555-110.582-7.607-90.406,36.079,7.752,16.781,4.385,35.635-11.745,46.152-29.333,19.128-64.638,16.609-163.151,12-14.169-.677-27.722.558-42.043-.325C465.8,144.2,469.7,240.931,344.213,233.426" transform="translate(3.252 33.582)" fill="none" stroke="#3b2a2b" stroke-linecap="round" stroke-linejoin="round" stroke-width="0.602" stroke-dasharray="0 2.574" opacity="0.826"/>
        <path id="Path_4497" data-name="Path 4497" d="M1686.288,134.7c-66.7,15.823-93.069,4.393-118.087-6.111-35.367-14.851-59.671-24.719-87.713-32.3-12.183-3.292-18.613,1.307-16.559,7.224-2.456,6.991,9.793,23.942-23.889,41.83-23.864,12.675-41.885,21.887-79.51,69.008-27.514,34.458-87.167,61.057-89.673,5.4-6.613-12.959-21.461-71.6-40.528-128.584-14.123-42.21-33.669-71.955-64.99-48.125-38.352,29.178-80.806,101.968-120.314,97.732-15.358-1.646-51.418-20.583-91.573-45.087C925.315,78.522,896.374,60.758,875,51.941c-99.7-41.129-111.394-6.686-88.615,40.244,8.8,18.129,5.8,38.058-10.4,50.327-29.017,21.976-69.453,23.706-168.516,18.626-14.263-.746-28.054.117-42.542-1.025-101.645-8.016-96,92.471-221.27,86.033" transform="translate(2.89 30.454)" fill="none" stroke="#3b2a2b" stroke-linecap="round" stroke-linejoin="round" stroke-width="0.567" stroke-dasharray="0 2.574" opacity="0.845"/>
        <path id="Path_4498" data-name="Path 4498" d="M1685.8,142.488c-64.594,15-90.913,5.189-115.066-4.621-33.83-13.738-56.3-24.412-84.776-33.895-12.224-4.071-19.293-.421-18.78,4.985-4.254,6.5,4.437,23.23-26.8,41.566-23.078,13.547-40.759,25.033-76.527,68.993-28.394,34.9-79.6,59.971-90.769,1.842-2.991-15.566-19.12-76.717-37.716-133.971-14.085-43.366-33.82-73.477-65.345-47.616-38.421,31.516-80.5,108.68-120.606,101.879-15.478-2.625-52.173-23.467-92.316-48.876-28.472-18.022-57.576-36.4-78.7-45.252-101.924-42.73-112.2-5.765-86.825,44.409,9.852,19.475,7.153,40.5-9.06,54.5-28.815,24.889-74.267,30.8-173.878,25.249-14.359-.812-28.383-.325-43.04-1.723-104.806-10-97.428,94.289-222.49,88.917" transform="translate(2.528 27.318)" fill="none" stroke="#3b2a2b" stroke-linecap="round" stroke-linejoin="round" stroke-width="0.531" stroke-dasharray="0 2.574" opacity="0.864"/>
        <path id="Path_4499" data-name="Path 4499" d="M1685.309,150.28c-62.484,14.176-88.754,5.981-112.045-3.13-32.288-12.63-52.955-24.094-81.836-35.493-12.284-4.848-19.973-2.151-21,2.747-6.054,6-.875,22.56-29.72,41.3-22.255,14.46-39.651,28.16-73.544,68.976-29.314,35.3-83.627,60.435-91.865-1.712-2.276-17.182-16.772-81.831-34.907-139.359-14.034-44.521-33.984-74.992-65.7-47.1-38.507,33.858-80.207,115.4-120.9,106.023-15.607-3.6-52.919-26.35-93.06-52.665C931.936,70.99,902.661,52,881.786,43.112,777.657-1.244,768.78,38.269,796.752,91.686c10.905,20.824,8.469,42.958-7.718,58.674-28.709,27.873-79.081,37.9-179.242,31.872-14.453-.882-28.7-.771-43.539-2.425-107.943-12.031-98.858,96.108-223.707,91.8" transform="translate(2.167 24.173)" fill="none" stroke="#3b2a2b" stroke-linecap="round" stroke-linejoin="round" stroke-width="0.496" stroke-dasharray="0 2.574" opacity="0.884"/>
        <path id="Path_4500" data-name="Path 4500" d="M1684.82,158.081c-60.377,13.35-86.6,6.77-109.024-1.639-30.748-11.528-49.647-23.772-78.9-37.092-12.356-5.626-20.652-3.881-23.222.508-7.851,5.5-6.134,21.933-32.635,41.038-21.386,15.419-38.557,31.265-70.561,68.962-30.279,35.661-87.492,60.716-92.961-5.266-1.565-18.885-14.415-86.942-32.1-144.748-13.973-45.678-34.164-76.5-66.054-46.595-38.611,36.213-79.943,122.138-121.189,110.169-15.747-4.569-53.658-29.239-93.8-56.453-29.116-19.736-58.566-39.328-79.2-48.255C778.857-7.3,771.372,34.787,801.933,91.45c11.959,22.169,9.756,45.447-6.375,62.845-28.675,30.93-83.893,44.995-184.605,38.5-14.545-.948-29.021-1.217-44.037-3.123-111.054-14.1-100.288,97.925-224.923,94.686" transform="translate(1.806 21.019)" fill="none" stroke="#3b2a2b" stroke-linecap="round" stroke-linejoin="round" stroke-width="0.461" stroke-dasharray="0 2.574" opacity="0.903"/>
        <path id="Path_4501" data-name="Path 4501" d="M1684.331,165.888c-58.269,12.526-84.437,7.554-106-.149-29.2-10.43-46.365-23.45-75.961-38.69-12.442-6.407-20.833-5-25.443-1.73-8.863,6.3-11.331,21.334-35.55,40.774-20.457,16.421-37.474,34.347-67.58,68.945-31.3,35.968-91.195,60.864-94.056-8.82-.847-20.657-12.051-92.053-29.285-150.136C1236.554,29.244,1216.1-1.93,1184.043,30c-38.73,38.575-79.7,128.875-121.483,114.313-15.892-5.539-54.386-32.13-94.548-60.24-29.428-20.6-59.058-40.8-79.443-49.758-108.5-47.691-114.6-3-81.455,56.906,13.013,23.518,11.024,47.968-5.032,67.02-28.7,34.052-88.709,52.092-189.969,45.119-14.641-1.017-29.337-1.664-44.536-3.823-114.146-16.206-101.719,99.743-226.142,97.57" transform="translate(1.445 17.859)" fill="none" stroke="#3b2a2b" stroke-linecap="round" stroke-linejoin="round" stroke-width="0.425" stroke-dasharray="0 2.574" opacity="0.923"/>
        <path id="Path_4502" data-name="Path 4502" d="M1683.84,173.7c-56.161,11.7-82.274,8.333-102.982,1.342-27.659-9.339-43.111-23.133-73.024-40.288-12.54-7.193-21.756-6.872-27.663-3.97-11.046,5.426-16.457,20.753-38.466,40.51-19.455,17.466-36.4,37.408-64.6,68.93-32.388,36.208-94.751,60.919-95.152-12.375-.122-22.478-9.681-97.163-26.474-155.523-13.812-48-34.553-79.514-66.764-45.574-38.86,40.945-79.479,135.614-121.773,118.46-16.049-6.511-55.109-35.022-95.292-64.031-29.735-21.466-59.55-42.264-79.692-51.258C781.3-19.478,776.477,27.892,812.3,90.995c14.035,24.883,12.282,50.514-3.69,71.192-28.761,37.236-93.523,59.189-195.332,51.742-14.735-1.083-29.647-2.113-45.035-4.522-117.215-18.346-103.149,101.56-227.358,100.454" transform="translate(1.084 14.695)" fill="none" stroke="#3b2a2b" stroke-linecap="round" stroke-linejoin="round" stroke-width="0.39" stroke-dasharray="0 2.574" opacity="0.942"/>
        <path id="Path_4503" data-name="Path 4503" d="M1683.351,181.523c-54.055,10.877-80.111,9.106-99.961,2.833-26.114-8.254-39.877-22.826-70.088-41.888-12.649-7.982-22.575-8.764-29.883-6.207-13.066,4.571-21.5,20.171-41.381,40.245-18.367,18.547-35.329,40.44-61.614,68.914-33.562,36.356-98.18,60.9-96.248-15.929.613-24.338-7.3-102.269-23.664-160.911-13.715-49.16-34.76-81.008-67.118-45.063-39,43.326-79.278,142.349-122.065,122.6-16.215-7.482-55.826-37.914-96.037-67.818-30.035-22.336-60.039-43.737-79.94-52.759C782.55-25.6,779.107,24.416,817.478,90.78c15.1,26.225,13.533,53.089-2.348,75.367-28.853,40.475-98.335,66.284-200.7,58.365-14.829-1.152-29.953-2.564-45.533-5.222C448.641,198.776,464.324,322.669,340.327,322.629" transform="translate(0.722 11.518)" fill="none" stroke="#3b2a2b" stroke-linecap="round" stroke-linejoin="round" stroke-width="0.354" stroke-dasharray="0 2.574" opacity="0.961"/>
        <path id="Path_4504" data-name="Path 4504" d="M1682.86,189.353c-51.945,10.054-77.947,9.872-96.94,4.324-24.568-7.178-36.66-22.527-67.149-43.486-12.766-8.777-23.331-10.654-32.1-8.447-14.984,3.772-26.461,19.576-44.3,39.981-17.18,19.656-34.259,43.446-58.631,68.9-34.842,36.389-101.5,60.838-97.342-19.485,1.355-26.227-4.921-107.371-20.857-166.3-13.606-50.32-34.974-82.5-67.473-44.551-39.153,45.715-79.091,149.078-122.356,126.749-16.386-8.457-56.534-40.808-96.781-71.608C948.6,52.224,918.406,30.223,898.745,21.172c-114.929-52.912-117.007-.225-76.085,69.4,16.173,27.565,14.783,55.686-1.005,79.54C792.689,213.876,718.506,243.5,615.6,235.1a459.131,459.131,0,0,1-46.033-5.921C446.28,206.469,463.556,334.377,339.772,335.4" transform="translate(0.361 8.335)" fill="none" stroke="#3b2a2b" stroke-linecap="round" stroke-linejoin="round" stroke-width="0.319" stroke-dasharray="0 2.574" opacity="0.981"/>
        <path id="Path_4505" data-name="Path 4505" d="M1682.371,197.19c-113.1,20.944-103.152,1.572-158.131-39.271-55.149-40.969-78.541,39.271-137.185,97.915-36.26,36.262-104.722,60.739-98.437-23.039,3.946-52.607-15.709-301.6-85.872-215.727-39.313,48.113-78.921,155.8-122.648,130.894-29.148-16.6-132.977-110.127-177.962-131.156-117.037-54.712-117.768.678-74.294,73.567,53.833,90.257-72.186,185.322-257.615,148.7-126.288-24.937-107.439,107.013-231.01,109.106" transform="translate(0 5.145)" fill="none" stroke="#3b2a2b" stroke-linecap="round" stroke-linejoin="round" stroke-width="0.283" stroke-dasharray="0 2.574"/>
      </g>
      <g id="Mask_Group_47" data-name="Mask Group 47" transform="translate(-8167 3010)" clip-path="url(#clip-path-2)">
        <g id="Mask_Group_45" data-name="Mask Group 45" transform="translate(5040 -15)" clip-path="url(#clip-path-3)">
          <rect id="Rectangle_1675" data-name="Rectangle 1675" width="1440" height="1103" transform="translate(3127 -2638)" fill="url(#linear-gradient-2)"/>
          <rect id="Rectangle_1676" data-name="Rectangle 1676" width="1440" height="1103" transform="translate(3127 -2638)" fill="none"/>
          <rect id="Rectangle_1677" data-name="Rectangle 1677" width="1440" height="1103" transform="translate(3127 -2638)" fill="url(#linear-gradient-3)"/>
          <g id="Mask_Group_44" data-name="Mask Group 44" transform="translate(-12310 -3931)" clip-path="url(#clip-path-4)">
            <g transform="matrix(1, 0, 0, 1, 15437, 1109)" filter="url(#Ellipse_1101)">
              <circle id="Ellipse_1101-2" data-name="Ellipse 1101" cx="836" cy="836" r="836" transform="translate(250 613)" fill="url(#linear-gradient-4)"/>
            </g>
          </g>
        </g>
        <g id="Mask_Group_46" data-name="Mask Group 46" transform="translate(8167 -2729)" opacity="0.16" clip-path="url(#clip-path-5)">
          <g id="Group_3887" data-name="Group 3887" transform="translate(-17134 -1003)">
            <path id="Path_13491" data-name="Path 13491" d="M542.672,336.089H676.123l51.536-70.874H265.081l-51.543,70.874H396.9a136.144,136.144,0,0,1,83.894,72.157H265.081l-51.543,70.865H493.2c-6.609,68.625-64.585,122.461-134.911,122.461H239.054v90.152L495.467,991.947h112.1L364.04,691.725h-5.754c120.057,0,218.484-94.234,225.3-212.613h92.541l51.536-70.865H576.433A225,225,0,0,0,542.672,336.089Z" transform="translate(17099.961 944.285)" fill="#fff" stroke="#fff" stroke-width="50" opacity="0.4"/>
            <path id="Path_13492" data-name="Path 13492" d="M542.672,336.089H676.123l51.536-70.874H265.081l-51.543,70.874H396.9a136.144,136.144,0,0,1,83.894,72.157H265.081l-51.543,70.865H493.2c-6.609,68.625-64.585,122.461-134.911,122.461H239.054v90.152L495.467,991.947h112.1L364.04,691.725h-5.754c120.057,0,218.484-94.234,225.3-212.613h92.541l51.536-70.865H576.433A225,225,0,0,0,542.672,336.089Z" transform="translate(17099.463 944.785)" fill="#fff" opacity="0.4"/>
          </g>
        </g>
      </g>
      <path id="Rectangle_1688" data-name="Rectangle 1688" d="M0,0H1107a70,70,0,0,1,70,70V375a70,70,0,0,1-70,70H0a0,0,0,0,1,0,0V0A0,0,0,0,1,0,0Z" transform="translate(0 173)" fill="url(#linear-gradient-5)"/>
      <rect id="Rectangle_1689" data-name="Rectangle 1689" width="487" height="470" transform="translate(0 151)" fill="url(#linear-gradient-6)"/>
      <g id="Group_4639" data-name="Group 4639" transform="translate(-668.33 337.324)">
        <path id="Path_4473-2" data-name="Path 4473" d="M356.979,35.821c150.36,36.943,148.687-24.27,183.086-26.787,70.618-5.167.654,58.819,32.726,115.4,42.252,74.545,152.356,98.074,202.869,96.451,34.781-1.117,50.8-18.076,60.619-37.695,34.487-68.929,114.154,16.561,139.632,51.1,55.038,74.605,121.738-38.724,140.914-75.186,56.846-108.09,89.6-58.856,124.258-57.058,77.011,3.993-4.422-24.08-37.893-39.616-84.244-39.1,4.236-111.022,99.9-55.117,37.8,22.089,60.284,63.729,156.738,34.449" transform="translate(-332.866 13.196)" fill="none" stroke="#288cb3" stroke-linecap="round" stroke-linejoin="round" stroke-width="1.417" stroke-dasharray="0 2.574" opacity="0.38"/>
        <path id="Path_4474-2" data-name="Path 4474" d="M1459.327,44.179c-94.722,28.6-117.172-11.7-154.255-33.223-57.938-33.671-113.022-20.262-127.7,3.679-9.048,14.762-2.457,33.8,28.389,48.283,31.993,15.128,110.522,42.4,35.5,39.4-33.981-1.359-65.235-47.752-121.8,57.045-9.476,17.555-30.524,50.595-53.021,71.67-26.476,24.8-58.1,36.375-86.484-3.838-9.753-13.816-27-34.157-46.739-49.237-32.734-25.01-71.552-39.107-93.424,1.97-9.978,18.739-26.5,34.594-61.232,34.578-15.794-.007-37.047-2.37-59.815-7.584-37.984-8.7-77.436-22.471-106.732-45.692-13.067-10.406-24.957-22.718-33.949-37.551-32.32-53.3,33.934-114.733-37.137-109.954-9.947.667-16.842,6.249-25.553,12.381-22.931,16.142-51.9,41.669-158.944,16.2" transform="translate(-333.064 14.599)" fill="none" stroke="#288cb3" stroke-linecap="round" stroke-linejoin="round" stroke-width="1.382" stroke-dasharray="0 2.574" opacity="0.399"/>
        <path id="Path_4475-2" data-name="Path 4475" d="M1458.825,46.6c-92.987,27.924-115.4-11.04-151.77-32-56.681-32.746-110.4-20.293-125.281,2.364-9.183,13.976-2.979,32.293,26.561,46.443,30.554,14.635,106.134,41.195,33.1,39.18-33.3-.918-63.181-44.524-119.351,57.032-9.978,18.041-32.649,50.148-53.922,68.747-26.013,22.744-56.617,32.436-84.174-8.269-9.923-14.657-27.16-35.122-47.03-48.816-32.889-22.666-71.434-33.771-93.664,5.377-10.141,17.858-27.178,32.585-61.844,31.464-16.107-.521-37.5-3.4-60.019-8.819-39.931-9.613-78.116-21.658-105.261-42.267-12.213-9.271-23.865-20.338-32.846-34.118C550.753,72.937,613.3,14.024,541.778,18.412c-10.024.611-16.967,6.195-25.963,11.807-25.171,15.7-53.075,43.163-159.946,18.573" transform="translate(-333.263 16)" fill="none" stroke="#288cb3" stroke-linecap="round" stroke-linejoin="round" stroke-width="1.346" stroke-dasharray="0 2.574" opacity="0.419"/>
        <path id="Path_4476-2" data-name="Path 4476" d="M1458.324,49.024c-91.255,27.247-113.633-10.381-149.285-30.771-55.422-31.823-107.764-20.334-122.866,1.049-9.312,13.184-3.516,30.828,24.735,44.6,29.1,14.185,101.737,40,30.7,38.964-32.633-.478-61.238-41.344-116.9,57.019-10.485,18.528-34.737,49.648-54.822,65.824-25.573,20.595-55.094,28.454-81.862-12.7-10.087-15.508-27.3-36.078-47.323-48.4-33.013-20.312-71.312-28.442-93.9,8.786-10.3,16.974-27.869,30.543-62.456,28.348-16.427-1.043-37.956-4.447-60.224-10.053-41.879-10.544-78.769-20.873-103.788-38.842-11.347-8.15-22.769-17.945-31.742-30.687-32.821-46.617,26.017-103.06-45.957-99.061-10.1.555-17.137,6.108-26.373,11.231C488.745,49.6,462.01,79,355.314,55.282" transform="translate(-333.461 17.397)" fill="none" stroke="#288cb3" stroke-linecap="round" stroke-linejoin="round" stroke-width="1.311" stroke-dasharray="0 2.574" opacity="0.438"/>
        <path id="Path_4477-2" data-name="Path 4477" d="M1457.824,51.451c-89.521,26.569-111.864-9.722-146.8-29.545-54.164-30.9-105.122-20.386-120.449-.266C1181.136,34.027,1186.52,51,1213.482,64.4c27.641,13.735,97.334,38.816,28.3,38.746-31.967-.033-59.4-38.209-114.446,57.007-11,19.018-36.774,49.085-55.724,62.9-25.151,18.338-53.532,24.435-79.551-17.13-10.245-16.368-27.421-37.03-47.614-47.977-33.106-17.95-71.187-23.117-94.145,12.2-10.459,16.089-28.568,28.474-63.067,25.232-16.753-1.573-38.406-5.515-60.428-11.287-43.83-11.489-79.424-20.077-102.316-35.417-10.482-7.023-21.666-15.534-30.637-27.254-33.065-43.2,22.057-97.225-50.369-93.615-10.179.5-17.341,5.99-26.783,10.657-29.948,14.8-55.426,46.153-161.947,23.317" transform="translate(-333.659 18.791)" fill="none" stroke="#288cb3" stroke-linecap="round" stroke-linejoin="round" stroke-width="1.276" stroke-dasharray="0 2.574" opacity="0.458"/>
        <path id="Path_4478-2" data-name="Path 4478" d="M1457.322,53.883c-87.788,25.891-110.094-9.062-144.316-28.319C1260.1-4.41,1210.533,5.117,1194.971,23.984c-9.555,11.584-4.587,27.9,21.082,40.919,26.187,13.284,92.923,37.643,25.907,38.53-31.306.413-57.646-35.12-111.993,56.993-11.511,19.511-38.734,48.442-56.625,59.978-24.731,15.946-51.936,20.387-77.239-21.561-10.4-17.236-27.518-37.975-47.905-47.556-33.165-15.589-71.056-17.8-94.385,15.6-10.614,15.2-29.275,26.377-63.679,22.117-17.083-2.115-38.853-6.6-60.633-12.522-45.779-12.449-80.079-19.271-100.843-31.99-9.617-5.891-20.553-13.1-29.533-23.823-33.291-39.729,18.1-91.388-54.779-88.167-10.258.444-17.574,5.84-27.194,10.081C484.694,56.894,460.55,90.231,354.2,68.274" transform="translate(-333.858 20.181)" fill="none" stroke="#288cb3" stroke-linecap="round" stroke-linejoin="round" stroke-width="1.24" stroke-dasharray="0 2.574" opacity="0.477"/>
        <path id="Path_4479-2" data-name="Path 4479" d="M1456.821,56.32c-86.055,25.213-108.325-8.4-141.832-27.093C1263.341.175,1215.181,8.708,1199.37,26.332c-9.668,10.777-5.121,26.43,19.256,39.078,24.734,12.832,88.5,36.483,23.508,38.311-30.648.862-55.978-32.069-109.539,56.981-12.032,20-39.2,50.8-57.527,57.054-21.582,17.433-50.306,16.314-74.928-25.991-10.542-18.113-27.589-38.918-48.2-47.137-33.182-13.232-70.916-12.488-94.624,19.013-10.767,14.309-29.989,24.253-64.291,19-17.418-2.668-39.3-7.7-60.836-13.758-47.729-13.424-80.73-18.448-99.372-28.565-8.752-4.75-19.423-10.654-28.429-20.39-33.486-36.2,14.141-85.553-59.19-82.722-10.334.388-17.829,5.665-27.6,9.507-35.03,13.77-57.779,49.141-163.95,28.06" transform="translate(-334.056 21.566)" fill="none" stroke="#288cb3" stroke-linecap="round" stroke-linejoin="round" stroke-width="1.205" stroke-dasharray="0 2.574" opacity="0.496"/>
        <path id="Path_4480-2" data-name="Path 4480" d="M1456.319,58.751c-84.32,24.536-106.594-7.674-139.347-25.868-50.448-28.021-97.13-20.6-113.2-4.21-9.771,9.966-5.653,24.962,17.43,37.237,23.281,12.381,84.077,35.335,21.11,38.1-30,1.314-54.386-29.059-107.087,56.967-12.555,20.5-41.007,50.77-58.427,54.131-20.684,15.872-48.647,12.217-72.617-30.422-10.679-19-27.634-39.867-48.488-46.716-33.161-10.891-70.771-7.183-94.865,22.422-10.916,13.414-30.706,22.1-64.9,15.885-17.755-3.227-39.738-8.811-61.04-14.992-49.678-14.412-81.375-17.6-97.9-25.139-7.885-3.6-18.274-8.185-27.326-16.959-33.632-32.607,10.182-79.716-63.6-77.274-10.411.333-18.1,5.463-28.013,8.932-37.651,13.175-58.955,50.635-164.95,30.432" transform="translate(-334.255 22.957)" fill="none" stroke="#288cb3" stroke-linecap="round" stroke-linejoin="round" stroke-width="1.169" stroke-dasharray="0 2.574" opacity="0.516"/>
        <path id="Path_4481-2" data-name="Path 4481" d="M1455.818,61.2c-82.588,23.857-104.829-7.007-136.863-24.642-49.2-27.083-94.435-20.694-110.786-5.524-9.864,9.152-6.184,23.492,15.6,35.4,21.833,11.929,79.64,34.2,18.713,37.877-29.354,1.77-52.865-26.082-104.634,56.955-13.086,20.99-42.813,50.737-59.328,51.208-19.788,14.31-46.96,8.1-70.306-34.853-10.809-19.885-27.654-40.825-48.781-46.3-33.1-8.57-70.615-1.883-95.1,25.832-11.062,12.518-31.423,19.928-65.515,12.769-18.1-3.8-40.178-9.935-61.246-16.226-51.624-15.418-82-16.723-96.427-21.715-7.012-2.425-17.1-5.69-26.22-13.526-33.708-28.961,6.223-73.88-68.011-71.829-10.49.277-18.385,5.239-28.424,8.357-40.312,12.521-60.13,52.13-165.951,32.8" transform="translate(-334.453 24.332)" fill="none" stroke="#288cb3" stroke-linecap="round" stroke-linejoin="round" stroke-width="1.134" stroke-dasharray="0 2.574" opacity="0.535"/>
        <path id="Path_4482-2" data-name="Path 4482" d="M1455.318,63.651c-80.854,23.18-103.064-6.339-134.38-23.416-47.945-26.146-91.72-20.793-108.37-6.84-9.946,8.336-6.711,22.021,13.777,33.556,20.386,11.477,75.2,33.086,16.316,37.661-28.716,2.231-51.406-23.14-102.18,56.941-13.621,21.483-44.617,50.7-60.229,48.285-18.891,12.75-45.249,3.967-68-39.283-10.929-20.782-27.649-41.8-49.071-45.877-33-6.283-70.448,3.41-95.344,29.24-11.2,11.622-32.141,17.731-66.127,9.655-18.433-4.381-40.615-11.067-61.45-17.461-53.566-16.439-82.57-15.8-94.955-18.288-6.119-1.23-15.895-3.174-25.117-10.1-33.685-25.276,2.265-68.044-72.422-66.381-10.567.221-18.676,4.995-28.834,7.782-43,11.8-61.306,53.625-166.952,35.175" transform="translate(-334.652 25.7)" fill="none" stroke="#288cb3" stroke-linecap="round" stroke-linejoin="round" stroke-width="1.098" stroke-dasharray="0 2.574" opacity="0.554"/>
        <path id="Path_4483-2" data-name="Path 4483" d="M1454.816,66.112c-79.121,22.5-101.3-5.671-131.894-22.19-46.693-25.21-88.984-20.9-105.955-8.154-10.014,7.52-7.235,20.549,11.951,31.715,18.943,11.025,70.744,31.986,13.918,37.442-28.083,2.7-50.006-20.229-99.727,56.929-14.161,21.974-46.423,50.672-61.131,45.363-17.993,11.189-43.515-.179-65.683-43.714-11.041-21.683-27.624-42.791-49.363-45.456-32.871-4.032-70.269,8.7-95.584,32.649-11.336,10.722-32.856,15.513-66.739,6.538-18.773-4.973-41.049-12.209-61.654-18.7-55.507-17.474-83.032-14.836-93.484-14.863a43.951,43.951,0,0,1-24.013-6.662c-33.535-21.571-1.694-62.209-76.833-60.935-10.644.167-18.974,4.733-29.242,7.207C473.66,74.3,456.9,118.405,351.428,100.833" transform="translate(-334.85 27.06)" fill="none" stroke="#288cb3" stroke-linecap="round" stroke-linejoin="round" stroke-width="1.063" stroke-dasharray="0 2.574" opacity="0.574"/>
        <path id="Path_4484-2" data-name="Path 4484" d="M1454.315,68.583c-77.388,21.825-99.533-5-129.41-20.964-45.44-24.274-86.222-21-103.539-9.468-10.067,6.705-7.753,19.074,10.125,29.872,17.5,10.573,66.283,30.908,11.521,37.226-27.456,3.167-48.659-17.35-97.275,56.916-14.705,22.465-48.226,50.638-62.03,42.44-17.1,9.629-41.762-4.337-63.374-48.146-11.144-22.59-27.582-43.808-49.655-45.037-32.718-1.822-70.073,13.989-95.823,36.058-11.464,9.825-33.569,13.277-67.351,3.424-19.109-5.574-41.481-13.359-61.859-19.931-57.441-18.526-83.295-13.91-92.011-11.436-4.16,1.18-12.558.019-22.909-3.23-29.271-23.82-5.653-56.374-81.242-55.489-10.722.11-19.276,4.456-29.654,6.632-48.454,10.162-63.659,56.614-168.955,39.919" transform="translate(-335.049 28.411)" fill="none" stroke="#288cb3" stroke-linecap="round" stroke-linejoin="round" stroke-width="1.028" stroke-dasharray="0 2.574" opacity="0.593"/>
        <path id="Path_4485-2" data-name="Path 4485" d="M1453.813,71.064c-75.653,21.146-97.767-4.336-126.925-19.738-44.186-23.34-83.433-21.105-101.123-10.783-10.1,5.9-8.269,17.6,8.3,28.033,16.066,10.119,61.815,29.851,9.123,37.008-26.837,3.645-47.36-14.5-94.822,56.9-15.257,22.953-50.03,50.606-62.931,39.517-16.2,8.068-39.988-8.505-61.062-52.577-11.24-23.5-27.529-44.852-49.947-44.616-32.548.341-69.864,19.276-96.065,39.467-11.583,8.926-34.276,11.021-67.962.307-19.445-6.184-41.911-14.514-62.062-21.164-59.373-19.6-83.4-13.22-90.539-8.013-3.079,2.245-11.332,2.3-21.8.2-29.017-20.842-9.612-50.536-85.654-50.041-10.8.054-19.579,4.164-30.064,6.056-51.195,9.237-64.833,58.109-169.955,42.29" transform="translate(-335.247 29.752)" fill="none" stroke="#288cb3" stroke-linecap="round" stroke-linejoin="round" stroke-width="0.992" stroke-dasharray="0 2.574" opacity="0.613"/>
        <path id="Path_4486-2" data-name="Path 4486" d="M1453.312,73.557c-73.921,20.468-96-3.67-124.441-18.512-42.932-22.406-80.621-21.2-98.708-12.1-10.126,5.1-8.778,16.119,6.473,26.192,14.636,9.667,57.339,28.818,6.725,36.791-26.222,4.13-46.106-11.671-92.369,56.89-15.816,23.439-51.836,50.573-63.833,36.594-15.3,6.507-38.2-12.683-58.751-57.007-11.324-24.419-27.472-45.927-50.238-44.2-32.373,2.46-69.638,24.567-96.3,42.875-11.7,8.03-34.981,8.751-68.575-2.808-19.777-6.8-42.339-15.676-62.267-22.4-61.3-20.68-83.663-12.846-89.066-4.586-2.073,3.167-10.106,4.585-20.7,3.634-28.762-17.863-13.57-44.7-90.065-44.6-10.877,0-19.883,3.862-30.473,5.482-53.944,8.245-66.01,59.6-170.957,44.662" transform="translate(-335.446 31.08)" fill="none" stroke="#288cb3" stroke-linecap="round" stroke-linejoin="round" stroke-width="0.957" stroke-dasharray="0 2.574" opacity="0.632"/>
        <path id="Path_4487-2" data-name="Path 4487" d="M1452.81,76.064c-72.186,19.792-94.233-3-121.955-17.285-41.678-21.472-77.782-21.279-96.291-13.412-10.134,4.306-9.281,14.638,4.644,24.35,13.216,9.217,52.858,27.812,4.329,36.574-25.614,4.624-44.894-8.87-89.916,56.879-16.381,23.921-53.64,50.539-64.734,33.668-14.408,4.948-36.389-16.865-56.44-61.436-11.4-25.339-27.415-47.032-50.53-43.777-32.2,4.533-69.392,29.863-96.544,46.284-11.8,7.137-35.679,6.465-69.187-5.923-20.107-7.434-42.766-16.845-62.471-23.634-63.218-21.783-84.285-12.514-87.595-1.161-1.192,4.086-8.88,6.867-19.6,7.066C618.017,99.372,629,75.392,552.05,75.11c-10.954-.057-20.187,3.55-30.884,4.906-56.69,7.186-67.186,61.1-171.958,47.034" transform="translate(-335.644 32.393)" fill="none" stroke="#288cb3" stroke-linecap="round" stroke-linejoin="round" stroke-width="0.921" stroke-dasharray="0 2.574" opacity="0.651"/>
        <path id="Path_4488-2" data-name="Path 4488" d="M1452.31,78.59c-70.453,19.114-92.467-2.336-119.472-16.059-40.422-20.539-74.919-21.336-93.875-14.727-10.129,3.531-9.772,13.155,2.818,22.51,11.8,8.767,48.37,26.834,1.932,36.355-25.011,5.129-43.72-6.092-87.464,56.867-16.952,24.4-55.444,50.506-65.634,30.745-13.511,3.387-34.567-21.055-54.129-65.868-11.465-26.263-27.366-48.166-50.821-43.357-32.034,6.568-69.13,35.17-96.784,49.693-11.9,6.249-36.371,4.165-69.8-9.039-20.432-8.071-43.189-18.017-62.675-24.868-65.13-22.9-85.086-12.032-86.123,2.266-.369,5.073-7.654,9.149-18.493,10.5C623.538,101.7,630.3,80.577,552.905,79.9c-11.032-.113-20.489,3.23-31.294,4.332-59.435,6.06-68.361,62.593-172.958,49.405" transform="translate(-335.843 33.689)" fill="none" stroke="#288cb3" stroke-linecap="round" stroke-linejoin="round" stroke-width="0.886" stroke-dasharray="0 2.574" opacity="0.671"/>
        <path id="Path_4489-2" data-name="Path 4489" d="M1451.809,81.139c-68.72,18.436-90.7-1.671-116.988-14.833-39.166-19.608-72.036-21.367-91.46-16.041-10.111,2.772-10.251,11.671.993,20.668,10.4,8.323,43.876,25.888-.466,36.139-24.413,5.644-42.581-3.338-85.011,56.853-17.533,24.872-57.248,50.474-66.536,27.822-12.613,1.827-32.731-25.248-51.818-70.3C1029,94.257,1013.2,72.12,989.411,78.512c-31.884,8.566-68.852,40.487-97.023,53.1-11.986,5.367-37.057,1.854-70.41-12.154-20.755-8.717-43.614-19.194-62.881-26.1-67.036-24.039-85.9-11.421-84.65,5.69.448,6.117-6.428,11.432-17.388,13.93-28-8.928-25.447-27.193-103.3-28.254-11.109-.168-20.789,2.9-31.7,3.756-62.172,4.872-69.537,64.088-173.959,51.777" transform="translate(-336.041 34.962)" fill="none" stroke="#288cb3" stroke-linecap="round" stroke-linejoin="round" stroke-width="0.85" stroke-dasharray="0 2.574" opacity="0.69"/>
        <path id="Path_4490-2" data-name="Path 4490" d="M1451.307,83.718c-66.986,17.759-88.93-1.007-114.5-13.607-37.909-18.678-69.141-21.364-89.043-17.357-10.087,2.032-10.714,10.187-.834,18.828,9.016,7.884,39.38,24.974-2.863,35.921-23.82,6.173-41.474-.6-82.558,56.841-18.124,25.341-59.054,50.441-67.437,24.9-11.717.266-30.882-29.448-49.506-74.729C1033,86.392,1017.257,64,993.158,72c-31.755,10.536-68.558,45.824-97.263,56.51-12.069,4.494-37.737-.467-71.022-15.269-21.071-9.37-44.035-20.376-63.085-27.338-68.937-25.194-86.693-10.736-83.178,9.116,1.272,7.19-5.2,13.713-16.284,17.362C634.581,106.43,632.92,91.022,554.618,89.57c-11.188-.224-21.086,2.566-32.114,3.182-64.9,3.622-70.714,65.583-174.961,54.149" transform="translate(-336.24 36.204)" fill="none" stroke="#288cb3" stroke-linecap="round" stroke-linejoin="round" stroke-width="0.815" stroke-dasharray="0 2.574" opacity="0.709"/>
        <path id="Path_4491-2" data-name="Path 4491" d="M1450.806,86.34c-65.254,17.08-87.163-.343-112.019-12.381-36.652-17.749-66.238-21.325-86.628-18.671-10.06,1.309-11.157,8.7-2.66,16.986,7.65,7.457,34.884,24.1-5.261,35.7-23.229,6.716-40.4,2.108-80.1,56.827-18.724,25.8-60.858,50.409-68.338,21.977-10.82-1.3-29.021-33.648-47.2-79.16-11.6-29.057-27.3-51.72-51.7-42.1-31.652,12.486-68.254,51.184-97.5,59.92-12.148,3.629-38.409-2.8-71.635-18.386-21.382-10.03-44.454-21.56-63.288-28.572-70.828-26.368-87.449-10.012-81.707,12.541,2.107,8.281-3.976,16-15.181,20.794-27.488-2.97-33.364-15.52-112.118-17.361-11.265-.28-21.381,2.225-32.524,2.607-67.619,2.315-71.89,67.077-175.961,56.521" transform="translate(-336.438 37.404)" fill="none" stroke="#288cb3" stroke-linecap="round" stroke-linejoin="round" stroke-width="0.78" stroke-dasharray="0 2.574" opacity="0.729"/>
        <path id="Path_4492-2" data-name="Path 4492" d="M1450.3,89.415c-63.519,16.4-85.392.319-109.533-11.155-35.394-16.822-63.336-21.246-84.213-19.985-10.033.605-11.572,7.232-4.486,15.145,6.313,7.049,30.387,23.258-7.658,35.486-22.64,7.278-39.348,4.8-77.651,56.815-19.336,26.254-62.662,50.376-69.24,19.054-9.923-2.855-27.149-37.852-44.885-83.591-11.629-29.993-27.318-52.943-51.988-41.677-31.572,14.418-67.943,56.565-97.742,63.328-12.224,2.775-39.073-5.137-72.247-21.5-21.689-10.7-44.872-22.749-63.493-29.807-72.711-27.56-88.177-9.272-80.234,15.968,2.951,9.378-2.751,18.279-14.077,24.226-27.235.008-37.322-9.685-116.529-11.916-11.341-.335-21.67,1.879-32.934,2.032-70.322.952-73.065,68.572-176.962,58.892" transform="translate(-336.637 38.15)" fill="none" stroke="#288cb3" stroke-linecap="round" stroke-linejoin="round" stroke-width="0.744" stroke-dasharray="0 2.574" opacity="0.748"/>
        <path id="Path_4493-2" data-name="Path 4493" d="M1449.8,94.817c-61.787,15.725-83.623.98-107.05-9.929-34.134-15.9-60.441-21.128-81.795-21.3-10.011-.08-11.959,5.783-6.313,13.3,5.009,6.675,25.9,22.46-10.056,35.27-22.051,7.856-38.325,7.476-75.2,56.8-19.959,26.7-64.467,50.342-70.14,16.131-9.027-4.416-25.268-42.057-42.573-88.022-11.647-30.933-27.355-54.177-52.279-41.257-31.519,16.339-67.63,61.975-97.984,66.738-12.3,1.929-39.729-7.486-72.858-24.617-21.99-11.371-45.288-23.94-63.7-31.041-74.587-28.773-88.886-8.523-78.762,19.393,3.8,10.482-1.525,20.561-12.972,27.66-26.981,2.985-41.282-3.85-120.94-6.469-11.42-.391-21.959,1.529-33.345,1.457C450.831,108.47,449.6,179,345.878,170.2" transform="translate(-336.835 36.57)" fill="none" stroke="#288cb3" stroke-linecap="round" stroke-linejoin="round" stroke-width="0.709" stroke-dasharray="0 2.574" opacity="0.767"/>
        <path id="Path_4494-2" data-name="Path 4494" d="M1449.3,100.232c-60.053,15.046-81.853,1.64-104.566-8.7-32.873-14.972-57.565-20.972-79.38-22.615-10-.753-13.631,5.343-8.139,11.463,2.415,6.973,21.412,21.7-12.453,35.052-21.459,8.459-37.324,10.133-72.747,56.789-20.6,27.131-66.271,50.31-71.041,13.208-8.129-5.976-23.375-46.264-40.262-92.452-11.652-31.875-27.411-55.422-52.571-40.838-31.489,18.253-67.319,67.41-98.223,70.147-12.374,1.1-40.379-9.838-73.47-27.733-22.286-12.051-45.7-25.133-63.9-32.275C696.1,32.269,682.97,54.505,695.26,85.093c4.655,11.587-.3,22.843-11.868,31.09-26.726,5.965-45.24,1.988-125.35-1.022-11.5-.447-22.241,1.176-33.754.882-75.683-1.929-75.418,71.561-178.965,63.636" transform="translate(-337.034 34.977)" fill="none" stroke="#288cb3" stroke-linecap="round" stroke-linejoin="round" stroke-width="0.673" stroke-dasharray="0 2.574" opacity="0.787"/>
        <path id="Path_4495-2" data-name="Path 4495" d="M1448.8,105.671c-58.319,14.369-80.081,2.3-102.08-7.478-31.613-14.05-54.707-20.783-76.965-23.93-9.99-1.412-14.191,3.922-9.965,9.624.937,6.564,16.94,20.988-14.851,34.834-20.861,9.085-36.347,12.772-70.293,56.776-21.255,27.551-68.076,50.277-71.943,10.284-7.232-7.536-21.474-50.47-37.95-96.882-11.651-32.818-27.487-56.67-52.863-40.418-31.485,20.166-67.018,72.87-98.463,73.556-12.453.272-41.021-12.2-74.083-30.847-22.575-12.737-46.116-26.33-64.105-33.511-78.31-31.257-90.264-7.013-75.819,26.244,5.515,12.693.927,25.125-10.763,34.524-26.47,8.942-49.2,7.822-129.76,4.424-11.576-.5-22.522.817-34.165.307-78.336-3.441-76.594,73.056-179.965,66.007" transform="translate(-337.232 33.36)" fill="none" stroke="#288cb3" stroke-linecap="round" stroke-linejoin="round" stroke-width="0.638" stroke-dasharray="0 2.574" opacity="0.806"/>
        <path id="Path_4496-2" data-name="Path 4496" d="M1448.3,111.205c-56.587,13.691-78.31,2.957-99.6-6.252-30.349-13.129-51.875-20.566-74.548-25.244-10-2.062-14.749,2.5-11.792,7.782-.542,6.157,12.486,20.318-17.248,34.617-20.25,9.739-35.385,15.394-67.839,56.764-21.931,27.954-69.881,50.244-72.844,7.361-6.336-9.1-19.566-54.677-35.64-101.313-11.637-33.765-27.579-57.922-53.154-40-31.5,22.078-66.728,78.353-98.7,76.965-12.539-.546-41.656-14.56-74.695-33.964C819.379,74.5,795.711,60.395,777.931,53.178c-80.158-32.529-90.94-6.256-74.347,29.67,6.375,13.8,3.606,29.3-9.659,37.954-24.123,15.73-53.156,13.659-134.171,9.871-11.652-.557-22.8.459-34.575-.267-80.972-5-77.77,74.551-180.966,68.379" transform="translate(-337.431 31.647)" fill="none" stroke="#288cb3" stroke-linecap="round" stroke-linejoin="round" stroke-width="0.602" stroke-dasharray="0 2.574" opacity="0.826"/>
        <path id="Path_4497-2" data-name="Path 4497" d="M1447.8,116.745c-54.852,13.013-76.537,3.613-97.111-5.026-29.085-12.213-49.071-20.329-72.133-26.559-10.019-2.707-15.307,1.075-13.618,5.941-2.02,5.749,8.053,19.689-19.646,34.4-19.625,10.424-34.445,18-65.387,56.75-22.627,28.337-71.684,50.212-73.744,4.438-5.439-10.657-17.649-58.883-33.329-105.744-11.614-34.712-27.688-59.173-53.446-39.576-31.54,24-66.453,83.856-98.943,80.372-12.63-1.354-42.285-16.926-75.307-37.079C822,70.542,798.2,55.933,780.621,48.682c-81.993-33.823-91.608-5.5-72.874,33.1,7.237,14.909,4.767,31.3-8.554,41.388-23.862,18.072-57.117,19.495-138.583,15.318-11.73-.614-23.071.1-34.985-.843-83.59-6.592-78.945,76.045-181.966,70.751" transform="translate(-337.629 29.928)" fill="none" stroke="#288cb3" stroke-linecap="round" stroke-linejoin="round" stroke-width="0.567" stroke-dasharray="0 2.574" opacity="0.845"/>
        <path id="Path_4498-2" data-name="Path 4498" d="M1447.3,122.29c-53.12,12.335-74.764,4.267-94.627-3.8-27.821-11.3-46.3-20.076-69.718-27.874-10.053-3.348-15.866-.346-15.444,4.1-3.5,5.342,3.649,19.1-22.043,34.183-18.979,11.14-33.519,20.587-62.934,56.738-23.351,28.7-65.46,49.319-74.646,1.515-2.46-12.8-15.724-63.09-31.017-110.174-11.583-35.663-27.813-60.425-53.738-39.158-31.6,25.918-66.2,89.376-99.183,83.782-12.729-2.159-42.905-19.3-75.918-40.194-23.414-14.821-47.349-29.932-64.719-37.214-83.819-35.14-92.273-4.741-71.4,36.521,8.1,16.016,5.882,33.3-7.451,44.818C680.762,146,643.384,150.863,561.467,146.3c-11.808-.668-23.341-.267-35.4-1.417C439.882,136.652,445.949,222.419,343.1,218" transform="translate(-337.828 28.205)" fill="none" stroke="#288cb3" stroke-linecap="round" stroke-linejoin="round" stroke-width="0.531" stroke-dasharray="0 2.574" opacity="0.864"/>
        <path id="Path_4499-2" data-name="Path 4499" d="M1446.8,127.84c-51.385,11.658-72.988,4.919-92.142-2.574-26.553-10.387-43.549-19.814-67.3-29.188-10.1-3.987-16.426-1.769-17.271,2.259-4.978,4.933-.719,18.553-24.441,33.966-18.3,11.891-32.608,23.158-60.481,56.724-24.107,29.031-68.773,49.7-75.547-1.408-1.872-14.13-13.793-67.3-28.706-114.605-11.541-36.613-27.947-61.671-54.03-38.738-31.667,27.844-65.96,94.905-99.422,87.19-12.835-2.958-43.519-21.67-76.53-43.31C827.244,62.633,803.168,47.02,786,39.708c-85.633-36.477-92.933-3.983-69.93,39.946,8.968,17.125,6.964,35.327-6.347,48.252-23.61,22.922-65.034,31.166-147.4,26.211-11.886-.725-23.606-.634-35.805-1.994-88.769-9.894-81.3,79.036-183.97,75.5" transform="translate(-338.026 26.477)" fill="none" stroke="#288cb3" stroke-linecap="round" stroke-linejoin="round" stroke-width="0.496" stroke-dasharray="0 2.574" opacity="0.884"/>
        <path id="Path_4500-2" data-name="Path 4500" d="M1446.3,133.394c-49.653,10.979-71.214,5.567-89.658-1.348-25.287-9.48-40.828-19.549-64.885-30.5-10.161-4.627-16.983-3.192-19.1.418-6.457,4.526-5.045,18.037-26.838,33.748-17.588,12.68-31.708,25.711-58.027,56.712-24.9,29.327-71.951,49.931-76.449-4.331-1.287-15.531-11.854-71.5-26.394-119.036-11.491-37.565-28.1-62.915-54.321-38.318-31.753,29.78-65.743,100.443-99.662,90.6-12.95-3.758-44.127-24.046-77.142-46.426-23.944-16.23-48.163-32.342-65.128-39.684C701.257-2.611,695.1,32,720.234,78.6c9.835,18.231,8.023,37.374-5.243,51.682-23.581,25.436-68.991,37-151.814,31.658-11.962-.779-23.866-1-36.215-2.569-91.328-11.6-82.474,80.531-184.97,77.867" transform="translate(-338.225 24.745)" fill="none" stroke="#288cb3" stroke-linecap="round" stroke-linejoin="round" stroke-width="0.461" stroke-dasharray="0 2.574" opacity="0.903"/>
        <path id="Path_4501-2" data-name="Path 4501" d="M1445.794,138.952c-47.919,10.3-69.438,6.212-87.175-.122-24.017-8.577-38.129-19.285-62.468-31.818-10.232-5.269-17.133-4.115-20.923-1.423-7.289,5.178-9.318,17.544-29.236,33.531-16.823,13.5-30.817,28.246-55.576,56.7-25.739,29.579-75,50.053-77.349-7.254-.7-16.988-9.911-75.7-24.084-123.467-11.428-38.518-28.25-64.154-54.612-37.9-31.851,31.723-65.545,105.983-99.9,94.008-13.07-4.555-44.726-26.423-77.753-49.54-24.2-16.94-48.568-33.55-65.331-40.919-89.225-39.219-94.247-2.468-66.986,46.8,10.7,19.34,9.066,39.448-4.138,55.115-23.6,28-72.951,42.839-156.225,37.1-12.04-.836-24.126-1.368-36.625-3.144-93.871-13.327-83.651,82.026-185.972,80.239" transform="translate(-338.423 23.008)" fill="none" stroke="#288cb3" stroke-linecap="round" stroke-linejoin="round" stroke-width="0.425" stroke-dasharray="0 2.574" opacity="0.923"/>
        <path id="Path_4502-2" data-name="Path 4502" d="M1445.292,144.512c-46.185,9.624-67.66,6.853-84.689,1.1-22.746-7.68-35.453-19.024-60.053-33.132-10.312-5.915-17.892-5.652-22.749-3.265-9.084,4.462-13.534,17.066-31.633,33.314-16,14.363-29.934,30.763-53.122,56.686-26.635,29.776-77.92,50.1-78.25-10.177-.1-18.485-7.961-79.9-21.772-127.9-11.359-39.473-28.416-65.39-54.9-37.479-31.958,33.672-65.361,111.525-100.143,97.418-13.2-5.354-45.321-28.8-78.366-52.657-24.453-17.653-48.972-34.757-65.536-42.153-91-40.626-94.97-1.67-65.513,50.224,11.542,20.463,10.1,41.541-3.034,58.546-23.652,30.622-76.91,48.675-160.636,42.551-12.118-.891-24.381-1.738-37.035-3.718-96.394-15.087-84.826,83.52-186.973,82.611" transform="translate(-338.622 21.269)" fill="none" stroke="#288cb3" stroke-linecap="round" stroke-linejoin="round" stroke-width="0.39" stroke-dasharray="0 2.574" opacity="0.942"/>
        <path id="Path_4503-2" data-name="Path 4503" d="M1444.791,150.079c-44.453,8.945-65.881,7.488-82.2,2.33-21.476-6.788-32.794-18.771-57.638-34.448-10.4-6.564-18.565-7.207-24.575-5.1-10.745,3.759-17.684,16.588-34.031,33.1-15.1,15.253-29.054,33.257-50.669,56.673-27.6,29.9-80.74,50.084-79.152-13.1.5-20.015-6.006-84.1-19.461-132.328-11.279-40.428-28.585-66.618-55.2-37.058-32.075,35.63-65.2,117.064-100.383,100.826-13.334-6.153-45.91-31.18-78.978-55.771-24.7-18.368-49.374-35.968-65.74-43.387-92.766-42.058-95.6-.929-64.042,53.648,12.421,21.567,11.129,43.659-1.93,61.979-23.728,33.285-80.868,54.51-165.046,48-12.2-.948-24.632-2.108-37.445-4.294-98.9-16.871-86,85.015-187.973,84.982" transform="translate(-338.82 19.524)" fill="none" stroke="#288cb3" stroke-linecap="round" stroke-linejoin="round" stroke-width="0.354" stroke-dasharray="0 2.574" opacity="0.961"/>
        <path id="Path_4504-2" data-name="Path 4504" d="M1444.289,155.65c-42.718,8.268-64.1,8.118-79.721,3.556-20.2-5.9-30.148-18.526-55.221-35.762-10.5-7.218-19.187-8.762-26.4-6.947-12.323,3.1-21.761,16.1-36.428,32.88-14.128,16.165-28.174,35.729-48.216,56.66-28.653,29.925-83.469,50.031-80.052-16.024,1.114-21.568-4.047-88.3-17.152-136.758-11.189-41.382-28.762-67.843-55.488-36.637-32.2,37.594-65.042,122.6-100.622,104.234C931.513,113.9,898.5,87.292,865.4,61.964c-24.942-19.085-49.775-37.178-65.944-44.621-94.514-43.514-96.223-.185-62.57,57.074,13.3,22.669,12.157,45.794-.827,65.411-23.82,35.988-84.826,60.346-169.456,53.444a377.57,377.57,0,0,1-37.856-4.87c-101.385-18.678-87.178,86.51-188.974,87.354" transform="translate(-339.019 17.775)" fill="none" stroke="#288cb3" stroke-linecap="round" stroke-linejoin="round" stroke-width="0.319" stroke-dasharray="0 2.574" opacity="0.981"/>
        <path id="Path_4505-2" data-name="Path 4505" d="M1443.789,161.224c-93.01,17.224-84.829,1.292-130.043-32.3-45.353-33.691-64.59,32.3-112.817,80.523-29.819,29.821-86.12,49.95-80.952-18.947,3.245-43.262-12.919-248.025-70.619-177.407-32.33,39.567-64.9,128.127-100.862,107.643C924.525,107.086,839.139,30.176,802.145,12.881c-96.248-44.993-96.849.558-61.1,60.5,44.271,74.225-59.363,152.4-211.855,122.29-103.856-20.508-88.355,88-189.976,89.726" transform="translate(-339.217 16.023)" fill="none" stroke="#288cb3" stroke-linecap="round" stroke-linejoin="round" stroke-width="0.283" stroke-dasharray="0 2.574"/>
      </g>
    </g>
  </g>
</svg>
